<svg width="72" height="72" viewBox="0 0 72 72" fill="none" xmlns="http://www.w3.org/2000/svg">
<mask id="path-1-outside-1_484_11079" maskUnits="userSpaceOnUse" x="6" y="17" width="57" height="39" fill="black">
<rect fill="white" x="6" y="17" width="57" height="39"/>
<path d="M21.3381 51.554C18.9991 51.554 16.9915 50.9621 15.3153 49.7784C13.6487 48.5852 12.3655 46.8665 11.4659 44.6222C10.5758 42.3684 10.1307 39.6553 10.1307 36.483C10.1402 33.3106 10.59 30.6117 11.4801 28.3864C12.3797 26.1515 13.6629 24.447 15.3295 23.2727C17.0057 22.0985 19.0085 21.5114 21.3381 21.5114C23.6676 21.5114 25.6705 22.0985 27.3466 23.2727C29.0227 24.447 30.3059 26.1515 31.196 28.3864C32.0956 30.6212 32.5455 33.3201 32.5455 36.483C32.5455 39.6648 32.0956 42.3826 31.196 44.6364C30.3059 46.8807 29.0227 48.5947 27.3466 49.7784C25.6799 50.9621 23.6771 51.554 21.3381 51.554ZM21.3381 47.108C23.1563 47.108 24.5909 46.2131 25.642 44.4233C26.7027 42.6241 27.233 39.9773 27.233 36.483C27.233 34.1723 26.9915 32.2311 26.5085 30.6591C26.0256 29.0871 25.3438 27.9034 24.4631 27.108C23.5824 26.303 22.5407 25.9006 21.3381 25.9006C19.5294 25.9006 18.0994 26.8002 17.0483 28.5994C15.9972 30.3892 15.4669 33.017 15.4574 36.483C15.4479 38.803 15.6799 40.7538 16.1534 42.3352C16.6364 43.9167 17.3182 45.1098 18.1989 45.9148C19.0795 46.7102 20.1259 47.108 21.3381 47.108ZM59.0192 21.9091V51H53.7493V27.0369H53.5788L46.7749 31.3835V26.554L54.005 21.9091H59.0192Z"/>
</mask>
<path d="M15.3153 49.7784L13.2023 52.73L13.2118 52.7368L13.2213 52.7435L15.3153 49.7784ZM11.4659 44.6222L8.0897 45.9556L8.09309 45.9642L8.09652 45.9728L11.4659 44.6222ZM10.1307 36.483L6.50068 36.4721V36.483H10.1307ZM11.4801 28.3864L8.1127 27.0308L8.10974 27.0382L11.4801 28.3864ZM15.3295 23.2727L13.2467 20.2997L13.2388 20.3053L15.3295 23.2727ZM27.3466 23.2727L25.2638 26.2457L25.2638 26.2458L27.3466 23.2727ZM31.196 28.3864L27.8237 29.7296L27.8286 29.7419L31.196 28.3864ZM31.196 44.6364L27.8247 43.2907L27.8217 43.298L31.196 44.6364ZM27.3466 49.7784L25.2526 46.8133L25.2447 46.8189L27.3466 49.7784ZM25.642 44.4233L22.5149 42.5799L22.5119 42.585L25.642 44.4233ZM26.5085 30.6591L29.9785 29.593L29.9785 29.593L26.5085 30.6591ZM24.4631 27.108L22.0141 29.7874L22.022 29.7946L22.0299 29.8018L24.4631 27.108ZM17.0483 28.5994L20.1784 30.4377L20.1826 30.4305L17.0483 28.5994ZM15.4574 36.483L19.0874 36.4978L19.0874 36.4929L15.4574 36.483ZM16.1534 42.3352L12.6759 43.3764L12.6788 43.3859L12.6817 43.3955L16.1534 42.3352ZM18.1989 45.9148L15.7499 48.5942L15.7578 48.6014L15.7657 48.6086L18.1989 45.9148ZM21.3381 47.924C19.6402 47.924 18.3897 47.5056 17.4094 46.8133L13.2213 52.7435C15.5933 54.4187 18.3579 55.184 21.3381 55.184V47.924ZM17.4284 46.8268C16.4192 46.1043 15.5244 44.9906 14.8353 43.2716L8.09652 45.9728C9.20671 48.7424 10.8782 51.0662 13.2023 52.73L17.4284 46.8268ZM14.8421 43.2887C14.1627 41.5684 13.7607 39.3327 13.7607 36.483H6.50068C6.50068 39.9779 6.98884 43.1683 8.0897 45.9556L14.8421 43.2887ZM13.7607 36.4938C13.7692 33.6394 14.1758 31.4213 14.8505 29.7345L8.10974 27.0382C7.00415 29.8022 6.51112 32.9818 6.5007 36.4721L13.7607 36.4938ZM14.8475 29.7419C15.5341 28.0363 16.4228 26.9429 17.4203 26.2402L13.2388 20.3053C10.9029 21.951 9.22537 24.2667 8.1127 27.0308L14.8475 29.7419ZM17.4123 26.2457C18.3961 25.5566 19.6469 25.1414 21.3381 25.1414V17.8814C18.3701 17.8814 15.6153 18.6404 13.2467 20.2997L17.4123 26.2457ZM21.3381 25.1414C23.0292 25.1414 24.2801 25.5566 25.2638 26.2457L29.4294 20.2997C27.0609 18.6404 24.306 17.8814 21.3381 17.8814V25.1414ZM25.2638 26.2458C26.2648 26.947 27.1485 28.0345 27.8237 29.7296L34.5684 27.0431C33.4632 24.2686 31.7807 21.9469 29.4294 20.2997L25.2638 26.2458ZM27.8286 29.7419C28.5098 31.4342 28.9155 33.6467 28.9155 36.483H36.1755C36.1755 32.9935 35.6815 29.8083 34.5634 27.0308L27.8286 29.7419ZM28.9155 36.483C28.9155 39.3399 28.5093 41.5754 27.8247 43.2907L34.5674 45.9821C35.6819 43.1898 36.1755 39.9896 36.1755 36.483H28.9155ZM27.8217 43.298C27.1446 45.0052 26.2576 46.1035 25.2526 46.8133L29.4406 52.7435C31.7879 51.0859 33.4671 48.7562 34.5703 45.9747L27.8217 43.298ZM25.2447 46.8189C24.2779 47.5055 23.0365 47.924 21.3381 47.924V55.184C24.3177 55.184 27.0819 54.4188 29.4485 52.7379L25.2447 46.8189ZM21.3381 50.738C24.6474 50.738 27.1795 48.9735 28.7721 46.2616L22.5119 42.585C22.0024 43.4526 21.6651 43.478 21.3381 43.478V50.738ZM28.7692 46.2667C30.3116 43.65 30.863 40.2386 30.863 36.483H23.603C23.603 39.716 23.0937 41.5981 22.5149 42.5799L28.7692 46.2667ZM30.863 36.483C30.863 33.9452 30.6008 31.6187 29.9785 29.593L23.0386 31.7252C23.3822 32.8434 23.603 34.3995 23.603 36.483H30.863ZM29.9785 29.593C29.3741 27.6259 28.4156 25.7864 26.8962 24.4141L22.0299 29.8018C22.2719 30.0204 22.6771 30.5484 23.0386 31.7252L29.9785 29.593ZM26.912 24.4285C25.3564 23.0067 23.439 22.2706 21.3381 22.2706V29.5306C21.6424 29.5306 21.8084 29.5994 22.0141 29.7874L26.912 24.4285ZM21.3381 22.2706C18.021 22.2706 15.4978 24.0572 13.914 26.7683L20.1826 30.4305C20.701 29.5432 21.0377 29.5306 21.3381 29.5306V22.2706ZM13.9182 26.7611C12.3911 29.3614 11.8376 32.7461 11.8274 36.473L19.0874 36.4929C19.0961 33.288 19.6032 31.4171 20.1784 30.4377L13.9182 26.7611ZM11.8274 36.4681C11.817 39.013 12.0677 41.3449 12.6759 43.3764L19.6309 41.2941C19.2921 40.1626 19.0788 38.5931 19.0874 36.4978L11.8274 36.4681ZM12.6817 43.3955C13.2845 45.3692 14.239 47.2133 15.7499 48.5942L20.6478 43.2353C20.3973 43.0064 19.9883 42.4641 19.6251 41.275L12.6817 43.3955ZM15.7657 48.6086C17.3291 50.0207 19.2482 50.738 21.3381 50.738V43.478C21.0037 43.478 20.83 43.3997 20.632 43.2209L15.7657 48.6086ZM59.0192 21.9091H62.6492V18.2791H59.0192V21.9091ZM59.0192 51V54.63H62.6492V51H59.0192ZM53.7493 51H50.1193V54.63H53.7493V51ZM53.7493 27.0369H57.3793V23.4069H53.7493V27.0369ZM53.5788 27.0369V23.4069H52.5183L51.6246 23.9779L53.5788 27.0369ZM46.7749 31.3835H43.1449V38.01L48.7291 34.4426L46.7749 31.3835ZM46.7749 26.554L44.8128 23.4999L43.1449 24.5715V26.554H46.7749ZM54.005 21.9091V18.2791H52.9394L52.0429 18.855L54.005 21.9091ZM55.3892 21.9091V51H62.6492V21.9091H55.3892ZM59.0192 47.37H53.7493V54.63H59.0192V47.37ZM57.3793 51V27.0369H50.1193V51H57.3793ZM53.7493 23.4069H53.5788V30.6669H53.7493V23.4069ZM51.6246 23.9779L44.8206 28.3245L48.7291 34.4426L55.5331 30.096L51.6246 23.9779ZM50.4049 31.3835V26.554H43.1449V31.3835H50.4049ZM48.7369 29.608L55.967 24.9632L52.0429 18.855L44.8128 23.4999L48.7369 29.608ZM54.005 25.5391H59.0192V18.2791H54.005V25.5391Z" fill="white" fill-opacity="0.5" mask="url(#path-1-outside-1_484_11079)"/>
</svg>
