<svg width="72" height="72" viewBox="0 0 72 72" fill="none" xmlns="http://www.w3.org/2000/svg">
<mask id="path-1-outside-1_484_11080" maskUnits="userSpaceOnUse" x="3" y="17" width="65" height="39" fill="black">
<rect fill="white" x="3" y="17" width="65" height="39"/>
<path d="M18.3381 51.554C15.9991 51.554 13.9915 50.9621 12.3153 49.7784C10.6487 48.5852 9.36553 46.8665 8.46591 44.6222C7.57576 42.3684 7.13068 39.6553 7.13068 36.483C7.14015 33.3106 7.58996 30.6117 8.48011 28.3864C9.37973 26.1515 10.6629 24.447 12.3295 23.2727C14.0057 22.0985 16.0085 21.5114 18.3381 21.5114C20.6676 21.5114 22.6705 22.0985 24.3466 23.2727C26.0227 24.447 27.3059 26.1515 28.196 28.3864C29.0956 30.6212 29.5455 33.3201 29.5455 36.483C29.5455 39.6648 29.0956 42.3826 28.196 44.6364C27.3059 46.8807 26.0227 48.5947 24.3466 49.7784C22.6799 50.9621 20.6771 51.554 18.3381 51.554ZM18.3381 47.108C20.1563 47.108 21.5909 46.2131 22.642 44.4233C23.7027 42.6241 24.233 39.9773 24.233 36.483C24.233 34.1723 23.9915 32.2311 23.5085 30.6591C23.0256 29.0871 22.3438 27.9034 21.4631 27.108C20.5824 26.303 19.5407 25.9006 18.3381 25.9006C16.5294 25.9006 15.0994 26.8002 14.0483 28.5994C12.9972 30.3892 12.4669 33.017 12.4574 36.483C12.4479 38.803 12.6799 40.7538 13.1534 42.3352C13.6364 43.9167 14.3182 45.1098 15.1989 45.9148C16.0795 46.7102 17.1259 47.108 18.3381 47.108ZM44.1868 51V47.1932L54.2862 37.2926C55.2521 36.3172 56.0571 35.4508 56.701 34.6932C57.3449 33.9356 57.8279 33.2017 58.1499 32.4915C58.4718 31.7812 58.6328 31.0237 58.6328 30.2188C58.6328 29.3002 58.4245 28.5142 58.0078 27.8608C57.5911 27.1979 57.0182 26.6866 56.2891 26.3267C55.5599 25.9669 54.7313 25.7869 53.8033 25.7869C52.8468 25.7869 52.0088 25.9858 51.2891 26.3835C50.5694 26.7718 50.0107 27.3258 49.6129 28.0455C49.2247 28.7652 49.0305 29.6222 49.0305 30.6165H44.0163C44.0163 28.7699 44.4377 27.1648 45.2805 25.8011C46.1233 24.4375 47.2834 23.3816 48.7607 22.6335C50.2474 21.8854 51.9519 21.5114 53.8743 21.5114C55.825 21.5114 57.5391 21.8759 59.0163 22.6051C60.4936 23.3343 61.6394 24.3333 62.4538 25.6023C63.2777 26.8712 63.6896 28.3201 63.6896 29.9489C63.6896 31.0379 63.4813 32.108 63.0646 33.1591C62.648 34.2102 61.9141 35.375 60.8629 36.6534C59.8213 37.9318 58.3582 39.4801 56.4737 41.2983L51.4595 46.3977V46.5966H64.13V51H44.1868Z"/>
</mask>
<path d="M12.3153 49.7784L10.2023 52.73L10.2118 52.7368L10.2213 52.7435L12.3153 49.7784ZM8.46591 44.6222L5.0897 45.9556L5.09309 45.9642L5.09652 45.9728L8.46591 44.6222ZM7.13068 36.483L3.50068 36.4721V36.483H7.13068ZM8.48011 28.3864L5.1127 27.0308L5.10974 27.0382L8.48011 28.3864ZM12.3295 23.2727L10.2467 20.2997L10.2388 20.3053L12.3295 23.2727ZM24.3466 23.2727L22.2638 26.2457L22.2638 26.2458L24.3466 23.2727ZM28.196 28.3864L24.8237 29.7296L24.8286 29.7419L28.196 28.3864ZM28.196 44.6364L24.8247 43.2907L24.8217 43.298L28.196 44.6364ZM24.3466 49.7784L22.2526 46.8133L22.2447 46.8189L24.3466 49.7784ZM22.642 44.4233L19.5149 42.5799L19.5119 42.585L22.642 44.4233ZM23.5085 30.6591L26.9785 29.593L26.9785 29.593L23.5085 30.6591ZM21.4631 27.108L19.0141 29.7874L19.022 29.7946L19.0299 29.8018L21.4631 27.108ZM14.0483 28.5994L17.1784 30.4377L17.1826 30.4305L14.0483 28.5994ZM12.4574 36.483L16.0874 36.4978L16.0874 36.4929L12.4574 36.483ZM13.1534 42.3352L9.67593 43.3764L9.67878 43.3859L9.68169 43.3955L13.1534 42.3352ZM15.1989 45.9148L12.7499 48.5942L12.7578 48.6014L12.7657 48.6086L15.1989 45.9148ZM18.3381 47.924C16.6402 47.924 15.3897 47.5056 14.4094 46.8133L10.2213 52.7435C12.5933 54.4187 15.3579 55.184 18.3381 55.184V47.924ZM14.4284 46.8268C13.4192 46.1043 12.5244 44.9906 11.8353 43.2716L5.09652 45.9728C6.20671 48.7424 7.87818 51.0662 10.2023 52.73L14.4284 46.8268ZM11.8421 43.2887C11.1627 41.5684 10.7607 39.3327 10.7607 36.483H3.50068C3.50068 39.9779 3.98884 43.1683 5.0897 45.9556L11.8421 43.2887ZM10.7607 36.4938C10.7692 33.6394 11.1758 31.4213 11.8505 29.7345L5.10974 27.0382C4.00415 29.8022 3.51112 32.9818 3.5007 36.4721L10.7607 36.4938ZM11.8475 29.7419C12.5341 28.0363 13.4228 26.9429 14.4203 26.2402L10.2388 20.3053C7.90294 21.951 6.22537 24.2667 5.1127 27.0308L11.8475 29.7419ZM14.4123 26.2457C15.3961 25.5566 16.6469 25.1414 18.3381 25.1414V17.8814C15.3701 17.8814 12.6153 18.6404 10.2467 20.2997L14.4123 26.2457ZM18.3381 25.1414C20.0292 25.1414 21.2801 25.5566 22.2638 26.2457L26.4294 20.2997C24.0609 18.6404 21.306 17.8814 18.3381 17.8814V25.1414ZM22.2638 26.2458C23.2648 26.947 24.1485 28.0345 24.8237 29.7296L31.5684 27.0431C30.4632 24.2686 28.7807 21.9469 26.4294 20.2997L22.2638 26.2458ZM24.8286 29.7419C25.5098 31.4342 25.9155 33.6467 25.9155 36.483H33.1755C33.1755 32.9935 32.6815 29.8083 31.5634 27.0308L24.8286 29.7419ZM25.9155 36.483C25.9155 39.3399 25.5093 41.5754 24.8247 43.2907L31.5674 45.9821C32.6819 43.1898 33.1755 39.9896 33.1755 36.483H25.9155ZM24.8217 43.298C24.1446 45.0052 23.2576 46.1035 22.2526 46.8133L26.4406 52.7435C28.7879 51.0859 30.4671 48.7562 31.5703 45.9747L24.8217 43.298ZM22.2447 46.8189C21.2779 47.5055 20.0365 47.924 18.3381 47.924V55.184C21.3177 55.184 24.0819 54.4188 26.4485 52.7379L22.2447 46.8189ZM18.3381 50.738C21.6474 50.738 24.1795 48.9735 25.7721 46.2616L19.5119 42.585C19.0024 43.4526 18.6651 43.478 18.3381 43.478V50.738ZM25.7692 46.2667C27.3116 43.65 27.863 40.2386 27.863 36.483H20.603C20.603 39.716 20.0937 41.5981 19.5149 42.5799L25.7692 46.2667ZM27.863 36.483C27.863 33.9452 27.6008 31.6187 26.9785 29.593L20.0386 31.7252C20.3822 32.8434 20.603 34.3995 20.603 36.483H27.863ZM26.9785 29.593C26.3741 27.6259 25.4156 25.7864 23.8962 24.4141L19.0299 29.8018C19.2719 30.0204 19.6771 30.5484 20.0386 31.7252L26.9785 29.593ZM23.912 24.4285C22.3564 23.0067 20.439 22.2706 18.3381 22.2706V29.5306C18.6424 29.5306 18.8084 29.5994 19.0141 29.7874L23.912 24.4285ZM18.3381 22.2706C15.021 22.2706 12.4978 24.0572 10.914 26.7683L17.1826 30.4305C17.701 29.5432 18.0377 29.5306 18.3381 29.5306V22.2706ZM10.9182 26.7611C9.39108 29.3614 8.83758 32.7461 8.8274 36.473L16.0874 36.4929C16.0961 33.288 16.6032 31.4171 17.1784 30.4377L10.9182 26.7611ZM8.82742 36.4681C8.81703 39.013 9.06771 41.3449 9.67593 43.3764L16.6309 41.2941C16.2921 40.1626 16.0788 38.5931 16.0874 36.4978L8.82742 36.4681ZM9.68169 43.3955C10.2845 45.3692 11.239 47.2133 12.7499 48.5942L17.6478 43.2353C17.3973 43.0064 16.9883 42.4641 16.6251 41.275L9.68169 43.3955ZM12.7657 48.6086C14.3291 50.0207 16.2482 50.738 18.3381 50.738V43.478C18.0037 43.478 17.83 43.3997 17.632 43.2209L12.7657 48.6086ZM44.1868 51H40.5568V54.63H44.1868V51ZM44.1868 47.1932L41.6456 44.601L40.5568 45.6684V47.1932H44.1868ZM54.2862 37.2926L56.8274 39.8848L56.8466 39.866L56.8655 39.8469L54.2862 37.2926ZM58.1499 32.4915L61.456 33.9903L61.456 33.9903L58.1499 32.4915ZM58.0078 27.8608L54.9345 29.7926L54.9408 29.8026L54.9472 29.8125L58.0078 27.8608ZM56.2891 26.3267L54.6826 29.5819L54.6826 29.5819L56.2891 26.3267ZM51.2891 26.3835L53.0125 29.5783L53.0287 29.5695L53.0448 29.5606L51.2891 26.3835ZM49.6129 28.0455L46.4358 26.2897L46.4269 26.3058L46.4182 26.322L49.6129 28.0455ZM49.0305 30.6165V34.2465H52.6605V30.6165H49.0305ZM44.0163 30.6165H40.3863V34.2465H44.0163V30.6165ZM45.2805 25.8011L48.3684 27.7096L48.3684 27.7096L45.2805 25.8011ZM48.7607 22.6335L47.129 19.3909L47.1207 19.3951L48.7607 22.6335ZM59.0163 22.6051L60.623 19.35L60.623 19.35L59.0163 22.6051ZM62.4538 25.6023L59.3989 27.5629L59.404 27.571L59.4092 27.579L62.4538 25.6023ZM63.0646 33.1591L59.6901 31.8214L59.6901 31.8214L63.0646 33.1591ZM60.8629 36.6534L58.059 34.348L58.0539 34.3542L58.0488 34.3604L60.8629 36.6534ZM56.4737 41.2983L53.9533 38.686L53.9189 38.7191L53.8854 38.7532L56.4737 41.2983ZM51.4595 46.3977L48.8712 43.8527L47.8295 44.912V46.3977H51.4595ZM51.4595 46.5966H47.8295V50.2266H51.4595V46.5966ZM64.13 46.5966H67.76V42.9666H64.13V46.5966ZM64.13 51V54.63H67.76V51H64.13ZM47.8168 51V47.1932H40.5568V51H47.8168ZM46.7279 49.7854L56.8274 39.8848L51.7451 34.7004L41.6456 44.601L46.7279 49.7854ZM56.8655 39.8469C57.8738 38.8287 58.7458 37.8925 59.4668 37.0441L53.9352 32.3422C53.3683 33.009 52.6305 33.8058 51.7069 34.7384L56.8655 39.8469ZM59.4668 37.0441C60.2727 36.096 60.9623 35.0793 61.456 33.9903L54.8437 30.9927C54.6935 31.3241 54.4171 31.7752 53.9352 32.3422L59.4668 37.0441ZM61.456 33.9903C61.9984 32.7939 62.2628 31.5235 62.2628 30.2188H55.0028C55.0028 30.5238 54.9453 30.7686 54.8437 30.9927L61.456 33.9903ZM62.2628 30.2188C62.2628 28.7386 61.9211 27.2462 61.0685 25.9091L54.9472 29.8125C54.9472 29.8126 54.9487 29.8148 54.9516 29.8215C54.9546 29.8283 54.9607 29.8437 54.9677 29.8704C54.9818 29.9236 55.0028 30.0335 55.0028 30.2188H62.2628ZM61.0811 25.929C60.2931 24.6753 59.2022 23.7164 57.8955 23.0715L54.6826 29.5819C54.8342 29.6567 54.8892 29.7205 54.9345 29.7926L61.0811 25.929ZM57.8955 23.0715C56.6004 22.4324 55.2094 22.1569 53.8033 22.1569V29.4169C54.2532 29.4169 54.5194 29.5013 54.6826 29.5819L57.8955 23.0715ZM53.8033 22.1569C52.3336 22.1569 50.8724 22.4664 49.5333 23.2064L53.0448 29.5606C53.1451 29.5052 53.3601 29.4169 53.8033 29.4169V22.1569ZM49.5656 23.1888C48.2298 23.9094 47.1681 24.9645 46.4358 26.2897L52.7901 29.8012C52.8532 29.687 52.9089 29.6342 53.0125 29.5783L49.5656 23.1888ZM46.4182 26.322C45.6888 27.674 45.4005 29.1493 45.4005 30.6165H52.6605C52.6605 30.0951 52.7606 29.8563 52.8077 29.7689L46.4182 26.322ZM49.0305 26.9865H44.0163V34.2465H49.0305V26.9865ZM47.6463 30.6165C47.6463 29.3396 47.9312 28.417 48.3684 27.7096L42.1927 23.8927C40.9443 25.9126 40.3863 28.2002 40.3863 30.6165H47.6463ZM48.3684 27.7096C48.8481 26.9334 49.4985 26.3288 50.4006 25.8719L47.1207 19.3951C45.0683 20.4345 43.3986 21.9416 42.1927 23.8927L48.3684 27.7096ZM50.3923 25.8762C51.2997 25.4196 52.4306 25.1414 53.8743 25.1414V17.8814C51.4733 17.8814 49.1951 18.3513 47.129 19.3909L50.3923 25.8762ZM53.8743 25.1414C55.3697 25.1414 56.516 25.4191 57.4097 25.8602L60.623 19.35C58.5621 18.3328 56.2804 17.8814 53.8743 17.8814V25.1414ZM57.4097 25.8602C58.3521 26.3254 58.9733 26.8998 59.3989 27.5629L65.5088 23.6416C64.3056 21.7669 62.6351 20.3432 60.623 19.35L57.4097 25.8602ZM59.4092 27.579C59.8216 28.2141 60.0596 28.9656 60.0596 29.9489H67.3196C67.3196 27.6746 66.7338 25.5284 65.4984 23.6256L59.4092 27.579ZM60.0596 29.9489C60.0596 30.5624 59.9445 31.1795 59.6901 31.8214L66.4392 34.4967C67.018 33.0364 67.3196 31.5134 67.3196 29.9489H60.0596ZM59.6901 31.8214C59.4605 32.4007 58.9712 33.2386 58.059 34.348L63.6668 38.9588C64.8569 37.5114 65.8355 36.0197 66.4392 34.4967L59.6901 31.8214ZM58.0488 34.3604C57.1355 35.4813 55.7864 36.9173 53.9533 38.686L58.9942 43.9106C60.93 42.0429 62.507 40.3823 63.677 38.9464L58.0488 34.3604ZM53.8854 38.7532L48.8712 43.8527L54.0479 48.9428L59.0621 43.8434L53.8854 38.7532ZM47.8295 46.3977V46.5966H55.0895V46.3977H47.8295ZM51.4595 50.2266H64.13V42.9666H51.4595V50.2266ZM60.5 46.5966V51H67.76V46.5966H60.5ZM64.13 47.37H44.1868V54.63H64.13V47.37Z" fill="white" fill-opacity="0.5" mask="url(#path-1-outside-1_484_11080)"/>
</svg>
