<svg width="72" height="72" viewBox="0 0 72 72" fill="none" xmlns="http://www.w3.org/2000/svg">
<mask id="path-1-outside-1_484_11082" maskUnits="userSpaceOnUse" x="3" y="17" width="66" height="39" fill="black">
<rect fill="white" x="3" y="17" width="66" height="39"/>
<path d="M18.3381 51.554C15.9991 51.554 13.9915 50.9621 12.3153 49.7784C10.6487 48.5852 9.36553 46.8665 8.46591 44.6222C7.57576 42.3684 7.13068 39.6553 7.13068 36.483C7.14015 33.3106 7.58996 30.6117 8.48011 28.3864C9.37973 26.1515 10.6629 24.447 12.3295 23.2727C14.0057 22.0985 16.0085 21.5114 18.3381 21.5114C20.6676 21.5114 22.6705 22.0985 24.3466 23.2727C26.0227 24.447 27.3059 26.1515 28.196 28.3864C29.0956 30.6212 29.5455 33.3201 29.5455 36.483C29.5455 39.6648 29.0956 42.3826 28.196 44.6364C27.3059 46.8807 26.0227 48.5947 24.3466 49.7784C22.6799 50.9621 20.6771 51.554 18.3381 51.554ZM18.3381 47.108C20.1563 47.108 21.5909 46.2131 22.642 44.4233C23.7027 42.6241 24.233 39.9773 24.233 36.483C24.233 34.1723 23.9915 32.2311 23.5085 30.6591C23.0256 29.0871 22.3438 27.9034 21.4631 27.108C20.5824 26.303 19.5407 25.9006 18.3381 25.9006C16.5294 25.9006 15.0994 26.8002 14.0483 28.5994C12.9972 30.3892 12.4669 33.017 12.4574 36.483C12.4479 38.803 12.6799 40.7538 13.1534 42.3352C13.6364 43.9167 14.3182 45.1098 15.1989 45.9148C16.0795 46.7102 17.1259 47.108 18.3381 47.108ZM54.6271 51.3977C52.5817 51.3977 50.7635 51.0473 49.1726 50.3466C47.5911 49.6458 46.3411 48.6705 45.4226 47.4205C44.504 46.1705 44.0163 44.7263 43.9595 43.0881H49.3004C49.3478 43.8741 49.6082 44.5606 50.0817 45.1477C50.5552 45.7254 51.1849 46.1752 51.9709 46.4972C52.7569 46.8191 53.6375 46.9801 54.6129 46.9801C55.6546 46.9801 56.5779 46.8002 57.3828 46.4403C58.1877 46.071 58.8175 45.5597 59.272 44.9062C59.7266 44.2528 59.9491 43.5 59.9396 42.6477C59.9491 41.767 59.7218 40.9905 59.2578 40.3182C58.7938 39.6458 58.1214 39.1203 57.2408 38.7415C56.3696 38.3627 55.3184 38.1733 54.0874 38.1733H51.5163V34.1108H54.0874C55.1006 34.1108 55.986 33.9356 56.7436 33.5852C57.5107 33.2348 58.112 32.7424 58.5476 32.108C58.9832 31.464 59.1963 30.7206 59.1868 29.8778C59.1963 29.054 59.0116 28.339 58.6328 27.733C58.2635 27.1174 57.7379 26.6392 57.0561 26.2983C56.3838 25.9574 55.593 25.7869 54.6839 25.7869C53.7938 25.7869 52.9699 25.9479 52.2124 26.2699C51.4548 26.5919 50.844 27.0511 50.38 27.6477C49.916 28.2348 49.6697 28.9356 49.6413 29.75H44.5703C44.6082 28.1212 45.0769 26.6913 45.9766 25.4602C46.8857 24.2197 48.0978 23.2538 49.6129 22.5625C51.1281 21.8617 52.8279 21.5114 54.7124 21.5114C56.6536 21.5114 58.3393 21.8759 59.7692 22.6051C61.2086 23.3248 62.3213 24.2955 63.1072 25.517C63.8932 26.7386 64.2862 28.0881 64.2862 29.5653C64.2957 31.2036 63.8127 32.5767 62.8374 33.6847C61.8714 34.7926 60.6025 35.517 59.0305 35.858V36.0852C61.076 36.3693 62.6432 37.1269 63.7322 38.358C64.8307 39.5795 65.3752 41.0994 65.3658 42.9176C65.3658 44.5464 64.9018 46.0047 63.9737 47.2926C63.0552 48.571 61.7862 49.5748 60.1669 50.304C58.5571 51.0331 56.7105 51.3977 54.6271 51.3977Z"/>
</mask>
<path d="M12.3153 49.7784L10.2023 52.73L10.2118 52.7368L10.2213 52.7435L12.3153 49.7784ZM8.46591 44.6222L5.0897 45.9556L5.09309 45.9642L5.09652 45.9728L8.46591 44.6222ZM7.13068 36.483L3.50068 36.4721V36.483H7.13068ZM8.48011 28.3864L5.1127 27.0308L5.10974 27.0382L8.48011 28.3864ZM12.3295 23.2727L10.2467 20.2997L10.2388 20.3053L12.3295 23.2727ZM24.3466 23.2727L22.2638 26.2457L22.2638 26.2458L24.3466 23.2727ZM28.196 28.3864L24.8237 29.7296L24.8286 29.7419L28.196 28.3864ZM28.196 44.6364L24.8247 43.2907L24.8217 43.298L28.196 44.6364ZM24.3466 49.7784L22.2526 46.8133L22.2447 46.8189L24.3466 49.7784ZM22.642 44.4233L19.5149 42.5799L19.5119 42.585L22.642 44.4233ZM23.5085 30.6591L26.9785 29.593L26.9785 29.593L23.5085 30.6591ZM21.4631 27.108L19.0141 29.7874L19.022 29.7946L19.0299 29.8018L21.4631 27.108ZM14.0483 28.5994L17.1784 30.4377L17.1826 30.4305L14.0483 28.5994ZM12.4574 36.483L16.0874 36.4978L16.0874 36.4929L12.4574 36.483ZM13.1534 42.3352L9.67593 43.3764L9.67878 43.3859L9.68169 43.3955L13.1534 42.3352ZM15.1989 45.9148L12.7499 48.5942L12.7578 48.6014L12.7657 48.6086L15.1989 45.9148ZM18.3381 47.924C16.6402 47.924 15.3897 47.5056 14.4094 46.8133L10.2213 52.7435C12.5933 54.4187 15.3579 55.184 18.3381 55.184V47.924ZM14.4284 46.8268C13.4192 46.1043 12.5244 44.9906 11.8353 43.2716L5.09652 45.9728C6.20671 48.7424 7.87818 51.0662 10.2023 52.73L14.4284 46.8268ZM11.8421 43.2887C11.1627 41.5684 10.7607 39.3327 10.7607 36.483H3.50068C3.50068 39.9779 3.98884 43.1683 5.0897 45.9556L11.8421 43.2887ZM10.7607 36.4938C10.7692 33.6394 11.1758 31.4213 11.8505 29.7345L5.10974 27.0382C4.00415 29.8022 3.51112 32.9818 3.5007 36.4721L10.7607 36.4938ZM11.8475 29.7419C12.5341 28.0363 13.4228 26.9429 14.4203 26.2402L10.2388 20.3053C7.90294 21.951 6.22537 24.2667 5.1127 27.0308L11.8475 29.7419ZM14.4123 26.2457C15.3961 25.5566 16.6469 25.1414 18.3381 25.1414V17.8814C15.3701 17.8814 12.6153 18.6404 10.2467 20.2997L14.4123 26.2457ZM18.3381 25.1414C20.0292 25.1414 21.2801 25.5566 22.2638 26.2457L26.4294 20.2997C24.0609 18.6404 21.306 17.8814 18.3381 17.8814V25.1414ZM22.2638 26.2458C23.2648 26.947 24.1485 28.0345 24.8237 29.7296L31.5684 27.0431C30.4632 24.2686 28.7807 21.9469 26.4294 20.2997L22.2638 26.2458ZM24.8286 29.7419C25.5098 31.4342 25.9155 33.6467 25.9155 36.483H33.1755C33.1755 32.9935 32.6815 29.8083 31.5634 27.0308L24.8286 29.7419ZM25.9155 36.483C25.9155 39.3399 25.5093 41.5754 24.8247 43.2907L31.5674 45.9821C32.6819 43.1898 33.1755 39.9896 33.1755 36.483H25.9155ZM24.8217 43.298C24.1446 45.0052 23.2576 46.1035 22.2526 46.8133L26.4406 52.7435C28.7879 51.0859 30.4671 48.7562 31.5703 45.9747L24.8217 43.298ZM22.2447 46.8189C21.2779 47.5055 20.0365 47.924 18.3381 47.924V55.184C21.3177 55.184 24.0819 54.4188 26.4485 52.7379L22.2447 46.8189ZM18.3381 50.738C21.6474 50.738 24.1795 48.9735 25.7721 46.2616L19.5119 42.585C19.0024 43.4526 18.6651 43.478 18.3381 43.478V50.738ZM25.7692 46.2667C27.3116 43.65 27.863 40.2386 27.863 36.483H20.603C20.603 39.716 20.0937 41.5981 19.5149 42.5799L25.7692 46.2667ZM27.863 36.483C27.863 33.9452 27.6008 31.6187 26.9785 29.593L20.0386 31.7252C20.3822 32.8434 20.603 34.3995 20.603 36.483H27.863ZM26.9785 29.593C26.3741 27.6259 25.4156 25.7864 23.8962 24.4141L19.0299 29.8018C19.2719 30.0204 19.6771 30.5484 20.0386 31.7252L26.9785 29.593ZM23.912 24.4285C22.3564 23.0067 20.439 22.2706 18.3381 22.2706V29.5306C18.6424 29.5306 18.8084 29.5994 19.0141 29.7874L23.912 24.4285ZM18.3381 22.2706C15.021 22.2706 12.4978 24.0572 10.914 26.7683L17.1826 30.4305C17.701 29.5432 18.0377 29.5306 18.3381 29.5306V22.2706ZM10.9182 26.7611C9.39108 29.3614 8.83758 32.7461 8.8274 36.473L16.0874 36.4929C16.0961 33.288 16.6032 31.4171 17.1784 30.4377L10.9182 26.7611ZM8.82742 36.4681C8.81703 39.013 9.06771 41.3449 9.67593 43.3764L16.6309 41.2941C16.2921 40.1626 16.0788 38.5931 16.0874 36.4978L8.82742 36.4681ZM9.68169 43.3955C10.2845 45.3692 11.239 47.2133 12.7499 48.5942L17.6478 43.2353C17.3973 43.0064 16.9883 42.4641 16.6251 41.275L9.68169 43.3955ZM12.7657 48.6086C14.3291 50.0207 16.2482 50.738 18.3381 50.738V43.478C18.0037 43.478 17.83 43.3997 17.632 43.2209L12.7657 48.6086ZM49.1726 50.3466L47.702 53.6654L47.7093 53.6686L49.1726 50.3466ZM45.4226 47.4205L48.3477 45.2709L48.3477 45.2709L45.4226 47.4205ZM43.9595 43.0881V39.4581H40.2014L40.3317 43.2139L43.9595 43.0881ZM49.3004 43.0881L52.9239 42.8698L52.7183 39.4581H49.3004V43.0881ZM50.0817 45.1477L47.256 47.4265L47.2651 47.4377L47.2743 47.4489L50.0817 45.1477ZM51.9709 46.4972L50.5949 49.8562L50.5949 49.8562L51.9709 46.4972ZM57.3828 46.4403L58.8643 49.7543L58.8805 49.747L58.8966 49.7396L57.3828 46.4403ZM59.272 44.9062L56.2921 42.8333L56.2921 42.8333L59.272 44.9062ZM59.9396 42.6477L56.3098 42.6087L56.3094 42.6484L56.3099 42.6881L59.9396 42.6477ZM59.2578 40.3182L56.2702 42.38L56.2702 42.38L59.2578 40.3182ZM57.2408 38.7415L55.7934 42.0704L55.7999 42.0733L55.8065 42.0761L57.2408 38.7415ZM51.5163 38.1733H47.8863V41.8033H51.5163V38.1733ZM51.5163 34.1108V30.4808H47.8863V34.1108H51.5163ZM56.7436 33.5852L55.2354 30.2834L55.2276 30.2869L55.2198 30.2905L56.7436 33.5852ZM58.5476 32.108L61.5402 34.1626L61.5472 34.1522L61.5543 34.1419L58.5476 32.108ZM59.1868 29.8778L55.557 29.8361L55.5566 29.8774L55.557 29.9186L59.1868 29.8778ZM58.6328 27.733L55.5201 29.6006L55.5371 29.6289L55.5546 29.6569L58.6328 27.733ZM57.0561 26.2983L55.4145 29.5359L55.4236 29.5405L55.4327 29.5451L57.0561 26.2983ZM52.2124 26.2699L53.6322 29.6107L53.6322 29.6107L52.2124 26.2699ZM50.38 27.6477L53.2279 29.8985L53.2367 29.8875L53.2453 29.8763L50.38 27.6477ZM49.6413 29.75V33.38H53.1469L53.2691 29.8766L49.6413 29.75ZM44.5703 29.75L40.9413 29.6656L40.8549 33.38H44.5703V29.75ZM45.9766 25.4602L43.0486 23.3145L43.0457 23.3185L45.9766 25.4602ZM49.6129 22.5625L51.1197 25.865L51.1282 25.8611L51.1367 25.8572L49.6129 22.5625ZM59.7692 22.6051L58.1201 25.8389L58.1329 25.8455L58.1458 25.8519L59.7692 22.6051ZM63.1072 25.517L60.0545 27.4812L60.0545 27.4812L63.1072 25.517ZM64.2862 29.5653H60.6562V29.5758L60.6563 29.5863L64.2862 29.5653ZM62.8374 33.6847L60.1127 31.2861L60.1069 31.2926L60.1012 31.2993L62.8374 33.6847ZM59.0305 35.858L58.2612 32.3104L55.4005 32.9308V35.858H59.0305ZM59.0305 36.0852H55.4005V39.2459L58.5312 39.6807L59.0305 36.0852ZM63.7322 38.358L61.0134 40.7631L61.0232 40.7742L61.033 40.7851L63.7322 38.358ZM65.3658 42.9176L61.7358 42.8987L61.7358 42.9082V42.9176H65.3658ZM63.9737 47.2926L61.0287 45.1704L61.0258 45.1745L63.9737 47.2926ZM60.1669 50.304L58.6765 46.9941L58.6692 46.9974L60.1669 50.304ZM54.6271 47.7677C52.9976 47.7677 51.6915 47.4896 50.6359 47.0246L47.7093 53.6686C49.8355 54.6051 52.1657 55.0277 54.6271 55.0277V47.7677ZM50.6432 47.0278C49.5721 46.5532 48.8499 45.9543 48.3477 45.2709L42.4974 49.57C43.8324 51.3867 45.6102 52.7384 47.702 53.6654L50.6432 47.0278ZM48.3477 45.2709C47.8868 44.6437 47.6204 43.9143 47.5873 42.9622L40.3317 43.2139C40.4123 45.5383 41.1212 47.6972 42.4975 49.57L48.3477 45.2709ZM43.9595 46.7181H49.3004V39.4581H43.9595V46.7181ZM45.677 43.3063C45.7676 44.8101 46.2873 46.2252 47.256 47.4265L52.9073 42.869C52.9043 42.8653 52.9068 42.8679 52.9117 42.8764C52.9141 42.8805 52.9165 42.8851 52.919 42.8903C52.9214 42.8955 52.9235 42.9005 52.9253 42.9051C52.929 42.9149 52.9298 42.9194 52.9291 42.9163C52.9284 42.9129 52.9256 42.8982 52.9239 42.8698L45.677 43.3063ZM47.2743 47.4489C48.1794 48.5532 49.3287 49.3376 50.5949 49.8562L53.3469 43.1381C53.0411 43.0128 52.9309 42.8976 52.8891 42.8466L47.2743 47.4489ZM50.5949 49.8562C51.8775 50.3817 53.235 50.6101 54.6129 50.6101V43.3501C54.0401 43.3501 53.6363 43.2566 53.3469 43.1381L50.5949 49.8562ZM54.6129 50.6101C56.0737 50.6101 57.5165 50.3568 58.8643 49.7543L55.9013 43.1264C55.6393 43.2436 55.2355 43.3501 54.6129 43.3501V50.6101ZM58.8966 49.7396C60.2229 49.1311 61.3864 48.2233 62.2519 46.9792L56.2921 42.8333C56.2485 42.896 56.1526 43.0109 55.869 43.141L58.8966 49.7396ZM62.2519 46.9792C63.1687 45.6613 63.5866 44.158 63.5694 42.6074L56.3099 42.6881C56.3109 42.7832 56.299 42.8216 56.2987 42.8226C56.2981 42.8246 56.2982 42.824 56.2988 42.8228C56.2994 42.8216 56.298 42.8249 56.2921 42.8333L62.2519 46.9792ZM63.5694 42.6868C63.5863 41.118 63.1691 39.5948 62.2454 38.2563L56.2702 42.38C56.2845 42.4006 56.2886 42.4115 56.2924 42.4245C56.297 42.44 56.3111 42.495 56.3098 42.6087L63.5694 42.6868ZM62.2454 38.2563C61.3305 36.9307 60.0723 36.0078 58.675 35.4068L55.8065 42.0761C56.1706 42.2327 56.2571 42.361 56.2702 42.38L62.2454 38.2563ZM58.6881 35.4125C57.2466 34.7857 55.6754 34.5433 54.0874 34.5433V41.8033C54.9614 41.8033 55.4925 41.9396 55.7934 42.0704L58.6881 35.4125ZM54.0874 34.5433H51.5163V41.8033H54.0874V34.5433ZM55.1463 38.1733V34.1108H47.8863V38.1733H55.1463ZM51.5163 37.7408H54.0874V30.4808H51.5163V37.7408ZM54.0874 37.7408C55.5164 37.7408 56.9412 37.4933 58.2674 36.8799L55.2198 30.2905C55.0309 30.3779 54.6848 30.4808 54.0874 30.4808V37.7408ZM58.2519 36.8871C59.5585 36.2902 60.6968 35.3909 61.5402 34.1626L55.555 30.0533C55.5271 30.094 55.4628 30.1795 55.2354 30.2834L58.2519 36.8871ZM61.5543 34.1419C62.439 32.834 62.8336 31.3534 62.8166 29.8371L55.557 29.9186C55.5582 30.0195 55.5459 30.0629 55.5446 30.0673C55.5436 30.0708 55.5434 30.0707 55.5443 30.0688C55.5451 30.067 55.5447 30.0684 55.5409 30.074L61.5543 34.1419ZM62.8166 29.9196C62.8328 28.5098 62.5115 27.0899 61.711 25.8091L55.5546 29.6569C55.541 29.6351 55.538 29.621 55.5407 29.6315C55.5444 29.6455 55.5585 29.7079 55.557 29.8361L62.8166 29.9196ZM61.7455 25.8653C60.9987 24.6206 59.9388 23.6812 58.6795 23.0515L55.4327 29.5451C55.4662 29.5618 55.4878 29.5752 55.5002 29.5837C55.5125 29.592 55.5179 29.5968 55.5186 29.5975C55.5193 29.5982 55.5184 29.5973 55.5171 29.5957C55.5158 29.5941 55.5168 29.5951 55.5201 29.6006L61.7455 25.8653ZM58.6977 23.0607C57.4222 22.414 56.0473 22.1569 54.6839 22.1569V29.4169C55.1388 29.4169 55.3453 29.5008 55.4145 29.5359L58.6977 23.0607ZM54.6839 22.1569C53.346 22.1569 52.0346 22.4012 50.7925 22.9291L53.6322 29.6107C53.9052 29.4946 54.2416 29.4169 54.6839 29.4169V22.1569ZM50.7925 22.9291C49.5183 23.4706 48.3912 24.2921 47.5146 25.4191L53.2453 29.8763C53.2967 29.8102 53.3912 29.7131 53.6322 29.6107L50.7925 22.9291ZM47.532 25.3969C46.5452 26.6456 46.0664 28.1086 46.0135 29.6234L53.2691 29.8766C53.2705 29.8376 53.2739 29.8156 53.2753 29.8079C53.2766 29.8005 53.2764 29.8045 53.2721 29.8169C53.2676 29.8295 53.2608 29.8455 53.2515 29.8623C53.2422 29.8792 53.2335 29.8915 53.2279 29.8985L47.532 25.3969ZM49.6413 26.12H44.5703V33.38H49.6413V26.12ZM48.1993 29.8344C48.2212 28.893 48.4757 28.1928 48.9074 27.602L43.0457 23.3185C41.6782 25.1898 40.9952 27.3494 40.9413 29.6656L48.1993 29.8344ZM48.9045 27.6059C49.4165 26.9072 50.1213 26.3205 51.1197 25.865L48.1062 19.26C46.0743 20.187 44.3548 21.5322 43.0486 23.3145L48.9045 27.6059ZM51.1367 25.8572C52.1162 25.4042 53.2861 25.1414 54.7124 25.1414V17.8814C52.3697 17.8814 50.14 18.3193 48.0891 19.2678L51.1367 25.8572ZM54.7124 25.1414C56.1991 25.1414 57.2971 25.4192 58.1201 25.8389L61.4182 19.3713C59.3814 18.3327 57.1082 17.8814 54.7124 17.8814V25.1414ZM58.1458 25.8519C59.0669 26.3124 59.6583 26.8654 60.0545 27.4812L66.16 23.5529C64.9842 21.7255 63.3503 20.3372 61.3926 19.3583L58.1458 25.8519ZM60.0545 27.4812C60.4569 28.1066 60.6562 28.7721 60.6562 29.5653H67.9162C67.9162 27.4041 67.3296 25.3707 66.16 23.5529L60.0545 27.4812ZM60.6563 29.5863C60.6612 30.4397 60.4338 30.9214 60.1127 31.2861L65.562 36.0833C67.1917 34.232 67.9302 31.9675 67.9162 29.5444L60.6563 29.5863ZM60.1012 31.2993C59.6976 31.7622 59.1456 32.1186 58.2612 32.3104L59.7999 39.4055C62.0594 38.9155 64.0453 37.8231 65.5736 36.0701L60.1012 31.2993ZM55.4005 35.858V36.0852H62.6605V35.858H55.4005ZM58.5312 39.6807C59.9453 39.8771 60.6339 40.3341 61.0134 40.7631L66.4511 35.9528C64.6526 33.9197 62.2067 32.8615 59.5299 32.4897L58.5312 39.6807ZM61.033 40.7851C61.4617 41.2618 61.7411 41.8791 61.7358 42.8987L68.9957 42.9365C69.0093 40.3198 68.1997 37.8972 66.4314 35.9308L61.033 40.7851ZM61.7358 42.9176C61.7358 43.8059 61.4991 44.5176 61.0287 45.1704L66.9188 49.4148C68.3044 47.4919 68.9958 45.2869 68.9958 42.9176H61.7358ZM61.0258 45.1745C60.5256 45.8705 59.7897 46.4928 58.6765 46.9941L61.6573 53.6139C63.7827 52.6568 65.5847 51.2715 66.9217 49.4108L61.0258 45.1745ZM58.6692 46.9974C57.6065 47.4787 56.2852 47.7677 54.6271 47.7677V55.0277C57.1357 55.0277 59.5076 54.5876 61.6646 53.6106L58.6692 46.9974Z" fill="white" fill-opacity="0.5" mask="url(#path-1-outside-1_484_11082)"/>
</svg>
