<svg width="384" height="285" viewBox="0 0 384 285" fill="none" xmlns="http://www.w3.org/2000/svg">
<g filter="url(#filter0_d_59_66316)">
<mask id="path-1-outside-1_59_66316" maskUnits="userSpaceOnUse" x="11.2987" y="114.307" width="121.902" height="137.118" fill="black">
<rect fill="white" x="11.2987" y="114.307" width="121.902" height="137.118"/>
<path d="M66.2763 237.224L55.8758 244.357L48.6684 149.059L58.9089 142.035L126.279 196.069L115.878 203.203L60.0079 157.14L59.3678 157.579L66.2763 237.224ZM55.5506 205.424L97.4724 176.67L101.478 184.691L59.5562 213.444L55.5506 205.424Z"/>
</mask>
<path d="M66.2763 237.224L67.8623 240.4L70.3229 238.712L70.0906 236.034L66.2763 237.224ZM55.8758 244.357L52.0581 245.506L52.4704 250.957L57.4619 247.533L55.8758 244.357ZM48.6684 149.059L47.0824 145.883L44.6499 147.552L44.8507 150.208L48.6684 149.059ZM58.9089 142.035L61.6332 138.697L59.7554 137.191L57.3228 138.86L58.9089 142.035ZM126.279 196.069L127.865 199.245L132.856 195.822L129.003 192.731L126.279 196.069ZM115.878 203.203L113.125 206.517L115.004 208.066L117.464 206.379L115.878 203.203ZM60.0079 157.14L62.7611 153.826L60.8824 152.277L58.4218 153.964L60.0079 157.14ZM59.3678 157.579L57.7818 154.403L55.3212 156.091L55.5535 158.769L59.3678 157.579ZM55.5506 205.424L53.9645 202.248L50.48 204.638L52.066 207.814L55.5506 205.424ZM97.4724 176.67L100.957 174.28L99.3709 171.104L95.8863 173.494L97.4724 176.67ZM101.478 184.691L103.064 187.867L106.549 185.477L104.963 182.301L101.478 184.691ZM59.5562 213.444L56.0716 215.834L57.6577 219.01L61.1422 216.62L59.5562 213.444ZM64.6902 234.048L54.2898 241.181L57.4619 247.533L67.8623 240.4L64.6902 234.048ZM59.6935 243.208L52.4861 147.91L44.8507 150.208L52.0581 245.506L59.6935 243.208ZM50.2545 152.235L60.4949 145.211L57.3228 138.86L47.0824 145.883L50.2545 152.235ZM56.1846 145.374L123.555 199.407L129.003 192.731L61.6332 138.697L56.1846 145.374ZM124.693 192.893L114.292 200.027L117.464 206.379L127.865 199.245L124.693 192.893ZM118.632 199.888L62.7611 153.826L57.2547 160.455L113.125 206.517L118.632 199.888ZM58.4218 153.964L57.7818 154.403L60.9539 160.755L61.5939 160.316L58.4218 153.964ZM55.5535 158.769L62.4619 238.414L70.0906 236.034L63.1822 156.389L55.5535 158.769ZM57.1366 208.599L99.0584 179.846L95.8863 173.494L53.9645 202.248L57.1366 208.599ZM93.9878 179.06L97.9934 187.081L104.963 182.301L100.957 174.28L93.9878 179.06ZM99.8919 181.515L57.9701 210.268L61.1422 216.62L103.064 187.867L99.8919 181.515ZM63.0407 211.054L59.0351 203.034L52.066 207.814L56.0716 215.834L63.0407 211.054Z" fill="white" fill-opacity="0.5" mask="url(#path-1-outside-1_59_66316)"/>
</g>
<mask id="path-3-outside-2_59_66316" maskUnits="userSpaceOnUse" x="110.611" y="81.2249" width="84.6502" height="123.048" fill="black">
<rect fill="white" x="110.611" y="81.2249" width="84.6502" height="123.048"/>
<path d="M131.581 197.014L115.331 110.927L125.533 106.738L131.531 138.517L132.396 138.162C132.934 136.733 133.701 134.878 134.699 132.596C135.72 130.275 137.355 127.913 139.603 125.51C141.874 123.068 145.172 120.959 149.495 119.184C155.085 116.889 160.27 116.225 165.048 117.192C169.827 118.159 173.882 120.645 177.216 124.651C180.55 128.657 182.856 134.051 184.137 140.833C185.427 147.671 185.35 154.089 183.905 160.087C182.455 166.057 179.87 171.285 176.153 175.771C172.429 180.228 167.801 183.593 162.268 185.865C158.003 187.616 154.458 188.331 151.634 188.011C148.805 187.663 146.532 186.89 144.815 185.693C143.093 184.467 141.746 183.42 140.775 182.551L139.565 183.048L141.437 192.968L131.581 197.014ZM135.516 160.614C136.437 165.49 137.984 169.49 140.157 172.614C142.325 175.709 145.019 177.728 148.24 178.67C151.456 179.584 155.11 179.201 159.202 177.521C163.468 175.77 166.82 173.216 169.261 169.859C171.725 166.462 173.325 162.604 174.063 158.285C174.824 153.926 174.771 149.449 173.903 144.853C173.046 140.314 171.553 136.518 169.425 133.467C167.32 130.375 164.625 128.356 161.341 127.41C158.081 126.424 154.289 126.818 149.966 128.593C145.816 130.296 142.522 132.751 140.084 135.956C137.641 139.134 136.043 142.839 135.289 147.074C134.531 151.281 134.606 155.794 135.516 160.614Z"/>
</mask>
<path d="M131.581 197.014L127.816 198.561L128.507 202.222L132.272 200.676L131.581 197.014ZM115.331 110.927L114.64 107.265L110.874 108.811L111.565 112.473L115.331 110.927ZM125.533 106.738L129.298 105.192L128.607 101.531L124.842 103.077L125.533 106.738ZM131.531 138.517L127.766 140.063L128.457 143.724L132.223 142.178L131.531 138.517ZM132.396 138.162L133.087 141.823L135.131 140.984L135.93 138.861L132.396 138.162ZM134.699 132.596L131.267 131.646L131.263 131.656L134.699 132.596ZM139.603 125.51L142.053 127.942L142.059 127.936L142.064 127.93L139.603 125.51ZM165.048 117.192L166.534 113.282L165.048 117.192ZM183.905 160.087L187.61 160.233L187.612 160.225L183.905 160.087ZM176.153 175.771L178.803 177.975L178.81 177.967L178.816 177.96L176.153 175.771ZM151.634 188.011L150.392 191.961L150.408 191.963L150.423 191.965L151.634 188.011ZM144.815 185.693L142.217 189.127L142.228 189.134L142.239 189.142L144.815 185.693ZM140.775 182.551L143.613 179.309L142.181 178.028L140.084 178.889L140.775 182.551ZM139.565 183.048L138.873 179.386L135.108 180.932L135.799 184.594L139.565 183.048ZM141.437 192.968L142.128 196.629L145.894 195.083L145.203 191.422L141.437 192.968ZM140.157 172.614L136.888 175.368L136.893 175.375L140.157 172.614ZM148.24 178.67L146.501 182.518L146.512 182.521L146.523 182.524L148.24 178.67ZM169.261 169.859L172.134 171.778L172.137 171.773L169.261 169.859ZM174.063 158.285L170.298 158.427L170.296 158.436L170.295 158.444L174.063 158.285ZM169.425 133.467L166.14 136.198L166.149 136.211L166.158 136.224L169.425 133.467ZM161.341 127.41L159.575 131.249L159.594 131.255L159.613 131.261L161.341 127.41ZM140.084 135.956L142.871 137.992L142.879 137.98L142.888 137.969L140.084 135.956ZM135.289 147.074L139.05 146.956L139.052 146.946L135.289 147.074ZM135.347 195.468L119.096 109.381L111.565 112.473L127.816 198.561L135.347 195.468ZM116.022 114.589L126.224 110.4L124.842 103.077L114.64 107.265L116.022 114.589ZM121.767 108.284L127.766 140.063L135.297 136.971L129.298 105.192L121.767 108.284ZM132.223 142.178L133.087 141.823L131.705 134.5L130.84 134.855L132.223 142.178ZM135.93 138.861C136.424 137.547 137.154 135.781 138.135 133.536L131.263 131.656C130.249 133.976 129.443 135.919 128.862 137.462L135.93 138.861ZM138.131 133.547C138.86 131.888 140.108 130.02 142.053 127.942L137.153 123.078C134.601 125.805 132.58 128.662 131.267 131.646L138.131 133.547ZM142.064 127.93C143.641 126.235 146.223 124.473 150.186 122.846L148.803 115.523C144.12 117.445 140.108 119.9 137.142 123.09L142.064 127.93ZM150.186 122.846C155.117 120.821 159.537 120.287 163.562 121.102L166.534 113.282C161.003 112.162 155.054 112.956 148.803 115.523L150.186 122.846ZM163.562 121.102C167.614 121.922 171.127 124.033 174.095 127.6L180.337 121.703C176.638 117.257 172.039 114.396 166.534 113.282L163.562 121.102ZM174.095 127.6C177.039 131.137 179.169 136.011 180.371 142.379L187.902 139.287C186.544 132.092 184.06 126.178 180.337 121.703L174.095 127.6ZM180.371 142.379C181.584 148.807 181.475 154.648 180.198 159.949L187.612 160.225C189.225 153.529 189.27 146.534 187.902 139.287L180.371 142.379ZM180.2 159.941C178.906 165.266 176.648 169.77 173.489 173.581L178.816 177.96C183.093 172.8 186.003 166.848 187.61 160.233L180.2 159.941ZM173.502 173.566C170.368 177.318 166.442 180.205 161.577 182.203L162.959 189.526C169.16 186.98 174.49 183.139 178.803 177.975L173.502 173.566ZM161.577 182.203C157.676 183.805 154.84 184.284 152.845 184.058L150.423 191.965C154.076 192.379 158.329 191.427 162.959 189.526L161.577 182.203ZM152.876 184.062C150.404 183.758 148.627 183.106 147.391 182.244L142.239 189.142C144.436 190.675 147.205 191.569 150.392 191.961L152.876 184.062ZM147.413 182.259C145.73 181.062 144.476 180.081 143.613 179.309L137.937 185.793C139.017 186.759 140.456 187.873 142.217 189.127L147.413 182.259ZM140.084 178.889L138.873 179.386L140.256 186.709L141.466 186.212L140.084 178.889ZM135.799 184.594L137.672 194.514L145.203 191.422L143.33 181.502L135.799 184.594ZM140.746 189.306L130.89 193.353L132.272 200.676L142.128 196.629L140.746 189.306ZM131.751 162.16C132.737 167.388 134.424 171.826 136.888 175.368L143.425 169.859C141.543 167.154 140.136 163.592 139.282 159.068L131.751 162.16ZM136.893 175.375C139.375 178.919 142.564 181.366 146.501 182.518L149.98 174.823C147.475 174.09 145.275 172.5 143.42 169.852L136.893 175.375ZM146.523 182.524C150.595 183.682 155.116 183.145 159.894 181.183L158.511 173.86C155.105 175.258 152.317 175.487 149.958 174.816L146.523 182.524ZM159.894 181.183C164.851 179.148 169.03 176.048 172.134 171.778L166.387 167.939C164.61 170.384 162.084 172.393 158.511 173.86L159.894 181.183ZM172.137 171.773C175.113 167.672 176.985 163.082 177.831 158.126L170.295 158.444C169.666 162.125 168.337 165.251 166.384 167.944L172.137 171.773ZM177.828 158.143C178.685 153.237 178.608 148.285 177.669 143.307L170.137 146.399C170.933 150.613 170.963 154.616 170.298 158.427L177.828 158.143ZM177.669 143.307C176.74 138.39 175.101 134.164 172.691 130.709L166.158 136.224C168.005 138.872 169.352 142.237 170.137 146.399L177.669 143.307ZM172.709 130.736C170.276 127.163 167.07 124.712 163.069 123.559L159.613 131.261C162.18 132.001 164.363 133.588 166.14 136.198L172.709 130.736ZM163.107 123.57C158.952 122.313 154.266 122.882 149.275 124.931L150.657 132.254C154.313 130.754 157.21 130.534 159.575 131.249L163.107 123.57ZM149.275 124.931C144.464 126.906 140.375 129.875 137.28 133.943L142.888 137.969C144.67 135.627 147.169 133.687 150.657 132.254L149.275 124.931ZM137.298 133.921C134.282 137.842 132.395 142.321 131.527 147.203L139.052 146.946C139.69 143.358 141 140.425 142.871 137.992L137.298 133.921ZM131.528 147.192C130.663 151.993 130.775 156.994 131.751 162.16L139.282 159.068C138.437 154.594 138.399 150.568 139.05 146.956L131.528 147.192Z" fill="white" fill-opacity="0.5" mask="url(#path-3-outside-2_59_66316)"/>
<mask id="path-5-outside-3_59_66316" maskUnits="userSpaceOnUse" x="185.86" y="78.4025" width="76.499" height="99.6144" fill="black">
<rect fill="white" x="185.86" y="78.4025" width="76.499" height="99.6144"/>
<path d="M227.393 162.552C221.324 164.475 215.867 164.729 211.022 163.312C206.207 161.886 202.279 159.001 199.237 154.657C196.225 150.303 194.402 144.678 193.769 137.781C193.13 130.826 193.842 124.353 195.904 118.361C197.995 112.36 201.185 107.203 205.474 102.892C209.791 98.5707 214.985 95.4483 221.054 93.5245C227.123 91.6007 232.566 91.3519 237.381 92.7779C242.226 94.1948 246.156 97.0944 249.17 101.477C252.215 105.85 254.056 111.514 254.695 118.469C255.328 125.366 254.598 131.801 252.504 137.773C250.439 143.736 247.248 148.878 242.93 153.198C238.641 157.51 233.463 160.628 227.393 162.552ZM226.547 153.337C231.157 151.875 234.843 149.499 237.604 146.209C240.364 142.918 242.284 139.133 243.362 134.855C244.441 130.577 244.775 126.206 244.365 121.743C243.955 117.281 242.859 113.349 241.075 109.948C239.291 106.547 236.802 104.13 233.608 102.697C230.413 101.264 226.511 101.278 221.9 102.74C217.29 104.201 213.606 106.592 210.848 109.911C208.09 113.231 206.173 117.044 205.097 121.352C204.021 125.659 203.688 130.044 204.098 134.507C204.508 138.97 205.603 142.887 207.384 146.259C209.165 149.631 211.652 152.019 214.844 153.423C218.036 154.827 221.937 154.798 226.547 153.337Z"/>
</mask>
<path d="M211.022 163.312L209.273 167.157L209.283 167.16L211.022 163.312ZM199.237 154.657L195.964 157.405L195.969 157.412L195.973 157.418L199.237 154.657ZM195.904 118.361L192.329 117.775L192.326 117.784L192.323 117.793L195.904 118.361ZM205.474 102.892L203.146 100.333L203.137 100.342L205.474 102.892ZM237.381 92.7779L235.632 96.6226L235.642 96.6254L237.381 92.7779ZM249.17 101.477L245.893 104.219L245.898 104.226L245.902 104.232L249.17 101.477ZM252.504 137.773L248.932 137.178L248.929 137.187L248.926 137.196L252.504 137.773ZM242.93 153.198L240.602 150.64L240.593 150.649L242.93 153.198ZM237.604 146.209L234.96 143.995L237.604 146.209ZM243.362 134.855L247.058 135.04L243.362 134.855ZM241.075 109.948L244.532 107.505L241.075 109.948ZM233.608 102.697L235.725 98.9887L233.608 102.697ZM210.848 109.911L208.188 107.717L210.848 109.911ZM205.097 121.352L201.399 121.177L201.399 121.177L205.097 121.352ZM207.384 146.259L203.931 148.71L207.384 146.259ZM214.844 153.423L216.942 149.706L216.942 149.706L214.844 153.423ZM227.046 158.765C221.607 160.489 216.887 160.671 212.762 159.465L209.283 167.16C214.847 168.787 221.041 168.462 227.741 166.338L227.046 158.765ZM212.772 159.468C208.627 158.24 205.204 155.756 202.501 151.895L195.973 157.418C199.353 162.245 203.787 165.532 209.273 167.157L212.772 159.468ZM202.51 151.908C199.855 148.071 198.172 143.008 197.581 136.572L189.956 138.989C190.632 146.348 192.595 152.535 195.964 157.405L202.51 151.908ZM197.581 136.572C196.985 130.075 197.666 124.215 199.485 118.929L192.323 117.793C190.017 124.49 189.275 131.578 189.956 138.989L197.581 136.572ZM199.479 118.947C201.339 113.609 204.124 109.147 207.81 105.441L203.137 100.342C198.246 105.259 194.651 111.11 192.329 117.775L199.479 118.947ZM207.801 105.45C211.478 101.771 215.963 99.035 221.402 97.311L220.706 89.738C214.007 91.8616 208.105 95.3707 203.146 100.333L207.801 105.45ZM221.402 97.311C226.841 95.5869 231.541 95.4112 235.632 96.6226L239.13 88.9333C233.59 87.2926 227.405 87.6146 220.706 89.738L221.402 97.311ZM235.642 96.6254C239.804 97.8428 243.22 100.333 245.893 104.219L252.448 98.7348C249.091 93.8562 244.647 90.5468 239.121 88.9304L235.642 96.6254ZM245.902 104.232C248.586 108.087 250.286 113.186 250.882 119.678L258.507 117.261C257.826 109.843 255.844 103.614 252.439 98.7219L245.902 104.232ZM250.882 119.678C251.472 126.107 250.776 131.918 248.932 137.178L256.076 138.367C258.42 131.683 259.184 124.625 258.507 117.261L250.882 119.678ZM248.926 137.196C247.096 142.48 244.317 146.923 240.602 150.64L245.258 155.757C250.178 150.832 253.782 144.992 256.082 138.35L248.926 137.196ZM240.593 150.649C236.951 154.311 232.485 157.041 227.046 158.765L227.741 166.338C234.44 164.215 240.332 160.709 245.266 155.748L240.593 150.649ZM226.895 157.123C232.177 155.449 236.736 152.607 240.247 148.422L234.96 143.995C232.95 146.391 230.138 148.302 226.199 149.55L226.895 157.123ZM240.247 148.422C243.554 144.48 245.812 139.982 247.058 135.04L239.667 134.67C238.756 138.285 237.175 141.355 234.96 143.995L240.247 148.422ZM247.058 135.04C248.266 130.247 248.625 125.405 248.178 120.535L240.553 122.952C240.925 127.007 240.616 130.906 239.667 134.67L247.058 135.04ZM248.178 120.535C247.731 115.664 246.526 111.306 244.532 107.505L237.618 112.391C239.191 115.391 240.18 118.897 240.553 122.952L248.178 120.535ZM244.532 107.505C242.476 103.584 239.546 100.702 235.725 98.9887L231.49 106.405C234.058 107.557 236.106 109.509 237.618 112.391L244.532 107.505ZM235.725 98.9887C231.662 97.1662 226.845 97.2756 221.553 98.9532L222.248 106.526C226.176 105.281 229.164 105.362 231.49 106.405L235.725 98.9887ZM221.553 98.9532C216.26 100.631 211.696 103.495 208.188 107.717L213.508 112.105C215.516 109.688 218.32 107.771 222.248 106.526L221.553 98.9532ZM208.188 107.717C204.889 111.688 202.639 116.211 201.399 121.177L208.795 121.527C209.706 117.877 211.29 114.774 213.508 112.105L208.188 107.717ZM201.399 121.177C200.197 125.991 199.838 130.845 200.285 135.715L207.911 133.298C207.538 129.244 207.846 125.327 208.795 121.527L201.399 121.177ZM200.285 135.715C200.733 140.586 201.936 144.933 203.931 148.71L210.838 143.808C209.271 140.841 208.283 137.353 207.911 133.298L200.285 135.715ZM203.931 148.71C205.988 152.605 208.922 155.458 212.745 157.139L216.942 149.706C214.382 148.58 212.342 146.657 210.838 143.808L203.931 148.71ZM212.745 157.139C216.804 158.925 221.613 158.797 226.895 157.123L226.199 149.55C222.261 150.798 219.267 150.728 216.942 149.706L212.745 157.139Z" fill="white" fill-opacity="0.5" mask="url(#path-5-outside-3_59_66316)"/>
<mask id="path-7-outside-4_59_66316" maskUnits="userSpaceOnUse" x="268.532" y="60.0463" width="63.996" height="92.7208" fill="black">
<rect fill="white" x="268.532" y="60.0463" width="63.996" height="92.7208"/>
<path d="M316.917 108.084L315.763 67.9102L326.131 65.2784L328.083 133.238L317.715 135.87L317.385 124.366L316.682 124.545C315.2 128.397 312.824 131.957 309.554 135.223C306.284 138.46 302.101 140.725 297.005 142.018C292.787 143.089 289.012 143.111 285.678 142.086C282.344 141.031 279.685 138.853 277.702 135.554C275.718 132.224 274.643 127.669 274.477 121.888L273.237 78.7052L283.605 76.0734L284.825 118.548C284.967 123.503 286.457 127.107 289.295 129.357C292.162 131.601 295.749 132.176 300.054 131.083C302.631 130.429 305.233 129.1 307.861 127.096C310.517 125.085 312.714 122.477 314.451 119.273C316.217 116.061 317.039 112.332 316.917 108.084Z"/>
</mask>
<path d="M315.763 67.9102L315.653 64.0561L311.826 65.0275L311.936 68.8817L315.763 67.9102ZM326.131 65.2784L329.958 64.3069L329.848 60.4528L326.021 61.4242L326.131 65.2784ZM328.083 133.238L328.194 137.092L332.021 136.121L331.91 132.266L328.083 133.238ZM317.715 135.87L313.888 136.841L313.999 140.695L317.826 139.724L317.715 135.87ZM317.385 124.366L321.212 123.395L321.101 119.541L317.274 120.512L317.385 124.366ZM316.682 124.545L316.571 120.69L314.123 121.312L313.161 123.812L316.682 124.545ZM309.554 135.223L311.861 137.802L311.87 137.793L311.879 137.784L309.554 135.223ZM285.678 142.086L283.875 145.914L283.887 145.918L283.898 145.921L285.678 142.086ZM277.702 135.554L274.323 138.137L274.329 138.146L277.702 135.554ZM273.237 78.7052L273.126 74.8511L269.299 75.8225L269.41 79.6766L273.237 78.7052ZM283.605 76.0734L287.432 75.1019L287.321 71.2478L283.494 72.2192L283.605 76.0734ZM289.295 129.357L286.583 132.705L286.59 132.711L286.597 132.716L289.295 129.357ZM307.861 127.096L306.08 124.061L306.072 124.066L306.065 124.072L307.861 127.096ZM314.451 119.273L311.22 117.915L311.213 117.929L311.205 117.943L314.451 119.273ZM320.744 107.113L319.59 66.9388L311.936 68.8817L313.09 109.056L320.744 107.113ZM315.874 71.7644L326.242 69.1325L326.021 61.4242L315.653 64.0561L315.874 71.7644ZM322.304 66.2498L324.256 134.209L331.91 132.266L329.958 64.3069L322.304 66.2498ZM327.973 129.384L317.605 132.016L317.826 139.724L328.194 137.092L327.973 129.384ZM321.542 134.898L321.212 123.395L313.558 125.338L313.888 136.841L321.542 134.898ZM317.274 120.512L316.571 120.69L316.793 128.399L317.496 128.22L317.274 120.512ZM313.161 123.812C311.961 126.93 310.023 129.871 307.23 132.661L311.879 137.784C315.625 134.042 318.438 129.864 320.203 125.278L313.161 123.812ZM307.247 132.644C304.752 135.114 301.392 137.022 296.894 138.164L297.115 145.872C302.81 144.427 307.816 141.805 311.861 137.802L307.247 132.644ZM296.894 138.164C293.253 139.088 290.142 139.076 287.458 138.25L283.898 145.921C287.882 147.147 292.322 147.089 297.115 145.872L296.894 138.164ZM287.481 138.257C284.885 137.436 282.742 135.734 281.075 132.961L274.329 138.146C276.628 141.973 279.802 144.625 283.875 145.914L287.481 138.257ZM281.081 132.97C279.456 130.244 278.459 126.307 278.304 120.916L270.65 122.859C270.828 129.031 271.98 134.205 274.323 138.137L281.081 132.97ZM278.304 120.916L277.064 77.7338L269.41 79.6766L270.65 122.859L278.304 120.916ZM273.348 82.5593L283.716 79.9275L283.494 72.2192L273.126 74.8511L273.348 82.5593ZM279.778 77.0448L280.998 119.52L288.652 117.577L287.432 75.1019L279.778 77.0448ZM280.998 119.52C281.162 125.224 282.91 129.792 286.583 132.705L292.008 126.01C290.004 124.421 288.773 121.783 288.652 117.577L280.998 119.52ZM286.597 132.716C290.261 135.584 294.887 136.277 300.165 134.937L299.943 127.229C296.61 128.075 294.063 127.618 291.993 125.999L286.597 132.716ZM300.165 134.937C303.415 134.112 306.589 132.46 309.656 130.12L306.065 124.072C303.878 125.74 301.848 126.745 299.943 127.229L300.165 134.937ZM309.641 130.131C312.952 127.625 315.634 124.407 317.696 120.602L311.205 117.943C309.794 120.547 308.082 122.544 306.08 124.061L309.641 130.131ZM317.681 120.63C319.96 116.486 320.882 111.915 320.744 107.113L313.09 109.056C313.196 112.749 312.474 115.636 311.22 117.915L317.681 120.63Z" fill="white" fill-opacity="0.5" mask="url(#path-7-outside-4_59_66316)"/>
<mask id="path-9-outside-5_59_66316" maskUnits="userSpaceOnUse" x="335.293" y="32.2982" width="46.2544" height="104.297" fill="black">
<rect fill="white" x="335.293" y="32.2982" width="46.2544" height="104.297"/>
<path d="M375.018 54.7595L374.912 63.6924L339.93 71.1178L340.036 62.1849L375.018 54.7595ZM350.427 43.5842L360.799 41.3827L360.021 106.772C359.985 109.749 360.384 111.892 361.216 113.201C362.077 114.473 363.179 115.219 364.521 115.44C365.892 115.624 367.339 115.554 368.863 115.231C370.005 114.988 370.944 114.73 371.678 114.455C372.412 114.151 372.999 113.907 373.44 113.725L375.436 122.746C374.73 123.163 373.745 123.639 372.482 124.175C371.219 124.74 369.621 125.228 367.687 125.638C364.757 126.26 361.893 126.229 359.096 125.546C356.328 124.856 354.037 123.397 352.222 121.169C350.437 118.934 349.568 115.822 349.615 111.832L350.427 43.5842Z"/>
</mask>
<path d="M375.018 54.7595L378.846 53.9469L378.893 50.0561L375.064 50.8687L375.018 54.7595ZM374.912 63.6924L374.865 67.5831L378.694 66.7705L378.74 62.8798L374.912 63.6924ZM339.93 71.1178L336.102 71.9304L336.055 75.8211L339.883 75.0085L339.93 71.1178ZM340.036 62.1849L340.082 58.2942L336.254 59.1068L336.208 62.9975L340.036 62.1849ZM350.427 43.5842L350.474 39.6934L346.645 40.506L346.599 44.3968L350.427 43.5842ZM360.799 41.3827L364.627 40.5701L364.674 36.6793L360.845 37.4919L360.799 41.3827ZM361.216 113.201L357.881 115.856L357.903 115.891L357.927 115.925L361.216 113.201ZM364.521 115.44L363.15 119.371L363.196 119.378L363.243 119.385L364.521 115.44ZM371.678 114.455L372.237 118.168L372.31 118.141L372.383 118.111L371.678 114.455ZM373.44 113.725L377.184 112.073L376.403 108.548L372.734 110.069L373.44 113.725ZM375.436 122.746L376.737 126.103L379.879 124.248L379.18 121.094L375.436 122.746ZM372.482 124.175L371.743 120.533L371.702 120.551L371.66 120.569L372.482 124.175ZM359.096 125.546L357.475 129.425L357.482 129.427L357.489 129.429L359.096 125.546ZM352.222 121.169L349.066 124.074L349.074 124.084L349.082 124.094L352.222 121.169ZM371.19 55.5721L371.084 64.505L378.74 62.8798L378.846 53.9469L371.19 55.5721ZM374.958 59.8016L339.976 67.2271L339.883 75.0085L374.865 67.5831L374.958 59.8016ZM343.758 70.3052L343.864 61.3723L336.208 62.9975L336.102 71.9304L343.758 70.3052ZM339.99 66.0756L374.972 58.6502L375.064 50.8687L340.082 58.2942L339.99 66.0756ZM350.381 47.4749L360.753 45.2734L360.845 37.4919L350.474 39.6934L350.381 47.4749ZM356.971 42.1953L356.193 107.584L363.849 105.959L364.627 40.5701L356.971 42.1953ZM356.193 107.584C356.154 110.81 356.556 113.772 357.881 115.856L364.55 110.546C364.211 110.012 363.817 108.688 363.849 105.959L356.193 107.584ZM357.927 115.925C359.149 117.731 360.873 118.997 363.15 119.371L365.891 111.508C365.485 111.442 365.005 111.215 364.505 110.476L357.927 115.925ZM363.243 119.385C365.028 119.624 366.893 119.53 368.816 119.121L368.909 111.34C367.785 111.579 366.755 111.623 365.798 111.495L363.243 119.385ZM368.816 119.121C370.066 118.856 371.226 118.547 372.237 118.168L371.118 110.742C370.662 110.912 369.945 111.12 368.909 111.34L368.816 119.121ZM372.383 118.111C373.117 117.806 373.705 117.563 374.145 117.38L372.734 110.069C372.294 110.251 371.706 110.495 370.972 110.799L372.383 118.111ZM369.696 115.376L371.693 124.397L379.18 121.094L377.184 112.073L369.696 115.376ZM374.136 119.388C373.696 119.647 372.93 120.03 371.743 120.533L373.221 127.816C374.561 127.248 375.764 126.678 376.737 126.103L374.136 119.388ZM371.66 120.569C370.785 120.961 369.503 121.372 367.733 121.747L367.641 129.529C369.738 129.084 371.653 128.519 373.304 127.78L371.66 120.569ZM367.733 121.747C365.371 122.249 363.037 122.233 360.703 121.663L357.489 129.429C360.75 130.225 364.144 130.271 367.641 129.529L367.733 121.747ZM360.717 121.666C358.582 121.134 356.806 120.017 355.362 118.243L349.082 124.094C351.267 126.777 354.074 128.578 357.475 129.425L360.717 121.666ZM355.378 118.264C354.139 116.712 353.403 114.405 353.444 111.019L345.787 112.644C345.732 117.238 346.735 121.156 349.066 124.074L355.378 118.264ZM353.444 111.019L354.256 42.7716L346.599 44.3968L345.787 112.644L353.444 111.019Z" fill="white" fill-opacity="0.5" mask="url(#path-9-outside-5_59_66316)"/>
<defs>
<filter id="filter0_d_59_66316" x="5.97226" y="121.403" width="132.922" height="148.184" filterUnits="userSpaceOnUse" color-interpolation-filters="sRGB">
<feFlood flood-opacity="0" result="BackgroundImageFix"/>
<feColorMatrix in="SourceAlpha" type="matrix" values="0 0 0 0 0 0 0 0 0 0 0 0 0 0 0 0 0 0 127 0" result="hardAlpha"/>
<feOffset dy="12.6149"/>
<feGaussianBlur stdDeviation="6.30745"/>
<feComposite in2="hardAlpha" operator="out"/>
<feColorMatrix type="matrix" values="0 0 0 0 0 0 0 0 0 0 0 0 0 0 0 0 0 0 0.25 0"/>
<feBlend mode="normal" in2="BackgroundImageFix" result="effect1_dropShadow_59_66316"/>
<feBlend mode="normal" in="SourceGraphic" in2="effect1_dropShadow_59_66316" result="shape"/>
</filter>
</defs>
</svg>
