<svg width="112" height="124" viewBox="0 0 112 124" fill="none" xmlns="http://www.w3.org/2000/svg">
<path d="M84.5903 10.9755C80.3707 8.31612 70.2801 2 55.9699 2V121.674C55.9699 123.336 62.7949 119.081 90.0943 98.7364C98.4698 92.4946 115.302 62.535 108.257 43.3872C108.808 41.2264 102.753 22.4226 84.5903 10.9755Z" fill="#4AC7D1"/>
<path d="M55.9699 2V0H53.9699V2H55.9699ZM84.5903 10.9755L85.6567 9.28354L85.6567 9.28354L84.5903 10.9755ZM108.257 43.3872L106.319 42.8935L106.166 43.4952L106.38 44.0778L108.257 43.3872ZM90.0943 98.7364L91.2894 100.34L91.2894 100.34L90.0943 98.7364ZM55.9699 4C69.6827 4 79.3641 10.0458 83.524 12.6675L85.6567 9.28354C81.3772 6.58644 70.8775 0 55.9699 0V4ZM83.524 12.6675C92.2733 18.1818 98.1199 25.4785 101.711 31.6676C103.507 34.7609 104.725 37.5541 105.455 39.6728C105.821 40.7347 106.056 41.602 106.182 42.2351C106.245 42.553 106.276 42.7845 106.287 42.9356C106.301 43.1274 106.274 43.0721 106.319 42.8935L110.195 43.8809C110.31 43.4322 110.3 42.9768 110.277 42.6502C110.25 42.2829 110.19 41.8777 110.105 41.4522C109.934 40.5986 109.644 39.553 109.237 38.3693C108.419 35.9969 107.091 32.9685 105.171 29.6599C101.332 23.0451 95.0703 15.2164 85.6567 9.28354L83.524 12.6675ZM106.38 44.0778C109.637 52.9306 107.428 64.6127 103.108 75.1425C100.971 80.3527 98.3634 85.1649 95.7901 89.0414C93.1882 92.9609 90.7175 95.7777 88.8992 97.1327L91.2894 100.34C93.6589 98.5742 96.433 95.3054 99.1227 91.2536C101.841 87.1587 104.572 82.114 106.809 76.6606C111.238 65.8632 113.922 52.9916 110.134 42.6966L106.38 44.0778ZM88.8992 97.1327C75.247 107.307 66.7562 113.426 61.6885 116.792C59.1302 118.49 57.5425 119.42 56.6377 119.83C56.1169 120.066 56.0994 119.997 56.3414 120C56.5067 120.002 57.0023 120.046 57.4486 120.481C57.9096 120.93 57.9699 121.454 57.9699 121.674H53.9699C53.9699 122.102 54.0836 122.787 54.6579 123.347C55.2175 123.892 55.8864 123.995 56.2916 124C57.0135 124.009 57.7425 123.721 58.2881 123.474C59.5161 122.918 61.3408 121.824 63.9012 120.124C69.0709 116.691 77.6422 110.511 91.2894 100.34L88.8992 97.1327ZM53.9699 2V121.674H57.9699V2H53.9699Z" fill="#4AC7D1"/>
<path d="M27.3493 10.9755C31.569 8.31612 41.6596 2 55.9698 2V121.674C55.9698 123.336 49.1448 119.081 21.8454 98.7364C13.4699 92.4946 -3.36256 62.535 3.68242 43.3872C3.13203 41.2264 9.18638 22.4226 27.3493 10.9755Z" fill="#4AC7D1"/>
<path d="M55.9698 2V0H57.9698V2H55.9698ZM27.3493 10.9755L26.283 9.28354L26.283 9.28354L27.3493 10.9755ZM3.68242 43.3872L5.62054 42.8935L5.77378 43.4952L5.55941 44.0778L3.68242 43.3872ZM21.8454 98.7364L20.6503 100.34L20.6503 100.34L21.8454 98.7364ZM55.9698 4C42.257 4 32.5756 10.0458 28.4157 12.6675L26.283 9.28354C30.5625 6.58644 41.0622 0 55.9698 0V4ZM28.4157 12.6675C19.6664 18.1818 13.8198 25.4785 10.2282 31.6676C8.43309 34.7609 7.21512 37.5541 6.48485 39.6728C6.11882 40.7347 5.88404 41.602 5.75769 42.2351C5.69425 42.553 5.66368 42.7845 5.65287 42.9356C5.63915 43.1274 5.66602 43.0721 5.62054 42.8935L1.74431 43.8809C1.63003 43.4322 1.6397 42.9768 1.66307 42.6502C1.68934 42.2829 1.75014 41.8777 1.83505 41.4522C2.00541 40.5986 2.29521 39.553 2.70318 38.3693C3.5209 35.9969 4.8485 32.9685 6.76855 29.6599C10.6072 23.0451 16.8694 15.2164 26.283 9.28354L28.4157 12.6675ZM5.55941 44.0778C2.30222 52.9306 4.51203 64.6127 8.83157 75.1425C10.9689 80.3527 13.5763 85.1649 16.1496 89.0414C18.7514 92.9609 21.2222 95.7777 23.0405 97.1327L20.6503 100.34C18.2808 98.5742 15.5067 95.3054 12.817 91.2536C10.0987 87.1587 7.36794 82.114 5.13085 76.6606C0.701544 65.8632 -1.98236 52.9916 1.80544 42.6966L5.55941 44.0778ZM23.0405 97.1327C36.6927 107.307 45.1835 113.426 50.2512 116.792C52.8095 118.49 54.3972 119.42 55.302 119.83C55.8228 120.066 55.8403 119.997 55.5983 120C55.433 120.002 54.9374 120.046 54.4911 120.481C54.0301 120.93 53.9698 121.454 53.9698 121.674H57.9698C57.9698 122.102 57.8561 122.787 57.2818 123.347C56.7222 123.892 56.0532 123.995 55.6481 124C54.9262 124.009 54.1972 123.721 53.6516 123.474C52.4236 122.918 50.5989 121.824 48.0385 120.124C42.8688 116.691 34.2975 110.511 20.6503 100.34L23.0405 97.1327ZM57.9698 2V121.674H53.9698V2H57.9698Z" fill="#4AC7D1"/>
<path d="M47.1789 90.2089C46.7144 90.6734 45.9565 91.0171 44.74 91.0436C43.5095 91.0705 41.9407 90.7629 40.1123 90.0552C36.461 88.6418 32.1356 85.7722 28.087 81.7236C24.0384 77.675 21.1689 73.3496 19.7555 69.6983C19.0477 67.8699 18.7401 66.3011 18.767 65.0707C18.7936 63.8541 19.1373 63.0962 19.6018 62.6317C20.0662 62.1673 20.8242 61.8236 22.0407 61.797C23.2712 61.7701 24.84 62.0777 26.6684 62.7854C30.3197 64.1989 34.645 67.0684 38.6936 71.117C42.7423 75.1656 45.6118 79.491 47.0252 83.1423C47.733 84.9707 48.0406 86.5395 48.0137 87.7699C47.9871 88.9865 47.6434 89.7444 47.1789 90.2089Z" fill="#FC6EB3" stroke="#FC6EB3" stroke-width="4"/>
<path d="M91.1789 62.6317C91.6434 63.0962 91.9871 63.8541 92.0136 65.0707C92.0405 66.3011 91.7329 67.8699 91.0252 69.6983C89.6118 73.3496 86.7422 77.675 82.6936 81.7236C78.645 85.7722 74.3196 88.6418 70.6683 90.0552C68.8399 90.7629 67.2711 91.0705 66.0407 91.0436C64.8241 91.017 64.0662 90.6734 63.6017 90.2089C63.1373 89.7444 62.7936 88.9865 62.767 87.7699C62.7401 86.5395 63.0477 84.9707 63.7554 83.1423C65.1689 79.491 68.0384 75.1656 72.087 71.117C76.1356 67.0684 80.461 64.1988 84.1123 62.7854C85.9407 62.0777 87.5095 61.7701 88.7399 61.797C89.9565 61.8236 90.7144 62.1672 91.1789 62.6317Z" fill="#FC6EB3" stroke="#FC6EB3" stroke-width="4"/>
</svg>
