<svg width="156" height="170" viewBox="0 0 156 170" fill="none" xmlns="http://www.w3.org/2000/svg">
<g style="mix-blend-mode:hard-light" filter="url(#filter0_f_569_3783)">
<ellipse cx="77.9397" cy="85.0001" rx="65.9639" ry="73.2" fill="#33E9C6" fill-opacity="0.079"/>
</g>
<g style="mix-blend-mode:hard-light" filter="url(#filter1_f_569_3783)">
<path d="M48.7861 33.1295L49.6234 34.4581L49.6234 34.4581L48.7861 33.1295ZM77.9397 24H79.5101V22.4296H77.9397V24ZM29.6034 53.1618L30.9617 53.95L30.9617 53.95L29.6034 53.1618ZM25.6185 61.6952L24.1338 61.1835L24.1338 61.1835L25.6185 61.6952ZM24.7856 64.6479L26.3257 64.9553L26.3257 64.9553L24.7856 64.6479ZM24.6304 65.7215L23.064 65.6095L23.064 65.6095L24.6304 65.7215ZM24.6273 66.2809L26.1066 66.8082L26.2192 66.4923L26.1929 66.1579L24.6273 66.2809ZM28.026 99.2811L26.573 99.8771L26.573 99.8771L28.026 99.2811ZM35.6201 113.701L34.3117 114.569L34.3117 114.569L35.6201 113.701ZM43.2178 122.538L42.2794 123.797L42.2794 123.797L43.2178 122.538ZM70.5616 142.291L71.4303 140.983L71.4303 140.983L70.5616 142.291ZM76.0341 145.563L75.3861 146.994L75.3861 146.994L76.0341 145.563ZM77.6056 146L77.6251 147.57L77.6252 147.57L77.6056 146ZM77.9397 145.961L78.2931 144.43L77.9397 144.349L77.5864 144.43L77.9397 145.961ZM78.2739 146L78.2543 147.57L78.2543 147.57L78.2739 146ZM79.8453 145.563L80.4933 146.994L80.4933 146.994L79.8453 145.563ZM85.3179 142.291L84.4491 140.983L84.4491 140.983L85.3179 142.291ZM112.662 122.538L111.723 121.279L111.723 121.279L112.662 122.538ZM120.259 113.701L121.568 114.569L121.568 114.569L120.259 113.701ZM127.853 99.2811L129.306 99.8771L129.306 99.8771L127.853 99.2811ZM131.252 66.2809L129.687 66.158L129.66 66.4923L129.773 66.8082L131.252 66.2809ZM131.249 65.7215L132.815 65.6095L132.815 65.6095L131.249 65.7215ZM131.094 64.6479L129.554 64.9553L129.554 64.9553L131.094 64.6479ZM130.261 61.6952L128.776 62.2069L128.776 62.2069L130.261 61.6952ZM126.276 53.1618L127.634 52.3736L127.634 52.3736L126.276 53.1618ZM107.093 33.1295L106.256 34.4581L106.256 34.4581L107.093 33.1295ZM77.9398 24V22.4296H76.3693V24H77.9398ZM77.9398 26H76.3693V27.5704H77.9398V26ZM106.027 34.8215L106.864 33.493L106.864 33.493L106.027 34.8215ZM124.546 54.1657L123.188 54.9539L123.188 54.9539L124.546 54.1657ZM128.37 62.3469L129.855 61.8352L129.855 61.8352L128.37 62.3469ZM129.132 65.0394L130.673 64.732L130.673 64.732L129.132 65.0394ZM129.254 65.8643L130.821 65.7522L130.821 65.7522L129.254 65.8643ZM129.257 66.1388L130.822 66.2758L130.822 66.2753L129.257 66.1388ZM129.257 66.1439L127.688 66.2121L127.688 66.222L127.689 66.232L129.257 66.1439ZM129.258 66.1404L130.78 66.528L127.736 65.7526L129.258 66.1404ZM129.181 66.4412L127.66 66.0536L127.539 66.526L127.708 66.9835L129.181 66.4412ZM129.289 66.7325L130.762 66.1902L130.762 66.1902L129.289 66.7325ZM126.003 98.522L124.55 97.926L124.55 97.926L126.003 98.522ZM118.593 112.594L117.285 111.726L117.285 111.726L118.593 112.594ZM111.467 120.935L110.528 119.675L110.528 119.675L111.467 120.935ZM84.2115 140.625L83.3427 139.316L83.3427 139.316L84.2115 140.625ZM79.0201 143.741L79.6681 145.172L79.6681 145.172L79.0201 143.741ZM78.2992 144L78.0981 142.442L78.0917 142.443L78.2992 144ZM78.2988 144L78.0913 142.443L78.2792 145.57L78.2988 144ZM78.7208 144.197L77.6251 145.322L77.6251 145.322L78.7208 144.197ZM78.9398 144.674V146.244H80.5102V144.674H78.9398ZM76.9397 144.674H75.3693V146.244H76.9397V144.674ZM77.1587 144.197L78.2543 145.322L78.2544 145.322L77.1587 144.197ZM77.5806 144L77.6002 145.57L77.7882 142.443L77.5806 144ZM77.5802 144L77.7878 142.443L77.7814 142.442L77.5802 144ZM76.8593 143.741L76.2114 145.172L76.2114 145.172L76.8593 143.741ZM71.668 140.625L72.5367 139.316L72.5367 139.316L71.668 140.625ZM44.4129 120.935L45.3513 119.675L45.3513 119.675L44.4129 120.935ZM37.2864 112.594L38.5948 111.726L38.5948 111.726L37.2864 112.594ZM29.8763 98.522L28.4234 99.118L28.4234 99.118L29.8763 98.522ZM26.5908 66.7325L25.117 66.1902L25.117 66.1902L26.5908 66.7325ZM26.698 66.4412L28.1719 66.9835L28.3402 66.526L28.2199 66.0535L26.698 66.4412ZM26.6222 66.1388L28.1866 66.0023L28.1866 66.0023L26.6222 66.1388ZM26.6254 65.8643L28.1918 65.9763L28.1918 65.9763L26.6254 65.8643ZM26.747 65.0394L25.2069 64.732L25.2069 64.732L26.747 65.0394ZM27.5094 62.3469L26.0247 61.8352L26.0247 61.8352L27.5094 62.3469ZM31.3332 54.1657L29.9749 53.3774L29.9749 53.3774L31.3332 54.1657ZM49.8525 34.8215L49.0151 33.493L49.0151 33.493L49.8525 34.8215ZM77.9397 26V27.5704H79.5101V26H77.9397ZM49.6234 34.4581C53.8259 31.8095 63.7998 25.5704 77.9397 25.5704V22.4296C62.8618 22.4296 52.2454 29.093 47.9488 31.801L49.6234 34.4581ZM30.9617 53.95C34.6416 47.6088 40.6367 40.1219 49.6234 34.4581L47.9488 31.801C38.4404 37.7935 32.119 45.6981 28.2451 52.3736L30.9617 53.95ZM27.1032 62.2069C27.8648 59.9975 29.1219 57.1203 30.9617 53.95L28.2451 52.3736C26.3072 55.7129 24.964 58.7748 24.1338 61.1835L27.1032 62.2069ZM26.3257 64.9553C26.4678 64.2434 26.7222 63.3124 27.1032 62.2069L24.1338 61.1835C23.7199 62.3844 23.4222 63.4556 23.2456 64.3406L26.3257 64.9553ZM26.1969 65.8336C26.2132 65.6052 26.2546 65.3116 26.3257 64.9553L23.2456 64.3406C23.1576 64.7814 23.0925 65.2114 23.064 65.6095L26.1969 65.8336ZM26.1929 66.1579C26.1864 66.075 26.1873 65.9677 26.1969 65.8336L23.064 65.6095C23.048 65.8331 23.0386 66.1094 23.0617 66.4039L26.1929 66.1579ZM29.4789 98.6851C25.1558 88.1466 22.7783 76.1461 26.1066 66.8082L23.148 65.7537C19.4215 76.209 22.1628 89.1263 26.573 99.8771L29.4789 98.6851ZM36.9285 112.832C34.3034 108.878 31.6519 103.982 29.4789 98.6851L26.573 99.8771C28.8244 105.365 31.5727 110.443 34.3117 114.569L36.9285 112.832ZM44.1562 121.279C42.1409 119.777 39.5617 116.799 36.9285 112.832L34.3117 114.569C37.014 118.64 39.8313 121.973 42.2794 123.797L44.1562 121.279ZM71.4303 140.983C66.3262 137.593 57.8066 131.452 44.1562 121.279L42.2794 123.797C55.9259 133.967 64.5087 140.156 69.6928 143.599L71.4303 140.983ZM76.6821 144.132C75.6617 143.67 73.9892 142.682 71.4303 140.983L69.6928 143.599C72.2537 145.3 74.1122 146.416 75.3861 146.994L76.6821 144.132ZM77.586 144.43C77.4817 144.431 77.208 144.371 76.6821 144.132L75.3861 146.994C75.9391 147.244 76.7676 147.581 77.6251 147.57L77.586 144.43ZM77.5864 144.43L77.586 144.43L77.6252 147.57C77.8136 147.568 78.0427 147.549 78.2931 147.491L77.5864 144.43ZM77.5864 147.491C77.8368 147.549 78.0658 147.568 78.2543 147.57L78.2935 144.43L78.2931 144.43L77.5864 147.491ZM78.2543 147.57C79.1119 147.581 79.9404 147.244 80.4933 146.994L79.1974 144.132C78.6714 144.371 78.3977 144.431 78.2934 144.43L78.2543 147.57ZM80.4933 146.994C81.7673 146.416 83.6257 145.3 86.1866 143.599L84.4491 140.983C81.8903 142.682 80.2177 143.67 79.1974 144.132L80.4933 146.994ZM86.1866 143.599C91.3708 140.156 99.9536 133.967 113.6 123.797L111.723 121.279C98.0729 131.452 89.5533 137.593 84.4491 140.983L86.1866 143.599ZM113.6 123.797C116.048 121.973 118.865 118.64 121.568 114.569L118.951 112.832C116.318 116.799 113.739 119.777 111.723 121.279L113.6 123.797ZM121.568 114.569C124.307 110.443 127.055 105.365 129.306 99.8771L126.401 98.6851C124.228 103.982 121.576 108.878 118.951 112.832L121.568 114.569ZM129.306 99.8771C133.717 89.1263 136.458 76.209 132.731 65.7537L129.773 66.8082C133.101 76.1461 130.724 88.1466 126.401 98.6851L129.306 99.8771ZM132.818 66.4039C132.841 66.1094 132.831 65.8331 132.815 65.6095L129.683 65.8336C129.692 65.9677 129.693 66.075 129.687 66.158L132.818 66.4039ZM132.815 65.6095C132.787 65.2114 132.722 64.7814 132.634 64.3406L129.554 64.9553C129.625 65.3116 129.666 65.6052 129.683 65.8336L132.815 65.6095ZM132.634 64.3406C132.457 63.4556 132.16 62.3844 131.746 61.1835L128.776 62.2069C129.157 63.3124 129.412 64.2434 129.554 64.9553L132.634 64.3406ZM131.746 61.1835C130.915 58.7748 129.572 55.7129 127.634 52.3736L124.918 53.95C126.758 57.1203 128.015 59.9975 128.776 62.2069L131.746 61.1835ZM127.634 52.3736C123.76 45.6981 117.439 37.7935 107.931 31.801L106.256 34.4581C115.243 40.1219 121.238 47.6088 124.918 53.95L127.634 52.3736ZM107.931 31.801C103.634 29.093 93.0176 22.4296 77.9398 22.4296V25.5704C92.0796 25.5704 102.054 31.8095 106.256 34.4581L107.931 31.801ZM76.3693 24V26H79.5102V24H76.3693ZM77.9398 27.5704C91.4821 27.5704 101.047 33.539 105.19 36.1501L106.864 33.493C102.628 30.8229 92.4204 24.4296 77.9398 24.4296V27.5704ZM105.19 36.1501C113.844 41.6046 119.632 48.8255 123.188 54.9539L125.905 53.3774C122.154 46.9148 116.041 39.2762 106.864 33.493L105.19 36.1501ZM123.188 54.9539C124.965 58.0165 126.168 60.7761 126.885 62.8587L129.855 61.8352C129.068 59.5534 127.78 56.6091 125.905 53.3774L123.188 54.9539ZM126.885 62.8587C127.245 63.9033 127.472 64.7451 127.592 65.3467L130.673 64.732C130.518 63.9572 130.248 62.9753 129.855 61.8352L126.885 62.8587ZM127.592 65.3467C127.653 65.6493 127.679 65.8561 127.688 65.9763L130.821 65.7522C130.8 65.4621 130.75 65.119 130.673 64.732L127.592 65.3467ZM127.688 65.9763C127.691 66.0217 127.691 66.0418 127.691 66.0402C127.691 66.0393 127.691 66.0338 127.691 66.0243C127.692 66.0196 127.692 66.0147 127.692 66.0097C127.693 66.0047 127.693 66.0007 127.693 66.0023L130.822 66.2753C130.83 66.1794 130.839 66.0131 130.821 65.7522L127.688 65.9763ZM127.693 66.0019C127.693 66.0022 127.693 66.0045 127.692 66.0069C127.692 66.0091 127.692 66.0146 127.691 66.0215C127.691 66.027 127.69 66.0423 127.689 66.0617C127.688 66.0669 127.684 66.1314 127.688 66.2121L130.826 66.0757C130.828 66.1237 130.827 66.1615 130.827 66.1787C130.827 66.1989 130.826 66.2152 130.825 66.2249C130.824 66.2437 130.823 66.2583 130.823 66.2629C130.822 66.2721 130.821 66.2805 130.822 66.2758L127.693 66.0019ZM127.689 66.232C127.691 66.2628 127.695 66.3252 127.708 66.403C127.715 66.4469 127.748 66.6535 127.873 66.8857C127.938 67.0067 128.083 67.2409 128.362 67.4347C128.688 67.6602 129.106 67.7664 129.533 67.69C129.904 67.6236 130.153 67.4433 130.273 67.3416C130.401 67.2333 130.484 67.1275 130.527 67.0677C130.613 66.9492 130.663 66.8454 130.68 66.8085C130.703 66.7595 130.719 66.7192 130.727 66.6963C130.744 66.6507 130.756 66.6142 130.76 66.6002C130.769 66.5697 130.775 66.545 130.776 66.5418C130.778 66.5346 130.78 66.5284 130.78 66.5282L127.736 65.7526C127.736 65.7526 127.736 65.7524 127.736 65.7521C127.736 65.7517 127.737 65.7512 127.737 65.7505C127.737 65.7492 127.738 65.7464 127.739 65.7428C127.739 65.7406 127.746 65.7167 127.755 65.6868C127.759 65.6731 127.77 65.6369 127.787 65.5914C127.796 65.5686 127.811 65.5283 127.834 65.4795C127.851 65.4426 127.901 65.3388 127.987 65.2204C128.03 65.1606 128.113 65.0548 128.241 64.9465C128.361 64.8448 128.61 64.6645 128.98 64.5982C129.408 64.5217 129.826 64.6279 130.152 64.8534C130.431 65.0472 130.576 65.2814 130.641 65.4024C130.766 65.6346 130.799 65.8411 130.806 65.8849C130.819 65.9628 130.823 66.0251 130.825 66.0558L127.689 66.232ZM127.736 65.7527L127.66 66.0536L130.703 66.8288L130.78 66.528L127.736 65.7527ZM127.708 66.9835L127.815 67.2748L130.762 66.1902L130.655 65.8989L127.708 66.9835ZM127.815 67.2748C130.996 75.922 128.854 87.4344 124.55 97.926L127.456 99.118C131.846 88.4163 134.361 75.9698 130.762 66.1902L127.815 67.2748ZM124.55 97.926C122.427 103.102 119.837 107.881 117.285 111.726L119.901 113.463C122.568 109.446 125.255 104.485 127.456 99.118L124.55 97.926ZM117.285 111.726C114.695 115.627 112.268 118.379 110.528 119.675L112.405 122.194C114.578 120.575 117.243 117.467 119.901 113.463L117.285 111.726ZM110.528 119.675C96.8753 129.85 88.3959 135.961 83.3427 139.316L85.0802 141.933C90.2134 138.524 98.756 132.366 112.405 122.194L110.528 119.675ZM83.3427 139.316C80.7846 141.015 79.2308 141.922 78.3721 142.311L79.6681 145.172C80.7806 144.668 82.5208 143.633 85.0802 141.933L83.3427 139.316ZM78.3721 142.311C78.1648 142.405 78.049 142.444 78.0076 142.457C77.9873 142.463 77.9872 142.462 78.0049 142.458C78.0138 142.456 78.0272 142.454 78.0448 142.45C78.0537 142.449 78.0632 142.447 78.0735 142.446C78.0787 142.445 78.0837 142.444 78.0885 142.444C78.0909 142.443 78.0931 142.443 78.095 142.443C78.0968 142.443 78.0982 142.442 78.0981 142.442L78.5003 145.557C78.7094 145.53 79.0622 145.446 79.6681 145.172L78.3721 142.311ZM78.0917 142.443L78.0913 142.443L78.5064 145.557L78.5068 145.557L78.0917 142.443ZM78.2792 145.57C78.0889 145.568 77.8306 145.522 77.6251 145.322L79.8164 143.072C79.2213 142.493 78.554 142.433 78.3184 142.43L78.2792 145.57ZM77.6251 145.322C77.4146 145.117 77.3693 144.858 77.3693 144.674H80.5102C80.5102 144.373 80.4313 143.671 79.8164 143.072L77.6251 145.322ZM78.9398 143.103H78.9397V146.244H78.9398V143.103ZM78.9397 143.103H76.9398V146.244H78.9397V143.103ZM76.9397 146.244H76.9398V143.103H76.9397V146.244ZM76.063 143.072C75.4482 143.671 75.3693 144.373 75.3693 144.674H78.5101C78.5101 144.858 78.4649 145.117 78.2543 145.322L76.063 143.072ZM77.561 142.43C77.3255 142.433 76.6582 142.493 76.063 143.072L78.2544 145.322C78.0489 145.522 77.7906 145.568 77.6002 145.57L77.561 142.43ZM77.3727 145.557L77.3731 145.557L77.7882 142.443L77.7878 142.443L77.3727 145.557ZM76.2114 145.172C76.8172 145.446 77.17 145.53 77.3791 145.557L77.7814 142.442C77.7812 142.442 77.7827 142.443 77.7845 142.443C77.7864 142.443 77.7885 142.443 77.7909 142.444C77.7958 142.444 77.8008 142.445 77.8059 142.446C77.8162 142.447 77.8258 142.449 77.8346 142.45C77.8522 142.454 77.8656 142.456 77.8746 142.458C77.8923 142.462 77.8922 142.463 77.8719 142.457C77.8304 142.444 77.7146 142.405 77.5073 142.311L76.2114 145.172ZM70.7992 141.933C73.3587 143.633 75.0988 144.668 76.2114 145.172L77.5073 142.311C76.6487 141.922 75.0949 141.015 72.5367 139.316L70.7992 141.933ZM43.4745 122.194C57.1234 132.366 65.666 138.524 70.7992 141.933L72.5367 139.316C67.4835 135.961 59.0042 129.85 45.3513 119.675L43.4745 122.194ZM35.978 113.463C38.6362 117.467 41.3019 120.575 43.4745 122.194L45.3513 119.675C43.6117 118.379 41.1842 115.627 38.5948 111.726L35.978 113.463ZM28.4234 99.118C30.6248 104.485 33.3115 109.446 35.978 113.463L38.5948 111.726C36.0422 107.881 33.4524 103.102 31.3293 97.926L28.4234 99.118ZM25.117 66.1902C21.5189 75.9698 24.0333 88.4163 28.4234 99.118L31.3293 97.926C27.0254 87.4344 24.8832 75.922 28.0647 67.2748L25.117 66.1902ZM25.2242 65.8989L25.117 66.1902L28.0647 67.2748L28.1719 66.9835L25.2242 65.8989ZM25.0996 66.528L25.1762 66.8288L28.2199 66.0535L28.1432 65.7527L25.0996 66.528ZM25.0577 66.2753C25.0583 66.283 25.0571 66.269 25.056 66.2544C25.0557 66.2493 25.0534 66.2192 25.0525 66.1806C25.0521 66.1632 25.0512 66.1177 25.0544 66.0596C25.0559 66.0305 25.0595 65.9786 25.069 65.9142C25.0761 65.8661 25.0979 65.7272 25.1643 65.5611C25.1939 65.4871 25.4193 64.8967 26.1127 64.6587C26.9557 64.3693 27.5599 64.8702 27.697 64.9988C27.8712 65.1622 27.9642 65.3263 27.9901 65.3721C28.0288 65.4408 28.0542 65.4981 28.0671 65.5282C28.0931 65.5894 28.1094 65.6387 28.1151 65.656C28.1226 65.679 28.128 65.6974 28.1309 65.7073C28.1365 65.7267 28.1404 65.7418 28.1412 65.7448C28.1419 65.7476 28.1425 65.7497 28.1428 65.7508C28.143 65.7519 28.1432 65.7527 28.1432 65.7527L25.0996 66.528C25.0998 66.5287 25.101 66.5336 25.1025 66.5393C25.1036 66.5434 25.1077 66.5593 25.1135 66.5792C25.1164 66.5894 25.1219 66.6081 25.1295 66.6313C25.1352 66.6489 25.1516 66.6984 25.1777 66.7596C25.1906 66.7899 25.216 66.8472 25.2548 66.9159C25.2807 66.9618 25.3737 67.1259 25.5479 67.2893C25.685 67.4179 26.2893 67.9188 27.1323 67.6294C27.8257 67.3914 28.0511 66.801 28.0807 66.727C28.1471 66.5609 28.1689 66.4219 28.176 66.3737C28.1856 66.3093 28.1891 66.2573 28.1907 66.2282C28.1938 66.1699 28.1929 66.1242 28.1925 66.1065C28.1916 66.0675 28.1893 66.0367 28.1889 66.0308C28.1881 66.02 28.1874 66.0114 28.1872 66.0087C28.1869 66.0055 28.1867 66.0025 28.1866 66.0023L25.0577 66.2753ZM25.0589 65.7522C25.0403 66.0131 25.0493 66.1795 25.0577 66.2753L28.1866 66.0023C28.1865 66.0006 28.1868 66.0046 28.1872 66.0096C28.1876 66.0146 28.1879 66.0195 28.1882 66.0243C28.1887 66.0338 28.1888 66.0392 28.1888 66.0402C28.1888 66.0418 28.1885 66.0217 28.1918 65.9763L25.0589 65.7522ZM25.2069 64.732C25.1297 65.119 25.0797 65.4621 25.0589 65.7522L28.1918 65.9763C28.2004 65.8561 28.2266 65.6493 28.287 65.3467L25.2069 64.732ZM26.0247 61.8352C25.6317 62.9753 25.3615 63.9572 25.2069 64.732L28.287 65.3467C28.4071 64.7451 28.634 63.9033 28.9941 62.8587L26.0247 61.8352ZM29.9749 53.3774C28.0995 56.6091 26.8111 59.5534 26.0247 61.8352L28.9941 62.8587C29.7119 60.7761 30.9142 58.0165 32.6915 54.9539L29.9749 53.3774ZM49.0151 33.493C39.8389 39.2762 33.7253 46.9148 29.9749 53.3774L32.6915 54.9539C36.2479 48.8255 42.0352 41.6046 50.6898 36.1501L49.0151 33.493ZM77.9397 24.4296C63.4591 24.4296 53.2517 30.8229 49.0151 33.493L50.6898 36.1501C54.8328 33.539 64.3974 27.5704 77.9397 27.5704V24.4296ZM76.3693 24V26H79.5101V24H76.3693Z" fill="#00A8A8"/>
</g>
<g style="mix-blend-mode:hard-light" filter="url(#filter2_f_569_3783)">
<path d="M48.7861 33.1295L49.8811 34.8669L49.8811 34.8669L48.7861 33.1295ZM77.9397 24H79.9933V21.9464H77.9397V24ZM29.6034 53.1618L31.3796 54.1926L31.3796 54.1926L29.6034 53.1618ZM25.6185 61.6952L23.677 61.026L23.677 61.026L25.6185 61.6952ZM24.7856 64.6479L26.7996 65.0499L26.7996 65.0499L24.7856 64.6479ZM24.6304 65.7215L22.5821 65.575L22.5821 65.575L24.6304 65.7215ZM24.6273 66.2809L26.5617 66.9704L26.709 66.5573L26.6746 66.1201L24.6273 66.2809ZM28.026 99.2811L26.126 100.06L26.126 100.06L28.026 99.2811ZM35.6201 113.701L33.9091 114.836L33.9091 114.836L35.6201 113.701ZM43.2178 122.538L41.9906 124.185L41.9906 124.185L43.2178 122.538ZM70.5616 142.291L71.6976 140.58L71.6976 140.58L70.5616 142.291ZM76.0341 145.563L75.1868 147.434L75.1868 147.434L76.0341 145.563ZM77.6056 146L77.6311 148.053L77.6312 148.053L77.6056 146ZM77.9397 145.961L78.4018 143.96L77.9397 143.853L77.4777 143.96L77.9397 145.961ZM78.2739 146L78.2483 148.053L78.2483 148.053L78.2739 146ZM79.8453 145.563L80.6927 147.434L80.6927 147.434L79.8453 145.563ZM85.3179 142.291L84.1818 140.58L84.1818 140.58L85.3179 142.291ZM112.662 122.538L111.435 120.892L111.435 120.892L112.662 122.538ZM120.259 113.701L121.97 114.836L121.97 114.836L120.259 113.701ZM127.853 99.2811L129.753 100.06L129.753 100.06L127.853 99.2811ZM131.252 66.2809L129.205 66.1201L129.17 66.5573L129.318 66.9704L131.252 66.2809ZM131.249 65.7215L133.297 65.575L133.297 65.575L131.249 65.7215ZM131.094 64.6479L129.08 65.0499L129.08 65.0499L131.094 64.6479ZM130.261 61.6952L128.319 62.3644L128.319 62.3644L130.261 61.6952ZM126.276 53.1618L128.052 52.131L128.052 52.131L126.276 53.1618ZM107.093 33.1295L105.998 34.8669L105.998 34.8669L107.093 33.1295ZM77.9398 24V21.9464H75.8861V24H77.9398ZM77.9398 26H75.8861V28.0536H77.9398V26ZM106.027 34.8215L107.122 33.0842L107.122 33.0842L106.027 34.8215ZM124.546 54.1657L122.77 55.1964L122.77 55.1964L124.546 54.1657ZM128.37 62.3469L130.312 61.6777L130.312 61.6777L128.37 62.3469ZM129.132 65.0394L131.146 64.6375L131.146 64.6374L129.132 65.0394ZM129.254 65.8643L131.303 65.7177L131.303 65.7177L129.254 65.8643ZM129.257 66.1388L131.303 66.3179L131.303 66.3173L129.257 66.1388ZM129.257 66.1439L127.205 66.2331L127.206 66.2461L127.207 66.2591L129.257 66.1439ZM129.258 66.1404L131.248 66.6473L127.268 65.6333L129.258 66.1404ZM129.181 66.4412L127.191 65.9343L127.034 66.552L127.254 67.1503L129.181 66.4412ZM129.289 66.7325L131.216 66.0234L131.216 66.0234L129.289 66.7325ZM126.003 98.522L124.103 97.7426L124.103 97.7426L126.003 98.522ZM118.593 112.594L116.882 111.459L116.882 111.459L118.593 112.594ZM111.467 120.935L110.239 119.288L110.239 119.288L111.467 120.935ZM84.2115 140.625L83.0754 138.914L83.0754 138.914L84.2115 140.625ZM79.0201 143.741L79.8675 145.612L79.8675 145.612L79.0201 143.741ZM78.2992 144L78.0362 141.963L78.0278 141.964L78.2992 144ZM78.2988 144L78.0274 141.964L78.2732 146.054L78.2988 144ZM78.7208 144.197L77.288 145.669L77.288 145.669L78.7208 144.197ZM78.9398 144.674V146.728H80.9934V144.674H78.9398ZM76.9397 144.674H74.8861V146.728H76.9397V144.674ZM77.1587 144.197L78.5915 145.669L78.5915 145.669L77.1587 144.197ZM77.5806 144L77.6063 146.054L77.8521 141.964L77.5806 144ZM77.5802 144L77.8517 141.964L77.8432 141.963L77.5802 144ZM76.8593 143.741L76.012 145.612L76.012 145.612L76.8593 143.741ZM71.668 140.625L72.804 138.914L72.804 138.914L71.668 140.625ZM44.4129 120.935L45.64 119.288L45.64 119.288L44.4129 120.935ZM37.2864 112.594L38.9973 111.459L38.9973 111.459L37.2864 112.594ZM29.8763 98.522L27.9763 99.3014L27.9763 99.3014L29.8763 98.522ZM26.5908 66.7325L24.6635 66.0234L24.6635 66.0234L26.5908 66.7325ZM26.698 66.4412L28.6254 67.1503L28.8455 66.552L28.6881 65.9343L26.698 66.4412ZM26.6222 66.1388L28.668 65.9603L28.668 65.9603L26.6222 66.1388ZM26.6254 65.8643L28.6737 66.0108L28.6737 66.0108L26.6254 65.8643ZM26.747 65.0394L24.733 64.6374L24.733 64.6374L26.747 65.0394ZM27.5094 62.3469L25.5678 61.6777L25.5678 61.6777L27.5094 62.3469ZM31.3332 54.1657L29.557 53.1349L29.557 53.1349L31.3332 54.1657ZM49.8525 34.8215L48.7575 33.0842L48.7575 33.0842L49.8525 34.8215ZM77.9397 26V28.0536H79.9933V26H77.9397ZM49.8811 34.8669C54.0691 32.2274 63.9442 26.0536 77.9397 26.0536V21.9464C62.7175 21.9464 52.0023 28.6751 47.6911 31.3922L49.8811 34.8669ZM31.3796 54.1926C35.0297 47.9028 40.9746 40.4802 49.8811 34.8669L47.6911 31.3922C38.1025 37.4353 31.7309 45.4041 27.8272 52.131L31.3796 54.1926ZM27.5601 62.3644C28.311 60.1856 29.5549 57.3368 31.3796 54.1926L27.8272 52.131C25.8742 55.4964 24.5177 58.5867 23.677 61.026L27.5601 62.3644ZM26.7996 65.0499C26.9363 64.3646 27.1841 63.4551 27.5601 62.3644L23.677 61.026C23.258 62.2417 22.9537 63.3344 22.7717 64.246L26.7996 65.0499ZM26.6788 65.8681C26.6933 65.6658 26.7311 65.3932 26.7996 65.0499L22.7717 64.246C22.6812 64.6998 22.6124 65.1508 22.5821 65.575L26.6788 65.8681ZM26.6746 66.1201C26.6707 66.0697 26.6702 65.9884 26.6788 65.8681L22.5821 65.575C22.5651 65.8124 22.5543 66.1147 22.58 66.4418L26.6746 66.1201ZM29.9259 98.5017C25.6163 87.9959 23.2947 76.1364 26.5617 66.9704L22.6929 65.5915C18.9051 76.2186 21.7024 89.277 26.126 100.06L29.9259 98.5017ZM37.3311 112.565C34.7235 108.637 32.0869 103.769 29.9259 98.5017L26.126 100.06C28.3893 105.578 31.1526 110.684 33.9091 114.836L37.3311 112.565ZM44.4449 120.892C42.4962 119.439 39.9536 116.515 37.3311 112.565L33.9091 114.836C36.622 118.923 39.476 122.311 41.9906 124.185L44.4449 120.892ZM71.6976 140.58C66.6058 137.199 58.0959 131.065 44.4449 120.892L41.9906 124.185C55.6365 134.354 64.2291 140.551 69.4255 144.002L71.6976 140.58ZM76.8815 143.692C75.9001 143.248 74.2562 142.279 71.6976 140.58L69.4255 144.002C71.9867 145.702 73.8738 146.839 75.1868 147.434L76.8815 143.692ZM77.58 143.946C77.6185 143.946 77.5786 143.952 77.4307 143.908C77.2889 143.865 77.1094 143.796 76.8815 143.692L75.1868 147.434C75.7438 147.686 76.6577 148.065 77.6311 148.053L77.58 143.946ZM77.4777 143.96C77.5257 143.949 77.5606 143.947 77.5799 143.946L77.6312 148.053C77.8474 148.051 78.1116 148.029 78.4018 147.962L77.4777 143.96ZM77.4777 147.962C77.7678 148.029 78.0321 148.051 78.2483 148.053L78.2995 143.946C78.3188 143.947 78.3538 143.949 78.4018 143.96L77.4777 147.962ZM78.2483 148.053C79.2217 148.065 80.1356 147.686 80.6927 147.434L78.998 143.692C78.77 143.796 78.5905 143.865 78.4487 143.908C78.3009 143.952 78.2609 143.946 78.2995 143.946L78.2483 148.053ZM80.6927 147.434C82.0057 146.839 83.8927 145.702 86.4539 144.002L84.1818 140.58C81.6233 142.279 79.9794 143.248 78.998 143.692L80.6927 147.434ZM86.4539 144.002C91.6504 140.551 100.243 134.354 113.889 124.185L111.435 120.892C97.7835 131.065 89.2736 137.199 84.1818 140.58L86.4539 144.002ZM113.889 124.185C116.403 122.311 119.257 118.923 121.97 114.836L118.548 112.565C115.926 116.515 113.383 119.439 111.435 120.892L113.889 124.185ZM121.97 114.836C124.727 110.684 127.49 105.578 129.753 100.06L125.954 98.5017C123.793 103.769 121.156 108.637 118.548 112.565L121.97 114.836ZM129.753 100.06C134.177 89.277 136.974 76.2186 133.187 65.5915L129.318 66.9704C132.585 76.1364 130.263 87.9959 125.954 98.5017L129.753 100.06ZM133.299 66.4418C133.325 66.1147 133.314 65.8124 133.297 65.575L129.201 65.8681C129.209 65.9884 129.209 66.0697 129.205 66.1201L133.299 66.4418ZM133.297 65.575C133.267 65.1508 133.198 64.6998 133.108 64.246L129.08 65.0499C129.148 65.3931 129.186 65.6658 129.201 65.8681L133.297 65.575ZM133.108 64.246C132.926 63.3344 132.621 62.2417 132.202 61.026L128.319 62.3644C128.695 63.4551 128.943 64.3646 129.08 65.0499L133.108 64.246ZM132.202 61.026C131.362 58.5867 130.005 55.4964 128.052 52.131L124.5 54.1926C126.325 57.3368 127.568 60.1857 128.319 62.3644L132.202 61.026ZM128.052 52.131C124.149 45.4041 117.777 37.4353 108.188 31.3922L105.998 34.8669C114.905 40.4802 120.85 47.9028 124.5 54.1926L128.052 52.131ZM108.188 31.3922C103.877 28.6751 93.162 21.9464 77.9398 21.9464V26.0536C91.9353 26.0536 101.81 32.2274 105.998 34.8669L108.188 31.3922ZM75.8861 24V26H79.9934V24H75.8861ZM77.9398 28.0536C91.3377 28.0536 100.803 33.9569 104.932 36.5589L107.122 33.0842C102.871 30.405 92.5647 23.9464 77.9398 23.9464V28.0536ZM104.932 36.5589C113.506 41.9629 119.243 49.1195 122.77 55.1964L126.322 53.1349C122.542 46.6208 116.378 38.918 107.122 33.0842L104.932 36.5589ZM122.77 55.1964C124.532 58.233 125.721 60.9642 126.429 63.0161L130.312 61.6777C129.515 59.3653 128.213 56.3926 126.322 53.1349L122.77 55.1964ZM126.429 63.0161C126.784 64.046 127.004 64.8663 127.119 65.4413L131.146 64.6374C130.986 63.836 130.71 62.8326 130.312 61.6777L126.429 63.0161ZM127.119 65.4413C127.176 65.7309 127.199 65.9167 127.206 66.0108L131.303 65.7177C131.28 65.4015 131.226 65.0374 131.146 64.6375L127.119 65.4413ZM127.206 66.0108C127.208 66.0439 127.207 66.0506 127.207 66.0347C127.208 66.0266 127.208 66.0141 127.209 65.9976C127.209 65.9893 127.21 65.9812 127.21 65.9732C127.211 65.9653 127.212 65.959 127.211 65.9603L131.303 66.3173C131.314 66.1983 131.323 66.0063 131.303 65.7177L127.206 66.0108ZM127.211 65.9597C127.211 65.96 127.211 65.9628 127.211 65.9657C127.211 65.9684 127.21 65.9755 127.209 65.9844C127.209 65.9914 127.207 66.0113 127.206 66.0365C127.206 66.0433 127.201 66.1276 127.205 66.2331L131.309 66.0547C131.311 66.1175 131.311 66.167 131.31 66.1895C131.309 66.2159 131.308 66.2373 131.308 66.25C131.307 66.2747 131.305 66.2939 131.305 66.3001C131.304 66.3124 131.303 66.3237 131.303 66.3179L127.211 65.9597ZM127.207 66.2591C127.209 66.2993 127.214 66.3809 127.231 66.4828C127.241 66.5401 127.284 66.8103 127.447 67.1139C127.532 67.2722 127.721 67.5784 128.087 67.8318C128.512 68.1267 129.059 68.2656 129.619 68.1656C130.103 68.0789 130.429 67.843 130.585 67.7101C130.752 67.5685 130.861 67.4301 130.918 67.3519C131.031 67.197 131.095 67.0613 131.118 67.0129C131.148 66.949 131.168 66.8962 131.179 66.8663C131.202 66.8066 131.217 66.7589 131.222 66.7407C131.234 66.7009 131.243 66.6688 131.244 66.6647C131.246 66.6554 131.248 66.6475 131.248 66.6475L127.268 65.6333C127.268 65.6332 127.268 65.6329 127.268 65.6324C127.268 65.6319 127.269 65.6312 127.269 65.6302C127.269 65.6284 127.27 65.6247 127.271 65.6199C127.272 65.6168 127.28 65.5855 127.292 65.5463C127.298 65.5283 127.312 65.4809 127.335 65.4214C127.346 65.3916 127.366 65.3389 127.396 65.275C127.419 65.2267 127.484 65.0911 127.596 64.9361C127.653 64.858 127.762 64.7196 127.928 64.578C128.085 64.4451 128.411 64.2092 128.895 64.1225C129.455 64.0225 130.002 64.1615 130.427 64.4563C130.793 64.7097 130.982 65.0159 131.067 65.1742C131.23 65.4778 131.273 65.7479 131.282 65.8052C131.299 65.907 131.305 65.9885 131.307 66.0287L127.207 66.2591ZM127.268 65.6335L127.191 65.9343L131.172 66.9481L131.248 66.6473L127.268 65.6335ZM127.254 67.1503L127.361 67.4416L131.216 66.0234L131.109 65.7321L127.254 67.1503ZM127.361 67.4416C130.479 75.9146 128.394 87.2834 124.103 97.7426L127.903 99.3014C132.306 88.5673 134.878 75.9772 131.216 66.0234L127.361 67.4416ZM124.103 97.7426C121.992 102.889 119.417 107.64 116.882 111.459L120.304 113.73C122.988 109.687 125.69 104.697 127.903 99.3014L124.103 97.7426ZM116.882 111.459C114.303 115.343 111.912 118.041 110.239 119.288L112.694 122.581C114.933 120.913 117.635 117.751 120.304 113.73L116.882 111.459ZM110.239 119.288C96.5859 129.463 88.1163 135.566 83.0754 138.914L85.3475 142.335C90.4931 138.919 99.0454 132.753 112.694 122.581L110.239 119.288ZM83.0754 138.914C80.5175 140.612 78.9924 141.499 78.1728 141.871L79.8675 145.612C81.0191 145.09 82.7879 144.035 85.3475 142.335L83.0754 138.914ZM78.1728 141.871C77.9804 141.958 77.8837 141.989 77.8648 141.995C77.856 141.998 77.8687 141.993 77.9005 141.986C77.9165 141.983 77.9373 141.979 77.9626 141.974C77.9753 141.972 77.9887 141.97 78.0028 141.968C78.0099 141.967 78.0167 141.966 78.0232 141.965C78.0265 141.965 78.0294 141.964 78.0319 141.964C78.0344 141.963 78.0363 141.963 78.0362 141.963L78.5622 146.037C78.8325 146.002 79.2327 145.899 79.8675 145.612L78.1728 141.871ZM78.0278 141.964L78.0274 141.964L78.5702 146.036L78.5706 146.036L78.0278 141.964ZM78.2732 146.054C78.0173 146.05 77.6166 145.989 77.288 145.669L80.1536 142.726C79.4352 142.026 78.6256 141.95 78.3244 141.947L78.2732 146.054ZM77.288 145.669C76.9504 145.34 76.8861 144.932 76.8861 144.674H80.9934C80.9934 144.299 80.8954 143.449 80.1536 142.726L77.288 145.669ZM78.9398 142.62H78.9397V146.728H78.9398V142.62ZM78.9397 142.62H76.9398V146.728H78.9397V142.62ZM76.9397 146.728H76.9398V142.62H76.9397V146.728ZM75.7259 142.726C74.9841 143.449 74.8861 144.299 74.8861 144.674H78.9933C78.9933 144.932 78.929 145.34 78.5915 145.669L75.7259 142.726ZM77.555 141.947C77.2539 141.95 76.4442 142.026 75.7259 142.726L78.5915 145.669C78.2628 145.989 77.8622 146.05 77.6063 146.054L77.555 141.947ZM77.3088 146.036L77.3092 146.036L77.8521 141.964L77.8517 141.964L77.3088 146.036ZM76.012 145.612C76.6468 145.899 77.0469 146.002 77.3172 146.037L77.8432 141.963C77.8431 141.963 77.8451 141.963 77.8475 141.964C77.8501 141.964 77.853 141.965 77.8562 141.965C77.8628 141.966 77.8696 141.967 77.8766 141.968C77.8907 141.97 77.9042 141.972 77.9169 141.974C77.9421 141.979 77.963 141.983 77.979 141.986C78.0108 141.993 78.0235 141.998 78.0146 141.995C77.9958 141.989 77.899 141.958 77.7067 141.871L76.012 145.612ZM70.5319 142.335C73.0916 144.035 74.8604 145.09 76.012 145.612L77.7067 141.871C76.8871 141.499 75.362 140.612 72.804 138.914L70.5319 142.335ZM43.1857 122.581C56.8341 132.753 65.3864 138.919 70.5319 142.335L72.804 138.914C67.7632 135.566 59.2935 129.463 45.64 119.288L43.1857 122.581ZM35.5754 113.73C38.2442 117.751 40.9466 120.913 43.1857 122.581L45.64 119.288C43.967 118.041 41.5762 115.343 38.9973 111.459L35.5754 113.73ZM27.9763 99.3014C30.1898 104.697 32.8914 109.687 35.5754 113.73L38.9973 111.459C36.4623 107.64 33.8874 102.889 31.7763 97.7426L27.9763 99.3014ZM24.6635 66.0234C21.0013 75.9772 23.573 88.5673 27.9763 99.3014L31.7763 97.7426C27.4857 87.2834 25.4007 75.9146 28.5182 67.4416L24.6635 66.0234ZM24.7707 65.7321L24.6635 66.0234L28.5182 67.4416L28.6254 67.1503L24.7707 65.7321ZM24.6313 66.6473L24.7079 66.9481L28.6881 65.9343L28.6115 65.6335L24.6313 66.6473ZM24.5763 66.3173C24.5771 66.3269 24.5754 66.3082 24.574 66.2888C24.5736 66.282 24.5707 66.2425 24.5695 66.192C24.5689 66.1692 24.5678 66.1096 24.5719 66.0337C24.5739 65.9956 24.5785 65.9277 24.591 65.8435C24.6003 65.7806 24.6288 65.5989 24.7156 65.3817C24.7543 65.2849 25.0491 64.5129 25.9558 64.2017C27.0582 63.8233 27.8484 64.4782 28.0276 64.6464C28.2554 64.8601 28.377 65.0747 28.4109 65.1346C28.4615 65.2244 28.4948 65.2993 28.5116 65.3388C28.5457 65.4187 28.567 65.4832 28.5744 65.506C28.5842 65.5361 28.5913 65.5602 28.5951 65.5732C28.6024 65.5986 28.6076 65.6184 28.6087 65.6226C28.6097 65.6263 28.6104 65.6292 28.6108 65.6307C28.6112 65.6322 28.6115 65.6333 28.6115 65.6335L24.6313 66.6473C24.6315 66.648 24.6331 66.6542 24.635 66.6616C24.6364 66.6667 24.6417 66.6874 24.6493 66.7134C24.6531 66.7267 24.6603 66.7511 24.6702 66.7814C24.6777 66.8043 24.699 66.869 24.7332 66.9491C24.75 66.9886 24.7833 67.0636 24.834 67.1534C24.8678 67.2134 24.9895 67.428 25.2173 67.6417C25.3966 67.8099 26.1867 68.4648 27.2892 68.0865C28.1959 67.7753 28.4907 67.0032 28.5294 66.9064C28.6163 66.6891 28.6447 66.5074 28.6541 66.4444C28.6665 66.3602 28.6711 66.2922 28.6732 66.2541C28.6773 66.178 28.6761 66.1182 28.6756 66.0951C28.6744 66.0441 28.6714 66.004 28.6709 65.9964C28.6699 65.9824 28.669 65.9713 28.6687 65.9681C28.6685 65.9657 28.6683 65.9638 28.6682 65.9627C28.6681 65.9616 28.668 65.9606 28.668 65.9603L24.5763 66.3173ZM24.577 65.7177C24.5563 66.0063 24.5659 66.1984 24.5763 66.3174L28.668 65.9603C28.6679 65.9589 28.6685 65.9652 28.6691 65.9731C28.6697 65.9811 28.6702 65.9893 28.6707 65.9975C28.6716 66.014 28.6719 66.0266 28.672 66.0347C28.6722 66.0506 28.6714 66.0439 28.6737 66.0108L24.577 65.7177ZM24.733 64.6374C24.6532 65.0374 24.5996 65.4015 24.577 65.7177L28.6737 66.0108C28.6805 65.9167 28.7031 65.7309 28.7609 65.4413L24.733 64.6374ZM25.5678 61.6777C25.1698 62.8325 24.893 63.836 24.733 64.6374L28.7609 65.4413C28.8756 64.8663 29.0959 64.046 29.4509 63.0161L25.5678 61.6777ZM29.557 53.1349C27.6665 56.3926 26.3649 59.3653 25.5678 61.6777L29.4509 63.0161C30.1581 60.9642 31.3472 58.233 33.1094 55.1964L29.557 53.1349ZM48.7575 33.0842C39.5011 38.918 33.3373 46.6208 29.557 53.1349L33.1094 55.1964C36.636 49.1195 42.373 41.9629 50.9474 36.5589L48.7575 33.0842ZM77.9397 23.9464C63.3147 23.9464 53.0085 30.405 48.7575 33.0842L50.9474 36.5589C55.076 33.9569 64.5418 28.0536 77.9397 28.0536V23.9464ZM75.8861 24V26H79.9933V24H75.8861Z" fill="#00A8A8"/>
</g>
<g style="mix-blend-mode:hard-light" filter="url(#filter3_ddi_569_3783)">
<path d="M48.7861 33.1295L49.6234 34.4581L49.6234 34.4581L48.7861 33.1295ZM77.9397 24H79.5101V22.4296H77.9397V24ZM29.6034 53.1618L30.9617 53.95L30.9617 53.95L29.6034 53.1618ZM25.6185 61.6952L24.1338 61.1835L24.1338 61.1835L25.6185 61.6952ZM24.7856 64.6479L26.3257 64.9553L26.3257 64.9553L24.7856 64.6479ZM24.6304 65.7215L23.064 65.6095L23.064 65.6095L24.6304 65.7215ZM24.6273 66.2809L26.1066 66.8082L26.2192 66.4923L26.1929 66.1579L24.6273 66.2809ZM28.026 99.2811L26.573 99.8771L26.573 99.8771L28.026 99.2811ZM35.6201 113.701L34.3117 114.569L34.3117 114.569L35.6201 113.701ZM43.2178 122.538L42.2794 123.797L42.2794 123.797L43.2178 122.538ZM70.5616 142.291L71.4303 140.983L71.4303 140.983L70.5616 142.291ZM76.0341 145.563L75.3861 146.994L75.3861 146.994L76.0341 145.563ZM77.6056 146L77.6251 147.57L77.6252 147.57L77.6056 146ZM77.9397 145.961L78.2931 144.43L77.9397 144.349L77.5864 144.43L77.9397 145.961ZM78.2739 146L78.2543 147.57L78.2543 147.57L78.2739 146ZM79.8453 145.563L80.4933 146.994L80.4933 146.994L79.8453 145.563ZM85.3179 142.291L84.4491 140.983L84.4491 140.983L85.3179 142.291ZM112.662 122.538L111.723 121.279L111.723 121.279L112.662 122.538ZM120.259 113.701L121.568 114.569L121.568 114.569L120.259 113.701ZM127.853 99.2811L129.306 99.8771L129.306 99.8771L127.853 99.2811ZM131.252 66.2809L129.687 66.158L129.66 66.4923L129.773 66.8082L131.252 66.2809ZM131.249 65.7215L132.815 65.6095L132.815 65.6095L131.249 65.7215ZM131.094 64.6479L129.554 64.9553L129.554 64.9553L131.094 64.6479ZM130.261 61.6952L128.776 62.2069L128.776 62.2069L130.261 61.6952ZM126.276 53.1618L127.634 52.3736L127.634 52.3736L126.276 53.1618ZM107.093 33.1295L106.256 34.4581L106.256 34.4581L107.093 33.1295ZM77.9398 24V22.4296H76.3693V24H77.9398ZM77.9398 26H76.3693V27.5704H77.9398V26ZM106.027 34.8215L106.864 33.493L106.864 33.493L106.027 34.8215ZM124.546 54.1657L123.188 54.9539L123.188 54.9539L124.546 54.1657ZM128.37 62.3469L129.855 61.8352L129.855 61.8352L128.37 62.3469ZM129.132 65.0394L130.673 64.732L130.673 64.732L129.132 65.0394ZM129.254 65.8643L130.821 65.7522L130.821 65.7522L129.254 65.8643ZM129.257 66.1388L130.822 66.2758L130.822 66.2753L129.257 66.1388ZM129.257 66.1439L127.688 66.2121L127.688 66.222L127.689 66.232L129.257 66.1439ZM129.258 66.1404L130.78 66.528L127.736 65.7526L129.258 66.1404ZM129.181 66.4412L127.66 66.0536L127.539 66.526L127.708 66.9835L129.181 66.4412ZM129.289 66.7325L130.762 66.1902L130.762 66.1902L129.289 66.7325ZM126.003 98.522L124.55 97.926L124.55 97.926L126.003 98.522ZM118.593 112.594L117.285 111.726L117.285 111.726L118.593 112.594ZM111.467 120.935L110.528 119.675L110.528 119.675L111.467 120.935ZM84.2115 140.625L83.3427 139.316L83.3427 139.316L84.2115 140.625ZM79.0201 143.741L79.6681 145.172L79.6681 145.172L79.0201 143.741ZM78.2992 144L78.0981 142.442L78.0917 142.443L78.2992 144ZM78.2988 144L78.0913 142.443L78.2792 145.57L78.2988 144ZM78.7208 144.197L77.6251 145.322L77.6251 145.322L78.7208 144.197ZM78.9398 144.674V146.244H80.5102V144.674H78.9398ZM76.9397 144.674H75.3693V146.244H76.9397V144.674ZM77.1587 144.197L78.2543 145.322L78.2544 145.322L77.1587 144.197ZM77.5806 144L77.6002 145.57L77.7882 142.443L77.5806 144ZM77.5802 144L77.7878 142.443L77.7814 142.442L77.5802 144ZM76.8593 143.741L76.2114 145.172L76.2114 145.172L76.8593 143.741ZM71.668 140.625L72.5367 139.316L72.5367 139.316L71.668 140.625ZM44.4129 120.935L45.3513 119.675L45.3513 119.675L44.4129 120.935ZM37.2864 112.594L38.5948 111.726L38.5948 111.726L37.2864 112.594ZM29.8763 98.522L28.4234 99.118L28.4234 99.118L29.8763 98.522ZM26.5908 66.7325L25.117 66.1902L25.117 66.1902L26.5908 66.7325ZM26.698 66.4412L28.1719 66.9835L28.3402 66.526L28.2199 66.0535L26.698 66.4412ZM26.6222 66.1388L28.1866 66.0023L28.1866 66.0023L26.6222 66.1388ZM26.6254 65.8643L28.1918 65.9763L28.1918 65.9763L26.6254 65.8643ZM26.747 65.0394L25.2069 64.732L25.2069 64.732L26.747 65.0394ZM27.5094 62.3469L26.0247 61.8352L26.0247 61.8352L27.5094 62.3469ZM31.3332 54.1657L29.9749 53.3774L29.9749 53.3774L31.3332 54.1657ZM49.8525 34.8215L49.0151 33.493L49.0151 33.493L49.8525 34.8215ZM77.9397 26V27.5704H79.5101V26H77.9397ZM49.6234 34.4581C53.8259 31.8095 63.7998 25.5704 77.9397 25.5704V22.4296C62.8618 22.4296 52.2454 29.093 47.9488 31.801L49.6234 34.4581ZM30.9617 53.95C34.6416 47.6088 40.6367 40.1219 49.6234 34.4581L47.9488 31.801C38.4404 37.7935 32.119 45.6981 28.2451 52.3736L30.9617 53.95ZM27.1032 62.2069C27.8648 59.9975 29.1219 57.1203 30.9617 53.95L28.2451 52.3736C26.3072 55.7129 24.964 58.7748 24.1338 61.1835L27.1032 62.2069ZM26.3257 64.9553C26.4678 64.2434 26.7222 63.3124 27.1032 62.2069L24.1338 61.1835C23.7199 62.3844 23.4222 63.4556 23.2456 64.3406L26.3257 64.9553ZM26.1969 65.8336C26.2132 65.6052 26.2546 65.3116 26.3257 64.9553L23.2456 64.3406C23.1576 64.7814 23.0925 65.2114 23.064 65.6095L26.1969 65.8336ZM26.1929 66.1579C26.1864 66.075 26.1873 65.9677 26.1969 65.8336L23.064 65.6095C23.048 65.8331 23.0386 66.1094 23.0617 66.4039L26.1929 66.1579ZM29.4789 98.6851C25.1558 88.1466 22.7783 76.1461 26.1066 66.8082L23.148 65.7537C19.4215 76.209 22.1628 89.1263 26.573 99.8771L29.4789 98.6851ZM36.9285 112.832C34.3034 108.878 31.6519 103.982 29.4789 98.6851L26.573 99.8771C28.8244 105.365 31.5727 110.443 34.3117 114.569L36.9285 112.832ZM44.1562 121.279C42.1409 119.777 39.5617 116.799 36.9285 112.832L34.3117 114.569C37.014 118.64 39.8313 121.973 42.2794 123.797L44.1562 121.279ZM71.4303 140.983C66.3262 137.593 57.8066 131.452 44.1562 121.279L42.2794 123.797C55.9259 133.967 64.5087 140.156 69.6928 143.599L71.4303 140.983ZM76.6821 144.132C75.6617 143.67 73.9892 142.682 71.4303 140.983L69.6928 143.599C72.2537 145.3 74.1122 146.416 75.3861 146.994L76.6821 144.132ZM77.586 144.43C77.4817 144.431 77.208 144.371 76.6821 144.132L75.3861 146.994C75.9391 147.244 76.7676 147.581 77.6251 147.57L77.586 144.43ZM77.5864 144.43L77.586 144.43L77.6252 147.57C77.8136 147.568 78.0427 147.549 78.2931 147.491L77.5864 144.43ZM77.5864 147.491C77.8368 147.549 78.0658 147.568 78.2543 147.57L78.2935 144.43L78.2931 144.43L77.5864 147.491ZM78.2543 147.57C79.1119 147.581 79.9404 147.244 80.4933 146.994L79.1974 144.132C78.6714 144.371 78.3977 144.431 78.2934 144.43L78.2543 147.57ZM80.4933 146.994C81.7673 146.416 83.6257 145.3 86.1866 143.599L84.4491 140.983C81.8903 142.682 80.2177 143.67 79.1974 144.132L80.4933 146.994ZM86.1866 143.599C91.3708 140.156 99.9536 133.967 113.6 123.797L111.723 121.279C98.0729 131.452 89.5533 137.593 84.4491 140.983L86.1866 143.599ZM113.6 123.797C116.048 121.973 118.865 118.64 121.568 114.569L118.951 112.832C116.318 116.799 113.739 119.777 111.723 121.279L113.6 123.797ZM121.568 114.569C124.307 110.443 127.055 105.365 129.306 99.8771L126.401 98.6851C124.228 103.982 121.576 108.878 118.951 112.832L121.568 114.569ZM129.306 99.8771C133.717 89.1263 136.458 76.209 132.731 65.7537L129.773 66.8082C133.101 76.1461 130.724 88.1466 126.401 98.6851L129.306 99.8771ZM132.818 66.4039C132.841 66.1094 132.831 65.8331 132.815 65.6095L129.683 65.8336C129.692 65.9677 129.693 66.075 129.687 66.158L132.818 66.4039ZM132.815 65.6095C132.787 65.2114 132.722 64.7814 132.634 64.3406L129.554 64.9553C129.625 65.3116 129.666 65.6052 129.683 65.8336L132.815 65.6095ZM132.634 64.3406C132.457 63.4556 132.16 62.3844 131.746 61.1835L128.776 62.2069C129.157 63.3124 129.412 64.2434 129.554 64.9553L132.634 64.3406ZM131.746 61.1835C130.915 58.7748 129.572 55.7129 127.634 52.3736L124.918 53.95C126.758 57.1203 128.015 59.9975 128.776 62.2069L131.746 61.1835ZM127.634 52.3736C123.76 45.6981 117.439 37.7935 107.931 31.801L106.256 34.4581C115.243 40.1219 121.238 47.6088 124.918 53.95L127.634 52.3736ZM107.931 31.801C103.634 29.093 93.0176 22.4296 77.9398 22.4296V25.5704C92.0796 25.5704 102.054 31.8095 106.256 34.4581L107.931 31.801ZM76.3693 24V26H79.5102V24H76.3693ZM77.9398 27.5704C91.4821 27.5704 101.047 33.539 105.19 36.1501L106.864 33.493C102.628 30.8229 92.4204 24.4296 77.9398 24.4296V27.5704ZM105.19 36.1501C113.844 41.6046 119.632 48.8255 123.188 54.9539L125.905 53.3774C122.154 46.9148 116.041 39.2762 106.864 33.493L105.19 36.1501ZM123.188 54.9539C124.965 58.0165 126.168 60.7761 126.885 62.8587L129.855 61.8352C129.068 59.5534 127.78 56.6091 125.905 53.3774L123.188 54.9539ZM126.885 62.8587C127.245 63.9033 127.472 64.7451 127.592 65.3467L130.673 64.732C130.518 63.9572 130.248 62.9753 129.855 61.8352L126.885 62.8587ZM127.592 65.3467C127.653 65.6493 127.679 65.8561 127.688 65.9763L130.821 65.7522C130.8 65.4621 130.75 65.119 130.673 64.732L127.592 65.3467ZM127.688 65.9763C127.691 66.0217 127.691 66.0418 127.691 66.0402C127.691 66.0393 127.691 66.0338 127.691 66.0243C127.692 66.0196 127.692 66.0147 127.692 66.0097C127.693 66.0047 127.693 66.0007 127.693 66.0023L130.822 66.2753C130.83 66.1794 130.839 66.0131 130.821 65.7522L127.688 65.9763ZM127.693 66.0019C127.693 66.0022 127.693 66.0045 127.692 66.0069C127.692 66.0091 127.692 66.0146 127.691 66.0215C127.691 66.027 127.69 66.0423 127.689 66.0617C127.688 66.0669 127.684 66.1314 127.688 66.2121L130.826 66.0757C130.828 66.1237 130.827 66.1615 130.827 66.1787C130.827 66.1989 130.826 66.2152 130.825 66.2249C130.824 66.2437 130.823 66.2583 130.823 66.2629C130.822 66.2721 130.821 66.2805 130.822 66.2758L127.693 66.0019ZM127.689 66.232C127.691 66.2628 127.695 66.3252 127.708 66.403C127.715 66.4469 127.748 66.6535 127.873 66.8857C127.938 67.0067 128.083 67.2409 128.362 67.4347C128.688 67.6602 129.106 67.7664 129.533 67.69C129.904 67.6236 130.153 67.4433 130.273 67.3416C130.401 67.2333 130.484 67.1275 130.527 67.0677C130.613 66.9492 130.663 66.8454 130.68 66.8085C130.703 66.7595 130.719 66.7192 130.727 66.6963C130.744 66.6507 130.756 66.6142 130.76 66.6002C130.769 66.5697 130.775 66.545 130.776 66.5418C130.778 66.5346 130.78 66.5284 130.78 66.5282L127.736 65.7526C127.736 65.7526 127.736 65.7524 127.736 65.7521C127.736 65.7517 127.737 65.7512 127.737 65.7505C127.737 65.7492 127.738 65.7464 127.739 65.7428C127.739 65.7406 127.746 65.7167 127.755 65.6868C127.759 65.6731 127.77 65.6369 127.787 65.5914C127.796 65.5686 127.811 65.5283 127.834 65.4795C127.851 65.4426 127.901 65.3388 127.987 65.2204C128.03 65.1606 128.113 65.0548 128.241 64.9465C128.361 64.8448 128.61 64.6645 128.98 64.5982C129.408 64.5217 129.826 64.6279 130.152 64.8534C130.431 65.0472 130.576 65.2814 130.641 65.4024C130.766 65.6346 130.799 65.8411 130.806 65.8849C130.819 65.9628 130.823 66.0251 130.825 66.0558L127.689 66.232ZM127.736 65.7527L127.66 66.0536L130.703 66.8288L130.78 66.528L127.736 65.7527ZM127.708 66.9835L127.815 67.2748L130.762 66.1902L130.655 65.8989L127.708 66.9835ZM127.815 67.2748C130.996 75.922 128.854 87.4344 124.55 97.926L127.456 99.118C131.846 88.4163 134.361 75.9698 130.762 66.1902L127.815 67.2748ZM124.55 97.926C122.427 103.102 119.837 107.881 117.285 111.726L119.901 113.463C122.568 109.446 125.255 104.485 127.456 99.118L124.55 97.926ZM117.285 111.726C114.695 115.627 112.268 118.379 110.528 119.675L112.405 122.194C114.578 120.575 117.243 117.467 119.901 113.463L117.285 111.726ZM110.528 119.675C96.8753 129.85 88.3959 135.961 83.3427 139.316L85.0802 141.933C90.2134 138.524 98.756 132.366 112.405 122.194L110.528 119.675ZM83.3427 139.316C80.7846 141.015 79.2308 141.922 78.3721 142.311L79.6681 145.172C80.7806 144.668 82.5208 143.633 85.0802 141.933L83.3427 139.316ZM78.3721 142.311C78.1648 142.405 78.049 142.444 78.0076 142.457C77.9873 142.463 77.9872 142.462 78.0049 142.458C78.0138 142.456 78.0272 142.454 78.0448 142.45C78.0537 142.449 78.0632 142.447 78.0735 142.446C78.0787 142.445 78.0837 142.444 78.0885 142.444C78.0909 142.443 78.0931 142.443 78.095 142.443C78.0968 142.443 78.0982 142.442 78.0981 142.442L78.5003 145.557C78.7094 145.53 79.0622 145.446 79.6681 145.172L78.3721 142.311ZM78.0917 142.443L78.0913 142.443L78.5064 145.557L78.5068 145.557L78.0917 142.443ZM78.2792 145.57C78.0889 145.568 77.8306 145.522 77.6251 145.322L79.8164 143.072C79.2213 142.493 78.554 142.433 78.3184 142.43L78.2792 145.57ZM77.6251 145.322C77.4146 145.117 77.3693 144.858 77.3693 144.674H80.5102C80.5102 144.373 80.4313 143.671 79.8164 143.072L77.6251 145.322ZM78.9398 143.103H78.9397V146.244H78.9398V143.103ZM78.9397 143.103H76.9398V146.244H78.9397V143.103ZM76.9397 146.244H76.9398V143.103H76.9397V146.244ZM76.063 143.072C75.4482 143.671 75.3693 144.373 75.3693 144.674H78.5101C78.5101 144.858 78.4649 145.117 78.2543 145.322L76.063 143.072ZM77.561 142.43C77.3255 142.433 76.6582 142.493 76.063 143.072L78.2544 145.322C78.0489 145.522 77.7906 145.568 77.6002 145.57L77.561 142.43ZM77.3727 145.557L77.3731 145.557L77.7882 142.443L77.7878 142.443L77.3727 145.557ZM76.2114 145.172C76.8172 145.446 77.17 145.53 77.3791 145.557L77.7814 142.442C77.7812 142.442 77.7827 142.443 77.7845 142.443C77.7864 142.443 77.7885 142.443 77.7909 142.444C77.7958 142.444 77.8008 142.445 77.8059 142.446C77.8162 142.447 77.8258 142.449 77.8346 142.45C77.8522 142.454 77.8656 142.456 77.8746 142.458C77.8923 142.462 77.8922 142.463 77.8719 142.457C77.8304 142.444 77.7146 142.405 77.5073 142.311L76.2114 145.172ZM70.7992 141.933C73.3587 143.633 75.0988 144.668 76.2114 145.172L77.5073 142.311C76.6487 141.922 75.0949 141.015 72.5367 139.316L70.7992 141.933ZM43.4745 122.194C57.1234 132.366 65.666 138.524 70.7992 141.933L72.5367 139.316C67.4835 135.961 59.0042 129.85 45.3513 119.675L43.4745 122.194ZM35.978 113.463C38.6362 117.467 41.3019 120.575 43.4745 122.194L45.3513 119.675C43.6117 118.379 41.1842 115.627 38.5948 111.726L35.978 113.463ZM28.4234 99.118C30.6248 104.485 33.3115 109.446 35.978 113.463L38.5948 111.726C36.0422 107.881 33.4524 103.102 31.3293 97.926L28.4234 99.118ZM25.117 66.1902C21.5189 75.9698 24.0333 88.4163 28.4234 99.118L31.3293 97.926C27.0254 87.4344 24.8832 75.922 28.0647 67.2748L25.117 66.1902ZM25.2242 65.8989L25.117 66.1902L28.0647 67.2748L28.1719 66.9835L25.2242 65.8989ZM25.0996 66.528L25.1762 66.8288L28.2199 66.0535L28.1432 65.7527L25.0996 66.528ZM25.0577 66.2753C25.0583 66.283 25.0571 66.269 25.056 66.2544C25.0557 66.2493 25.0534 66.2192 25.0525 66.1806C25.0521 66.1632 25.0512 66.1177 25.0544 66.0596C25.0559 66.0305 25.0595 65.9786 25.069 65.9142C25.0761 65.8661 25.0979 65.7272 25.1643 65.5611C25.1939 65.4871 25.4193 64.8967 26.1127 64.6587C26.9557 64.3693 27.5599 64.8702 27.697 64.9988C27.8712 65.1622 27.9642 65.3263 27.9901 65.3721C28.0288 65.4408 28.0542 65.4981 28.0671 65.5282C28.0931 65.5894 28.1094 65.6387 28.1151 65.656C28.1226 65.679 28.128 65.6974 28.1309 65.7073C28.1365 65.7267 28.1404 65.7418 28.1412 65.7448C28.1419 65.7476 28.1425 65.7497 28.1428 65.7508C28.143 65.7519 28.1432 65.7527 28.1432 65.7527L25.0996 66.528C25.0998 66.5287 25.101 66.5336 25.1025 66.5393C25.1036 66.5434 25.1077 66.5593 25.1135 66.5792C25.1164 66.5894 25.1219 66.6081 25.1295 66.6313C25.1352 66.6489 25.1516 66.6984 25.1777 66.7596C25.1906 66.7899 25.216 66.8472 25.2548 66.9159C25.2807 66.9618 25.3737 67.1259 25.5479 67.2893C25.685 67.4179 26.2893 67.9188 27.1323 67.6294C27.8257 67.3914 28.0511 66.801 28.0807 66.727C28.1471 66.5609 28.1689 66.4219 28.176 66.3737C28.1856 66.3093 28.1891 66.2573 28.1907 66.2282C28.1938 66.1699 28.1929 66.1242 28.1925 66.1065C28.1916 66.0675 28.1893 66.0367 28.1889 66.0308C28.1881 66.02 28.1874 66.0114 28.1872 66.0087C28.1869 66.0055 28.1867 66.0025 28.1866 66.0023L25.0577 66.2753ZM25.0589 65.7522C25.0403 66.0131 25.0493 66.1795 25.0577 66.2753L28.1866 66.0023C28.1865 66.0006 28.1868 66.0046 28.1872 66.0096C28.1876 66.0146 28.1879 66.0195 28.1882 66.0243C28.1887 66.0338 28.1888 66.0392 28.1888 66.0402C28.1888 66.0418 28.1885 66.0217 28.1918 65.9763L25.0589 65.7522ZM25.2069 64.732C25.1297 65.119 25.0797 65.4621 25.0589 65.7522L28.1918 65.9763C28.2004 65.8561 28.2266 65.6493 28.287 65.3467L25.2069 64.732ZM26.0247 61.8352C25.6317 62.9753 25.3615 63.9572 25.2069 64.732L28.287 65.3467C28.4071 64.7451 28.634 63.9033 28.9941 62.8587L26.0247 61.8352ZM29.9749 53.3774C28.0995 56.6091 26.8111 59.5534 26.0247 61.8352L28.9941 62.8587C29.7119 60.7761 30.9142 58.0165 32.6915 54.9539L29.9749 53.3774ZM49.0151 33.493C39.8389 39.2762 33.7253 46.9148 29.9749 53.3774L32.6915 54.9539C36.2479 48.8255 42.0352 41.6046 50.6898 36.1501L49.0151 33.493ZM77.9397 24.4296C63.4591 24.4296 53.2517 30.8229 49.0151 33.493L50.6898 36.1501C54.8328 33.539 64.3974 27.5704 77.9397 27.5704V24.4296ZM76.3693 24V26H79.5101V24H76.3693Z" fill="#33E9C6" fill-opacity="0.2"/>
</g>
<g filter="url(#filter4_f_569_3783)">
<path d="M48.7861 33.1295L49.3014 33.9471L49.3014 33.9471L48.7861 33.1295ZM77.9397 24H78.9061V23.0336H77.9397V24ZM29.6034 53.1618L30.4393 53.6469L30.4393 53.6469L29.6034 53.1618ZM25.6185 61.6952L24.7049 61.3803L24.7049 61.3803L25.6185 61.6952ZM24.7856 64.6479L25.7334 64.8371L25.7334 64.8371L24.7856 64.6479ZM24.6304 65.7215L23.6665 65.6526L23.6665 65.6526L24.6304 65.7215ZM24.6273 66.2809L25.5376 66.6054L25.6069 66.411L25.5907 66.2053L24.6273 66.2809ZM28.026 99.2811L27.1319 99.6479L27.1319 99.6479L28.026 99.2811ZM35.6201 113.701L34.8149 114.235L34.8149 114.235L35.6201 113.701ZM43.2178 122.538L42.6403 123.313L42.6403 123.313L43.2178 122.538ZM70.5616 142.291L71.0962 141.486L71.0962 141.486L70.5616 142.291ZM76.0341 145.563L75.6354 146.443L75.6354 146.443L76.0341 145.563ZM77.6056 146L77.6176 146.966L77.6176 146.966L77.6056 146ZM77.9397 145.961L78.1572 145.019L77.9397 144.969L77.7223 145.019L77.9397 145.961ZM78.2739 146L78.2618 146.966L78.2618 146.966L78.2739 146ZM79.8453 145.563L80.2441 146.443L80.2441 146.443L79.8453 145.563ZM85.3179 142.291L84.7833 141.486L84.7833 141.486L85.3179 142.291ZM112.662 122.538L112.084 121.763L112.084 121.763L112.662 122.538ZM120.259 113.701L121.065 114.235L121.065 114.235L120.259 113.701ZM127.853 99.2811L128.748 99.6479L128.748 99.6479L127.853 99.2811ZM131.252 66.2809L130.289 66.2053L130.273 66.411L130.342 66.6054L131.252 66.2809ZM131.249 65.7215L132.213 65.6526L132.213 65.6526L131.249 65.7215ZM131.094 64.6479L130.146 64.8371L130.146 64.8371L131.094 64.6479ZM130.261 61.6952L129.347 62.0101L129.347 62.0101L130.261 61.6952ZM126.276 53.1618L127.112 52.6767L127.112 52.6767L126.276 53.1618ZM107.093 33.1295L106.578 33.9471L106.578 33.9471L107.093 33.1295ZM77.9398 24V23.0336H76.9734V24H77.9398ZM77.9398 26H76.9734V26.9664H77.9398V26ZM106.027 34.8215L106.542 34.004L106.542 34.004L106.027 34.8215ZM124.546 54.1657L123.71 54.6507L123.71 54.6507L124.546 54.1657ZM128.37 62.3469L129.284 62.032L129.284 62.032L128.37 62.3469ZM129.132 65.0394L130.08 64.8502L130.08 64.8502L129.132 65.0394ZM129.254 65.8643L130.218 65.7953L130.218 65.7953L129.254 65.8643ZM129.257 66.1388L130.22 66.2231L130.22 66.2228L129.257 66.1388ZM129.257 66.1439L128.291 66.1859L128.292 66.1981L129.257 66.1439ZM129.258 66.1404L130.195 66.3789L128.322 65.9017L129.258 66.1404ZM129.181 66.4412L128.245 66.2026L128.171 66.4934L128.274 66.7749L129.181 66.4412ZM129.289 66.7325L130.196 66.3988L130.196 66.3988L129.289 66.7325ZM126.003 98.522L125.109 98.1552L125.109 98.1552L126.003 98.522ZM118.593 112.594L117.788 112.06L117.788 112.06L118.593 112.594ZM111.467 120.935L110.889 120.16L110.889 120.16L111.467 120.935ZM84.2115 140.625L83.6769 139.82L83.6769 139.82L84.2115 140.625ZM79.0201 143.741L79.4189 144.621L79.4189 144.621L79.0201 143.741ZM78.2992 144L78.1754 143.042L78.1715 143.042L78.2992 144ZM78.2988 144L78.1711 143.042L78.2867 144.966L78.2988 144ZM78.7208 144.197L78.0465 144.89L78.0465 144.89L78.7208 144.197ZM78.9398 144.674V145.64H79.9062V144.674H78.9398ZM76.9397 144.674H75.9733V145.64H76.9397V144.674ZM77.1587 144.197L77.8329 144.89L77.8329 144.89L77.1587 144.197ZM77.5806 144L77.5927 144.966L77.7084 143.042L77.5806 144ZM77.5802 144L77.708 143.042L77.704 143.042L77.5802 144ZM76.8593 143.741L76.4606 144.621L76.4606 144.621L76.8593 143.741ZM71.668 140.625L72.2026 139.82L72.2026 139.82L71.668 140.625ZM44.4129 120.935L44.9904 120.16L44.9904 120.16L44.4129 120.935ZM37.2864 112.594L38.0915 112.06L38.0915 112.06L37.2864 112.594ZM29.8763 98.522L28.9822 98.8888L28.9822 98.8888L29.8763 98.522ZM26.5908 66.7325L25.6839 66.3988L25.6839 66.3988L26.5908 66.7325ZM26.698 66.4412L27.605 66.7749L27.7086 66.4934L27.6345 66.2026L26.698 66.4412ZM26.6222 66.1388L27.5849 66.0548L27.5849 66.0548L26.6222 66.1388ZM26.6254 65.8643L27.5893 65.9332L27.5893 65.9332L26.6254 65.8643ZM26.747 65.0394L25.7992 64.8502L25.7992 64.8502L26.747 65.0394ZM27.5094 62.3469L26.5957 62.032L26.5957 62.032L27.5094 62.3469ZM31.3332 54.1657L30.4974 53.6806L30.4974 53.6806L31.3332 54.1657ZM49.8525 34.8215L49.3372 34.004L49.3372 34.004L49.8525 34.8215ZM77.9397 26V26.9664H78.9061V26H77.9397ZM49.3014 33.9471C53.522 31.2871 63.6195 24.9664 77.9397 24.9664V23.0336C63.0422 23.0336 52.5494 29.6154 48.2708 32.312L49.3014 33.9471ZM30.4393 53.6469C34.1565 47.2414 40.2143 39.6742 49.3014 33.9471L48.2708 32.312C38.8628 38.2413 32.6041 46.0655 28.7675 52.6767L30.4393 53.6469ZM26.5322 62.0101C27.3069 59.7624 28.5806 56.8497 30.4393 53.6469L28.7675 52.6767C26.8485 55.9836 25.5218 59.01 24.7049 61.3803L26.5322 62.0101ZM25.7334 64.8371C25.8821 64.0919 26.1449 63.1339 26.5322 62.0101L24.7049 61.3803C24.2972 62.5629 24.0079 63.6071 23.8379 64.4588L25.7334 64.8371ZM25.5944 65.7905C25.6131 65.5295 25.659 65.2096 25.7334 64.8371L23.8379 64.4588C23.7532 64.8833 23.6926 65.2871 23.6665 65.6526L25.5944 65.7905ZM25.5907 66.2053C25.581 66.0816 25.5836 65.9418 25.5944 65.7905L23.6665 65.6526C23.6517 65.859 23.6439 66.1028 23.6639 66.3566L25.5907 66.2053ZM28.9201 98.9143C24.5802 88.335 22.1328 76.1582 25.5376 66.6054L23.717 65.9565C20.067 76.1969 22.7384 88.9379 27.1319 99.6479L28.9201 98.9143ZM36.4253 113.166C33.7783 109.179 31.1081 104.248 28.9201 98.9143L27.1319 99.6479C29.3681 105.099 32.0979 110.142 34.8149 114.235L36.4253 113.166ZM43.7953 121.763C41.6967 120.199 39.0717 117.153 36.4253 113.166L34.8149 114.235C37.5039 118.286 40.2755 121.551 42.6403 123.313L43.7953 121.763ZM71.0962 141.486C65.9767 138.086 57.4449 131.936 43.7953 121.763L42.6403 123.313C56.2875 133.484 64.8582 139.664 70.027 143.096L71.0962 141.486ZM76.4329 144.683C75.3637 144.198 73.6554 143.185 71.0962 141.486L70.027 143.096C72.5875 144.796 74.4102 145.888 75.6354 146.443L76.4329 144.683ZM77.5935 145.034C77.3444 145.037 76.964 144.923 76.4329 144.683L75.6354 146.443C76.1831 146.691 76.9049 146.975 77.6176 146.966L77.5935 145.034ZM77.7223 145.019C77.6808 145.029 77.6365 145.033 77.5935 145.034L77.6176 146.966C77.7715 146.964 77.9565 146.949 78.1572 146.902L77.7223 145.019ZM77.7223 146.902C77.9229 146.949 78.108 146.964 78.2618 146.966L78.2859 145.034C78.2429 145.033 78.1987 145.029 78.1572 145.019L77.7223 146.902ZM78.2618 146.966C78.9745 146.975 79.6964 146.691 80.2441 146.443L79.4466 144.683C78.9155 144.923 78.5351 145.037 78.2859 145.034L78.2618 146.966ZM80.2441 146.443C81.4693 145.888 83.292 144.796 85.8525 143.096L84.7833 141.486C82.224 143.185 80.5157 144.198 79.4466 144.683L80.2441 146.443ZM85.8525 143.096C91.0213 139.664 99.5919 133.484 113.239 123.313L112.084 121.763C98.4346 131.936 89.9028 138.086 84.7833 141.486L85.8525 143.096ZM113.239 123.313C115.604 121.551 118.376 118.286 121.065 114.235L119.454 113.166C116.808 117.153 114.183 120.199 112.084 121.763L113.239 123.313ZM121.065 114.235C123.782 110.142 126.511 105.099 128.748 99.6479L126.959 98.9143C124.771 104.248 122.101 109.179 119.454 113.166L121.065 114.235ZM128.748 99.6479C133.141 88.9379 135.812 76.1969 132.162 65.9565L130.342 66.6054C133.747 76.1582 131.299 88.335 126.959 98.9143L128.748 99.6479ZM132.216 66.3566C132.236 66.1028 132.228 65.859 132.213 65.6526L130.285 65.7905C130.296 65.9418 130.298 66.0816 130.289 66.2053L132.216 66.3566ZM132.213 65.6526C132.187 65.2871 132.126 64.8834 132.042 64.4588L130.146 64.8371C130.22 65.2096 130.266 65.5294 130.285 65.7905L132.213 65.6526ZM132.042 64.4588C131.872 63.6071 131.582 62.5629 131.175 61.3803L129.347 62.0101C129.735 63.1339 129.997 64.0919 130.146 64.8371L132.042 64.4588ZM131.175 61.3803C130.358 59.01 129.031 55.9836 127.112 52.6767L125.44 53.6469C127.299 56.8497 128.573 59.7624 129.347 62.0101L131.175 61.3803ZM127.112 52.6767C123.275 46.0655 117.017 38.2413 107.609 32.312L106.578 33.9471C115.665 39.6742 121.723 47.2414 125.44 53.6469L127.112 52.6767ZM107.609 32.312C103.33 29.6154 92.8373 23.0336 77.9398 23.0336V24.9664C92.26 24.9664 102.357 31.2871 106.578 33.9471L107.609 32.312ZM76.9734 24V26H78.9062V24H76.9734ZM77.9398 26.9664C91.6625 26.9664 101.351 33.0167 105.512 35.6391L106.542 34.004C102.324 31.3452 92.2399 25.0336 77.9398 25.0336V26.9664ZM105.512 35.6391C114.267 41.1569 120.117 48.4581 123.71 54.6507L125.382 53.6806C121.669 47.2822 115.618 39.724 106.542 34.004L105.512 35.6391ZM123.71 54.6507C125.507 57.7459 126.725 60.541 127.456 62.6618L129.284 62.032C128.51 59.7886 127.239 56.8798 125.382 53.6806L123.71 54.6507ZM127.456 62.6618C127.823 63.7248 128.058 64.5936 128.185 65.2285L130.08 64.8502C129.932 64.1088 129.67 63.1538 129.284 62.032L127.456 62.6618ZM128.185 65.2285C128.248 65.5473 128.279 65.7803 128.29 65.9332L130.218 65.7953C130.2 65.5379 130.154 65.221 130.08 64.8502L128.185 65.2285ZM128.29 65.9332C128.295 65.994 128.295 66.0308 128.295 66.047C128.295 66.055 128.294 66.0585 128.294 66.0577C128.294 66.0562 128.295 66.0536 128.295 66.0548L130.22 66.2228C130.226 66.1559 130.234 66.0216 130.218 65.7953L128.29 65.9332ZM128.295 66.0545C128.295 66.055 128.294 66.0567 128.294 66.0584C128.294 66.06 128.294 66.0635 128.293 66.0679C128.293 66.0715 128.292 66.081 128.292 66.093C128.292 66.0964 128.289 66.1361 128.291 66.1859L130.222 66.1019C130.224 66.1314 130.223 66.1547 130.223 66.1652C130.223 66.1776 130.222 66.1876 130.222 66.1935C130.221 66.205 130.221 66.2138 130.221 66.2165C130.22 66.2218 130.22 66.2266 130.22 66.2231L128.295 66.0545ZM128.292 66.1981C128.293 66.2171 128.296 66.2555 128.304 66.3034C128.308 66.3304 128.329 66.4576 128.405 66.6005C128.445 66.6749 128.534 66.819 128.706 66.9383C128.907 67.0771 129.164 67.1424 129.427 67.0954C129.655 67.0546 129.808 66.9436 129.882 66.881C129.961 66.8144 130.012 66.7493 130.039 66.7125C130.092 66.6395 130.122 66.5756 130.133 66.5529C130.147 66.5228 130.156 66.4979 130.162 66.4838C130.172 66.4557 130.179 66.4332 130.182 66.4246C130.188 66.4056 130.192 66.3903 130.192 66.3881C130.193 66.3835 130.194 66.3794 130.195 66.379L128.322 65.9017C128.318 65.9141 128.325 65.8883 128.333 65.8624C128.335 65.8541 128.342 65.8318 128.352 65.8039C128.358 65.7899 128.367 65.7651 128.381 65.735C128.392 65.7123 128.422 65.6485 128.475 65.5756C128.502 65.5388 128.553 65.4737 128.632 65.4071C128.706 65.3445 128.859 65.2336 129.087 65.1927C129.35 65.1457 129.607 65.2111 129.808 65.3498C129.98 65.4691 130.069 65.6132 130.109 65.6876C130.185 65.8305 130.206 65.9576 130.21 65.9846C130.218 66.0324 130.221 66.0708 130.222 66.0897L128.292 66.1981ZM128.322 65.9018L128.245 66.2026L130.118 66.6797L130.195 66.3789L128.322 65.9018ZM128.274 66.7749L128.382 67.0662L130.196 66.3988L130.088 66.1075L128.274 66.7749ZM128.382 67.0662C131.643 75.9312 129.429 87.6232 125.109 98.1552L126.897 98.8888C131.271 88.2274 133.714 75.9606 130.196 66.3988L128.382 67.0662ZM125.109 98.1552C122.971 103.367 120.362 108.182 117.788 112.06L119.398 113.129C122.043 109.145 124.711 104.219 126.897 98.8888L125.109 98.1552ZM117.788 112.06C115.185 115.981 112.712 118.801 110.889 120.16L112.044 121.709C114.133 120.152 116.753 117.113 119.398 113.129L117.788 112.06ZM110.889 120.16C97.237 130.334 88.7454 136.454 83.6769 139.82L84.7461 141.43C89.8639 138.031 98.3943 131.882 112.044 121.709L110.889 120.16ZM83.6769 139.82C81.1185 141.518 79.5288 142.45 78.6214 142.861L79.4189 144.621C80.4826 144.14 82.1869 143.129 84.7461 141.43L83.6769 139.82ZM78.6214 142.861C78.3954 142.963 78.2557 143.012 78.186 143.034C78.1514 143.044 78.1352 143.048 78.1353 143.048C78.1355 143.048 78.1396 143.047 78.1476 143.046C78.1516 143.045 78.1564 143.044 78.1619 143.043C78.1647 143.043 78.1674 143.043 78.1701 143.042C78.1715 143.042 78.1727 143.042 78.1738 143.042C78.1748 143.042 78.1756 143.042 78.1754 143.042L78.423 144.958C78.5555 144.941 78.8491 144.88 79.4189 144.621L78.6214 142.861ZM78.1715 143.042L78.1711 143.042L78.4265 144.958L78.4269 144.958L78.1715 143.042ZM78.2867 144.966C78.1783 144.965 78.098 144.94 78.0465 144.89L79.395 143.505C78.9538 143.075 78.4645 143.036 78.3109 143.034L78.2867 144.966ZM78.0465 144.89C78.0233 144.867 78.003 144.834 77.9905 144.797C77.9799 144.766 77.9734 144.728 77.9734 144.674H79.9062C79.9062 144.467 79.8511 143.949 79.395 143.505L78.0465 144.89ZM78.9398 143.707H78.9397V145.64H78.9398V143.707ZM78.9397 143.707H76.9398V145.64H78.9397V143.707ZM76.9397 145.64H76.9398V143.707H76.9397V145.64ZM76.4844 143.505C76.0283 143.949 75.9733 144.467 75.9733 144.674H77.9061C77.9061 144.728 77.8995 144.766 77.889 144.797C77.8765 144.834 77.8562 144.867 77.8329 144.89L76.4844 143.505ZM77.5686 143.034C77.4149 143.036 76.9256 143.075 76.4844 143.505L77.8329 144.89C77.7814 144.94 77.7011 144.965 77.5927 144.966L77.5686 143.034ZM77.4525 144.958L77.4529 144.958L77.7084 143.042L77.708 143.042L77.4525 144.958ZM76.4606 144.621C77.0303 144.88 77.324 144.941 77.4565 144.958L77.704 143.042C77.7039 143.042 77.7047 143.042 77.7057 143.042C77.7068 143.042 77.708 143.042 77.7093 143.042C77.712 143.043 77.7148 143.043 77.7175 143.043C77.723 143.044 77.7278 143.045 77.7318 143.046C77.7398 143.047 77.744 143.048 77.7441 143.048C77.7442 143.048 77.7281 143.044 77.6935 143.034C77.6237 143.012 77.4841 142.963 77.2581 142.861L76.4606 144.621ZM71.1334 141.43C73.6926 143.129 75.3969 144.14 76.4606 144.621L77.2581 142.861C76.3506 142.45 74.761 141.518 72.2026 139.82L71.1334 141.43ZM43.8354 121.709C57.4851 131.882 66.0155 138.031 71.1334 141.43L72.2026 139.82C67.134 136.454 58.6425 130.334 44.9904 120.16L43.8354 121.709ZM36.4812 113.129C39.1262 117.113 41.7461 120.152 43.8354 121.709L44.9904 120.16C43.1675 118.801 40.6942 115.981 38.0915 112.06L36.4812 113.129ZM28.9822 98.8888C31.1686 104.219 33.8367 109.145 36.4812 113.129L38.0915 112.06C35.5171 108.182 32.9086 103.367 30.7704 98.1552L28.9822 98.8888ZM25.6839 66.3988C22.1658 75.9606 24.6087 88.2274 28.9822 98.8888L30.7704 98.1552C26.45 87.6232 24.2362 75.9312 27.4978 67.0662L25.6839 66.3988ZM25.7911 66.1075L25.6839 66.3988L27.4978 67.0662L27.605 66.7749L25.7911 66.1075ZM25.6849 66.3789L25.7615 66.6797L27.6345 66.2026L27.5579 65.9018L25.6849 66.3789ZM25.6594 66.2228C25.6599 66.2282 25.6591 66.22 25.6585 66.2114C25.6583 66.2084 25.6569 66.19 25.6564 66.1664C25.6561 66.1557 25.6556 66.1277 25.6575 66.092C25.6585 66.0741 25.6606 66.0422 25.6665 66.0026C25.6709 65.973 25.6843 65.8875 25.7251 65.7853C25.7433 65.7397 25.8821 65.3764 26.3088 65.23C26.8275 65.0519 27.1994 65.3601 27.2837 65.4393C27.3909 65.5398 27.4481 65.6408 27.464 65.669C27.4879 65.7112 27.5035 65.7465 27.5114 65.765C27.5275 65.8026 27.5375 65.8329 27.5409 65.8436C27.5455 65.8577 27.5489 65.869 27.5506 65.875C27.5557 65.8926 27.5597 65.9088 27.5579 65.9018L25.6849 66.3789C25.6851 66.3796 25.6859 66.3828 25.6869 66.3866C25.6876 66.3892 25.6902 66.3992 25.6937 66.4116C25.6956 66.4179 25.699 66.4294 25.7037 66.4438C25.7072 66.4546 25.7173 66.4851 25.7333 66.5228C25.7413 66.5414 25.7569 66.5767 25.7808 66.619C25.7967 66.6473 25.854 66.7483 25.9612 66.8488C26.0456 66.928 26.4174 67.2362 26.9362 67.0581C27.3629 66.9117 27.5016 66.5484 27.5199 66.5028C27.5607 66.4005 27.5741 66.315 27.5785 66.2854C27.5844 66.2457 27.5866 66.2137 27.5875 66.1958C27.5895 66.1599 27.5889 66.1317 27.5887 66.1208C27.5881 66.0967 27.5867 66.0776 27.5864 66.0738C27.5859 66.067 27.5855 66.0615 27.5853 66.0596C27.5851 66.0574 27.585 66.0552 27.5849 66.0548L25.6594 66.2228ZM25.6614 65.7953C25.6452 66.0216 25.6536 66.1559 25.6594 66.2228L27.5849 66.0548C27.5848 66.0535 27.585 66.0561 27.5851 66.0577C27.5851 66.0584 27.5849 66.055 27.5848 66.047C27.5847 66.0308 27.585 65.994 27.5893 65.9332L25.6614 65.7953ZM25.7992 64.8502C25.7253 65.221 25.6798 65.5379 25.6614 65.7953L27.5893 65.9332C27.6002 65.7803 27.6311 65.5473 27.6947 65.2285L25.7992 64.8502ZM26.5957 62.032C26.2091 63.1538 25.9472 64.1088 25.7992 64.8502L27.6947 65.2285C27.8214 64.5936 28.0567 63.7248 28.423 62.6618L26.5957 62.032ZM30.4974 53.6806C28.6408 56.8798 27.369 59.7886 26.5957 62.032L28.423 62.6618C29.154 60.541 30.3729 57.7459 32.1691 54.6507L30.4974 53.6806ZM49.3372 34.004C40.2613 39.724 34.2104 47.2822 30.4974 53.6806L32.1691 54.6507C35.7628 48.4581 41.6128 41.1569 50.3677 35.6391L49.3372 34.004ZM77.9397 25.0336C63.6395 25.0336 53.5558 31.3452 49.3372 34.004L50.3677 35.6391C54.5287 33.0167 64.217 26.9664 77.9397 26.9664V25.0336ZM76.9733 24V26H78.9061V24H76.9733Z" fill="#33E9E9"/>
</g>
<g filter="url(#filter5_f_569_3783)">
<path d="M48.7861 33.1295L49.0437 33.5383L49.0437 33.5383L48.7861 33.1295ZM77.9397 24H78.4229V23.5168H77.9397V24ZM29.6034 53.1618L30.0213 53.4043L30.0213 53.4043L29.6034 53.1618ZM25.6185 61.6952L25.1617 61.5377L25.1617 61.5377L25.6185 61.6952ZM24.7856 64.6479L25.2595 64.7425L25.2595 64.7425L24.7856 64.6479ZM24.6304 65.7215L24.1485 65.6871L24.1485 65.6871L24.6304 65.7215ZM24.6273 66.2809L25.0825 66.4432L25.1171 66.346L25.109 66.2431L24.6273 66.2809ZM28.026 99.2811L27.5789 99.4645L27.5789 99.4645L28.026 99.2811ZM35.6201 113.701L35.2175 113.968L35.2175 113.968L35.6201 113.701ZM43.2178 122.538L42.929 122.926L42.929 122.926L43.2178 122.538ZM70.5616 142.291L70.8289 141.888L70.8289 141.888L70.5616 142.291ZM76.0341 145.563L75.8347 146.003L75.8347 146.003L76.0341 145.563ZM77.6056 146L77.6116 146.483L77.6116 146.483L77.6056 146ZM77.9397 145.961L78.0485 145.49L77.9397 145.465L77.831 145.49L77.9397 145.961ZM78.2739 146L78.2679 146.483L78.2679 146.483L78.2739 146ZM79.8453 145.563L80.0447 146.003L80.0447 146.003L79.8453 145.563ZM85.3179 142.291L85.0506 141.888L85.0506 141.888L85.3179 142.291ZM112.662 122.538L112.373 122.151L112.373 122.151L112.662 122.538ZM120.259 113.701L120.662 113.968L120.662 113.968L120.259 113.701ZM127.853 99.2811L128.301 99.4645L128.301 99.4645L127.853 99.2811ZM131.252 66.2809L130.77 66.2431L130.762 66.346L130.797 66.4432L131.252 66.2809ZM131.249 65.7215L131.731 65.6871L131.731 65.687L131.249 65.7215ZM131.094 64.6479L130.62 64.7425L130.62 64.7425L131.094 64.6479ZM130.261 61.6952L129.804 61.8527L129.804 61.8527L130.261 61.6952ZM126.276 53.1618L126.694 52.9193L126.694 52.9193L126.276 53.1618ZM107.093 33.1295L106.836 33.5383L106.836 33.5383L107.093 33.1295ZM77.9398 24V23.5168H77.4566V24H77.9398ZM77.9398 26H77.4566V26.4832H77.9398V26ZM106.027 34.8215L106.285 34.4127L106.285 34.4127L106.027 34.8215ZM124.546 54.1657L124.128 54.4082L124.128 54.4082L124.546 54.1657ZM128.37 62.3469L128.827 62.1895L128.827 62.1895L128.37 62.3469ZM129.132 65.0394L129.606 64.9448L129.606 64.9448L129.132 65.0394ZM129.254 65.8643L129.736 65.8298L129.736 65.8298L129.254 65.8643ZM129.257 66.1388L129.739 66.1809L129.739 66.1808L129.257 66.1388ZM129.257 66.1439L128.774 66.1649L128.774 66.171L129.257 66.1439ZM129.258 66.1404L129.726 66.2597L128.79 66.0211L129.258 66.1404ZM129.181 66.4412L128.713 66.3219L128.676 66.4673L128.728 66.608L129.181 66.4412ZM129.289 66.7325L129.742 66.5657L129.742 66.5657L129.289 66.7325ZM126.003 98.522L125.556 98.3386L125.556 98.3386L126.003 98.522ZM118.593 112.594L118.19 112.327L118.19 112.327L118.593 112.594ZM111.467 120.935L111.178 120.547L111.178 120.547L111.467 120.935ZM84.2115 140.625L83.9442 140.222L83.9442 140.222L84.2115 140.625ZM79.0201 143.741L79.2195 144.181L79.2195 144.181L79.0201 143.741ZM78.2992 144L78.2373 143.521L78.2353 143.521L78.2992 144ZM78.2988 144L78.2349 143.521L78.2928 144.483L78.2988 144ZM78.7208 144.197L78.3836 144.543L78.3836 144.543L78.7208 144.197ZM78.9398 144.674V145.157H79.423V144.674H78.9398ZM76.9397 144.674H76.4565V145.157H76.9397V144.674ZM77.1587 144.197L77.4958 144.543L77.4958 144.543L77.1587 144.197ZM77.5806 144L77.5867 144.483L77.6445 143.521L77.5806 144ZM77.5802 144L77.6441 143.521L77.6421 143.521L77.5802 144ZM76.8593 143.741L76.66 144.181L76.66 144.181L76.8593 143.741ZM71.668 140.625L71.9353 140.222L71.9353 140.222L71.668 140.625ZM44.4129 120.935L44.7016 120.547L44.7016 120.547L44.4129 120.935ZM37.2864 112.594L37.689 112.327L37.689 112.327L37.2864 112.594ZM29.8763 98.522L29.4293 98.7054L29.4293 98.7054L29.8763 98.522ZM26.5908 66.7325L26.1374 66.5657L26.1374 66.5657L26.5908 66.7325ZM26.698 66.4412L27.1515 66.608L27.2033 66.4673L27.1663 66.3219L26.698 66.4412ZM26.6222 66.1388L27.1035 66.0968L27.1035 66.0968L26.6222 66.1388ZM26.6254 65.8643L27.1073 65.8987L27.1073 65.8987L26.6254 65.8643ZM26.747 65.0394L26.2731 64.9448L26.2731 64.9448L26.747 65.0394ZM27.5094 62.3469L27.0525 62.1895L27.0525 62.1895L27.5094 62.3469ZM31.3332 54.1657L30.9153 53.9231L30.9153 53.9231L31.3332 54.1657ZM49.8525 34.8215L49.5948 34.4127L49.5948 34.4127L49.8525 34.8215ZM77.9397 26V26.4832H78.4229V26H77.9397ZM49.0437 33.5383C53.2788 30.8692 63.4751 24.4832 77.9397 24.4832V23.5168C63.1865 23.5168 52.7925 30.0334 48.5285 32.7207L49.0437 33.5383ZM30.0213 53.4043C33.7684 46.9474 39.8764 39.316 49.0437 33.5383L48.5285 32.7207C39.2007 38.5995 32.9922 46.3595 29.1855 52.9193L30.0213 53.4043ZM26.0754 61.8527C26.8607 59.5743 28.1476 56.6331 30.0213 53.4043L29.1855 52.9193C27.2816 56.2001 25.9681 59.1981 25.1617 61.5377L26.0754 61.8527ZM25.2595 64.7425C25.4135 63.9707 25.6829 62.9912 26.0754 61.8527L25.1617 61.5377C24.7591 62.7056 24.4764 63.7283 24.3118 64.5534L25.2595 64.7425ZM25.1124 65.756C25.133 65.4689 25.1826 65.1281 25.2595 64.7425L24.3118 64.5534C24.2296 64.9649 24.1728 65.3477 24.1485 65.6871L25.1124 65.756ZM25.109 66.2431C25.0968 66.0869 25.1006 65.9211 25.1124 65.756L24.1485 65.6871C24.1347 65.8797 24.1282 66.0975 24.1456 66.3188L25.109 66.2431ZM28.473 99.0977C24.1198 88.4858 21.6163 76.1678 25.0825 66.4432L24.1721 66.1187C20.5835 76.1872 23.1989 88.7872 27.5789 99.4645L28.473 99.0977ZM36.0227 113.433C33.3582 109.419 30.6731 104.461 28.473 99.0977L27.5789 99.4645C29.8031 104.886 32.518 109.901 35.2175 113.968L36.0227 113.433ZM43.5065 122.151C41.3414 120.537 38.6798 117.436 36.0227 113.433L35.2175 113.968C37.8959 118.003 40.6308 121.213 42.929 122.926L43.5065 122.151ZM70.8289 141.888C65.6971 138.48 57.1556 132.323 43.5065 122.151L42.929 122.926C56.5769 133.097 65.1378 139.269 70.2943 142.693L70.8289 141.888ZM76.2335 145.123C75.1253 144.621 73.3884 143.588 70.8289 141.888L70.2943 142.693C72.8545 144.393 74.6486 145.466 75.8347 146.003L76.2335 145.123ZM77.5996 145.517C77.2345 145.521 76.7688 145.365 76.2335 145.123L75.8347 146.003C76.3783 146.249 77.0148 146.49 77.6116 146.483L77.5996 145.517ZM77.831 145.49C77.7497 145.509 77.6703 145.516 77.5995 145.517L77.6116 146.483C77.7377 146.481 77.8876 146.469 78.0485 146.431L77.831 145.49ZM77.831 146.431C77.9919 146.469 78.1417 146.481 78.2679 146.483L78.2799 145.517C78.2092 145.516 78.1298 145.509 78.0485 145.49L77.831 146.431ZM78.2679 146.483C78.8647 146.49 79.5011 146.249 80.0447 146.003L79.646 145.123C79.1107 145.365 78.6449 145.521 78.2799 145.517L78.2679 146.483ZM80.0447 146.003C81.2309 145.466 83.025 144.393 85.5852 142.693L85.0506 141.888C82.491 143.588 80.7541 144.621 79.646 145.123L80.0447 146.003ZM85.5852 142.693C90.7416 139.269 99.3026 133.097 112.95 122.926L112.373 122.151C98.7239 132.323 90.1824 138.48 85.0506 141.888L85.5852 142.693ZM112.95 122.926C115.249 121.213 117.984 118.003 120.662 113.968L119.857 113.433C117.2 117.436 114.538 120.537 112.373 122.151L112.95 122.926ZM120.662 113.968C123.361 109.901 126.076 104.886 128.301 99.4645L127.406 99.0977C125.206 104.461 122.521 109.419 119.857 113.433L120.662 113.968ZM128.301 99.4645C132.681 88.7872 135.296 76.1872 131.707 66.1187L130.797 66.4432C134.263 76.1678 131.76 88.4858 127.406 99.0977L128.301 99.4645ZM131.734 66.3188C131.751 66.0975 131.745 65.8797 131.731 65.6871L130.767 65.756C130.779 65.9211 130.783 66.0869 130.77 66.2431L131.734 66.3188ZM131.731 65.687C131.707 65.3477 131.65 64.9649 131.568 64.5534L130.62 64.7425C130.697 65.128 130.746 65.4689 130.767 65.756L131.731 65.687ZM131.568 64.5534C131.403 63.7283 131.12 62.7056 130.718 61.5377L129.804 61.8527C130.197 62.9912 130.466 63.9707 130.62 64.7425L131.568 64.5534ZM130.718 61.5377C129.911 59.1981 128.598 56.2001 126.694 52.9193L125.858 53.4043C127.732 56.6331 129.019 59.5743 129.804 61.8527L130.718 61.5377ZM126.694 52.9193C122.887 46.3595 116.679 38.5995 107.351 32.7207L106.836 33.5383C116.003 39.316 122.111 46.9474 125.858 53.4043L126.694 52.9193ZM107.351 32.7207C103.087 30.0334 92.6929 23.5168 77.9398 23.5168V24.4832C92.4043 24.4832 102.601 30.8692 106.836 33.5383L107.351 32.7207ZM77.4566 24V26H78.423V24H77.4566ZM77.9398 26.4832C91.8069 26.4832 101.594 32.5988 105.769 35.2303L106.285 34.4127C102.08 31.7631 92.0956 25.5168 77.9398 25.5168V26.4832ZM105.769 35.2303C114.605 40.7986 120.505 48.1641 124.128 54.4082L124.964 53.9231C121.281 47.5762 115.28 40.0822 106.285 34.4127L105.769 35.2303ZM124.128 54.4082C125.94 57.5293 127.172 60.3529 127.913 62.5044L128.827 62.1895C128.064 59.9767 126.806 57.0963 124.964 53.9231L124.128 54.4082ZM127.913 62.5044C128.285 63.582 128.527 64.4724 128.659 65.1339L129.606 64.9448C129.464 64.23 129.208 63.2965 128.827 62.1895L127.913 62.5044ZM128.659 65.1339C128.725 65.4657 128.759 65.7197 128.772 65.8987L129.736 65.8298C129.72 65.5985 129.678 65.3026 129.606 64.9448L128.659 65.1339ZM128.772 65.8987C128.777 65.9719 128.778 66.022 128.778 66.0525C128.777 66.0813 128.776 66.0943 128.776 66.0968L129.739 66.1808C129.743 66.137 129.75 66.0284 129.736 65.8298L128.772 65.8987ZM128.776 66.0967C128.776 66.0971 128.776 66.1012 128.775 66.1051C128.775 66.1071 128.775 66.112 128.774 66.1182C128.774 66.12 128.773 66.1399 128.774 66.1649L129.74 66.1229C129.74 66.1376 129.74 66.1492 129.74 66.1544C129.74 66.1606 129.74 66.1655 129.739 66.1684C129.739 66.174 129.739 66.1782 129.739 66.1794C129.739 66.1816 129.738 66.1834 129.739 66.1809L128.776 66.0967ZM128.774 66.171C128.775 66.1805 128.776 66.1997 128.78 66.2237C128.783 66.2372 128.793 66.3008 128.831 66.3722C128.851 66.4095 128.896 66.4816 128.982 66.5412C129.082 66.6106 129.21 66.6433 129.342 66.6197C129.456 66.5993 129.533 66.5438 129.57 66.5125C129.609 66.4792 129.634 66.4467 129.648 66.4282C129.674 66.3918 129.69 66.3598 129.695 66.3484C129.702 66.3334 129.707 66.3209 129.709 66.3138C129.715 66.2997 129.718 66.2884 129.72 66.284C129.722 66.2744 129.725 66.2666 129.725 66.2652C129.726 66.2626 129.726 66.2603 129.726 66.2597L128.79 66.0211C128.788 66.028 128.791 66.0156 128.795 66.003C128.796 65.9989 128.8 65.9878 128.805 65.9739C128.807 65.9669 128.812 65.9545 128.819 65.9395C128.825 65.9282 128.84 65.8963 128.866 65.8598C128.88 65.8414 128.905 65.8089 128.944 65.7756C128.981 65.7443 129.058 65.6888 129.172 65.6684C129.303 65.6449 129.432 65.6776 129.532 65.7469C129.618 65.8066 129.663 65.8786 129.683 65.9158C129.721 65.9873 129.731 66.0508 129.734 66.0643C129.738 66.0882 129.739 66.1074 129.739 66.1168L128.774 66.171ZM128.79 66.0211L128.713 66.3219L129.65 66.5605L129.726 66.2597L128.79 66.0211ZM128.728 66.608L128.835 66.8994L129.742 66.5657L129.635 66.2743L128.728 66.608ZM128.835 66.8994C132.161 75.9385 129.89 87.7743 125.556 98.3386L126.45 98.7054C130.81 88.0764 133.196 75.9532 129.742 66.5657L128.835 66.8994ZM125.556 98.3386C123.406 103.58 120.782 108.423 118.19 112.327L118.996 112.862C121.623 108.904 124.276 104.006 126.45 98.7054L125.556 98.3386ZM118.19 112.327C115.577 116.264 113.067 119.139 111.178 120.547L111.755 121.322C113.778 119.815 116.361 116.83 118.996 112.862L118.19 112.327ZM111.178 120.547C97.5263 130.721 89.0251 136.848 83.9442 140.222L84.4788 141.027C89.5843 137.637 98.105 131.495 111.755 121.322L111.178 120.547ZM83.9442 140.222C81.3856 141.921 79.7673 142.872 78.8207 143.301L79.2195 144.181C80.2442 143.717 81.9198 142.726 84.4788 141.027L83.9442 140.222ZM78.8207 143.301C78.5798 143.41 78.4211 143.467 78.3287 143.495C78.2827 143.51 78.2537 143.517 78.2397 143.52C78.2328 143.521 78.2296 143.522 78.2298 143.522C78.23 143.522 78.2309 143.522 78.2326 143.521C78.2335 143.521 78.2344 143.521 78.2354 143.521C78.2365 143.521 78.2374 143.521 78.2373 143.521L78.3611 144.479C78.4324 144.47 78.6787 144.426 79.2195 144.181L78.8207 143.301ZM78.2353 143.521L78.2349 143.521L78.3627 144.479L78.3631 144.479L78.2353 143.521ZM78.2928 144.483C78.2499 144.483 78.312 144.474 78.3836 144.543L79.0579 143.851C78.7399 143.541 78.393 143.518 78.3048 143.517L78.2928 144.483ZM78.3836 144.543C78.4226 144.581 78.4398 144.617 78.4483 144.642C78.4577 144.67 78.4566 144.686 78.4566 144.674H79.423C79.423 144.541 79.387 144.172 79.0579 143.851L78.3836 144.543ZM78.9398 144.191H78.9397V145.157H78.9398V144.191ZM78.9397 144.191H76.9398V145.157H78.9397V144.191ZM76.9397 145.157H76.9398V144.191H76.9397V145.157ZM76.8216 143.851C76.4924 144.172 76.4565 144.541 76.4565 144.674H77.4229C77.4229 144.686 77.4217 144.67 77.4312 144.642C77.4397 144.617 77.4569 144.581 77.4958 144.543L76.8216 143.851ZM77.5746 143.517C77.4865 143.518 77.1396 143.541 76.8216 143.851L77.4958 144.543C77.5675 144.474 77.6296 144.483 77.5867 144.483L77.5746 143.517ZM77.5164 144.479L77.5168 144.479L77.6445 143.521L77.6441 143.521L77.5164 144.479ZM76.66 144.181C77.2008 144.426 77.4471 144.47 77.5184 144.479L77.6421 143.521C77.6421 143.521 77.643 143.521 77.644 143.521C77.645 143.521 77.646 143.521 77.6468 143.521C77.6485 143.522 77.6495 143.522 77.6496 143.522C77.6499 143.522 77.6467 143.521 77.6397 143.52C77.6257 143.517 77.5968 143.51 77.5507 143.495C77.4583 143.467 77.2997 143.41 77.0587 143.301L76.66 144.181ZM71.4007 141.027C73.9597 142.726 75.6353 143.717 76.66 144.181L77.0587 143.301C76.1122 142.872 74.4939 141.921 71.9353 140.222L71.4007 141.027ZM44.1241 121.322C57.7745 131.495 66.2952 137.637 71.4007 141.027L71.9353 140.222C66.8544 136.848 58.3532 130.721 44.7016 120.547L44.1241 121.322ZM36.8838 112.862C39.5182 116.83 42.1015 119.815 44.1241 121.322L44.7016 120.547C42.8121 119.139 40.3022 116.264 37.689 112.327L36.8838 112.862ZM29.4293 98.7054C31.6036 104.006 34.2568 108.904 36.8838 112.862L37.689 112.327C35.097 108.423 32.4736 103.58 30.3234 98.3386L29.4293 98.7054ZM26.1374 66.5657C22.6834 75.9532 25.069 88.0764 29.4293 98.7054L30.3234 98.3386C25.9897 87.7743 23.7186 75.9385 27.0443 66.8994L26.1374 66.5657ZM26.2445 66.2743L26.1374 66.5657L27.0443 66.8994L27.1515 66.608L26.2445 66.2743ZM26.1532 66.2597L26.2298 66.5605L27.1663 66.3219L27.0897 66.0211L26.1532 66.2597ZM26.1408 66.1808C26.1411 66.1843 26.1408 66.1809 26.1405 66.177C26.1404 66.1757 26.1397 66.1667 26.1395 66.155C26.1393 66.1497 26.1391 66.1358 26.14 66.1179C26.1405 66.109 26.1416 66.0931 26.1445 66.0733C26.1467 66.0585 26.1534 66.0158 26.1738 65.9647C26.1829 65.9419 26.2523 65.7602 26.4656 65.687C26.725 65.598 26.9109 65.7521 26.9531 65.7917C27.0067 65.8419 27.0353 65.8924 27.0432 65.9065C27.0551 65.9276 27.063 65.9452 27.0669 65.9545C27.0749 65.9732 27.0799 65.9884 27.0816 65.9936C27.0839 66.0006 27.0855 66.0062 27.0864 66.0091C27.0888 66.0176 27.0907 66.0253 27.0897 66.0211L26.1532 66.2596C26.1533 66.2603 26.1538 66.2622 26.1544 66.2643C26.1548 66.2659 26.1561 66.2711 26.158 66.2774C26.1589 66.2807 26.1606 66.2865 26.163 66.2937C26.1648 66.2992 26.1698 66.3145 26.1779 66.3334C26.1818 66.3427 26.1897 66.3604 26.2016 66.3815C26.2096 66.3956 26.2382 66.4461 26.2918 66.4964C26.334 66.536 26.5199 66.6901 26.7793 66.6011C26.9927 66.5279 27.0621 66.3462 27.0712 66.3234C27.0916 66.2723 27.0983 66.2295 27.1005 66.2147C27.1035 66.1948 27.1046 66.1788 27.105 66.1698C27.106 66.1518 27.1057 66.1377 27.1056 66.1322C27.1053 66.12 27.1046 66.1103 27.1045 66.1082C27.1042 66.1046 27.1039 66.1015 27.1038 66.1003C27.1037 66.0989 27.1036 66.0974 27.1035 66.0968L26.1408 66.1808ZM26.1434 65.8298C26.1292 66.0284 26.137 66.137 26.1408 66.1808L27.1035 66.0968C27.1033 66.0943 27.102 66.0812 27.1017 66.0524C27.1013 66.022 27.1021 65.9719 27.1073 65.8987L26.1434 65.8298ZM26.2731 64.9448C26.2017 65.3025 26.1599 65.5985 26.1434 65.8298L27.1073 65.8987C27.1201 65.7197 27.1546 65.4657 27.2208 65.1339L26.2731 64.9448ZM27.0525 62.1895C26.671 63.2965 26.4158 64.23 26.2731 64.9448L27.2208 65.1339C27.3529 64.4724 27.5948 63.582 27.9662 62.5044L27.0525 62.1895ZM30.9153 53.9231C29.0739 57.0963 27.8152 59.9767 27.0525 62.1895L27.9662 62.5044C28.7078 60.3529 29.9399 57.5293 31.7512 54.4082L30.9153 53.9231ZM49.5948 34.4127C40.5992 40.0822 34.5985 47.5762 30.9153 53.9231L31.7512 54.4082C35.3747 48.1641 41.2749 40.7986 50.1101 35.2303L49.5948 34.4127ZM77.9397 25.5168C63.7839 25.5168 53.799 31.7631 49.5948 34.4127L50.1101 35.2303C54.2855 32.5988 64.0726 26.4832 77.9397 26.4832V25.5168ZM77.4565 24V26H78.4229V24H77.4565Z" fill="white"/>
</g>
<g style="mix-blend-mode:hard-light" filter="url(#filter6_f_569_3783)">
<ellipse cx="56.8407" cy="100.841" rx="25.8" ry="11.4" transform="rotate(45 56.8407 100.841)" fill="#FF3780" fill-opacity="0.2"/>
</g>
<g style="mix-blend-mode:hard-light" filter="url(#filter7_f_569_3783)">
<path d="M71.5838 115.584C70.8068 116.361 69.6769 116.782 68.2198 116.814C66.7581 116.846 65.0083 116.483 63.0753 115.734C59.211 114.239 54.7323 111.248 50.5827 107.099C46.4332 102.949 43.4426 98.4702 41.9468 94.606C41.1985 92.673 40.8357 90.9232 40.8676 89.4615C40.8995 88.0044 41.3204 86.8745 42.0975 86.0974C42.8745 85.3204 44.0044 84.8995 45.4615 84.8676C46.9232 84.8357 48.673 85.1985 50.606 85.9468C54.4702 87.4426 58.949 90.4332 63.0985 94.5827C67.2481 98.7323 70.2386 103.211 71.7345 107.075C72.4827 109.008 72.8456 110.758 72.8136 112.22C72.7818 113.677 72.3608 114.807 71.5838 115.584Z" stroke="#F32E7C" stroke-width="1.3"/>
</g>
<g style="mix-blend-mode:hard-light" filter="url(#filter8_f_569_3783)">
<path d="M71.4424 115.442C70.7117 116.173 69.6369 116.583 68.2154 116.614C66.788 116.645 65.065 116.29 63.1475 115.548C59.3148 114.064 54.8587 111.092 50.7242 106.957C46.5896 102.823 43.6169 98.3665 42.1333 94.5338C41.391 92.6163 41.0364 90.8933 41.0676 89.4659C41.0986 88.0444 41.5082 86.9696 42.2389 86.2389C42.9696 85.5082 44.0444 85.0986 45.4659 85.0676C46.8933 85.0364 48.6163 85.391 50.5338 86.1333C54.3665 87.6169 58.8225 90.5896 62.9571 94.7241C67.0917 98.8587 70.0643 103.315 71.5479 107.147C72.2902 109.065 72.6449 110.788 72.6137 112.215C72.5826 113.637 72.1731 114.712 71.4424 115.442Z" stroke="#FF26C2" stroke-width="1.7"/>
</g>
<g style="mix-blend-mode:hard-light" filter="url(#filter9_ddi_569_3783)">
<path d="M71.5838 115.584C70.8068 116.361 69.6769 116.782 68.2198 116.814C66.7581 116.846 65.0083 116.483 63.0753 115.734C59.211 114.239 54.7323 111.248 50.5827 107.099C46.4332 102.949 43.4426 98.4702 41.9468 94.606C41.1985 92.673 40.8357 90.9232 40.8676 89.4615C40.8995 88.0044 41.3204 86.8745 42.0975 86.0974C42.8745 85.3204 44.0044 84.8995 45.4615 84.8676C46.9232 84.8357 48.673 85.1985 50.606 85.9468C54.4702 87.4426 58.949 90.4332 63.0985 94.5827C67.2481 98.7323 70.2386 103.211 71.7345 107.075C72.4827 109.008 72.8456 110.758 72.8136 112.22C72.7818 113.677 72.3608 114.807 71.5838 115.584Z" stroke="#FB37FF" stroke-opacity="0.2" stroke-width="1.3"/>
</g>
<g filter="url(#filter10_f_569_3783)">
<path d="M71.7606 115.761C70.9257 116.595 69.7269 117.031 68.2252 117.064C66.7207 117.096 64.9374 116.723 62.985 115.968C59.0813 114.456 54.5742 111.444 50.406 107.275C46.2377 103.107 43.2248 98.5999 41.7137 94.6962C40.9579 92.7438 40.5848 90.9605 40.6177 89.456C40.6505 87.9543 41.0858 86.7556 41.9207 85.9207C42.7556 85.0858 43.9544 84.6505 45.456 84.6177C46.9605 84.5848 48.7438 84.9579 50.6962 85.7136C54.5999 87.2248 59.1071 90.2377 63.2753 94.406C67.4435 98.5742 70.4565 103.081 71.9676 106.985C72.7234 108.937 73.0964 110.721 73.0636 112.225C73.0308 113.727 72.5955 114.926 71.7606 115.761Z" stroke="#FB37FF" stroke-width="0.8"/>
</g>
<g filter="url(#filter11_f_569_3783)">
<path d="M71.902 115.902C71.0208 116.783 69.7669 117.23 68.2296 117.264C66.6909 117.297 64.8807 116.916 62.9128 116.154C58.9776 114.631 54.4477 111.6 50.2645 107.417C46.0814 103.234 43.0505 98.7037 41.5271 94.7684C40.7654 92.8005 40.3841 90.9904 40.4177 89.4517C40.4513 87.9143 40.8981 86.6604 41.7793 85.7792C42.6604 84.8981 43.9143 84.4513 45.4517 84.4177C46.9904 84.3841 48.8005 84.7654 50.7684 85.5271C54.7037 87.0505 59.2335 90.0813 63.4167 94.2645C67.5999 98.4477 70.6308 102.978 72.1541 106.913C72.9159 108.881 73.2971 110.691 73.2635 112.23C73.2299 113.767 72.7832 115.021 71.902 115.902Z" stroke="white" stroke-width="0.4"/>
</g>
<g style="mix-blend-mode:hard-light" filter="url(#filter12_f_569_3783)">
<ellipse cx="98.8406" cy="100.84" rx="25.8" ry="11.4" transform="rotate(-45 98.8406 100.84)" fill="#FF3780" fill-opacity="0.2"/>
</g>
<g style="mix-blend-mode:hard-light" filter="url(#filter13_f_569_3783)">
<path d="M113.584 86.0973C114.361 86.8743 114.782 88.0042 114.814 89.4614C114.846 90.923 114.483 92.6728 113.734 94.6058C112.239 98.4701 109.248 102.949 105.098 107.098C100.949 111.248 96.4702 114.238 92.606 115.734C90.6729 116.483 88.9231 116.845 87.4615 116.813C86.0043 116.782 84.8744 116.361 84.0974 115.584C83.3204 114.807 82.8994 113.677 82.8676 112.22C82.8357 110.758 83.1985 109.008 83.9468 107.075C85.4426 103.211 88.4332 98.7321 92.5827 94.5826C96.7322 90.433 101.211 87.4425 105.075 85.9466C107.008 85.1984 108.758 84.8355 110.22 84.8675C111.677 84.8993 112.807 85.3203 113.584 86.0973Z" stroke="#F32E7C" stroke-width="1.3"/>
</g>
<g style="mix-blend-mode:hard-light" filter="url(#filter14_f_569_3783)">
<path d="M113.442 86.2387C114.173 86.9694 114.583 88.0442 114.614 89.4657C114.645 90.8931 114.29 92.6161 113.548 94.5336C112.064 98.3663 109.092 102.822 104.957 106.957C100.822 111.092 96.3665 114.064 92.5338 115.548C90.6162 116.29 88.8933 116.645 87.4658 116.614C86.0443 116.582 84.9696 116.173 84.2388 115.442C83.5081 114.712 83.0986 113.637 83.0676 112.215C83.0364 110.788 83.391 109.065 84.1333 107.147C85.6169 103.315 88.5895 98.8586 92.7241 94.724C96.8587 90.5894 101.315 87.6168 105.147 86.1332C107.065 85.3909 108.788 85.0362 110.215 85.0674C111.637 85.0985 112.712 85.508 113.442 86.2387Z" stroke="#FF26C2" stroke-width="1.7"/>
</g>
<g style="mix-blend-mode:hard-light" filter="url(#filter15_ddi_569_3783)">
<path d="M113.584 86.0973C114.361 86.8743 114.782 88.0042 114.814 89.4614C114.846 90.923 114.483 92.6728 113.734 94.6058C112.239 98.4701 109.248 102.949 105.098 107.098C100.949 111.248 96.4702 114.238 92.606 115.734C90.6729 116.483 88.9231 116.845 87.4615 116.813C86.0043 116.782 84.8744 116.361 84.0974 115.584C83.3204 114.807 82.8994 113.677 82.8676 112.22C82.8357 110.758 83.1985 109.008 83.9468 107.075C85.4426 103.211 88.4332 98.7321 92.5827 94.5826C96.7322 90.433 101.211 87.4425 105.075 85.9466C107.008 85.1984 108.758 84.8355 110.22 84.8675C111.677 84.8993 112.807 85.3203 113.584 86.0973Z" stroke="#FB37FF" stroke-opacity="0.2" stroke-width="1.3"/>
</g>
<g filter="url(#filter16_f_569_3783)">
<path d="M113.761 85.9205C114.595 86.7554 115.031 87.9542 115.064 89.4559C115.096 90.9604 114.723 92.7437 113.968 94.6961C112.456 98.5998 109.444 103.107 105.275 107.275C101.107 111.443 96.5999 114.456 92.6962 115.967C90.7438 116.723 88.9605 117.096 87.456 117.063C85.9543 117.031 84.7555 116.595 83.9206 115.76C83.0858 114.926 82.6505 113.727 82.6177 112.225C82.5848 110.721 82.9579 108.937 83.7136 106.985C85.2247 103.081 88.2377 98.574 92.4059 94.4058C96.5742 90.2376 101.081 87.2246 104.985 85.7135C106.937 84.9577 108.721 84.5847 110.225 84.6175C111.727 84.6503 112.926 85.0856 113.761 85.9205Z" stroke="#FB37FF" stroke-width="0.8"/>
</g>
<g filter="url(#filter17_f_569_3783)">
<path d="M113.902 85.7791C114.783 86.6603 115.23 87.9142 115.263 89.4515C115.297 90.9902 114.916 92.8004 114.154 94.7683C112.631 98.7035 109.6 103.233 105.417 107.417C101.234 111.6 96.7036 114.631 92.7684 116.154C90.8005 116.916 88.9904 117.297 87.4516 117.263C85.9143 117.23 84.6604 116.783 83.7792 115.902C82.898 115.021 82.4513 113.767 82.4177 112.229C82.3841 110.691 82.7653 108.881 83.5271 106.913C85.0504 102.977 88.0813 98.4476 92.2645 94.2644C96.4477 90.0812 100.978 87.0503 104.913 85.527C106.881 84.7652 108.691 84.384 110.23 84.4176C111.767 84.4512 113.021 84.8979 113.902 85.7791Z" stroke="white" stroke-width="0.4"/>
</g>
<defs>
<filter id="filter0_f_569_3783" x="0.523804" y="0.348022" width="154.832" height="169.304" filterUnits="userSpaceOnUse" color-interpolation-filters="sRGB">
<feFlood flood-opacity="0" result="BackgroundImageFix"/>
<feBlend mode="normal" in="SourceGraphic" in2="BackgroundImageFix" result="shape"/>
<feGaussianBlur stdDeviation="5.72601" result="effect1_foregroundBlur_569_3783"/>
</filter>
<filter id="filter1_f_569_3783" x="9.94727" y="10.9775" width="135.985" height="148.045" filterUnits="userSpaceOnUse" color-interpolation-filters="sRGB">
<feFlood flood-opacity="0" result="BackgroundImageFix"/>
<feBlend mode="normal" in="SourceGraphic" in2="BackgroundImageFix" result="shape"/>
<feGaussianBlur stdDeviation="5.72601" result="effect1_foregroundBlur_569_3783"/>
</filter>
<filter id="filter2_f_569_3783" x="17.0987" y="18.129" width="121.682" height="133.742" filterUnits="userSpaceOnUse" color-interpolation-filters="sRGB">
<feFlood flood-opacity="0" result="BackgroundImageFix"/>
<feBlend mode="normal" in="SourceGraphic" in2="BackgroundImageFix" result="shape"/>
<feGaussianBlur stdDeviation="1.90867" result="effect1_foregroundBlur_569_3783"/>
</filter>
<filter id="filter3_ddi_569_3783" x="16.4367" y="21.2844" width="123.006" height="135.066" filterUnits="userSpaceOnUse" color-interpolation-filters="sRGB">
<feFlood flood-opacity="0" result="BackgroundImageFix"/>
<feColorMatrix in="SourceAlpha" type="matrix" values="0 0 0 0 0 0 0 0 0 0 0 0 0 0 0 0 0 0 127 0" result="hardAlpha"/>
<feOffset dy="3.14085"/>
<feGaussianBlur stdDeviation="1.20802"/>
<feColorMatrix type="matrix" values="0 0 0 0 0 0 0 0 0 0.3 0 0 0 0 0.275 0 0 0 0.7 0"/>
<feBlend mode="multiply" in2="BackgroundImageFix" result="effect1_dropShadow_569_3783"/>
<feColorMatrix in="SourceAlpha" type="matrix" values="0 0 0 0 0 0 0 0 0 0 0 0 0 0 0 0 0 0 127 0" result="hardAlpha"/>
<feOffset dy="3.81734"/>
<feGaussianBlur stdDeviation="2.48127"/>
<feColorMatrix type="matrix" values="0 0 0 0 0 0 0 0 0 0.6 0 0 0 0 0.6 0 0 0 1 0"/>
<feBlend mode="color-dodge" in2="effect1_dropShadow_569_3783" result="effect2_dropShadow_569_3783"/>
<feBlend mode="normal" in="SourceGraphic" in2="effect2_dropShadow_569_3783" result="shape"/>
<feColorMatrix in="SourceAlpha" type="matrix" values="0 0 0 0 0 0 0 0 0 0 0 0 0 0 0 0 0 0 127 0" result="hardAlpha"/>
<feOffset dx="-0.314085" dy="0.62817"/>
<feGaussianBlur stdDeviation="0.157043"/>
<feComposite in2="hardAlpha" operator="arithmetic" k2="-1" k3="1"/>
<feColorMatrix type="matrix" values="0 0 0 0 1 0 0 0 0 1 0 0 0 0 1 0 0 0 0.5 0"/>
<feBlend mode="normal" in2="shape" result="effect3_innerShadow_569_3783"/>
</filter>
<filter id="filter4_f_569_3783" x="21.5201" y="22.5504" width="112.839" height="124.899" filterUnits="userSpaceOnUse" color-interpolation-filters="sRGB">
<feFlood flood-opacity="0" result="BackgroundImageFix"/>
<feBlend mode="normal" in="SourceGraphic" in2="BackgroundImageFix" result="shape"/>
<feGaussianBlur stdDeviation="0.241604" result="effect1_foregroundBlur_569_3783"/>
</filter>
<filter id="filter5_f_569_3783" x="22.1644" y="23.1947" width="111.551" height="123.611" filterUnits="userSpaceOnUse" color-interpolation-filters="sRGB">
<feFlood flood-opacity="0" result="BackgroundImageFix"/>
<feBlend mode="normal" in="SourceGraphic" in2="BackgroundImageFix" result="shape"/>
<feGaussianBlur stdDeviation="0.161069" result="effect1_foregroundBlur_569_3783"/>
</filter>
<filter id="filter6_f_569_3783" x="30.8907" y="74.8907" width="51.8999" height="51.8998" filterUnits="userSpaceOnUse" color-interpolation-filters="sRGB">
<feFlood flood-opacity="0" result="BackgroundImageFix"/>
<feBlend mode="normal" in="SourceGraphic" in2="BackgroundImageFix" result="shape"/>
<feGaussianBlur stdDeviation="3" result="effect1_foregroundBlur_569_3783"/>
</filter>
<filter id="filter7_f_569_3783" x="34.2157" y="78.2157" width="45.2499" height="45.2499" filterUnits="userSpaceOnUse" color-interpolation-filters="sRGB">
<feFlood flood-opacity="0" result="BackgroundImageFix"/>
<feBlend mode="normal" in="SourceGraphic" in2="BackgroundImageFix" result="shape"/>
<feGaussianBlur stdDeviation="3" result="effect1_foregroundBlur_569_3783"/>
</filter>
<filter id="filter8_f_569_3783" x="38.2157" y="82.2157" width="37.2499" height="37.2499" filterUnits="userSpaceOnUse" color-interpolation-filters="sRGB">
<feFlood flood-opacity="0" result="BackgroundImageFix"/>
<feBlend mode="normal" in="SourceGraphic" in2="BackgroundImageFix" result="shape"/>
<feGaussianBlur stdDeviation="1" result="effect1_foregroundBlur_569_3783"/>
</filter>
<filter id="filter9_ddi_569_3783" x="37.6157" y="83.6157" width="38.4499" height="38.4499" filterUnits="userSpaceOnUse" color-interpolation-filters="sRGB">
<feFlood flood-opacity="0" result="BackgroundImageFix"/>
<feColorMatrix in="SourceAlpha" type="matrix" values="0 0 0 0 0 0 0 0 0 0 0 0 0 0 0 0 0 0 127 0" result="hardAlpha"/>
<feOffset dy="1.3"/>
<feGaussianBlur stdDeviation="0.5"/>
<feColorMatrix type="matrix" values="0 0 0 0 0.3 0 0 0 0 0 0 0 0 0 0.26 0 0 0 0.7 0"/>
<feBlend mode="multiply" in2="BackgroundImageFix" result="effect1_dropShadow_569_3783"/>
<feColorMatrix in="SourceAlpha" type="matrix" values="0 0 0 0 0 0 0 0 0 0 0 0 0 0 0 0 0 0 127 0" result="hardAlpha"/>
<feOffset dy="2"/>
<feGaussianBlur stdDeviation="1.3"/>
<feColorMatrix type="matrix" values="0 0 0 0 0.6 0 0 0 0 0 0 0 0 0 0.6 0 0 0 1 0"/>
<feBlend mode="color-dodge" in2="effect1_dropShadow_569_3783" result="effect2_dropShadow_569_3783"/>
<feBlend mode="normal" in="SourceGraphic" in2="effect2_dropShadow_569_3783" result="shape"/>
<feColorMatrix in="SourceAlpha" type="matrix" values="0 0 0 0 0 0 0 0 0 0 0 0 0 0 0 0 0 0 127 0" result="hardAlpha"/>
<feOffset dx="-0.13" dy="0.26"/>
<feGaussianBlur stdDeviation="0.065"/>
<feComposite in2="hardAlpha" operator="arithmetic" k2="-1" k3="1"/>
<feColorMatrix type="matrix" values="0 0 0 0 1 0 0 0 0 1 0 0 0 0 1 0 0 0 0.5 0"/>
<feBlend mode="normal" in2="shape" result="effect3_innerShadow_569_3783"/>
</filter>
<filter id="filter10_f_569_3783" x="40.0157" y="84.0157" width="33.6499" height="33.6499" filterUnits="userSpaceOnUse" color-interpolation-filters="sRGB">
<feFlood flood-opacity="0" result="BackgroundImageFix"/>
<feBlend mode="normal" in="SourceGraphic" in2="BackgroundImageFix" result="shape"/>
<feGaussianBlur stdDeviation="0.1" result="effect1_foregroundBlur_569_3783"/>
</filter>
<filter id="filter11_f_569_3783" x="40.0824" y="84.0823" width="33.5165" height="33.5165" filterUnits="userSpaceOnUse" color-interpolation-filters="sRGB">
<feFlood flood-opacity="0" result="BackgroundImageFix"/>
<feBlend mode="normal" in="SourceGraphic" in2="BackgroundImageFix" result="shape"/>
<feGaussianBlur stdDeviation="0.0666667" result="effect1_foregroundBlur_569_3783"/>
</filter>
<filter id="filter12_f_569_3783" x="72.8907" y="74.8905" width="51.8998" height="51.8999" filterUnits="userSpaceOnUse" color-interpolation-filters="sRGB">
<feFlood flood-opacity="0" result="BackgroundImageFix"/>
<feBlend mode="normal" in="SourceGraphic" in2="BackgroundImageFix" result="shape"/>
<feGaussianBlur stdDeviation="3" result="effect1_foregroundBlur_569_3783"/>
</filter>
<filter id="filter13_f_569_3783" x="76.2157" y="78.2155" width="45.2499" height="45.2499" filterUnits="userSpaceOnUse" color-interpolation-filters="sRGB">
<feFlood flood-opacity="0" result="BackgroundImageFix"/>
<feBlend mode="normal" in="SourceGraphic" in2="BackgroundImageFix" result="shape"/>
<feGaussianBlur stdDeviation="3" result="effect1_foregroundBlur_569_3783"/>
</filter>
<filter id="filter14_f_569_3783" x="80.2157" y="82.2155" width="37.2499" height="37.2499" filterUnits="userSpaceOnUse" color-interpolation-filters="sRGB">
<feFlood flood-opacity="0" result="BackgroundImageFix"/>
<feBlend mode="normal" in="SourceGraphic" in2="BackgroundImageFix" result="shape"/>
<feGaussianBlur stdDeviation="1" result="effect1_foregroundBlur_569_3783"/>
</filter>
<filter id="filter15_ddi_569_3783" x="79.6157" y="83.6155" width="38.4499" height="38.4499" filterUnits="userSpaceOnUse" color-interpolation-filters="sRGB">
<feFlood flood-opacity="0" result="BackgroundImageFix"/>
<feColorMatrix in="SourceAlpha" type="matrix" values="0 0 0 0 0 0 0 0 0 0 0 0 0 0 0 0 0 0 127 0" result="hardAlpha"/>
<feOffset dy="1.3"/>
<feGaussianBlur stdDeviation="0.5"/>
<feColorMatrix type="matrix" values="0 0 0 0 0.3 0 0 0 0 0 0 0 0 0 0.26 0 0 0 0.7 0"/>
<feBlend mode="multiply" in2="BackgroundImageFix" result="effect1_dropShadow_569_3783"/>
<feColorMatrix in="SourceAlpha" type="matrix" values="0 0 0 0 0 0 0 0 0 0 0 0 0 0 0 0 0 0 127 0" result="hardAlpha"/>
<feOffset dy="2"/>
<feGaussianBlur stdDeviation="1.3"/>
<feColorMatrix type="matrix" values="0 0 0 0 0.6 0 0 0 0 0 0 0 0 0 0.6 0 0 0 1 0"/>
<feBlend mode="color-dodge" in2="effect1_dropShadow_569_3783" result="effect2_dropShadow_569_3783"/>
<feBlend mode="normal" in="SourceGraphic" in2="effect2_dropShadow_569_3783" result="shape"/>
<feColorMatrix in="SourceAlpha" type="matrix" values="0 0 0 0 0 0 0 0 0 0 0 0 0 0 0 0 0 0 127 0" result="hardAlpha"/>
<feOffset dx="-0.13" dy="0.26"/>
<feGaussianBlur stdDeviation="0.065"/>
<feComposite in2="hardAlpha" operator="arithmetic" k2="-1" k3="1"/>
<feColorMatrix type="matrix" values="0 0 0 0 1 0 0 0 0 1 0 0 0 0 1 0 0 0 0.5 0"/>
<feBlend mode="normal" in2="shape" result="effect3_innerShadow_569_3783"/>
</filter>
<filter id="filter16_f_569_3783" x="82.0157" y="84.0155" width="33.6499" height="33.6499" filterUnits="userSpaceOnUse" color-interpolation-filters="sRGB">
<feFlood flood-opacity="0" result="BackgroundImageFix"/>
<feBlend mode="normal" in="SourceGraphic" in2="BackgroundImageFix" result="shape"/>
<feGaussianBlur stdDeviation="0.1" result="effect1_foregroundBlur_569_3783"/>
</filter>
<filter id="filter17_f_569_3783" x="82.0824" y="84.0822" width="33.5165" height="33.5165" filterUnits="userSpaceOnUse" color-interpolation-filters="sRGB">
<feFlood flood-opacity="0" result="BackgroundImageFix"/>
<feBlend mode="normal" in="SourceGraphic" in2="BackgroundImageFix" result="shape"/>
<feGaussianBlur stdDeviation="0.0666667" result="effect1_foregroundBlur_569_3783"/>
</filter>
</defs>
</svg>
