<svg width="416" height="124" viewBox="0 0 416 124" fill="none" xmlns="http://www.w3.org/2000/svg">
<path d="M388.59 10.9755C384.371 8.31612 374.28 2 359.97 2V121.674C359.97 123.336 366.795 119.081 394.094 98.7364C402.47 92.4946 419.302 62.535 412.257 43.3872C412.808 41.2264 406.753 22.4226 388.59 10.9755Z" fill="#4AC7D1"/>
<path d="M359.97 2V0H357.97V2H359.97ZM388.59 10.9755L389.657 9.28354L389.657 9.28354L388.59 10.9755ZM412.257 43.3872L410.319 42.8935L410.166 43.4952L410.38 44.0778L412.257 43.3872ZM394.094 98.7364L395.289 100.34L395.289 100.34L394.094 98.7364ZM359.97 4C373.683 4 383.364 10.0458 387.524 12.6675L389.657 9.28354C385.377 6.58644 374.878 0 359.97 0V4ZM387.524 12.6675C396.273 18.1818 402.12 25.4785 405.711 31.6676C407.507 34.7609 408.725 37.5541 409.455 39.6728C409.821 40.7347 410.056 41.602 410.182 42.2351C410.245 42.553 410.276 42.7845 410.287 42.9356C410.301 43.1274 410.274 43.0721 410.319 42.8935L414.195 43.8809C414.31 43.4322 414.3 42.9768 414.277 42.6502C414.25 42.2829 414.19 41.8777 414.105 41.4522C413.934 40.5986 413.644 39.553 413.237 38.3693C412.419 35.9969 411.091 32.9685 409.171 29.6599C405.332 23.0451 399.07 15.2164 389.657 9.28354L387.524 12.6675ZM410.38 44.0778C413.637 52.9306 411.428 64.6127 407.108 75.1425C404.971 80.3527 402.363 85.1649 399.79 89.0414C397.188 92.9609 394.717 95.7777 392.899 97.1327L395.289 100.34C397.659 98.5742 400.433 95.3054 403.123 91.2536C405.841 87.1587 408.572 82.114 410.809 76.6606C415.238 65.8632 417.922 52.9916 414.134 42.6966L410.38 44.0778ZM392.899 97.1327C379.247 107.307 370.756 113.426 365.688 116.792C363.13 118.49 361.542 119.42 360.638 119.83C360.117 120.066 360.099 119.997 360.341 120C360.507 120.002 361.002 120.046 361.449 120.481C361.91 120.93 361.97 121.454 361.97 121.674H357.97C357.97 122.102 358.084 122.787 358.658 123.347C359.218 123.892 359.886 123.995 360.292 124C361.013 124.009 361.742 123.721 362.288 123.474C363.516 122.918 365.341 121.824 367.901 120.124C373.071 116.691 381.642 110.511 395.289 100.34L392.899 97.1327ZM357.97 2V121.674H361.97V2H357.97Z" fill="#4AC7D1"/>
<path d="M331.349 10.9755C335.569 8.31612 345.66 2 359.97 2V121.674C359.97 123.336 353.145 119.081 325.845 98.7364C317.47 92.4946 300.637 62.535 307.682 43.3872C307.132 41.2264 313.186 22.4226 331.349 10.9755Z" fill="#4AC7D1"/>
<path d="M359.97 2V0H361.97V2H359.97ZM331.349 10.9755L330.283 9.28354L330.283 9.28354L331.349 10.9755ZM307.682 43.3872L309.621 42.8935L309.774 43.4952L309.559 44.0778L307.682 43.3872ZM325.845 98.7364L324.65 100.34L324.65 100.34L325.845 98.7364ZM359.97 4C346.257 4 336.576 10.0458 332.416 12.6675L330.283 9.28354C334.562 6.58644 345.062 0 359.97 0V4ZM332.416 12.6675C323.666 18.1818 317.82 25.4785 314.228 31.6676C312.433 34.7609 311.215 37.5541 310.485 39.6728C310.119 40.7347 309.884 41.602 309.758 42.2351C309.694 42.553 309.664 42.7845 309.653 42.9356C309.639 43.1274 309.666 43.0721 309.621 42.8935L305.744 43.8809C305.63 43.4322 305.64 42.9768 305.663 42.6502C305.689 42.2829 305.75 41.8777 305.835 41.4522C306.005 40.5986 306.295 39.553 306.703 38.3693C307.521 35.9969 308.849 32.9685 310.769 29.6599C314.607 23.0451 320.869 15.2164 330.283 9.28354L332.416 12.6675ZM309.559 44.0778C306.302 52.9306 308.512 64.6127 312.832 75.1425C314.969 80.3527 317.576 85.1649 320.15 89.0414C322.751 92.9609 325.222 95.7777 327.041 97.1327L324.65 100.34C322.281 98.5742 319.507 95.3054 316.817 91.2536C314.099 87.1587 311.368 82.114 309.131 76.6606C304.702 65.8632 302.018 52.9916 305.805 42.6966L309.559 44.0778ZM327.041 97.1327C340.693 107.307 349.184 113.426 354.251 116.792C356.809 118.49 358.397 119.42 359.302 119.83C359.823 120.066 359.84 119.997 359.598 120C359.433 120.002 358.937 120.046 358.491 120.481C358.03 120.93 357.97 121.454 357.97 121.674H361.97C361.97 122.102 361.856 122.787 361.282 123.347C360.722 123.892 360.053 123.995 359.648 124C358.926 124.009 358.197 123.721 357.652 123.474C356.424 122.918 354.599 121.824 352.038 120.124C346.869 116.691 338.297 110.511 324.65 100.34L327.041 97.1327ZM361.97 2V121.674H357.97V2H361.97Z" fill="#4AC7D1"/>
<path d="M351.179 90.2089C350.714 90.6734 349.957 91.0171 348.74 91.0436C347.51 91.0705 345.941 90.7629 344.112 90.0552C340.461 88.6418 336.136 85.7722 332.087 81.7236C328.038 77.675 325.169 73.3496 323.755 69.6983C323.048 67.8699 322.74 66.3011 322.767 65.0707C322.794 63.8541 323.137 63.0962 323.602 62.6317C324.066 62.1673 324.824 61.8236 326.041 61.797C327.271 61.7701 328.84 62.0777 330.668 62.7854C334.32 64.1989 338.645 67.0684 342.694 71.117C346.742 75.1656 349.612 79.491 351.025 83.1423C351.733 84.9707 352.041 86.5395 352.014 87.7699C351.987 88.9865 351.643 89.7444 351.179 90.2089Z" fill="#6A00B7" stroke="#6A00B7" stroke-width="4"/>
<path d="M395.179 62.6317C395.643 63.0961 395.987 63.8541 396.014 65.0706C396.041 66.3011 395.733 67.8699 395.025 69.6982C393.612 73.3495 390.742 77.6749 386.694 81.7235C382.645 85.7721 378.32 88.6417 374.668 90.0551C372.84 90.7629 371.271 91.0704 370.041 91.0436C368.824 91.017 368.066 90.6733 367.602 90.2088C367.137 89.7443 366.794 88.9864 366.767 87.7699C366.74 86.5394 367.048 84.9706 367.755 83.1422C369.169 79.4909 372.038 75.1655 376.087 71.1169C380.136 67.0683 384.461 64.1988 388.112 62.7854C389.941 62.0776 391.509 61.77 392.74 61.7969C393.956 61.8235 394.714 62.1672 395.179 62.6317Z" fill="#6A00B7" stroke="#6A00B7" stroke-width="4"/>
<path d="M236.59 10.9755C232.371 8.31612 222.28 2 207.97 2V121.674C207.97 123.336 214.795 119.081 242.094 98.7364C250.47 92.4946 267.302 62.535 260.257 43.3872C260.808 41.2264 254.753 22.4226 236.59 10.9755Z" fill="#FC6EB3"/>
<path d="M207.97 2V0H205.97V2H207.97ZM236.59 10.9755L237.657 9.28354L237.657 9.28354L236.59 10.9755ZM260.257 43.3872L258.319 42.8935L258.166 43.4952L258.38 44.0778L260.257 43.3872ZM242.094 98.7364L243.289 100.34L243.289 100.34L242.094 98.7364ZM207.97 4C221.683 4 231.364 10.0458 235.524 12.6675L237.657 9.28354C233.377 6.58644 222.878 0 207.97 0V4ZM235.524 12.6675C244.273 18.1818 250.12 25.4785 253.711 31.6676C255.507 34.7609 256.725 37.5541 257.455 39.6728C257.821 40.7347 258.056 41.602 258.182 42.2351C258.245 42.553 258.276 42.7845 258.287 42.9356C258.301 43.1274 258.274 43.0721 258.319 42.8935L262.195 43.8809C262.31 43.4322 262.3 42.9768 262.277 42.6502C262.25 42.2829 262.19 41.8777 262.105 41.4522C261.934 40.5986 261.644 39.553 261.237 38.3693C260.419 35.9969 259.091 32.9685 257.171 29.6599C253.332 23.0451 247.07 15.2164 237.657 9.28354L235.524 12.6675ZM258.38 44.0778C261.637 52.9306 259.428 64.6127 255.108 75.1425C252.971 80.3527 250.363 85.1649 247.79 89.0414C245.188 92.9609 242.717 95.7777 240.899 97.1327L243.289 100.34C245.659 98.5742 248.433 95.3054 251.123 91.2536C253.841 87.1587 256.572 82.114 258.809 76.6606C263.238 65.8632 265.922 52.9916 262.134 42.6966L258.38 44.0778ZM240.899 97.1327C227.247 107.307 218.756 113.426 213.688 116.792C211.13 118.49 209.542 119.42 208.638 119.83C208.117 120.066 208.099 119.997 208.341 120C208.507 120.002 209.002 120.046 209.449 120.481C209.91 120.93 209.97 121.454 209.97 121.674H205.97C205.97 122.102 206.084 122.787 206.658 123.347C207.218 123.892 207.886 123.995 208.292 124C209.013 124.009 209.742 123.721 210.288 123.474C211.516 122.918 213.341 121.824 215.901 120.124C221.071 116.691 229.642 110.511 243.289 100.34L240.899 97.1327ZM205.97 2V121.674H209.97V2H205.97Z" fill="#FC6EB3"/>
<path d="M179.349 10.9755C183.569 8.31612 193.66 2 207.97 2V121.674C207.97 123.336 201.145 119.081 173.845 98.7364C165.47 92.4946 148.637 62.535 155.682 43.3872C155.132 41.2264 161.186 22.4226 179.349 10.9755Z" fill="#FC6EB3"/>
<path d="M207.97 2V0H209.97V2H207.97ZM179.349 10.9755L178.283 9.28354L178.283 9.28354L179.349 10.9755ZM155.682 43.3872L157.621 42.8935L157.774 43.4952L157.559 44.0778L155.682 43.3872ZM173.845 98.7364L172.65 100.34L172.65 100.34L173.845 98.7364ZM207.97 4C194.257 4 184.576 10.0458 180.416 12.6675L178.283 9.28354C182.562 6.58644 193.062 0 207.97 0V4ZM180.416 12.6675C171.666 18.1818 165.82 25.4785 162.228 31.6676C160.433 34.7609 159.215 37.5541 158.485 39.6728C158.119 40.7347 157.884 41.602 157.758 42.2351C157.694 42.553 157.664 42.7845 157.653 42.9356C157.639 43.1274 157.666 43.0721 157.621 42.8935L153.744 43.8809C153.63 43.4322 153.64 42.9768 153.663 42.6502C153.689 42.2829 153.75 41.8777 153.835 41.4522C154.005 40.5986 154.295 39.553 154.703 38.3693C155.521 35.9969 156.849 32.9685 158.769 29.6599C162.607 23.0451 168.869 15.2164 178.283 9.28354L180.416 12.6675ZM157.559 44.0778C154.302 52.9306 156.512 64.6127 160.832 75.1425C162.969 80.3527 165.576 85.1649 168.15 89.0414C170.751 92.9609 173.222 95.7777 175.041 97.1327L172.65 100.34C170.281 98.5742 167.507 95.3054 164.817 91.2536C162.099 87.1587 159.368 82.114 157.131 76.6606C152.702 65.8632 150.018 52.9916 153.805 42.6966L157.559 44.0778ZM175.041 97.1327C188.693 107.307 197.184 113.426 202.251 116.792C204.809 118.49 206.397 119.42 207.302 119.83C207.823 120.066 207.84 119.997 207.598 120C207.433 120.002 206.937 120.046 206.491 120.481C206.03 120.93 205.97 121.454 205.97 121.674H209.97C209.97 122.102 209.856 122.787 209.282 123.347C208.722 123.892 208.053 123.995 207.648 124C206.926 124.009 206.197 123.721 205.652 123.474C204.424 122.918 202.599 121.824 200.038 120.124C194.869 116.691 186.297 110.511 172.65 100.34L175.041 97.1327ZM209.97 2V121.674H205.97V2H209.97Z" fill="#FC6EB3"/>
<path d="M199.179 90.2089C198.714 90.6734 197.957 91.0171 196.74 91.0436C195.509 91.0705 193.941 90.7629 192.112 90.0552C188.461 88.6418 184.136 85.7722 180.087 81.7236C176.038 77.675 173.169 73.3496 171.755 69.6983C171.048 67.8699 170.74 66.3011 170.767 65.0707C170.794 63.8541 171.137 63.0962 171.602 62.6317C172.066 62.1673 172.824 61.8236 174.041 61.797C175.271 61.7701 176.84 62.0777 178.668 62.7854C182.32 64.1989 186.645 67.0684 190.694 71.117C194.742 75.1656 197.612 79.491 199.025 83.1423C199.733 84.9707 200.041 86.5395 200.014 87.7699C199.987 88.9865 199.643 89.7444 199.179 90.2089Z" fill="#4AC7D1" stroke="#4AC7D1" stroke-width="4"/>
<path d="M243.179 62.6317C243.643 63.0961 243.987 63.8541 244.014 65.0706C244.041 66.3011 243.733 67.8699 243.025 69.6982C241.612 73.3495 238.742 77.6749 234.694 81.7235C230.645 85.7721 226.32 88.6417 222.668 90.0551C220.84 90.7629 219.271 91.0704 218.041 91.0436C216.824 91.017 216.066 90.6733 215.602 90.2088C215.137 89.7443 214.794 88.9864 214.767 87.7699C214.74 86.5394 215.048 84.9706 215.755 83.1422C217.169 79.4909 220.038 75.1655 224.087 71.1169C228.136 67.0683 232.461 64.1988 236.112 62.7854C237.941 62.0776 239.509 61.77 240.74 61.7969C241.956 61.8235 242.714 62.1672 243.179 62.6317Z" fill="#4AC7D1" stroke="#4AC7D1" stroke-width="4"/>
<path d="M84.5903 10.9755C80.3707 8.31612 70.2801 2 55.9699 2V121.674C55.9699 123.336 62.7949 119.081 90.0943 98.7364C98.4698 92.4946 115.302 62.535 108.257 43.3872C108.808 41.2264 102.753 22.4226 84.5903 10.9755Z" fill="#6A00B7"/>
<path d="M55.9699 2V0H53.9699V2H55.9699ZM84.5903 10.9755L85.6567 9.28354L85.6567 9.28354L84.5903 10.9755ZM108.257 43.3872L106.319 42.8935L106.166 43.4952L106.38 44.0778L108.257 43.3872ZM90.0943 98.7364L91.2894 100.34L91.2894 100.34L90.0943 98.7364ZM55.9699 4C69.6827 4 79.3641 10.0458 83.524 12.6675L85.6567 9.28354C81.3772 6.58644 70.8775 0 55.9699 0V4ZM83.524 12.6675C92.2733 18.1818 98.1199 25.4785 101.711 31.6676C103.507 34.7609 104.725 37.5541 105.455 39.6728C105.821 40.7347 106.056 41.602 106.182 42.2351C106.245 42.553 106.276 42.7845 106.287 42.9356C106.301 43.1274 106.274 43.0721 106.319 42.8935L110.195 43.8809C110.31 43.4322 110.3 42.9768 110.277 42.6502C110.25 42.2829 110.19 41.8777 110.105 41.4522C109.934 40.5986 109.644 39.553 109.237 38.3693C108.419 35.9969 107.091 32.9685 105.171 29.6599C101.332 23.0451 95.0703 15.2164 85.6567 9.28354L83.524 12.6675ZM106.38 44.0778C109.637 52.9306 107.428 64.6127 103.108 75.1425C100.971 80.3527 98.3634 85.1649 95.7901 89.0414C93.1882 92.9609 90.7175 95.7777 88.8992 97.1327L91.2894 100.34C93.6589 98.5742 96.433 95.3054 99.1227 91.2536C101.841 87.1587 104.572 82.114 106.809 76.6606C111.238 65.8632 113.922 52.9916 110.134 42.6966L106.38 44.0778ZM88.8992 97.1327C75.247 107.307 66.7562 113.426 61.6885 116.792C59.1302 118.49 57.5425 119.42 56.6377 119.83C56.1169 120.066 56.0994 119.997 56.3414 120C56.5066 120.002 57.0023 120.046 57.4486 120.481C57.9096 120.93 57.9699 121.454 57.9699 121.674H53.9699C53.9699 122.102 54.0836 122.787 54.6579 123.347C55.2175 123.892 55.8864 123.995 56.2916 124C57.0135 124.009 57.7425 123.721 58.2881 123.474C59.5161 122.918 61.3408 121.824 63.9012 120.124C69.0709 116.691 77.6422 110.511 91.2894 100.34L88.8992 97.1327ZM53.9699 2V121.674H57.9699V2H53.9699Z" fill="#6A00B7"/>
<path d="M27.3493 10.9755C31.569 8.31612 41.6596 2 55.9697 2V121.674C55.9697 123.336 49.1448 119.081 21.8454 98.7364C13.4699 92.4946 -3.36257 62.535 3.68242 43.3872C3.13202 41.2264 9.18637 22.4226 27.3493 10.9755Z" fill="#6A00B7"/>
<path d="M55.9697 2V0H57.9697V2H55.9697ZM27.3493 10.9755L26.283 9.28354L26.283 9.28354L27.3493 10.9755ZM3.68242 43.3872L5.62053 42.8935L5.77377 43.4952L5.5594 44.0778L3.68242 43.3872ZM21.8454 98.7364L20.6503 100.34L20.6503 100.34L21.8454 98.7364ZM55.9697 4C42.257 4 32.5756 10.0458 28.4157 12.6675L26.283 9.28354C30.5624 6.58644 41.0622 0 55.9697 0V4ZM28.4157 12.6675C19.6664 18.1818 13.8198 25.4785 10.2282 31.6676C8.43308 34.7609 7.21511 37.5541 6.48484 39.6728C6.11882 40.7347 5.88403 41.602 5.75769 42.2351C5.69425 42.553 5.66367 42.7845 5.65286 42.9356C5.63914 43.1274 5.66601 43.0721 5.62053 42.8935L1.7443 43.8809C1.63002 43.4322 1.63969 42.9768 1.66306 42.6502C1.68934 42.2829 1.75014 41.8777 1.83504 41.4522C2.0054 40.5986 2.29521 39.553 2.70317 38.3693C3.52089 35.9969 4.84849 32.9685 6.76854 29.6599C10.6072 23.0451 16.8694 15.2164 26.283 9.28354L28.4157 12.6675ZM5.5594 44.0778C2.30222 52.9306 4.51203 64.6127 8.83157 75.1425C10.9689 80.3527 13.5763 85.1649 16.1496 89.0414C18.7514 92.9609 21.2222 95.7777 23.0405 97.1327L20.6503 100.34C18.2808 98.5742 15.5067 95.3054 12.817 91.2536C10.0987 87.1587 7.36793 82.114 5.13084 76.6606C0.701537 65.8632 -1.98237 52.9916 1.80543 42.6966L5.5594 44.0778ZM23.0405 97.1327C36.6927 107.307 45.1835 113.426 50.2512 116.792C52.8095 118.49 54.3972 119.42 55.302 119.83C55.8228 120.066 55.8403 119.997 55.5982 120C55.433 120.002 54.9374 120.046 54.4911 120.481C54.0301 120.93 53.9697 121.454 53.9697 121.674H57.9697C57.9697 122.102 57.8561 122.787 57.2818 123.347C56.7222 123.892 56.0532 123.995 55.6481 124C54.9262 124.009 54.1972 123.721 53.6516 123.474C52.4236 122.918 50.5989 121.824 48.0385 120.124C42.8688 116.691 34.2975 110.511 20.6503 100.34L23.0405 97.1327ZM57.9697 2V121.674H53.9697V2H57.9697Z" fill="#6A00B7"/>
<path d="M47.1789 90.2089C46.7144 90.6734 45.9565 91.0171 44.74 91.0436C43.5095 91.0705 41.9407 90.7629 40.1123 90.0552C36.461 88.6418 32.1356 85.7722 28.087 81.7236C24.0384 77.675 21.1689 73.3496 19.7555 69.6983C19.0477 67.8699 18.7401 66.3011 18.767 65.0707C18.7936 63.8541 19.1373 63.0962 19.6018 62.6317C20.0662 62.1673 20.8242 61.8236 22.0407 61.797C23.2712 61.7701 24.84 62.0777 26.6683 62.7854C30.3196 64.1989 34.645 67.0684 38.6936 71.117C42.7422 75.1656 45.6118 79.491 47.0252 83.1423C47.733 84.9707 48.0405 86.5395 48.0137 87.7699C47.9871 88.9865 47.6434 89.7444 47.1789 90.2089Z" fill="#FC6EB3" stroke="#FC6EB3" stroke-width="4"/>
<path d="M91.1789 62.6317C91.6434 63.0961 91.987 63.8541 92.0136 65.0706C92.0405 66.3011 91.7329 67.8699 91.0252 69.6982C89.6118 73.3495 86.7422 77.6749 82.6936 81.7235C78.645 85.7721 74.3196 88.6417 70.6683 90.0551C68.8399 90.7629 67.2711 91.0704 66.0407 91.0436C64.8241 91.017 64.0662 90.6733 63.6017 90.2088C63.1372 89.7443 62.7936 88.9864 62.767 87.7699C62.7401 86.5394 63.0477 84.9706 63.7554 83.1422C65.1688 79.4909 68.0384 75.1655 72.087 71.1169C76.1356 67.0683 80.461 64.1988 84.1123 62.7854C85.9407 62.0776 87.5095 61.77 88.7399 61.7969C89.9565 61.8235 90.7144 62.1672 91.1789 62.6317Z" fill="#FC6EB3" stroke="#FC6EB3" stroke-width="4"/>
</svg>
