<svg width="180" height="190" viewBox="0 0 180 190" fill="none" xmlns="http://www.w3.org/2000/svg">
<path d="M125 77L138 160H39L55 77H125Z" fill="white"/>
<circle cx="88" cy="48" r="46" fill="white" stroke="white" stroke-width="4"/>
<circle cx="88" cy="48" r="36" fill="#333333"/>
<mask id="path-4-inside-1_640_9701" fill="white">
<path fill-rule="evenodd" clip-rule="evenodd" d="M132 65.5344C134.287 60.3797 135.535 54.8104 135.535 49C135.535 43.8417 134.552 38.8735 132.731 34.2167C133.25 34.0741 133.783 34 134.326 34C139.669 34 144 41.1634 144 50C144 58.8366 139.669 66 134.326 66C133.524 66 132.745 65.8386 132 65.5344Z"/>
</mask>
<path fill-rule="evenodd" clip-rule="evenodd" d="M132 65.5344C134.287 60.3797 135.535 54.8104 135.535 49C135.535 43.8417 134.552 38.8735 132.731 34.2167C133.25 34.0741 133.783 34 134.326 34C139.669 34 144 41.1634 144 50C144 58.8366 139.669 66 134.326 66C133.524 66 132.745 65.8386 132 65.5344Z" fill="white"/>
<path d="M132 65.5344L128.344 63.9121L126.672 67.6796L130.488 69.2376L132 65.5344ZM132.731 34.2167L131.672 30.3594L127.387 31.5355L129.005 35.6734L132.731 34.2167ZM131.535 49C131.535 54.2281 130.414 59.2463 128.344 63.9121L135.656 67.1566C138.16 61.513 139.535 55.3927 139.535 49H131.535ZM129.005 35.6734C130.651 39.882 131.535 44.3571 131.535 49H139.535C139.535 43.3264 138.452 37.865 136.456 32.7599L129.005 35.6734ZM133.789 38.0739C133.973 38.0236 134.15 38 134.326 38V30C133.415 30 132.526 30.1247 131.672 30.3594L133.789 38.0739ZM134.326 38C135.056 38 136.384 38.5079 137.744 40.7559C139.057 42.9289 140 46.1874 140 50H148C148 44.976 146.777 40.2346 144.59 36.6167C142.448 33.0738 138.939 30 134.326 30V38ZM140 50C140 53.8126 139.057 57.0711 137.744 59.2441C136.384 61.4921 135.056 62 134.326 62V70C138.939 70 142.448 66.9262 144.59 63.3833C146.777 59.7654 148 55.024 148 50H140ZM134.326 62C134.072 62 133.805 61.9507 133.512 61.8311L130.488 69.2376C131.685 69.7265 132.977 70 134.326 70V62Z" fill="white" mask="url(#path-4-inside-1_640_9701)"/>
<mask id="path-6-inside-2_640_9701" fill="white">
<path fill-rule="evenodd" clip-rule="evenodd" d="M43.9238 65.5344C41.6367 60.3797 40.3883 54.8104 40.3883 49C40.3883 43.8417 41.3722 38.8735 43.1933 34.2167C42.6741 34.0741 42.1411 34 41.5975 34C36.2549 34 31.9238 41.1634 31.9238 50C31.9238 58.8366 36.2549 66 41.5975 66C42.3995 66 43.1786 65.8386 43.9238 65.5344Z"/>
</mask>
<path fill-rule="evenodd" clip-rule="evenodd" d="M43.9238 65.5344C41.6367 60.3797 40.3883 54.8104 40.3883 49C40.3883 43.8417 41.3722 38.8735 43.1933 34.2167C42.6741 34.0741 42.1411 34 41.5975 34C36.2549 34 31.9238 41.1634 31.9238 50C31.9238 58.8366 36.2549 66 41.5975 66C42.3995 66 43.1786 65.8386 43.9238 65.5344Z" fill="white"/>
<path d="M43.9238 65.5344L47.58 63.9121L49.2516 67.6796L45.4357 69.2376L43.9238 65.5344ZM43.1933 34.2167L44.2522 30.3594L48.5367 31.5355L46.9185 35.6734L43.1933 34.2167ZM44.3883 49C44.3883 54.2281 45.5099 59.2463 47.58 63.9121L40.2675 67.1566C37.7635 61.513 36.3883 55.3927 36.3883 49H44.3883ZM46.9185 35.6734C45.2728 39.882 44.3883 44.3571 44.3883 49H36.3883C36.3883 43.3264 37.4716 37.865 39.468 32.7599L46.9185 35.6734ZM42.1343 38.0739C41.9508 38.0236 41.7737 38 41.5975 38V30C42.5085 30 43.3975 30.1247 44.2522 30.3594L42.1343 38.0739ZM41.5975 38C40.8681 38 39.5393 38.5079 38.1801 40.7559C36.8663 42.9289 35.9238 46.1874 35.9238 50H27.9238C27.9238 44.976 29.1468 40.2346 31.3342 36.6167C33.4762 33.0738 36.9843 30 41.5975 30V38ZM35.9238 50C35.9238 53.8126 36.8663 57.0711 38.1801 59.2441C39.5393 61.4921 40.8681 62 41.5975 62V70C36.9843 70 33.4762 66.9262 31.3342 63.3833C29.1468 59.7654 27.9238 55.024 27.9238 50H35.9238ZM41.5975 62C41.8519 62 42.119 61.9507 42.4118 61.8311L45.4357 69.2376C44.2383 69.7265 42.947 70 41.5975 70V62Z" fill="white" mask="url(#path-6-inside-2_640_9701)"/>
<path fill-rule="evenodd" clip-rule="evenodd" d="M69.3013 91L31.9027 75.7763L31.6603 76.1962C26.8773 73.4347 19.7541 76.8183 15.75 83.7535C11.7459 90.6888 12.3773 98.5495 17.1603 101.311L17.0542 101.495L48.3013 127.373L69.3013 91Z" fill="white"/>
<path fill-rule="evenodd" clip-rule="evenodd" d="M108.753 91L146.151 75.7763L146.394 76.1962C151.177 73.4347 158.3 76.8183 162.304 83.7535C166.308 90.6888 165.677 98.5495 160.894 101.311L161 101.495L129.753 127.373L108.753 91Z" fill="white"/>
<path fill-rule="evenodd" clip-rule="evenodd" d="M49.3553 124L24.9709 156.184L25.3137 156.527C21.4085 160.432 22.8331 168.188 28.4957 173.851C34.1583 179.514 41.9146 180.938 45.8198 177.033L45.9698 177.183L79.0538 153.698L49.3553 124Z" fill="white"/>
<path fill-rule="evenodd" clip-rule="evenodd" d="M128.698 124L153.083 156.184L152.74 156.527C156.645 160.432 155.221 168.188 149.558 173.851C143.896 179.514 136.139 180.938 132.234 177.033L132.084 177.183L99 153.698L128.698 124Z" fill="white"/>
<rect x="60" y="104" width="56" height="32" rx="8" fill="#4C5158"/>
<ellipse cx="36.2566" cy="158.557" rx="17" ry="26" transform="rotate(-20 36.2566 158.557)" fill="#4AC7D1"/>
<ellipse cx="17" cy="26" rx="17" ry="26" transform="matrix(0.939693 0.34202 0.34202 -0.939693 116 176.864)" fill="#4AC7D1"/>
<path d="M29.3821 91.0349C27.4534 94.3755 24.9426 96.8464 22.5365 98.1868C20.0887 99.5505 18.0962 99.5895 16.7942 98.8378C15.4923 98.0861 14.5298 96.3411 14.4869 93.5394C14.4447 90.7854 15.3291 87.3755 17.2578 84.0349C19.1865 80.6943 21.6973 78.2235 24.1035 76.883C26.5512 75.5194 28.5437 75.4804 29.8457 76.2321C31.1476 76.9837 32.1101 78.7288 32.153 81.5304C32.1952 84.2845 31.3108 87.6943 29.3821 91.0349Z" stroke="#4AC7D1" stroke-width="4"/>
<path d="M150.396 89.0349C152.325 92.3755 154.836 94.8464 157.242 96.1868C159.689 97.5505 161.682 97.5895 162.984 96.8378C164.286 96.0861 165.248 94.3411 165.291 91.5394C165.333 88.7854 164.449 85.3755 162.52 82.0349C160.592 78.6943 158.081 76.2235 155.675 74.883C153.227 73.5194 151.234 73.4804 149.933 74.2321C148.631 74.9837 147.668 76.7288 147.625 79.5304C147.583 82.2845 148.467 85.6943 150.396 89.0349Z" stroke="#4AC7D1" stroke-width="4"/>
<ellipse cx="19.3891" cy="82.0349" rx="11.548" ry="18.7765" transform="rotate(30 19.3891 82.0349)" fill="white"/>
<ellipse cx="11.548" cy="18.7765" rx="11.548" ry="18.7765" transform="matrix(-0.866025 0.5 0.5 0.866025 161.002 58)" fill="white"/>
</svg>
