<svg width="79" height="71" viewBox="0 0 79 71" fill="none" xmlns="http://www.w3.org/2000/svg">
<circle cx="38.547" cy="35.5" r="28.7396" stroke="white" stroke-width="1.85417"/>
<g filter="url(#filter0_f_612_3865)">
<circle cx="39.7832" cy="35.5" r="28.7396" stroke="white" stroke-width="1.85417"/>
</g>
<mask id="path-3-inside-1_612_3865" fill="white">
<path fill-rule="evenodd" clip-rule="evenodd" d="M64.5054 46.9553C66.3901 43.7694 67.4189 40.3273 67.4189 36.7361C67.4189 33.548 66.6081 30.4774 65.1074 27.5992C65.5351 27.5111 65.9744 27.4653 66.4224 27.4653C70.8251 27.4653 74.3942 31.8927 74.3942 37.3542C74.3942 42.8156 70.8251 47.243 66.4224 47.243C65.7615 47.243 65.1194 47.1433 64.5054 46.9553Z"/>
</mask>
<path d="M64.5054 46.9553L62.9095 46.0112L61.7102 48.0385L63.9625 48.7282L64.5054 46.9553ZM65.1074 27.5992L64.7335 25.7831L62.3277 26.2784L63.4633 28.4564L65.1074 27.5992ZM65.5647 36.7361C65.5647 39.9605 64.6437 43.0799 62.9095 46.0112L66.1012 47.8993C68.1365 44.4589 69.273 40.694 69.273 36.7361H65.5647ZM63.4633 28.4564C64.8381 31.0932 65.5647 33.8716 65.5647 36.7361H69.273C69.273 33.2244 68.378 29.8616 66.7515 26.7419L63.4633 28.4564ZM65.4813 29.4152C65.7874 29.3522 66.1014 29.3194 66.4224 29.3194V25.6111C65.8474 25.6111 65.2829 25.67 64.7335 25.7831L65.4813 29.4152ZM66.4224 29.3194C69.4479 29.3194 72.5401 32.5236 72.5401 37.3542H76.2484C76.2484 31.2617 72.2023 25.6111 66.4224 25.6111V29.3194ZM72.5401 37.3542C72.5401 42.1847 69.4479 45.3889 66.4224 45.3889V49.0972C72.2023 49.0972 76.2484 43.4466 76.2484 37.3542H72.5401ZM66.4224 45.3889C65.9498 45.3889 65.4905 45.3178 65.0483 45.1824L63.9625 48.7282C64.7483 48.9688 65.5732 49.0972 66.4224 49.0972V45.3889Z" fill="white" mask="url(#path-3-inside-1_612_3865)"/>
<g filter="url(#filter1_f_612_3865)">
<mask id="path-5-inside-2_612_3865" fill="white">
<path fill-rule="evenodd" clip-rule="evenodd" d="M65.7416 46.9553C67.6263 43.7694 68.6551 40.3273 68.6551 36.7361C68.6551 33.548 67.8443 30.4774 66.3436 27.5992C66.7714 27.5111 67.2106 27.4653 67.6586 27.4653C72.0613 27.4653 75.6304 31.8927 75.6304 37.3542C75.6304 42.8156 72.0613 47.243 67.6586 47.243C66.9977 47.243 66.3556 47.1433 65.7416 46.9553Z"/>
</mask>
<path d="M65.7416 46.9553L64.1457 46.0112L62.9464 48.0385L65.1987 48.7282L65.7416 46.9553ZM66.3436 27.5992L65.9697 25.7831L63.5639 26.2784L64.6995 28.4564L66.3436 27.5992ZM66.8009 36.7361C66.8009 39.9605 65.8799 43.0799 64.1457 46.0112L67.3374 47.8993C69.3727 44.4589 70.5092 40.694 70.5092 36.7361H66.8009ZM64.6995 28.4564C66.0743 31.0932 66.8009 33.8716 66.8009 36.7361H70.5092C70.5092 33.2244 69.6142 29.8616 67.9877 26.7419L64.6995 28.4564ZM66.7175 29.4152C67.0236 29.3522 67.3377 29.3194 67.6586 29.3194V25.6111C67.0836 25.6111 66.5191 25.67 65.9697 25.7831L66.7175 29.4152ZM67.6586 29.3194C70.6841 29.3194 73.7763 32.5236 73.7763 37.3542H77.4846C77.4846 31.2617 73.4385 25.6111 67.6586 25.6111V29.3194ZM73.7763 37.3542C73.7763 42.1847 70.6841 45.3889 67.6586 45.3889V49.0972C73.4385 49.0972 77.4846 43.4466 77.4846 37.3542H73.7763ZM67.6586 45.3889C67.186 45.3889 66.7267 45.3178 66.2845 45.1824L65.1987 48.7282C65.9845 48.9688 66.8094 49.0972 67.6586 49.0972V45.3889Z" fill="white" mask="url(#path-5-inside-2_612_3865)"/>
</g>
<mask id="path-7-inside-3_612_3865" fill="white">
<path fill-rule="evenodd" clip-rule="evenodd" d="M12.5416 46.9552C10.6569 43.7694 9.62816 40.3272 9.62816 36.7361C9.62816 33.548 10.439 30.4774 11.9396 27.5992C11.5118 27.5111 11.0725 27.4653 10.6246 27.4653C6.22183 27.4653 2.65269 31.8927 2.65269 37.3542C2.65269 42.8156 6.22183 47.243 10.6246 47.243C11.2855 47.243 11.9276 47.1433 12.5416 46.9552Z"/>
</mask>
<path d="M12.5416 46.9552L14.1375 46.0112L15.3368 48.0385L13.0845 48.7282L12.5416 46.9552ZM11.9396 27.5992L12.3136 25.7831L14.7193 26.2785L13.5837 28.4564L11.9396 27.5992ZM11.4823 36.7361C11.4823 39.9605 12.4034 43.0799 14.1375 46.0112L10.9458 47.8993C8.91048 44.4588 7.77399 40.694 7.77399 36.7361H11.4823ZM13.5837 28.4564C12.2089 31.0932 11.4823 33.8716 11.4823 36.7361H7.77399C7.77399 33.2244 8.66896 29.8616 10.2955 26.742L13.5837 28.4564ZM11.5657 29.4153C11.2595 29.3522 10.9455 29.3194 10.6246 29.3194V25.6111C11.1995 25.6111 11.7641 25.67 12.3136 25.7831L11.5657 29.4153ZM10.6246 29.3194C7.599 29.3194 4.50686 32.5236 4.50686 37.3542H0.798525C0.798525 31.2617 4.84465 25.6111 10.6246 25.6111V29.3194ZM4.50686 37.3542C4.50686 42.1847 7.599 45.3889 10.6246 45.3889V49.0972C4.84465 49.0972 0.798525 43.4466 0.798525 37.3542H4.50686ZM10.6246 45.3889C11.0972 45.3889 11.5565 45.3178 11.9987 45.1823L13.0845 48.7282C12.2987 48.9688 11.4737 49.0972 10.6246 49.0972V45.3889Z" fill="white" mask="url(#path-7-inside-3_612_3865)"/>
<g filter="url(#filter2_f_612_3865)">
<mask id="path-9-inside-4_612_3865" fill="white">
<path fill-rule="evenodd" clip-rule="evenodd" d="M13.7778 46.9552C11.8931 43.7694 10.8644 40.3272 10.8644 36.7361C10.8644 33.548 11.6752 30.4774 13.1758 27.5992C12.748 27.5111 12.3087 27.4653 11.8608 27.4653C7.45804 27.4653 3.8889 31.8927 3.8889 37.3542C3.8889 42.8156 7.45804 47.243 11.8608 47.243C12.5217 47.243 13.1638 47.1433 13.7778 46.9552Z"/>
</mask>
<path d="M13.7778 46.9552L15.3737 46.0112L16.573 48.0385L14.3207 48.7282L13.7778 46.9552ZM13.1758 27.5992L13.5498 25.7831L15.9555 26.2785L14.8199 28.4564L13.1758 27.5992ZM12.7185 36.7361C12.7185 39.9605 13.6396 43.0799 15.3737 46.0112L12.182 47.8993C10.1467 44.4588 9.0102 40.694 9.0102 36.7361H12.7185ZM14.8199 28.4564C13.4451 31.0932 12.7185 33.8716 12.7185 36.7361H9.0102C9.0102 33.2244 9.90517 29.8616 11.5317 26.742L14.8199 28.4564ZM12.8019 29.4153C12.4958 29.3522 12.1817 29.3194 11.8608 29.3194V25.6111C12.4357 25.6111 13.0003 25.67 13.5498 25.7831L12.8019 29.4153ZM11.8608 29.3194C8.83521 29.3194 5.74307 32.5236 5.74307 37.3542H2.03474C2.03474 31.2617 6.08086 25.6111 11.8608 25.6111V29.3194ZM5.74307 37.3542C5.74307 42.1847 8.83521 45.3889 11.8608 45.3889V49.0972C6.08086 49.0972 2.03474 43.4466 2.03474 37.3542H5.74307ZM11.8608 45.3889C12.3334 45.3889 12.7927 45.3178 13.2349 45.1823L14.3207 48.7282C13.5349 48.9688 12.7099 49.0972 11.8608 49.0972V45.3889Z" fill="white" mask="url(#path-9-inside-4_612_3865)"/>
</g>
<circle cx="38.547" cy="35.5" r="28.7396" stroke="white" stroke-width="1.85417"/>
<g filter="url(#filter3_f_612_3865)">
<circle cx="39.7832" cy="35.5" r="28.7396" stroke="white" stroke-width="1.85417"/>
</g>
<g filter="url(#filter4_f_612_3865)">
<circle cx="38.547" cy="35.5" r="28.1215" stroke="white" stroke-width="3.09028"/>
</g>
<mask id="path-14-inside-5_612_3865" fill="white">
<path fill-rule="evenodd" clip-rule="evenodd" d="M64.5054 46.9553C66.3901 43.7694 67.4189 40.3273 67.4189 36.7361C67.4189 33.548 66.6081 30.4774 65.1074 27.5992C65.5351 27.5111 65.9744 27.4653 66.4224 27.4653C70.8251 27.4653 74.3942 31.8927 74.3942 37.3542C74.3942 42.8156 70.8251 47.243 66.4224 47.243C65.7615 47.243 65.1194 47.1433 64.5054 46.9553Z"/>
</mask>
<path d="M64.5054 46.9553L62.9095 46.0112L61.7102 48.0385L63.9625 48.7282L64.5054 46.9553ZM65.1074 27.5992L64.7335 25.7831L62.3277 26.2784L63.4633 28.4564L65.1074 27.5992ZM65.5647 36.7361C65.5647 39.9605 64.6437 43.0799 62.9095 46.0112L66.1012 47.8993C68.1365 44.4589 69.273 40.694 69.273 36.7361H65.5647ZM63.4633 28.4564C64.8381 31.0932 65.5647 33.8716 65.5647 36.7361H69.273C69.273 33.2244 68.378 29.8616 66.7515 26.7419L63.4633 28.4564ZM65.4813 29.4152C65.7874 29.3522 66.1014 29.3194 66.4224 29.3194V25.6111C65.8474 25.6111 65.2829 25.67 64.7335 25.7831L65.4813 29.4152ZM66.4224 29.3194C69.4479 29.3194 72.5401 32.5236 72.5401 37.3542H76.2484C76.2484 31.2617 72.2023 25.6111 66.4224 25.6111V29.3194ZM72.5401 37.3542C72.5401 42.1847 69.4479 45.3889 66.4224 45.3889V49.0972C72.2023 49.0972 76.2484 43.4466 76.2484 37.3542H72.5401ZM66.4224 45.3889C65.9498 45.3889 65.4905 45.3178 65.0483 45.1824L63.9625 48.7282C64.7483 48.9688 65.5732 49.0972 66.4224 49.0972V45.3889Z" fill="white" mask="url(#path-14-inside-5_612_3865)"/>
<g filter="url(#filter5_f_612_3865)">
<mask id="path-16-inside-6_612_3865" fill="white">
<path fill-rule="evenodd" clip-rule="evenodd" d="M65.7416 46.9553C67.6263 43.7694 68.6551 40.3273 68.6551 36.7361C68.6551 33.548 67.8443 30.4774 66.3436 27.5992C66.7714 27.5111 67.2106 27.4653 67.6586 27.4653C72.0613 27.4653 75.6304 31.8927 75.6304 37.3542C75.6304 42.8156 72.0613 47.243 67.6586 47.243C66.9977 47.243 66.3556 47.1433 65.7416 46.9553Z"/>
</mask>
<path d="M65.7416 46.9553L64.1457 46.0112L62.9464 48.0385L65.1987 48.7282L65.7416 46.9553ZM66.3436 27.5992L65.9697 25.7831L63.5639 26.2784L64.6995 28.4564L66.3436 27.5992ZM66.8009 36.7361C66.8009 39.9605 65.8799 43.0799 64.1457 46.0112L67.3374 47.8993C69.3727 44.4589 70.5092 40.694 70.5092 36.7361H66.8009ZM64.6995 28.4564C66.0743 31.0932 66.8009 33.8716 66.8009 36.7361H70.5092C70.5092 33.2244 69.6142 29.8616 67.9877 26.7419L64.6995 28.4564ZM66.7175 29.4152C67.0236 29.3522 67.3377 29.3194 67.6586 29.3194V25.6111C67.0836 25.6111 66.5191 25.67 65.9697 25.7831L66.7175 29.4152ZM67.6586 29.3194C70.6841 29.3194 73.7763 32.5236 73.7763 37.3542H77.4846C77.4846 31.2617 73.4385 25.6111 67.6586 25.6111V29.3194ZM73.7763 37.3542C73.7763 42.1847 70.6841 45.3889 67.6586 45.3889V49.0972C73.4385 49.0972 77.4846 43.4466 77.4846 37.3542H73.7763ZM67.6586 45.3889C67.186 45.3889 66.7267 45.3178 66.2845 45.1824L65.1987 48.7282C65.9845 48.9688 66.8094 49.0972 67.6586 49.0972V45.3889Z" fill="white" mask="url(#path-16-inside-6_612_3865)"/>
</g>
<g filter="url(#filter6_f_612_3865)">
<mask id="path-18-inside-7_612_3865" fill="white">
<path fill-rule="evenodd" clip-rule="evenodd" d="M64.5054 46.9553C66.3901 43.7694 67.4189 40.3273 67.4189 36.7361C67.4189 33.548 66.6081 30.4774 65.1074 27.5992C65.5351 27.5111 65.9744 27.4653 66.4224 27.4653C70.8251 27.4653 74.3942 31.8927 74.3942 37.3542C74.3942 42.8156 70.8251 47.243 66.4224 47.243C65.7615 47.243 65.1194 47.1433 64.5054 46.9553Z"/>
</mask>
<path d="M64.5054 46.9553L61.8457 45.3818L59.8468 48.7607L63.6006 49.9101L64.5054 46.9553ZM65.1074 27.5992L64.4842 24.5724L60.4745 25.3979L62.3672 29.0279L65.1074 27.5992ZM64.3286 36.7361C64.3286 39.7161 63.4794 42.6202 61.8457 45.3818L67.1651 48.5287C69.3008 44.9185 70.5091 40.9384 70.5091 36.7361H64.3286ZM62.3672 29.0279C63.6581 31.5037 64.3286 34.0874 64.3286 36.7361H70.5091C70.5091 33.0086 69.558 29.451 67.8475 26.1704L62.3672 29.0279ZM65.7306 30.626C65.9556 30.5796 66.1861 30.5555 66.4224 30.5555V24.375C65.7628 24.375 65.1147 24.4426 64.4842 24.5724L65.7306 30.626ZM66.4224 30.5555C68.5298 30.5555 71.304 32.9443 71.304 37.3542H77.4845C77.4845 30.8411 73.1204 24.375 66.4224 24.375V30.5555ZM71.304 37.3542C71.304 41.7641 68.5298 44.1528 66.4224 44.1528V50.3333C73.1204 50.3333 77.4845 43.8672 77.4845 37.3542H71.304ZM66.4224 44.1528C66.0753 44.1528 65.7379 44.1008 65.4102 44.0004L63.6006 49.9101C64.5009 50.1858 65.4477 50.3333 66.4224 50.3333V44.1528Z" fill="white" mask="url(#path-18-inside-7_612_3865)"/>
</g>
<mask id="path-20-inside-8_612_3865" fill="white">
<path fill-rule="evenodd" clip-rule="evenodd" d="M12.5416 46.9552C10.6569 43.7694 9.62816 40.3272 9.62816 36.7361C9.62816 33.548 10.439 30.4774 11.9396 27.5992C11.5118 27.5111 11.0725 27.4653 10.6246 27.4653C6.22183 27.4653 2.65269 31.8927 2.65269 37.3542C2.65269 42.8156 6.22183 47.243 10.6246 47.243C11.2855 47.243 11.9276 47.1433 12.5416 46.9552Z"/>
</mask>
<path d="M12.5416 46.9552L14.1375 46.0112L15.3368 48.0385L13.0845 48.7282L12.5416 46.9552ZM11.9396 27.5992L12.3136 25.7831L14.7193 26.2785L13.5837 28.4564L11.9396 27.5992ZM11.4823 36.7361C11.4823 39.9605 12.4034 43.0799 14.1375 46.0112L10.9458 47.8993C8.91048 44.4588 7.77399 40.694 7.77399 36.7361H11.4823ZM13.5837 28.4564C12.2089 31.0932 11.4823 33.8716 11.4823 36.7361H7.77399C7.77399 33.2244 8.66896 29.8616 10.2955 26.742L13.5837 28.4564ZM11.5657 29.4153C11.2595 29.3522 10.9455 29.3194 10.6246 29.3194V25.6111C11.1995 25.6111 11.7641 25.67 12.3136 25.7831L11.5657 29.4153ZM10.6246 29.3194C7.599 29.3194 4.50686 32.5236 4.50686 37.3542H0.798525C0.798525 31.2617 4.84465 25.6111 10.6246 25.6111V29.3194ZM4.50686 37.3542C4.50686 42.1847 7.599 45.3889 10.6246 45.3889V49.0972C4.84465 49.0972 0.798525 43.4466 0.798525 37.3542H4.50686ZM10.6246 45.3889C11.0972 45.3889 11.5565 45.3178 11.9987 45.1823L13.0845 48.7282C12.2987 48.9688 11.4737 49.0972 10.6246 49.0972V45.3889Z" fill="white" mask="url(#path-20-inside-8_612_3865)"/>
<g filter="url(#filter7_f_612_3865)">
<mask id="path-22-inside-9_612_3865" fill="white">
<path fill-rule="evenodd" clip-rule="evenodd" d="M13.7778 46.9552C11.8931 43.7694 10.8644 40.3272 10.8644 36.7361C10.8644 33.548 11.6752 30.4774 13.1758 27.5992C12.748 27.5111 12.3087 27.4653 11.8608 27.4653C7.45804 27.4653 3.8889 31.8927 3.8889 37.3542C3.8889 42.8156 7.45804 47.243 11.8608 47.243C12.5217 47.243 13.1638 47.1433 13.7778 46.9552Z"/>
</mask>
<path d="M13.7778 46.9552L15.3737 46.0112L16.573 48.0385L14.3207 48.7282L13.7778 46.9552ZM13.1758 27.5992L13.5498 25.7831L15.9555 26.2785L14.8199 28.4564L13.1758 27.5992ZM12.7185 36.7361C12.7185 39.9605 13.6396 43.0799 15.3737 46.0112L12.182 47.8993C10.1467 44.4588 9.0102 40.694 9.0102 36.7361H12.7185ZM14.8199 28.4564C13.4451 31.0932 12.7185 33.8716 12.7185 36.7361H9.0102C9.0102 33.2244 9.90517 29.8616 11.5317 26.742L14.8199 28.4564ZM12.8019 29.4153C12.4958 29.3522 12.1817 29.3194 11.8608 29.3194V25.6111C12.4357 25.6111 13.0003 25.67 13.5498 25.7831L12.8019 29.4153ZM11.8608 29.3194C8.83521 29.3194 5.74307 32.5236 5.74307 37.3542H2.03474C2.03474 31.2617 6.08086 25.6111 11.8608 25.6111V29.3194ZM5.74307 37.3542C5.74307 42.1847 8.83521 45.3889 11.8608 45.3889V49.0972C6.08086 49.0972 2.03474 43.4466 2.03474 37.3542H5.74307ZM11.8608 45.3889C12.3334 45.3889 12.7927 45.3178 13.2349 45.1823L14.3207 48.7282C13.5349 48.9688 12.7099 49.0972 11.8608 49.0972V45.3889Z" fill="white" mask="url(#path-22-inside-9_612_3865)"/>
</g>
<g filter="url(#filter8_f_612_3865)">
<mask id="path-24-inside-10_612_3865" fill="white">
<path fill-rule="evenodd" clip-rule="evenodd" d="M12.5416 46.9552C10.6569 43.7694 9.62816 40.3272 9.62816 36.7361C9.62816 33.548 10.439 30.4774 11.9396 27.5992C11.5118 27.5111 11.0725 27.4653 10.6246 27.4653C6.22183 27.4653 2.65269 31.8927 2.65269 37.3542C2.65269 42.8156 6.22183 47.243 10.6246 47.243C11.2855 47.243 11.9276 47.1433 12.5416 46.9552Z"/>
</mask>
<path d="M12.5416 46.9552L15.2013 45.3818L17.2002 48.7606L13.4465 49.9101L12.5416 46.9552ZM11.9396 27.5992L12.5629 24.5724L16.5724 25.398L14.6798 29.0279L11.9396 27.5992ZM12.7184 36.7361C12.7184 39.7161 13.5676 42.6202 15.2013 45.3818L9.8819 48.5287C7.74619 44.9185 6.53788 40.9384 6.53788 36.7361H12.7184ZM14.6798 29.0279C13.3889 31.5037 12.7184 34.0874 12.7184 36.7361H6.53788C6.53788 33.0086 7.48897 29.451 9.19945 26.1705L14.6798 29.0279ZM11.3164 30.626C11.0914 30.5796 10.8608 30.5555 10.6246 30.5555V24.375C11.2842 24.375 11.9323 24.4426 12.5629 24.5724L11.3164 30.626ZM10.6246 30.5555C8.51711 30.5555 5.74297 32.9443 5.74297 37.3542H-0.437586C-0.437586 30.8411 3.92654 24.375 10.6246 24.375V30.5555ZM5.74297 37.3542C5.74297 41.7641 8.51711 44.1528 10.6246 44.1528V50.3333C3.92654 50.3333 -0.437586 43.8672 -0.437586 37.3542H5.74297ZM10.6246 44.1528C10.9717 44.1528 11.3091 44.1008 11.6368 44.0004L13.4465 49.9101C12.5461 50.1858 11.5992 50.3333 10.6246 50.3333V44.1528Z" fill="white" mask="url(#path-24-inside-10_612_3865)"/>
</g>
<g style="mix-blend-mode:hard-light" filter="url(#filter9_f_612_3865)">
<circle cx="38.5" cy="35.5" r="26.7" fill="#128DFF" fill-opacity="0.2"/>
</g>
<g style="mix-blend-mode:hard-light" filter="url(#filter10_f_612_3865)">
<circle cx="38.5" cy="35.5" r="21.0448" stroke="#0094FF" stroke-width="2.41042"/>
</g>
<g style="mix-blend-mode:hard-light" filter="url(#filter11_f_612_3865)">
<circle cx="38.5" cy="35.5" r="20.674" stroke="#0094FF" stroke-width="3.15208"/>
</g>
<g style="mix-blend-mode:hard-light" filter="url(#filter12_ddi_612_3865)">
<circle cx="38.5" cy="35.5" r="21.0448" stroke="#00B3FF" stroke-opacity="0.2" stroke-width="2.41042"/>
</g>
<g filter="url(#filter13_f_612_3865)">
<circle cx="38.5" cy="35.5" r="21.5083" stroke="#82D9FF" stroke-width="1.48333"/>
</g>
<g filter="url(#filter14_f_612_3865)">
<circle cx="38.5" cy="35.5" r="21.8792" stroke="white" stroke-width="0.741667"/>
</g>
<defs>
<filter id="filter0_f_612_3865" x="8.88047" y="4.5972" width="61.8056" height="61.8055" filterUnits="userSpaceOnUse" color-interpolation-filters="sRGB">
<feFlood flood-opacity="0" result="BackgroundImageFix"/>
<feBlend mode="normal" in="SourceGraphic" in2="BackgroundImageFix" result="shape"/>
<feGaussianBlur stdDeviation="0.618056" result="effect1_foregroundBlur_612_3865"/>
</filter>
<filter id="filter1_f_612_3865" x="64.5055" y="26.2292" width="12.3611" height="22.25" filterUnits="userSpaceOnUse" color-interpolation-filters="sRGB">
<feFlood flood-opacity="0" result="BackgroundImageFix"/>
<feBlend mode="normal" in="SourceGraphic" in2="BackgroundImageFix" result="shape"/>
<feGaussianBlur stdDeviation="0.618056" result="effect1_foregroundBlur_612_3865"/>
</filter>
<filter id="filter2_f_612_3865" x="2.6528" y="26.2292" width="12.3611" height="22.25" filterUnits="userSpaceOnUse" color-interpolation-filters="sRGB">
<feFlood flood-opacity="0" result="BackgroundImageFix"/>
<feBlend mode="normal" in="SourceGraphic" in2="BackgroundImageFix" result="shape"/>
<feGaussianBlur stdDeviation="0.618056" result="effect1_foregroundBlur_612_3865"/>
</filter>
<filter id="filter3_f_612_3865" x="8.88047" y="4.5972" width="61.8056" height="61.8055" filterUnits="userSpaceOnUse" color-interpolation-filters="sRGB">
<feFlood flood-opacity="0" result="BackgroundImageFix"/>
<feBlend mode="normal" in="SourceGraphic" in2="BackgroundImageFix" result="shape"/>
<feGaussianBlur stdDeviation="0.618056" result="effect1_foregroundBlur_612_3865"/>
</filter>
<filter id="filter4_f_612_3865" x="5.17204" y="2.12498" width="66.75" height="66.75" filterUnits="userSpaceOnUse" color-interpolation-filters="sRGB">
<feFlood flood-opacity="0" result="BackgroundImageFix"/>
<feBlend mode="normal" in="SourceGraphic" in2="BackgroundImageFix" result="shape"/>
<feGaussianBlur stdDeviation="1.85417" result="effect1_foregroundBlur_612_3865"/>
</filter>
<filter id="filter5_f_612_3865" x="64.5055" y="26.2292" width="12.3611" height="22.25" filterUnits="userSpaceOnUse" color-interpolation-filters="sRGB">
<feFlood flood-opacity="0" result="BackgroundImageFix"/>
<feBlend mode="normal" in="SourceGraphic" in2="BackgroundImageFix" result="shape"/>
<feGaussianBlur stdDeviation="0.618056" result="effect1_foregroundBlur_612_3865"/>
</filter>
<filter id="filter6_f_612_3865" x="60.797" y="23.7569" width="17.3056" height="27.1944" filterUnits="userSpaceOnUse" color-interpolation-filters="sRGB">
<feFlood flood-opacity="0" result="BackgroundImageFix"/>
<feBlend mode="normal" in="SourceGraphic" in2="BackgroundImageFix" result="shape"/>
<feGaussianBlur stdDeviation="1.85417" result="effect1_foregroundBlur_612_3865"/>
</filter>
<filter id="filter7_f_612_3865" x="2.6528" y="26.2292" width="12.3611" height="22.25" filterUnits="userSpaceOnUse" color-interpolation-filters="sRGB">
<feFlood flood-opacity="0" result="BackgroundImageFix"/>
<feBlend mode="normal" in="SourceGraphic" in2="BackgroundImageFix" result="shape"/>
<feGaussianBlur stdDeviation="0.618056" result="effect1_foregroundBlur_612_3865"/>
</filter>
<filter id="filter8_f_612_3865" x="-1.05562" y="23.7569" width="17.3056" height="27.1944" filterUnits="userSpaceOnUse" color-interpolation-filters="sRGB">
<feFlood flood-opacity="0" result="BackgroundImageFix"/>
<feBlend mode="normal" in="SourceGraphic" in2="BackgroundImageFix" result="shape"/>
<feGaussianBlur stdDeviation="1.85417" result="effect1_foregroundBlur_612_3865"/>
</filter>
<filter id="filter9_f_612_3865" x="0.675049" y="-2.32501" width="75.65" height="75.65" filterUnits="userSpaceOnUse" color-interpolation-filters="sRGB">
<feFlood flood-opacity="0" result="BackgroundImageFix"/>
<feBlend mode="normal" in="SourceGraphic" in2="BackgroundImageFix" result="shape"/>
<feGaussianBlur stdDeviation="5.5625" result="effect1_foregroundBlur_612_3865"/>
</filter>
<filter id="filter10_f_612_3865" x="5.125" y="2.125" width="66.75" height="66.75" filterUnits="userSpaceOnUse" color-interpolation-filters="sRGB">
<feFlood flood-opacity="0" result="BackgroundImageFix"/>
<feBlend mode="normal" in="SourceGraphic" in2="BackgroundImageFix" result="shape"/>
<feGaussianBlur stdDeviation="5.5625" result="effect1_foregroundBlur_612_3865"/>
</filter>
<filter id="filter11_f_612_3865" x="12.5417" y="9.54167" width="51.9167" height="51.9167" filterUnits="userSpaceOnUse" color-interpolation-filters="sRGB">
<feFlood flood-opacity="0" result="BackgroundImageFix"/>
<feBlend mode="normal" in="SourceGraphic" in2="BackgroundImageFix" result="shape"/>
<feGaussianBlur stdDeviation="1.85417" result="effect1_foregroundBlur_612_3865"/>
</filter>
<filter id="filter12_ddi_612_3865" x="11.4292" y="12.1375" width="54.1417" height="54.1417" filterUnits="userSpaceOnUse" color-interpolation-filters="sRGB">
<feFlood flood-opacity="0" result="BackgroundImageFix"/>
<feColorMatrix in="SourceAlpha" type="matrix" values="0 0 0 0 0 0 0 0 0 0 0 0 0 0 0 0 0 0 127 0" result="hardAlpha"/>
<feOffset dy="2.41042"/>
<feGaussianBlur stdDeviation="0.927083"/>
<feColorMatrix type="matrix" values="0 0 0 0 0 0 0 0 0 0.051 0 0 0 0 0.082 0 0 0 0.7 0"/>
<feBlend mode="multiply" in2="BackgroundImageFix" result="effect1_dropShadow_612_3865"/>
<feColorMatrix in="SourceAlpha" type="matrix" values="0 0 0 0 0 0 0 0 0 0 0 0 0 0 0 0 0 0 127 0" result="hardAlpha"/>
<feOffset dy="3.70833"/>
<feGaussianBlur stdDeviation="2.41042"/>
<feColorMatrix type="matrix" values="0 0 0 0 0 0 0 0 0 0.4 0 0 0 0 1 0 0 0 1 0"/>
<feBlend mode="color-dodge" in2="effect1_dropShadow_612_3865" result="effect2_dropShadow_612_3865"/>
<feBlend mode="normal" in="SourceGraphic" in2="effect2_dropShadow_612_3865" result="shape"/>
<feColorMatrix in="SourceAlpha" type="matrix" values="0 0 0 0 0 0 0 0 0 0 0 0 0 0 0 0 0 0 127 0" result="hardAlpha"/>
<feOffset dx="-0.241042" dy="0.482083"/>
<feGaussianBlur stdDeviation="0.120521"/>
<feComposite in2="hardAlpha" operator="arithmetic" k2="-1" k3="1"/>
<feColorMatrix type="matrix" values="0 0 0 0 1 0 0 0 0 1 0 0 0 0 1 0 0 0 0.5 0"/>
<feBlend mode="normal" in2="shape" result="effect3_innerShadow_612_3865"/>
</filter>
<filter id="filter13_f_612_3865" x="15.8792" y="12.8792" width="45.2417" height="45.2417" filterUnits="userSpaceOnUse" color-interpolation-filters="sRGB">
<feFlood flood-opacity="0" result="BackgroundImageFix"/>
<feBlend mode="normal" in="SourceGraphic" in2="BackgroundImageFix" result="shape"/>
<feGaussianBlur stdDeviation="0.185417" result="effect1_foregroundBlur_612_3865"/>
</filter>
<filter id="filter14_f_612_3865" x="16.0028" y="13.0028" width="44.9944" height="44.9944" filterUnits="userSpaceOnUse" color-interpolation-filters="sRGB">
<feFlood flood-opacity="0" result="BackgroundImageFix"/>
<feBlend mode="normal" in="SourceGraphic" in2="BackgroundImageFix" result="shape"/>
<feGaussianBlur stdDeviation="0.123611" result="effect1_foregroundBlur_612_3865"/>
</filter>
</defs>
</svg>
