<svg width="320" height="920" viewBox="0 0 320 920" fill="none" xmlns="http://www.w3.org/2000/svg">
<g clip-path="url(#clip0_640_7154)">
<path fill-rule="evenodd" clip-rule="evenodd" d="M-283.001 -196.253L-222.77 -30.7714L-96.9029 315.046L-18.6791 648.849L-2.00019 827C17.107 784.807 73.0527 674.82 85.9656 663C104.545 645.993 114.14 646.823 128.625 648.076C132.878 648.444 137.552 648.849 143 648.849C175.36 648.849 158.149 615.905 136.172 573.839C131.663 565.208 126.953 556.193 122.43 547C124.453 535.069 142.028 536.862 160.35 538.732C181.35 540.876 203.331 543.119 204 524.912C204.74 508.332 195.357 491.392 187.432 477.086C179.015 461.89 172.243 449.666 181 444C191.33 437.316 201.472 436.636 210.774 436.012C222.181 435.248 232.324 434.568 240 423C252.019 403.168 233.906 369.571 219.15 342.202C209.353 324.029 201.035 308.601 204 301.77C208.365 292.014 215.875 293.622 223.528 295.261C229.383 296.514 235.322 297.786 240 294C246.503 288.662 240.876 263.607 235.961 241.728C232.927 228.218 230.164 215.918 230.698 210.22L232.067 195.609L232.193 195.563L232.082 195.453L232.097 195.295L231.97 195.342L221.529 185.029C210.864 174.495 189.26 153.527 175.652 153.674C169.864 153.777 165.465 157.552 161.074 161.322C154.934 166.591 148.808 171.849 138.914 167.046C131.161 163.174 114.602 141.546 97.7241 119.502C78.2561 94.0742 58.3644 68.0934 51.0756 68.1725C43.8475 68.2509 43.9653 80.5693 44.0879 93.3963C44.1962 104.718 44.3083 116.435 39.3767 120.483C32.8412 125.771 13.5712 95.7588 -5.75434 65.6601C-18.3443 46.0518 -30.9578 26.4069 -40.0891 16.4616C-52.1616 3.10281 -56.2027 12.5242 -60.2359 21.9274C-63.8445 30.3405 -67.4468 38.7391 -76.7897 30.7941C-84.2636 24.4385 -95.0485 8.86362 -105.811 -6.67814C-123.538 -32.2792 -141.203 -57.7903 -143.905 -41.8569C-148.521 -16.1508 -149.718 -10.9104 -162.33 -6.32009C-169.546 -3.69377 -185.615 -36.0609 -204.906 -74.9186C-229.594 -124.646 -259.56 -185.004 -283.001 -196.253Z" fill="#6A00B7"/>
<g clip-path="url(#clip1_640_7154)">
<path d="M245.685 182.844C245.003 182.095 244.121 181.556 243.144 181.29C242.166 181.024 241.133 181.042 240.165 181.342C238.128 181.989 236.83 183.615 236.471 185.44C236.301 186.307 235.802 187.063 235.026 187.484L234.898 187.556C233.968 188.093 233.268 188.819 232.885 189.56C232.3 190.694 231.444 191.667 230.298 192.229L230.177 192.289C228.935 192.912 227.613 193.396 226.481 194.207C225.342 195.01 224.241 195.876 223.297 197.016L223.391 197.177C224.849 196.929 226.151 196.409 227.415 195.824C228.684 195.249 229.764 194.346 230.925 193.582L231.038 193.506C232.098 192.795 233.367 192.539 234.643 192.599C235.476 192.639 236.455 192.396 237.385 191.858L237.494 191.794C238.25 191.336 239.158 191.263 239.994 191.55C240.718 191.801 241.489 191.893 242.252 191.82C243.015 191.747 243.754 191.51 244.417 191.126C245.113 190.723 245.71 190.17 246.164 189.505C246.617 188.841 246.915 188.084 247.037 187.289C247.159 186.494 247.101 185.682 246.867 184.913C246.633 184.144 246.229 183.437 245.685 182.844Z" fill="#F4E6C8"/>
<path d="M261.512 181.443L255.985 171.87L239.726 178.319L247.797 192.299L261.512 181.443Z" fill="#666666"/>
<path opacity="0.1" d="M255.126 185.498C249.234 184.308 244.431 181.242 241.805 177.493L239.725 178.318L247.796 192.299L256.169 185.67C255.822 185.615 255.477 185.57 255.126 185.498Z" fill="black"/>
<path d="M307.5 155.059C308.237 153.901 308.569 152.532 308.446 151.165C308.323 149.799 307.751 148.511 306.819 147.503C305.54 146.11 303.647 145.447 301.758 145.528L287.197 146.155C285.772 146.218 284.37 146.545 283.063 147.119L296.65 170.651C297.796 169.807 298.784 168.761 299.552 167.553L307.5 155.059Z" fill="#E15C64"/>
<path opacity="0.1" d="M306.67 153.756C300.924 156.843 294.979 158.435 289.692 158.601L296.649 170.651C297.795 169.807 298.783 168.76 299.55 167.552L307.499 155.059C307.934 154.363 308.227 153.588 308.36 152.778C307.804 153.109 307.25 153.444 306.67 153.756Z" fill="black"/>
<path d="M277.296 181.913L257.695 192.138L258.16 192.942L261.508 201.088L270.74 196.764C271.917 195.951 272.805 194.785 273.276 193.435L277.296 181.913Z" fill="#F47E5F"/>
<path opacity="0.1" d="M277.296 181.913L257.695 192.138L258.16 192.942L261.508 201.088L270.74 196.764C271.917 195.951 272.805 194.785 273.276 193.435L277.296 181.913Z" fill="black"/>
<path d="M247.331 156.218L238.969 162.051L244.35 169.023L244.967 170.092L263.963 158.059L251.481 155.687C250.077 155.42 248.623 155.606 247.331 156.218Z" fill="#F47E5F"/>
<path opacity="0.1" d="M242.579 161.406C242.322 160.948 242.118 160.461 241.972 159.956L238.969 162.051L244.35 169.023L244.967 170.092L252.317 165.435C247.94 165.678 244.271 164.323 242.579 161.406Z" fill="black"/>
<path d="M281.916 147.692L263.963 158.059L244.967 170.092L257.695 192.138L277.297 181.914L295.58 171.358C295.951 171.144 296.306 170.904 296.65 170.651L283.063 147.119C282.673 147.29 282.288 147.478 281.916 147.692Z" fill="#E0E0E0"/>
<path opacity="0.1" d="M249.077 169.469C248.785 168.991 248.525 168.494 248.298 167.982L244.967 170.092L257.696 192.138L277.297 181.914L295.58 171.358C295.951 171.144 296.306 170.904 296.65 170.651L295.164 168.077C275.833 179.16 255.562 179.913 249.077 169.469Z" fill="black"/>
<path d="M280.802 170.727C283.62 169.1 284.586 165.497 282.959 162.679C281.332 159.861 277.728 158.895 274.91 160.522C272.092 162.149 271.127 165.753 272.754 168.571C274.381 171.389 277.984 172.354 280.802 170.727Z" fill="#A0C8D7"/>
<path d="M270.293 157.881L269.622 158.268" stroke="white" stroke-width="6" stroke-miterlimit="10" stroke-linecap="round"/>
<path d="M279.042 152.831L274.38 155.522" stroke="white" stroke-width="6" stroke-miterlimit="10" stroke-linecap="round"/>
</g>
<path fill-rule="evenodd" clip-rule="evenodd" d="M-175 -363.391L-140.274 -166.449L-67.9013 243.998L-68.3302 244.073L-12.1653 602.407C-14.1894 610.24 -16.4475 616.924 -19 622L-4.00018 654.5L-12.1653 602.407C-5.58568 576.945 -1.47839 539.345 2.23075 505.389C6.79911 463.568 10.7635 427.276 17.9993 426C25.3195 424.709 29.1516 432.332 35.0628 444.089C38.3873 450.701 42.3693 458.622 47.9993 467C55.6882 478.649 51.3216 454 45.834 423.022C40.3363 391.988 33.7135 354.602 36.9604 341C40.0471 328.07 51.3632 343.351 62.8864 358.911C75.5834 376.057 88.5318 393.542 90.9993 374C92.5912 362.011 93.3586 349.049 94.0673 337.078C95.5649 311.782 96.8005 290.912 104.999 293C109.481 294.183 114.149 297.48 118.764 300.741C126.33 306.087 133.757 311.335 139.999 307C146.045 302.802 150.382 287.06 154.678 271.466C157.523 261.139 160.35 250.877 163.644 244.073C168.648 234.014 177.985 236.186 186.924 238.265C193.201 239.725 199.281 241.139 203.529 238.242C213.266 231.481 226.385 209.035 229.737 192.989L230.71 192.817L230.007 191.592C230.015 191.55 230.022 191.507 230.029 191.464L229.943 191.48L222.569 178.632C219.12 172.623 216.242 152.048 213.172 130.091C208.995 100.223 204.46 67.7985 197.642 65.9999C192.344 64.6505 187.951 70.6739 183.519 76.751C177.845 84.5303 172.106 92.3975 164.325 85C157.572 78.441 152.293 53.3139 147.242 29.2761C142.112 4.86245 137.218 -18.4275 131.257 -20C124.788 -21.7065 122.043 -8.68346 119.24 4.61191C116.917 15.631 114.554 26.8372 110 30C103.877 34.1754 95.2403 9.12609 85.582 -18.8869C78.9961 -37.9887 71.9351 -58.4685 64.8719 -72C55.883 -89.4932 47.6791 -58.4464 39.6938 -28.2268C32.4237 -0.713903 25.3348 26.1133 17.9997 15C12.5741 6.77966 0.767526 -20.7223 -12.5313 -51.7006C-36.9597 -108.604 -66.4234 -177.236 -70.6242 -159.638C-77.3606 -132.417 -78.9567 -126.929 -90.3938 -124.912C-96.9375 -123.759 -107.453 -163.314 -120.077 -210.801C-136.233 -271.573 -155.842 -345.335 -175 -363.391Z" fill="#FC6EB3"/>
<path d="M288.375 474.872C244.209 490.947 211.374 511.838 214.931 521.61L241.618 511.897C239.224 505.319 261.177 491.37 290.495 480.698C319.814 470.027 345.597 466.602 347.991 473.18L374.679 463.467C371.122 453.694 332.54 458.797 288.375 474.872Z" fill="#1D96EC"/>
<path d="M312.385 540.839C339.06 531.13 352.814 501.634 343.105 474.959C333.396 448.283 303.9 434.529 277.225 444.238C250.55 453.947 236.796 483.443 246.505 510.118C256.214 536.794 285.709 550.548 312.385 540.839Z" fill="#4AC7D1"/>
<path d="M299.115 504.379C269.797 515.05 244.013 518.475 241.619 511.897L214.932 521.61C218.489 531.383 257.07 526.28 301.235 510.205C345.401 494.13 378.236 473.24 374.679 463.467L347.992 473.18C350.386 479.758 328.433 493.708 299.115 504.379Z" fill="#1D96EC"/>
</g>
<defs>
<clipPath id="clip0_640_7154">
<rect width="320" height="920" fill="white"/>
</clipPath>
<clipPath id="clip1_640_7154">
<rect width="100" height="100" fill="white" transform="translate(247 104) rotate(30)"/>
</clipPath>
</defs>
</svg>
