<svg width="1024" height="1898" viewBox="0 0 1024 1898" fill="none" xmlns="http://www.w3.org/2000/svg">
<g clip-path="url(#clip0_640_7120)">
<path fill-rule="evenodd" clip-rule="evenodd" d="M-757.653 -205.322L-558.807 139.09L-143.272 858.818L-147.049 860.999L-164.609 871.138L-159.683 1200.49L-71.8021 1366.8L-27.5677 1858.32C160.294 1954.18 197.815 1716.03 221.78 1563.93C231.185 1504.24 238.502 1457.79 252 1450C288.717 1428.8 384.589 1432.58 446 1456C508.936 1461.45 485.175 1367.02 464.084 1283.2C453.018 1239.23 442.687 1198.17 446 1176C450.566 1145.45 485.562 1153.6 521.04 1161.87C560.374 1171.04 600.3 1180.35 600 1137.19C600.098 1101.7 584.406 1050.19 569.737 1002.03C550.281 938.159 532.626 880.2 556.012 873.412C573.047 868.564 598.249 873.045 623.925 877.609C658.871 883.822 694.695 890.191 712 873.412C727.576 858.31 708.195 788.12 688.706 717.536C670.63 652.072 652.461 586.269 662 563.764C674.511 535.112 694.112 526.517 714.478 517.588C727.683 511.798 741.21 505.867 753.333 494.236C783.354 465.128 788.681 391.404 790.945 354.773L793.161 318.913L793.531 318.699L793.185 318.522L793.209 318.141L792.847 318.35L761.067 302.118C728.602 285.538 662.893 252.827 623.456 263.821C606.686 268.593 594.484 280.965 582.301 293.318C565.269 310.588 548.273 327.821 518.882 324.196C495.835 321.1 444.656 282.881 392.493 243.928C332.324 198.996 270.846 153.086 249.722 158.975C228.775 164.814 230.918 193.867 233.149 224.12C235.119 250.821 237.157 278.457 223.449 291.891C205.272 309.516 145.006 253.581 84.5673 197.485C45.1934 160.941 5.74595 124.328 -22.1863 107.941C-58.6149 86.0963 -59.5248 126.26 -60.4343 166.404C-61.2732 203.43 -62.1117 240.441 -90.8184 228.767C-115.107 218.89 -157.923 177.22 -200.812 135.478C-263.573 74.3974 -326.491 13.1629 -331.745 51.1699C-341.37 115.601 -344.076 128.936 -379.974 149.662C-400.514 161.52 -451.842 97.5105 -513.463 20.6645C-592.322 -77.6784 -688.038 -197.043 -757.653 -205.322Z" fill="#6A00B7"/>
<path fill-rule="evenodd" clip-rule="evenodd" d="M-365 -436.626L-312.192 -137.134L-201.751 489.206L-201.751 489.206L-91.3952 1115.06L-38.5868 1414.55C7.48371 1373.84 8.7501 1256.18 9.79345 1159.25C10.6087 1083.51 11.2878 1020.42 33.1017 1016.57C71.2279 1009.85 80.8701 1016.07 124.938 1047.89C150.624 1066.87 161.361 999.377 172.071 932.047C179.39 886.036 186.697 840.104 198.753 821.906C213.002 800.398 234.891 821.101 256.789 841.812C280.532 864.268 304.285 886.735 318.326 855.426C329.3 831.627 337.054 790.324 344.794 749.098C356.675 685.816 368.522 622.716 391.927 623.384C409.659 623.969 424.058 640.806 437.97 657.073C453.732 675.503 468.87 693.203 487.522 685.708C506.33 678.15 524.826 620.148 542.928 563.381C558.621 514.168 574.018 465.883 589.066 452.199C608.442 434.934 630.758 435.99 653.123 437.047C669.119 437.803 685.141 438.561 700.13 432.616C735.244 418.506 764.417 365.854 778.589 339.601L792.464 313.9L792.847 313.832L792.613 313.624L792.761 313.348L792.379 313.416L770.55 294.01C748.254 274.187 702.832 234.688 665.009 233.439C648.891 232.979 634.095 239.171 619.322 245.353C598.667 253.996 578.058 262.62 553.946 253.023C535.125 245.311 504.142 205.204 472.563 164.326C436.138 117.174 398.92 68.9958 378.661 68.3268C358.57 67.6634 350.399 89.473 341.891 112.183C334.382 132.227 326.609 152.973 310.147 159.588C288.382 168.22 255.668 112.977 222.86 57.5751C201.487 21.4827 180.073 -14.6772 161.621 -33.2879C137.371 -58.2648 119.67 -42.0428 102.004 -25.8522C86.1973 -11.3662 70.4181 3.09478 50.0001 -12C33.6665 -24.0751 14.5143 -52.8305 -4.59722 -81.5247C-36.0784 -128.791 -67.4491 -175.891 -85.9288 -147.998C-116.456 -103.025 -123.39 -93.8855 -161.517 -87.1628C-183.33 -83.3165 -205.547 -142.371 -232.219 -213.267C-266.352 -303.996 -307.781 -414.12 -365 -436.626Z" fill="#FC6EB3"/>
<g clip-path="url(#clip1_640_7120)">
<path d="M837.369 287.689C836.005 286.191 834.242 285.112 832.286 284.58C830.331 284.048 828.264 284.084 826.329 284.684C822.256 285.979 819.66 289.231 818.941 292.88C818.6 294.614 817.603 296.126 816.051 296.969L815.795 297.112C813.935 298.186 812.535 299.639 811.77 301.121C810.599 303.389 808.887 305.334 806.596 306.459L806.354 306.578C803.869 307.825 801.225 308.792 798.96 310.415C796.683 312.02 794.481 313.753 792.593 316.032L792.781 316.355C795.697 315.859 798.3 314.819 800.828 313.648C803.368 312.498 805.528 310.692 807.849 309.164L808.075 309.013C810.196 307.591 812.734 307.079 815.286 307.199C816.951 307.278 818.909 306.792 820.77 305.716L820.987 305.588C822.499 304.673 824.316 304.526 825.987 305.1C827.436 305.602 828.976 305.786 830.503 305.64C832.029 305.493 833.507 305.02 834.834 304.252C836.226 303.447 837.419 302.339 838.326 301.011C839.233 299.683 839.83 298.168 840.073 296.579C840.317 294.989 840.2 293.365 839.732 291.826C839.264 290.288 838.457 288.874 837.369 287.689Z" fill="#F4E6C8"/>
<path d="M869.024 284.886L857.97 265.74L825.453 278.638L841.595 306.599L869.024 284.886Z" fill="#666666"/>
<path opacity="0.1" d="M856.254 292.996C844.469 290.617 834.862 284.484 829.611 276.986L825.451 278.637L841.593 306.598L858.339 293.341C857.645 293.231 856.954 293.139 856.254 292.996Z" fill="black"/>
<path d="M961 232.119C962.473 229.803 963.138 227.065 962.891 224.331C962.645 221.597 961.5 219.022 959.637 217.007C957.079 214.221 953.293 212.894 949.514 213.056L920.394 214.31C917.542 214.436 914.739 215.09 912.126 216.239L939.299 263.302C941.592 261.615 943.567 259.522 945.102 257.106L961 232.119Z" fill="#E15C64"/>
<path opacity="0.1" d="M959.339 229.511C947.848 235.685 935.957 238.87 925.384 239.202L939.297 263.301C941.59 261.614 943.565 259.521 945.1 257.105L960.998 232.118C961.868 230.726 962.454 229.176 962.72 227.556C961.607 228.218 960.5 228.888 959.339 229.511Z" fill="black"/>
<path d="M900.592 285.827L861.39 306.276L862.32 307.884L869.015 324.176L887.481 315.529C889.834 313.902 891.609 311.57 892.552 308.87L900.592 285.827Z" fill="#F47E5F"/>
<path opacity="0.1" d="M900.592 285.827L861.39 306.276L862.32 307.884L869.015 324.176L887.481 315.529C889.834 313.902 891.609 311.57 892.552 308.87L900.592 285.827Z" fill="black"/>
<path d="M840.661 234.436L823.937 246.103L834.699 260.046L835.933 262.184L873.925 238.117L848.962 233.374C846.152 232.84 843.245 233.211 840.661 234.436Z" fill="#F47E5F"/>
<path opacity="0.1" d="M831.157 244.812C830.642 243.896 830.235 242.923 829.943 241.912L823.937 246.103L834.699 260.046L835.934 262.184L850.634 252.87C841.878 253.355 834.542 250.646 831.157 244.812Z" fill="black"/>
<path d="M909.831 217.385L873.925 238.117L835.933 262.184L861.39 306.275L900.593 285.827L937.159 264.716C937.901 264.287 938.611 263.809 939.299 263.302L912.126 216.239C911.345 216.58 910.576 216.956 909.831 217.385Z" fill="#E0E0E0"/>
<path opacity="0.1" d="M844.153 260.939C843.569 259.983 843.049 258.989 842.596 257.964L835.933 262.184L861.39 306.275L900.592 285.827L937.159 264.716C937.901 264.287 938.611 263.808 939.298 263.302L936.326 258.154C897.666 280.32 857.123 281.826 844.153 260.939Z" fill="black"/>
<path d="M907.604 263.455C913.241 260.2 915.172 252.993 911.918 247.357C908.664 241.721 901.457 239.79 895.82 243.044C890.184 246.298 888.253 253.505 891.507 259.141C894.761 264.777 901.968 266.709 907.604 263.455Z" fill="#A0C8D7"/>
<path d="M886.586 237.763L885.243 238.537" stroke="white" stroke-width="6" stroke-miterlimit="10" stroke-linecap="round"/>
<path d="M904.085 227.663L894.761 233.044" stroke="white" stroke-width="6" stroke-miterlimit="10" stroke-linecap="round"/>
</g>
<path d="M892.653 1200.69C796.814 1235.58 725.561 1280.91 733.28 1302.11L791.192 1281.04C785.996 1266.76 833.634 1236.49 897.255 1213.34C960.876 1190.18 1016.83 1182.75 1022.02 1197.02L1079.93 1175.94C1072.21 1154.74 988.493 1165.81 892.653 1200.69Z" fill="#1D96EC"/>
<path d="M944.754 1343.84C1002.64 1322.77 1032.49 1258.77 1011.42 1200.88C990.349 1142.99 926.344 1113.15 868.458 1134.22C810.572 1155.29 780.726 1219.29 801.795 1277.18C822.863 1335.06 886.869 1364.91 944.754 1343.84Z" fill="#4AC7D1"/>
<path d="M915.958 1264.72C852.337 1287.88 796.387 1295.31 791.192 1281.04L733.28 1302.11C740.999 1323.32 824.72 1312.25 920.56 1277.36C1016.4 1242.48 1087.65 1197.15 1079.93 1175.94L1022.02 1197.02C1027.22 1211.29 979.579 1241.57 915.958 1264.72Z" fill="#1D96EC"/>
</g>
<defs>
<clipPath id="clip0_640_7120">
<rect width="1024" height="1898" fill="white"/>
</clipPath>
<clipPath id="clip1_640_7120">
<rect width="200" height="200" fill="white" transform="translate(840 130) rotate(30)"/>
</clipPath>
</defs>
</svg>
