<svg width="1512" height="1606" viewBox="0 0 1512 1606" fill="none" xmlns="http://www.w3.org/2000/svg">
<g clip-path="url(#clip0_640_7061)">
<path fill-rule="evenodd" clip-rule="evenodd" d="M-337.897 349.35L-220.897 552.001L23.6016 975.486L-57.898 1218L-9.89855 1318L-9.89734 1532C157.693 1553.12 213.582 1412.68 251.98 1316.2C268.113 1275.66 281.157 1242.88 298.101 1233.1C328.09 1215.78 370.309 1221.57 412.527 1227.35C432.127 1230.04 451.726 1232.72 470.101 1233.1C535.842 1220.29 540.98 1151.39 545.391 1092.26C547.555 1063.24 549.544 1036.57 558.432 1020.04C571.387 995.939 601.066 1000.3 630.757 1004.66C662.948 1009.38 695.154 1014.11 706.079 982.574C714.741 958.442 716.406 922.537 718.069 886.699C720.621 831.688 723.165 776.834 750.993 764.963C772.09 756.03 792.199 761.374 811.627 766.537C833.639 772.387 854.779 778.004 875.495 762.363C896.386 746.591 907.729 692.144 918.83 638.857C928.454 592.661 937.897 547.336 953.221 528.836C973.017 505.29 999.627 494.293 1026.29 483.272C1045.37 475.389 1064.47 467.494 1081.13 454.986C1120.14 425.54 1145.09 369.562 1157.09 341.849L1168.84 314.72L1169.28 314.464L1168.97 314.428L1169.09 314.136L1168.65 314.391L1139.28 311C1109.28 307.537 1048.33 301.16 1003.32 320.214C984.161 328.389 967.771 340.986 951.407 353.563C928.529 371.148 905.701 388.694 875.411 394.064C851.728 398.086 807.754 383.601 762.935 368.838C711.236 351.808 658.412 334.408 634.308 344.613C610.404 354.734 604.7 375.85 598.759 397.838C593.516 417.245 588.09 437.331 569.805 451.136C545.611 469.3 496.834 444.077 447.917 418.781C416.049 402.302 384.121 385.792 358.892 381.227C326.118 374.92 314.11 405.176 302.107 435.417C291.037 463.31 279.971 491.191 252.622 490.36C229.482 489.657 195.359 470.295 161.177 450.899C111.159 422.517 61.0147 394.064 44.9748 423.903C17.0188 474.684 10.4726 485.391 -33.4379 510.743C-58.5611 525.248 -95.6047 491.535 -140.077 451.062C-196.989 399.267 -266.068 336.4 -337.897 349.35Z" fill="#6A00B7"/>
<path fill-rule="evenodd" clip-rule="evenodd" d="M-131.784 -297.735L-111.39 -64.6243L-68.7706 422.514L-68.7376 422.891L-26.1186 910.029L-5.72403 1143.14C56.3796 1112.91 75.1851 1021.94 90.6788 946.996C102.786 888.431 112.87 839.648 140.011 837.274C187.448 833.124 198.283 838.198 247.303 864.024C275.81 879.419 298.796 827.505 321.724 775.721C337.392 740.332 353.033 705.005 370.392 691.261C390.908 675.017 414.538 691.633 438.178 708.257C463.809 726.28 489.452 744.312 511.152 720.482C528.014 702.375 543.522 670.641 559.001 638.966C582.761 590.344 606.453 541.863 634.869 543.024C656.387 543.965 671.459 557.384 686.022 570.35C702.521 585.04 718.367 599.147 742.19 593.863C766.214 588.536 797.259 544.18 827.642 500.77C853.982 463.135 879.825 426.211 900.167 416.041C926.307 403.22 953.34 404.651 980.432 406.084C999.811 407.11 1019.22 408.137 1038.35 403.951C1083.2 394.004 1126.47 354.081 1147.59 334.165L1168.26 314.667L1168.74 314.625L1168.49 314.458L1168.71 314.249L1168.23 314.29L1144.49 298.679C1120.23 282.732 1070.69 250.929 1024.79 248.922C1005.22 248.122 986.284 252.504 967.378 256.879C940.947 262.995 914.572 269.098 886.604 261.011C864.805 254.528 832.942 222.652 800.467 190.164C763.008 152.688 724.733 114.398 700.149 113.323C675.769 112.256 662.614 128.901 648.916 146.233C636.826 161.53 624.313 177.363 603.286 182.026C575.503 188.104 543.752 144.473 511.91 100.716C491.166 72.2102 470.383 43.6509 450.633 28.7475C425.125 9.0472 403.003 31.2579 380.891 53.4582C360.496 73.9342 340.111 94.4012 317.086 81.9667C297.604 71.4459 276.066 39.3713 254.49 7.24157C222.919 -39.7745 191.268 -86.9087 165.867 -66.797C122.076 -32.8512 112.286 -25.9727 64.8498 -21.8225C37.709 -19.448 19.3067 -65.7381 -2.78593 -121.311C-31.0587 -192.43 -65.3752 -278.751 -131.784 -297.735Z" fill="#FC6EB3"/>
<g clip-path="url(#clip1_640_7061)">
<path d="M1213.37 285.689C1212 284.191 1210.24 283.112 1208.29 282.58C1206.33 282.048 1204.26 282.084 1202.33 282.684C1198.26 283.979 1195.66 287.231 1194.94 290.88C1194.6 292.614 1193.6 294.126 1192.05 294.969L1191.8 295.112C1189.94 296.186 1188.54 297.639 1187.77 299.121C1186.6 301.389 1184.89 303.334 1182.6 304.459L1182.35 304.578C1179.87 305.825 1177.23 306.792 1174.96 308.415C1172.68 310.02 1170.48 311.753 1168.59 314.032L1168.78 314.355C1171.7 313.859 1174.3 312.819 1176.83 311.648C1179.37 310.498 1181.53 308.692 1183.85 307.164L1184.07 307.013C1186.2 305.591 1188.73 305.079 1191.29 305.199C1192.95 305.278 1194.91 304.792 1196.77 303.716L1196.99 303.588C1198.5 302.673 1200.32 302.526 1201.99 303.1C1203.44 303.602 1204.98 303.786 1206.5 303.64C1208.03 303.493 1209.51 303.02 1210.83 302.252C1212.23 301.447 1213.42 300.339 1214.33 299.011C1215.23 297.683 1215.83 296.168 1216.07 294.579C1216.32 292.989 1216.2 291.365 1215.73 289.826C1215.26 288.288 1214.46 286.874 1213.37 285.689Z" fill="#F4E6C8"/>
<path d="M1245.02 282.886L1233.97 263.74L1201.45 276.638L1217.59 304.599L1245.02 282.886Z" fill="#666666"/>
<path opacity="0.1" d="M1232.25 290.996C1220.47 288.617 1210.86 282.484 1205.61 274.986L1201.45 276.637L1217.59 304.598L1234.34 291.341C1233.64 291.231 1232.95 291.139 1232.25 290.996Z" fill="black"/>
<path d="M1337 230.119C1338.47 227.803 1339.14 225.065 1338.89 222.331C1338.64 219.597 1337.5 217.022 1335.64 215.007C1333.08 212.221 1329.29 210.894 1325.51 211.056L1296.39 212.31C1293.54 212.436 1290.74 213.09 1288.13 214.239L1315.3 261.302C1317.59 259.615 1319.57 257.522 1321.1 255.106L1337 230.119Z" fill="#E15C64"/>
<path opacity="0.1" d="M1335.34 227.511C1323.85 233.685 1311.96 236.87 1301.38 237.202L1315.3 261.301C1317.59 259.614 1319.56 257.521 1321.1 255.105L1337 230.118C1337.87 228.726 1338.45 227.176 1338.72 225.556C1337.61 226.218 1336.5 226.888 1335.34 227.511Z" fill="black"/>
<path d="M1276.59 283.827L1237.39 304.276L1238.32 305.884L1245.02 322.176L1263.48 313.529C1265.83 311.902 1267.61 309.57 1268.55 306.87L1276.59 283.827Z" fill="#F47E5F"/>
<path opacity="0.1" d="M1276.59 283.827L1237.39 304.276L1238.32 305.884L1245.02 322.176L1263.48 313.529C1265.83 311.902 1267.61 309.57 1268.55 306.87L1276.59 283.827Z" fill="black"/>
<path d="M1216.66 232.436L1199.94 244.103L1210.7 258.046L1211.93 260.184L1249.92 236.117L1224.96 231.374C1222.15 230.84 1219.25 231.211 1216.66 232.436Z" fill="#F47E5F"/>
<path opacity="0.1" d="M1207.16 242.812C1206.64 241.896 1206.23 240.923 1205.94 239.912L1199.94 244.103L1210.7 258.046L1211.93 260.184L1226.63 250.87C1217.88 251.355 1210.54 248.646 1207.16 242.812Z" fill="black"/>
<path d="M1285.83 215.385L1249.92 236.117L1211.93 260.184L1237.39 304.275L1276.59 283.827L1313.16 262.716C1313.9 262.287 1314.61 261.809 1315.3 261.302L1288.13 214.239C1287.34 214.58 1286.58 214.956 1285.83 215.385Z" fill="#E0E0E0"/>
<path opacity="0.1" d="M1220.15 258.939C1219.57 257.983 1219.05 256.989 1218.6 255.964L1211.93 260.184L1237.39 304.275L1276.59 283.827L1313.16 262.716C1313.9 262.287 1314.61 261.808 1315.3 261.302L1312.33 256.154C1273.67 278.32 1233.12 279.826 1220.15 258.939Z" fill="black"/>
<path d="M1283.6 261.455C1289.24 258.2 1291.17 250.993 1287.92 245.357C1284.66 239.721 1277.46 237.79 1271.82 241.044C1266.18 244.298 1264.25 251.505 1267.51 257.141C1270.76 262.777 1277.97 264.709 1283.6 261.455Z" fill="#A0C8D7"/>
<path d="M1262.59 235.763L1261.24 236.537" stroke="white" stroke-width="6" stroke-miterlimit="10" stroke-linecap="round"/>
<path d="M1280.08 225.663L1270.76 231.044" stroke="white" stroke-width="6" stroke-miterlimit="10" stroke-linecap="round"/>
</g>
<path d="M1362.52 735.561C1266.68 770.444 1195.43 815.776 1203.15 836.983L1261.06 815.905C1255.86 801.631 1303.5 771.36 1367.12 748.204C1430.74 725.048 1486.69 717.616 1491.89 731.889L1549.8 710.811C1542.08 689.604 1458.36 700.679 1362.52 735.561Z" fill="#1D96EC"/>
<path d="M1414.62 878.709C1472.51 857.64 1502.35 793.635 1481.29 735.749C1460.22 677.863 1396.21 648.017 1338.33 669.086C1280.44 690.154 1250.59 754.16 1271.66 812.045C1292.73 869.931 1356.74 899.777 1414.62 878.709Z" fill="#4AC7D1"/>
<path d="M1385.83 799.59C1322.21 822.746 1266.26 830.179 1261.06 815.905L1203.15 836.983C1210.87 858.19 1294.59 847.115 1390.43 812.233C1486.27 777.35 1557.52 732.018 1549.8 710.811L1491.89 731.889C1497.08 746.163 1449.45 776.434 1385.83 799.59Z" fill="#1D96EC"/>
</g>
<defs>
<clipPath id="clip0_640_7061">
<rect width="1512" height="1606" fill="white"/>
</clipPath>
<clipPath id="clip1_640_7061">
<rect width="200" height="200" fill="white" transform="translate(1216 128) rotate(30)"/>
</clipPath>
</defs>
</svg>
