<svg width="537" height="316" viewBox="0 0 537 316" fill="none" xmlns="http://www.w3.org/2000/svg">
<mask id="path-1-outside-1_59_66333" maskUnits="userSpaceOnUse" x="18.6836" y="167.41" width="91.3759" height="112.435" fill="black">
<rect fill="white" x="18.6836" y="167.41" width="91.3759" height="112.435"/>
<path d="M58.7254 273.936L24.0455 204.494L69.7309 173.159L73.4563 180.619L36.9973 205.625L48.7153 229.089L81.7516 206.43L85.4769 213.89L52.4406 236.549L67.9517 267.608L58.7254 273.936Z"/>
</mask>
<path d="M58.7254 273.936L55.4846 276.159L56.9597 279.112L60.2004 276.89L58.7254 273.936ZM24.0455 204.494L22.5705 201.54L19.3297 203.763L20.8048 206.717L24.0455 204.494ZM69.7309 173.159L72.9717 170.936L71.4966 167.983L68.2558 170.206L69.7309 173.159ZM73.4563 180.619L74.9313 183.572L78.1721 181.35L76.697 178.396L73.4563 180.619ZM36.9973 205.625L35.5222 202.672L32.2814 204.894L33.7565 207.848L36.9973 205.625ZM48.7153 229.089L45.4745 231.312L46.9496 234.266L50.1903 232.043L48.7153 229.089ZM81.7516 206.43L84.9923 204.207L83.5173 201.254L80.2765 203.477L81.7516 206.43ZM85.4769 213.89L86.952 216.843L90.1928 214.621L88.7177 211.667L85.4769 213.89ZM52.4406 236.549L50.9656 233.595L47.7248 235.818L49.1999 238.771L52.4406 236.549ZM67.9517 267.608L69.4268 270.561L72.6676 268.339L71.1925 265.385L67.9517 267.608ZM61.9661 271.713L27.2863 202.271L20.8048 206.717L55.4846 276.159L61.9661 271.713ZM25.5206 207.448L71.206 176.113L68.2558 170.206L22.5705 201.54L25.5206 207.448ZM66.4901 175.382L70.2155 182.842L76.697 178.396L72.9717 170.936L66.4901 175.382ZM71.9812 177.665L35.5222 202.672L38.4724 208.579L74.9313 183.572L71.9812 177.665ZM33.7565 207.848L45.4745 231.312L51.956 226.866L40.238 203.403L33.7565 207.848ZM50.1903 232.043L83.2267 209.384L80.2765 203.477L47.2402 226.135L50.1903 232.043ZM78.5108 208.653L82.2362 216.113L88.7177 211.667L84.9923 204.207L78.5108 208.653ZM84.0019 210.936L50.9656 233.595L53.9157 239.502L86.952 216.843L84.0019 210.936ZM49.1999 238.771L64.711 269.831L71.1925 265.385L55.6814 234.326L49.1999 238.771ZM66.4766 264.654L57.2503 270.982L60.2004 276.89L69.4268 270.561L66.4766 264.654Z" fill="white" fill-opacity="0.5" mask="url(#path-1-outside-1_59_66333)"/>
<mask id="path-3-outside-2_59_66333" maskUnits="userSpaceOnUse" x="93.4022" y="147.662" width="74.8658" height="94.7934" fill="black">
<rect fill="white" x="93.4022" y="147.662" width="74.8658" height="94.7934"/>
<path d="M138.505 225.612C132.555 228.055 127.181 228.885 122.384 228.103C117.609 227.283 113.62 225.046 110.417 221.39C107.236 217.697 105.065 212.775 103.904 206.625C102.743 200.474 102.872 194.58 104.292 188.942C105.733 183.267 108.283 178.261 111.94 173.923C115.62 169.548 120.247 166.216 125.822 163.927C129.038 162.606 132.313 161.823 135.645 161.578C138.978 161.333 142.152 161.856 145.168 163.145C148.179 164.408 150.81 166.641 153.061 169.845C155.312 173.049 156.966 177.453 158.024 183.057L158.762 186.966L111.16 206.51L109.655 198.535L147.607 182.952C146.968 179.564 145.7 176.827 143.805 174.741C141.936 172.644 139.583 171.349 136.747 170.857C133.937 170.353 130.817 170.806 127.386 172.215C123.607 173.766 120.509 176.021 118.093 178.979C115.699 181.9 114.037 185.109 113.109 188.607C112.181 192.106 112.03 195.51 112.654 198.82L113.658 204.136C114.514 208.671 116.044 212.185 118.247 214.679C120.473 217.135 123.188 218.59 126.392 219.043C129.592 219.471 133.108 218.898 136.941 217.324C139.434 216.301 141.621 215.037 143.503 213.534C145.407 211.994 146.966 210.231 148.18 208.244C149.388 206.232 150.198 204.018 150.608 201.603L160.247 200.341C159.853 203.761 158.733 207.085 156.888 210.314C155.037 213.517 152.558 216.444 149.448 219.097C146.334 221.724 142.687 223.895 138.505 225.612Z"/>
</mask>
<path d="M122.384 228.103L121.088 231.755L121.1 231.757L121.112 231.759L122.384 228.103ZM110.417 221.39L107.543 224.166L107.55 224.174L107.558 224.183L110.417 221.39ZM104.292 188.942L100.857 188.763L100.855 188.771L104.292 188.942ZM111.94 173.923L114.391 175.991L114.395 175.986L111.94 173.923ZM135.645 161.578L136.17 157.891L136.17 157.891L135.645 161.578ZM145.168 163.145L143.242 166.613L143.25 166.616L143.258 166.62L145.168 163.145ZM153.061 169.845L156.094 167.274L156.094 167.274L153.061 169.845ZM158.762 186.966L159.405 190.371L162.907 188.934L162.264 185.528L158.762 186.966ZM111.16 206.51L107.658 207.948L108.301 211.353L111.803 209.915L111.16 206.51ZM109.655 198.535L109.012 195.129L105.51 196.567L106.153 199.973L109.655 198.535ZM147.607 182.952L148.25 186.358L151.752 184.92L151.11 181.514L147.607 182.952ZM143.805 174.741L140.96 177.55L140.968 177.559L140.977 177.569L143.805 174.741ZM136.747 170.857L135.43 174.506L135.437 174.507L135.445 174.508L136.747 170.857ZM118.093 178.979L120.588 180.994L120.593 180.987L118.093 178.979ZM113.109 188.607L109.686 188.384L109.686 188.384L113.109 188.607ZM118.247 214.679L115.395 217.48L115.406 217.492L115.417 217.504L118.247 214.679ZM126.392 219.043L125.183 222.709L125.194 222.711L125.206 222.713L126.392 219.043ZM143.503 213.534L145.258 216.281L145.27 216.272L145.281 216.262L143.503 213.534ZM148.18 208.244L151.073 209.699L151.082 209.683L151.092 209.667L148.18 208.244ZM150.608 201.603L150.936 197.935L147.68 198.362L147.103 201.753L150.608 201.603ZM160.247 200.341L163.782 199.977L164.218 196.197L160.574 196.674L160.247 200.341ZM156.888 210.314L159.842 211.665L159.848 211.655L159.853 211.645L156.888 210.314ZM149.448 219.097L151.304 221.761L151.315 221.752L151.325 221.743L149.448 219.097ZM137.863 222.206C132.439 224.433 127.742 225.113 123.656 224.446L121.112 231.759C126.621 232.658 132.671 231.677 139.148 229.017L137.863 222.206ZM123.68 224.45C119.559 223.743 116.101 221.821 113.276 218.597L107.558 224.183C111.139 228.27 115.659 230.824 121.088 231.755L123.68 224.45ZM113.291 218.614C110.482 215.353 108.489 210.923 107.406 205.187L100.402 208.062C101.641 214.628 103.99 220.041 107.543 224.166L113.291 218.614ZM107.406 205.187C106.324 199.452 106.471 194.107 107.729 189.113L100.855 188.771C99.2735 195.052 99.1626 201.496 100.402 208.062L107.406 205.187ZM107.727 189.121C109.012 184.062 111.246 179.721 114.391 175.991L109.49 171.855C105.32 176.801 102.455 182.472 100.857 188.763L107.727 189.121ZM114.395 175.986C117.516 172.275 121.489 169.375 126.465 167.332L125.179 160.521C119.005 163.056 113.723 166.82 109.486 171.859L114.395 175.986ZM126.465 167.332C129.284 166.175 132.164 165.483 135.121 165.266L136.17 157.891C132.462 158.164 128.792 159.038 125.179 160.521L126.465 167.332ZM135.121 165.266C137.922 165.06 140.623 165.493 143.242 166.613L147.094 159.677C143.682 158.218 140.034 157.607 136.17 157.891L135.121 165.266ZM143.258 166.62C145.729 167.656 148.003 169.535 150.028 172.417L156.094 167.274C153.617 163.748 150.628 161.159 147.078 159.67L143.258 166.62ZM150.028 172.417C151.981 175.197 153.516 179.169 154.522 184.494L161.526 181.619C160.416 175.737 158.643 170.902 156.094 167.274L150.028 172.417ZM154.522 184.494L155.26 188.404L162.264 185.528L161.526 181.619L154.522 184.494ZM158.119 183.56L110.518 203.104L111.803 209.915L159.405 190.371L158.119 183.56ZM114.663 205.072L113.157 197.097L106.153 199.973L107.658 207.948L114.663 205.072ZM110.298 201.94L148.25 186.358L146.965 179.547L109.012 195.129L110.298 201.94ZM151.11 181.514C150.382 177.662 148.914 174.423 146.633 171.913L140.977 177.569C142.487 179.231 143.553 181.466 144.105 184.39L151.11 181.514ZM146.65 171.932C144.393 169.399 141.511 167.806 138.048 167.205L135.445 174.508C137.656 174.892 139.479 175.888 140.96 177.55L146.65 171.932ZM138.064 167.208C134.542 166.577 130.73 167.173 126.743 168.809L128.029 175.62C130.904 174.44 133.333 174.13 135.43 174.506L138.064 167.208ZM126.743 168.809C122.358 170.61 118.583 173.311 115.593 176.971L120.593 180.987C122.436 178.732 124.856 176.923 128.029 175.62L126.743 168.809ZM115.598 176.964C112.762 180.424 110.782 184.251 109.686 188.384L116.533 188.831C117.293 185.967 118.636 183.375 120.588 180.994L115.598 176.964ZM109.686 188.384C108.603 192.465 108.431 196.437 109.152 200.257L116.157 197.382C115.628 194.583 115.759 191.746 116.533 188.831L109.686 188.384ZM109.152 200.257L110.156 205.574L117.16 202.698L116.157 197.382L109.152 200.257ZM110.156 205.574C111.083 210.488 112.783 214.523 115.395 217.48L121.099 211.878C119.305 209.847 117.945 206.855 117.16 202.698L110.156 205.574ZM115.417 217.504C118.024 220.381 121.285 222.158 125.183 222.709L127.602 215.377C125.09 215.022 122.922 213.889 121.078 211.854L115.417 217.504ZM125.206 222.713C129.075 223.229 133.231 222.516 137.584 220.729L136.298 213.918C132.985 215.279 130.109 215.712 127.578 215.374L125.206 222.713ZM137.584 220.729C140.401 219.573 142.977 218.103 145.258 216.281L141.749 210.788C140.266 211.972 138.466 213.028 136.298 213.918L137.584 220.729ZM145.281 216.262C147.6 214.387 149.547 212.196 151.073 209.699L145.287 206.79C144.385 208.266 143.215 209.602 141.725 210.807L145.281 216.262ZM151.092 209.667C152.63 207.105 153.621 204.347 154.113 201.452L147.103 201.753C146.774 203.689 146.146 205.358 145.267 206.822L151.092 209.667ZM150.281 205.27L159.919 204.009L160.574 196.674L150.936 197.935L150.281 205.27ZM156.712 200.705C156.384 203.545 155.461 206.288 153.922 208.982L159.853 211.645C162.004 207.881 163.321 203.977 163.782 199.977L156.712 200.705ZM153.933 208.962C152.393 211.629 150.297 214.126 147.572 216.451L151.325 221.743C154.818 218.763 157.682 215.404 159.842 211.665L153.933 208.962ZM147.593 216.433C144.907 218.698 141.684 220.637 137.863 222.206L139.148 229.017C143.689 227.153 147.761 224.749 151.304 221.761L147.593 216.433Z" fill="white" fill-opacity="0.5" mask="url(#path-3-outside-2_59_66333)"/>
<mask id="path-5-outside-3_59_66333" maskUnits="userSpaceOnUse" x="167.152" y="126.129" width="64.3289" height="91.0465" fill="black">
<rect fill="white" x="167.152" y="126.129" width="64.3289" height="91.0465"/>
<path d="M198.672 204.81C194.71 206.066 191.046 206.464 187.681 206.005C184.313 205.52 181.549 204.163 179.39 201.935C177.228 199.681 175.961 196.532 175.59 192.489C175.263 188.932 175.704 185.824 176.912 183.167C178.118 180.483 179.843 178.133 182.088 176.118C184.332 174.103 186.851 172.334 189.643 170.811C192.46 169.252 195.304 167.824 198.173 166.526C201.927 164.837 204.974 163.497 207.313 162.506C209.676 161.479 211.372 160.484 212.401 159.52C213.457 158.548 213.914 157.293 213.773 155.757L213.743 155.434C213.377 151.445 211.993 148.694 209.592 147.181C207.218 145.659 203.819 145.599 199.396 147.001C194.809 148.455 191.305 150.592 188.883 153.412C186.461 156.232 184.825 158.942 183.974 161.541L174.559 161.197C175.841 156.908 177.742 153.282 180.263 150.32C182.808 147.322 185.657 144.893 188.81 143.034C191.987 141.139 195.15 139.693 198.298 138.695C200.306 138.059 202.635 137.57 205.285 137.23C207.959 136.853 210.585 137.006 213.161 137.687C215.764 138.36 218.014 139.907 219.912 142.328C221.81 144.75 222.986 148.427 223.439 153.359L227.196 194.271L217.589 197.316L216.817 188.907L216.329 189.062C215.801 190.616 214.848 192.402 213.469 194.42C212.091 196.438 210.189 198.386 207.764 200.264C205.339 202.142 202.309 203.657 198.672 204.81ZM199.351 195.775C203.15 194.57 206.284 192.814 208.753 190.506C211.249 188.19 213.055 185.648 214.169 182.882C215.311 180.107 215.763 177.426 215.525 174.839L214.723 166.106C214.361 166.72 213.506 167.449 212.159 168.292C210.837 169.099 209.294 169.935 207.53 170.799C205.791 171.628 204.09 172.417 202.427 173.166C200.789 173.879 199.46 174.467 198.442 174.928C195.975 176.043 193.689 177.308 191.585 178.724C189.505 180.104 187.866 181.72 186.668 183.569C185.494 185.384 185.018 187.504 185.241 189.929C185.545 193.244 187.01 195.359 189.636 196.275C192.286 197.154 195.524 196.988 199.351 195.775Z"/>
</mask>
<path d="M187.681 206.005L186.464 209.67L186.475 209.672L186.487 209.674L187.681 206.005ZM179.39 201.935L176.609 204.814L176.614 204.819L176.619 204.824L179.39 201.935ZM176.912 183.167L180.08 184.104L180.084 184.094L180.089 184.084L176.912 183.167ZM189.643 170.811L190.718 174.01L190.73 174.004L190.742 173.997L189.643 170.811ZM198.173 166.526L197.4 163.177L197.392 163.18L198.173 166.526ZM207.313 162.506L207.999 165.893L208.017 165.886L208.035 165.878L207.313 162.506ZM212.401 159.52L210.384 156.999L210.368 157.013L210.353 157.028L212.401 159.52ZM209.592 147.181L207.28 150.444L207.288 150.45L207.296 150.455L209.592 147.181ZM188.883 153.412L191.304 155.515L191.304 155.515L188.883 153.412ZM183.974 161.541L183.086 165.236L186.232 165.35L187.327 162.005L183.974 161.541ZM174.559 161.197L171.173 160.843L170.003 164.758L173.671 164.892L174.559 161.197ZM180.263 150.32L182.699 152.405L182.702 152.401L180.263 150.32ZM188.81 143.034L190.017 146.159L190.026 146.153L190.036 146.147L188.81 143.034ZM205.285 137.23L204.949 140.898L204.97 140.895L204.991 140.892L205.285 137.23ZM213.161 137.687L211.614 141.285L211.621 141.287L211.629 141.289L213.161 137.687ZM219.912 142.328L216.962 145.011L219.912 142.328ZM227.196 194.271L227.52 197.792L231.066 196.668L230.742 193.147L227.196 194.271ZM217.589 197.316L214.043 198.44L214.367 201.961L217.913 200.837L217.589 197.316ZM216.817 188.907L220.363 187.783L220.04 184.262L216.494 185.385L216.817 188.907ZM216.329 189.062L216.005 185.54L213.774 186.248L212.992 188.551L216.329 189.062ZM213.469 194.42L216.226 196.086L213.469 194.42ZM207.764 200.264L206.066 197.473L207.764 200.264ZM208.753 190.506L206.723 187.997L206.716 188.003L206.71 188.009L208.753 190.506ZM214.169 182.882L210.934 182.102L210.927 182.117L210.921 182.133L214.169 182.882ZM214.723 166.106L218.269 164.982L217.376 155.256L211.792 164.715L214.723 166.106ZM212.159 168.292L213.427 171.38L213.448 171.367L213.47 171.353L212.159 168.292ZM207.53 170.799L208.389 174.109L208.41 174.099L208.432 174.088L207.53 170.799ZM202.427 173.166L203.153 176.536L203.177 176.526L203.202 176.515L202.427 173.166ZM198.442 174.928L199.221 178.275L199.225 178.273L198.442 174.928ZM191.585 178.724L193.001 181.718L193.013 181.71L193.025 181.701L191.585 178.724ZM186.668 183.569L183.845 182.004L183.843 182.007L186.668 183.569ZM189.636 196.275L187.883 199.81L187.903 199.817L187.922 199.823L189.636 196.275ZM198.349 201.288C194.842 202.4 191.702 202.723 188.875 202.337L186.487 209.674C190.391 210.206 194.579 209.731 198.996 208.331L198.349 201.288ZM188.898 202.34C186.113 201.939 183.895 200.836 182.161 199.047L176.619 204.824C179.203 207.49 182.513 209.101 186.464 209.67L188.898 202.34ZM182.17 199.057C180.518 197.334 179.455 194.845 179.136 191.365L172.044 193.613C172.467 198.219 173.937 202.028 176.609 204.814L182.17 199.057ZM179.136 191.365C178.849 188.243 179.272 185.88 180.08 184.104L173.744 182.23C172.135 185.768 171.677 189.62 172.044 193.613L179.136 191.365ZM180.089 184.084C181.013 182.025 182.32 180.241 184.057 178.682L180.118 173.554C177.365 176.025 175.222 178.94 173.735 182.25L180.089 184.084ZM184.057 178.682C186.002 176.936 188.215 175.375 190.718 174.01L188.569 167.611C185.487 169.292 182.662 171.27 180.118 173.554L184.057 178.682ZM190.742 173.997C193.455 172.496 196.192 171.121 198.953 169.872L197.392 163.18C194.415 164.527 191.466 166.008 188.545 167.624L190.742 173.997ZM198.946 169.876C202.687 168.193 205.702 166.867 207.999 165.893L206.626 159.119C204.247 160.127 201.168 161.481 197.4 163.177L198.946 169.876ZM208.035 165.878C210.517 164.8 212.804 163.554 214.449 162.013L210.353 157.028C209.94 157.414 208.836 158.159 206.591 159.134L208.035 165.878ZM214.418 162.042C216.777 159.868 217.547 157.123 217.319 154.633L210.227 156.881C210.259 157.236 210.201 157.33 210.232 157.244C210.248 157.2 210.277 157.142 210.317 157.082C210.357 157.024 210.386 156.996 210.384 156.999L214.418 162.042ZM217.319 154.633L217.289 154.31L210.197 156.558L210.227 156.881L217.319 154.633ZM217.289 154.31C216.863 149.669 215.192 145.989 211.887 143.906L207.296 150.455C208.794 151.399 209.891 153.22 210.197 156.558L217.289 154.31ZM211.904 143.917C208.538 141.759 204.042 141.904 199.072 143.479L199.719 150.523C203.596 149.294 205.898 149.558 207.28 150.444L211.904 143.917ZM199.072 143.479C194.006 145.085 189.65 147.597 186.462 151.309L191.304 155.515C192.961 153.586 195.613 151.824 199.719 150.523L199.072 143.479ZM186.462 151.309C183.746 154.472 181.715 157.736 180.622 161.078L187.327 162.005C187.934 160.148 189.177 157.992 191.304 155.515L186.462 151.309ZM184.863 157.847L175.447 157.503L173.671 164.892L183.086 165.236L184.863 157.847ZM177.946 161.551C179.079 157.758 180.696 154.758 182.699 152.405L177.827 148.234C174.788 151.806 172.603 156.057 171.173 160.843L177.946 161.551ZM182.702 152.401C184.908 149.803 187.342 147.736 190.017 146.159L187.603 139.91C183.973 142.05 180.708 144.841 177.823 148.238L182.702 152.401ZM190.036 146.147C192.943 144.414 195.803 143.11 198.621 142.217L197.974 135.174C194.497 136.276 191.031 137.865 187.584 139.921L190.036 146.147ZM198.621 142.217C200.354 141.668 202.454 141.219 204.949 140.898L205.62 133.561C202.817 133.922 200.259 134.45 197.974 135.174L198.621 142.217ZM204.991 140.892C207.202 140.581 209.405 140.701 211.614 141.285L214.708 134.089C211.764 133.311 208.716 133.126 205.578 133.567L204.991 140.892ZM211.629 141.289C213.565 141.789 215.356 142.963 216.962 145.011L222.863 139.646C220.672 136.851 217.963 134.93 214.692 134.085L211.629 141.289ZM216.962 145.011C218.402 146.849 219.471 149.885 219.893 154.483L226.985 152.235C226.501 146.969 225.219 142.651 222.863 139.646L216.962 145.011ZM219.893 154.483L223.65 195.395L230.742 193.147L226.985 152.235L219.893 154.483ZM226.873 190.749L217.266 193.794L217.913 200.837L227.52 197.792L226.873 190.749ZM221.135 196.192L220.363 187.783L213.271 190.031L214.043 198.44L221.135 196.192ZM216.494 185.385L216.005 185.54L216.652 192.584L217.141 192.429L216.494 185.385ZM212.992 188.551C212.647 189.568 211.944 190.953 210.713 192.754L216.226 196.086C217.752 193.851 218.955 191.664 219.665 189.573L212.992 188.551ZM210.713 192.754C209.694 194.246 208.189 195.829 206.066 197.473L209.462 203.055C212.189 200.943 214.488 198.63 216.226 196.086L210.713 192.754ZM206.066 197.473C204.18 198.933 201.652 200.241 198.349 201.288L198.996 208.331C202.966 207.073 206.499 205.35 209.462 203.055L206.066 197.473ZM199.674 199.296C203.93 197.947 207.701 195.897 210.797 193.003L206.71 188.009C204.867 189.732 202.37 191.194 199.027 192.253L199.674 199.296ZM210.784 193.015C213.748 190.264 216.008 187.13 217.418 183.631L210.921 182.133C210.102 184.166 208.751 186.115 206.723 187.997L210.784 193.015ZM217.405 183.662C218.794 180.285 219.368 176.946 219.071 173.715L211.979 175.963C212.158 177.906 211.828 179.929 210.934 182.102L217.405 183.662ZM219.071 173.715L218.269 164.982L211.177 167.23L211.979 175.963L219.071 173.715ZM211.792 164.715C211.91 164.516 212.008 164.405 212.027 164.385C212.048 164.362 212.026 164.389 211.935 164.466C211.746 164.627 211.403 164.883 210.848 165.231L213.47 171.353C214.262 170.858 215.019 170.328 215.685 169.761C216.317 169.222 217.08 168.47 217.654 167.497L211.792 164.715ZM210.892 165.204C209.717 165.921 208.301 166.691 206.628 167.511L208.432 174.088C210.286 173.18 211.956 172.278 213.427 171.38L210.892 165.204ZM206.671 167.49C204.958 168.306 203.286 169.081 201.652 169.817L203.202 176.515C204.894 175.752 206.623 174.95 208.389 174.109L206.671 167.49ZM201.701 169.795C200.054 170.513 198.704 171.109 197.658 171.583L199.225 178.273C200.217 177.824 201.524 177.246 203.153 176.536L201.701 169.795ZM197.662 171.582C194.99 172.789 192.481 174.175 190.145 175.747L193.025 181.701C194.897 180.442 196.959 179.297 199.221 178.275L197.662 171.582ZM190.169 175.73C187.62 177.422 185.464 179.504 183.845 182.004L189.491 185.135C190.268 183.935 191.391 182.787 193.001 181.718L190.169 175.73ZM183.843 182.007C181.988 184.874 181.414 187.992 181.695 191.053L188.787 188.805C188.623 187.015 189 185.894 189.493 185.132L183.843 182.007ZM181.695 191.053C182.092 195.374 184.115 198.496 187.883 199.81L191.388 192.739C189.905 192.223 188.999 191.115 188.787 188.805L181.695 191.053ZM187.922 199.823C191.343 200.958 195.332 200.672 199.674 199.296L199.027 192.253C195.716 193.303 193.229 193.35 191.349 192.726L187.922 199.823Z" fill="white" fill-opacity="0.5" mask="url(#path-5-outside-3_59_66333)"/>
<mask id="path-7-outside-4_59_66333" maskUnits="userSpaceOnUse" x="228.637" y="96.9363" width="49.8547" height="98.7057" fill="black">
<rect fill="white" x="228.637" y="96.9363" width="49.8547" height="98.7057"/>
<path d="M266.315 117.289L267.057 125.374L234.655 135.645L233.912 127.559L266.315 117.289ZM241.99 109.689L251.597 106.644L257.032 165.829C257.28 168.524 257.859 170.42 258.77 171.518C259.705 172.581 260.818 173.143 262.108 173.206C263.423 173.233 264.786 173.023 266.198 172.575C267.256 172.24 268.119 171.911 268.788 171.588C269.454 171.238 269.987 170.958 270.387 170.748L273.128 178.7C272.499 179.149 271.612 179.679 270.467 180.292C269.325 180.931 267.858 181.535 266.067 182.102C263.353 182.963 260.641 183.226 257.929 182.893C255.244 182.551 252.938 181.465 251.011 179.636C249.111 177.797 247.995 175.072 247.663 171.461L241.99 109.689Z"/>
</mask>
<path d="M266.315 117.289L269.861 116.165L269.537 112.643L265.991 113.767L266.315 117.289ZM267.057 125.374L267.381 128.896L270.927 127.772L270.603 124.25L267.057 125.374ZM234.655 135.645L231.109 136.769L231.432 140.29L234.978 139.166L234.655 135.645ZM233.912 127.559L233.589 124.038L230.043 125.162L230.366 128.683L233.912 127.559ZM241.99 109.689L241.667 106.167L238.121 107.291L238.444 110.813L241.99 109.689ZM251.597 106.644L255.143 105.52L254.819 101.998L251.273 103.122L251.597 106.644ZM258.77 171.518L255.864 174.257L255.889 174.287L255.914 174.316L258.77 171.518ZM262.108 173.206L261.182 176.899L261.227 176.901L261.272 176.902L262.108 173.206ZM268.788 171.588L269.668 174.888L269.734 174.855L269.801 174.821L268.788 171.588ZM270.387 170.748L273.774 168.875L272.702 165.768L269.374 167.516L270.387 170.748ZM273.128 178.7L274.675 181.602L277.473 179.605L276.515 176.826L273.128 178.7ZM270.467 180.292L269.424 177.075L269.386 177.095L269.349 177.116L270.467 180.292ZM257.929 182.893L256.761 186.565L256.768 186.566L256.775 186.566L257.929 182.893ZM251.011 179.636L248.298 182.583L248.307 182.591L248.316 182.6L251.011 179.636ZM262.769 118.413L263.511 126.498L270.603 124.25L269.861 116.165L262.769 118.413ZM266.734 121.852L234.331 132.123L234.978 139.166L267.381 128.896L266.734 121.852ZM238.201 134.521L237.458 126.435L230.366 128.683L231.109 136.769L238.201 134.521ZM234.236 131.081L266.638 120.81L265.991 113.767L233.589 124.038L234.236 131.081ZM242.313 113.21L251.92 110.165L251.273 103.122L241.667 106.167L242.313 113.21ZM248.051 107.768L253.486 166.952L260.578 164.705L255.143 105.52L248.051 107.768ZM253.486 166.952C253.754 169.873 254.414 172.509 255.864 174.257L261.675 168.779C261.303 168.332 260.805 167.175 260.578 164.705L253.486 166.952ZM255.914 174.316C257.242 175.824 258.992 176.793 261.182 176.899L263.034 169.513C262.643 169.494 262.168 169.338 261.625 168.721L255.914 174.316ZM261.272 176.902C262.984 176.937 264.74 176.662 266.521 176.097L265.874 169.054C264.833 169.384 263.863 169.529 262.945 169.51L261.272 176.902ZM266.521 176.097C267.678 175.73 268.747 175.332 269.668 174.888L267.908 168.288C267.492 168.489 266.834 168.75 265.874 169.054L266.521 176.097ZM269.801 174.821C270.467 174.471 270.999 174.191 271.399 173.981L269.374 167.516C268.974 167.726 268.441 168.005 267.775 168.355L269.801 174.821ZM267 172.622L269.741 180.573L276.515 176.826L273.774 168.875L267 172.622ZM271.58 175.797C271.188 176.076 270.499 176.5 269.424 177.075L271.51 183.508C272.724 182.859 273.809 182.221 274.675 181.602L271.58 175.797ZM269.349 177.116C268.557 177.559 267.383 178.061 265.744 178.581L266.391 185.624C268.333 185.008 270.092 184.303 271.585 183.467L269.349 177.116ZM265.744 178.581C263.555 179.274 261.346 179.498 259.083 179.22L256.775 186.566C259.936 186.955 263.151 186.651 266.391 185.624L265.744 178.581ZM259.097 179.221C257.026 178.958 255.24 178.129 253.706 176.672L248.316 182.6C250.636 184.802 253.463 186.145 256.761 186.565L259.097 179.221ZM253.723 176.689C252.404 175.412 251.49 173.402 251.209 170.337L244.117 172.585C244.499 176.743 245.817 180.182 248.298 182.583L253.723 176.689ZM251.209 170.337L245.536 108.565L238.444 110.813L244.117 172.585L251.209 170.337Z" fill="white" fill-opacity="0.5" mask="url(#path-7-outside-4_59_66333)"/>
<mask id="path-9-outside-5_59_66333" maskUnits="userSpaceOnUse" x="284.459" y="92.7495" width="57.7657" height="84.8615" fill="black">
<rect fill="white" x="284.459" y="92.7495" width="57.7657" height="84.8615"/>
<path d="M328.317 137.308L328.765 99.5899L338.411 97.5424L337.652 161.347L328.006 163.395L328.135 152.594L327.481 152.733C325.971 156.286 323.649 159.527 320.516 162.457C317.383 165.36 313.446 167.314 308.704 168.321C304.781 169.153 301.303 169.021 298.272 167.925C295.242 166.8 292.875 164.65 291.174 161.476C289.472 158.274 288.654 153.959 288.718 148.531L289.201 107.988L298.847 105.941L298.372 145.819C298.317 150.471 299.553 153.91 302.082 156.136C304.637 158.356 307.918 159.04 311.923 158.19C314.321 157.681 316.767 156.54 319.262 154.768C321.784 152.99 323.904 150.633 325.625 147.699C327.372 144.76 328.269 141.296 328.317 137.308Z"/>
</mask>
<path d="M328.765 99.5899L328.809 95.9714L325.248 96.7271L325.205 100.346L328.765 99.5899ZM338.411 97.5424L341.972 96.7867L342.015 93.1682L338.454 93.9239L338.411 97.5424ZM337.652 161.347L337.609 164.966L341.169 164.21L341.213 160.592L337.652 161.347ZM328.006 163.395L324.446 164.151L324.403 167.769L327.963 167.013L328.006 163.395ZM328.135 152.594L331.695 151.839L331.738 148.22L328.178 148.976L328.135 152.594ZM327.481 152.733L327.524 149.115L325.246 149.598L324.266 151.903L327.481 152.733ZM320.516 162.457L322.543 164.969L322.551 164.961L322.56 164.953L320.516 162.457ZM298.272 167.925L296.468 171.441L296.479 171.445L296.489 171.449L298.272 167.925ZM291.174 161.476L287.965 163.761L287.97 163.77L291.174 161.476ZM289.201 107.988L289.244 104.37L285.683 105.125L285.64 108.744L289.201 107.988ZM298.847 105.941L302.407 105.185L302.45 101.566L298.89 102.322L298.847 105.941ZM302.082 156.136L299.458 159.165L299.464 159.17L299.471 159.176L302.082 156.136ZM319.262 154.768L317.736 151.849L317.729 151.854L317.722 151.859L319.262 154.768ZM325.625 147.699L322.701 146.296L322.693 146.308L322.686 146.321L325.625 147.699ZM331.877 136.552L332.326 98.8342L325.205 100.346L324.756 138.064L331.877 136.552ZM328.722 103.208L338.368 101.161L338.454 93.9239L328.809 95.9714L328.722 103.208ZM334.851 98.2982L334.092 162.103L341.213 160.592L341.972 96.7867L334.851 98.2982ZM337.695 157.729L328.049 159.776L327.963 167.013L337.609 164.966L337.695 157.729ZM331.567 162.639L331.695 151.839L324.574 153.35L324.446 164.151L331.567 162.639ZM328.178 148.976L327.524 149.115L327.438 156.352L328.092 156.213L328.178 148.976ZM324.266 151.903C323.044 154.779 321.148 157.458 318.472 159.961L322.56 164.953C326.15 161.596 328.898 157.792 330.695 153.563L324.266 151.903ZM318.489 159.945C316.098 162.16 312.932 163.814 308.748 164.702L308.661 171.939C313.959 170.815 318.668 168.559 322.543 164.969L318.489 159.945ZM308.748 164.702C305.36 165.421 302.496 165.283 300.055 164.4L296.489 171.449C300.111 172.76 304.201 172.886 308.661 171.939L308.748 164.702ZM300.076 164.408C297.717 163.532 295.807 161.849 294.377 159.182L287.97 163.77C289.943 167.452 292.766 170.068 296.468 171.441L300.076 164.408ZM294.382 159.191C292.989 156.568 292.219 152.836 292.279 147.775L285.158 149.286C285.089 155.081 285.956 159.979 287.965 163.761L294.382 159.191ZM292.279 147.775L292.761 107.232L285.64 108.744L285.158 149.286L292.279 147.775ZM289.158 111.607L298.804 109.559L298.89 102.322L289.244 104.37L289.158 111.607ZM295.286 106.696L294.812 146.574L301.933 145.063L302.407 105.185L295.286 106.696ZM294.812 146.574C294.748 151.93 296.186 156.285 299.458 159.165L304.705 153.107C302.921 151.536 301.886 149.012 301.933 145.063L294.812 146.574ZM299.471 159.176C302.737 162.013 306.971 162.851 311.88 161.809L311.967 154.572C308.865 155.23 306.538 154.698 304.693 153.096L299.471 159.176ZM311.88 161.809C314.904 161.167 317.889 159.746 320.802 157.677L317.722 151.859C315.646 153.335 313.739 154.195 311.967 154.572L311.88 161.809ZM320.788 157.686C323.93 155.47 326.521 152.562 328.563 149.078L322.686 146.321C321.288 148.705 319.637 150.509 317.736 151.849L320.788 157.686ZM328.548 149.103C330.803 145.31 331.823 141.06 331.877 136.552L324.756 138.064C324.715 141.531 323.941 144.209 322.701 146.296L328.548 149.103Z" fill="white" fill-opacity="0.5" mask="url(#path-9-outside-5_59_66333)"/>
<mask id="path-11-outside-6_59_66333" maskUnits="userSpaceOnUse" x="357.172" y="77.541" width="40.1072" height="81.1132" fill="black">
<rect fill="white" x="357.172" y="77.541" width="40.1072" height="81.1132"/>
<path d="M361.143 153.833L361.902 90.0284L371.221 88.0503L371.106 97.6875L371.76 97.5487C372.942 94.1487 375.044 91.1475 378.064 88.5451C381.085 85.9427 384.475 84.2424 388.236 83.4442C388.944 83.2938 389.83 83.1197 390.892 82.9218C391.954 82.7239 392.758 82.5949 393.302 82.5346L393.183 92.5041C392.857 92.4904 392.109 92.5248 390.94 92.6074C389.798 92.6565 388.586 92.8169 387.306 93.0888C384.254 93.7365 381.521 94.9657 379.108 96.7763C376.722 98.5533 374.821 100.725 373.404 103.291C372.015 105.823 371.303 108.529 371.269 111.409L370.789 151.786L361.143 153.833Z"/>
</mask>
<path d="M361.143 153.833L357.582 154.589L357.539 158.207L361.1 157.452L361.143 153.833ZM361.902 90.0284L361.945 86.4098L358.385 87.1656L358.342 90.7841L361.902 90.0284ZM371.221 88.0503L374.781 87.2945L374.824 83.676L371.264 84.4318L371.221 88.0503ZM371.106 97.6875L367.546 98.4432L367.503 102.062L371.063 101.306L371.106 97.6875ZM371.76 97.5487L371.717 101.167L374.2 100.64L375.086 98.0905L371.76 97.5487ZM378.064 88.5451L376.17 85.9147L376.17 85.9147L378.064 88.5451ZM393.302 82.5346L396.862 81.7788L396.901 78.5041L393.699 78.8588L393.302 82.5346ZM393.183 92.5041L392.278 96.1979L396.689 96.3828L396.744 91.7483L393.183 92.5041ZM390.94 92.6074L390.312 96.3009L390.358 96.2989L390.405 96.2956L390.94 92.6074ZM379.108 96.7763L380.734 99.6219L380.741 99.617L380.747 99.612L379.108 96.7763ZM373.404 103.291L370.404 102.021L370.397 102.033L373.404 103.291ZM370.789 151.786L370.746 155.404L374.306 154.649L374.349 151.03L370.789 151.786ZM364.703 153.077L365.462 89.2726L358.342 90.7841L357.582 154.589L364.703 153.077ZM361.859 93.6469L371.178 91.6688L371.264 84.4318L361.945 86.4098L361.859 93.6469ZM367.66 88.806L367.546 98.4432L374.667 96.9317L374.781 87.2945L367.66 88.806ZM371.063 101.306L371.717 101.167L371.803 93.9301L371.149 94.069L371.063 101.306ZM375.086 98.0905C375.971 95.5461 377.538 93.2614 379.959 91.1755L376.17 85.9147C372.549 89.0337 369.914 92.7514 368.434 97.0069L375.086 98.0905ZM379.959 91.1755C382.368 89.1003 385.078 87.7238 388.193 87.0627L388.279 79.8257C383.872 80.761 379.802 82.785 376.17 85.9147L379.959 91.1755ZM388.193 87.0627C388.86 86.9211 389.712 86.7532 390.758 86.5585L391.026 79.2851C389.947 79.4862 389.029 79.6665 388.279 79.8257L388.193 87.0627ZM390.758 86.5585C391.797 86.3648 392.495 86.2557 392.905 86.2103L393.699 78.8588C393.02 78.934 392.111 79.083 391.026 79.2851L390.758 86.5585ZM389.742 83.2903L389.623 93.2598L396.744 91.7483L396.862 81.7788L389.742 83.2903ZM394.089 88.8103C393.542 88.7874 392.591 88.8403 391.474 88.9191L390.405 96.2956C390.976 96.2554 391.425 96.2282 391.76 96.2127C391.928 96.205 392.057 96.2007 392.153 96.1988C392.256 96.1968 392.29 96.1984 392.278 96.1979L394.089 88.8103ZM391.568 88.9139C390.214 88.972 388.806 89.161 387.349 89.4702L387.263 96.7073C388.367 96.4728 389.382 96.3409 390.312 96.3009L391.568 88.9139ZM387.349 89.4702C383.785 90.2268 380.462 91.6945 377.468 93.9405L380.747 99.612C382.58 98.237 384.723 97.2463 387.263 96.7073L387.349 89.4702ZM377.482 93.9306C374.546 96.117 372.166 98.8286 370.404 102.021L376.405 104.56C377.475 102.621 378.898 100.99 380.734 99.6219L377.482 93.9306ZM370.397 102.033C368.622 105.269 367.75 108.678 367.709 112.165L374.829 110.653C374.857 108.38 375.408 106.376 376.411 104.548L370.397 102.033ZM367.709 112.165L367.228 152.541L374.349 151.03L374.829 110.653L367.709 112.165ZM370.832 148.167L361.186 150.215L361.1 157.452L370.746 155.404L370.832 148.167Z" fill="white" fill-opacity="0.5" mask="url(#path-11-outside-6_59_66333)"/>
<mask id="path-13-outside-7_59_66333" maskUnits="userSpaceOnUse" x="404.079" y="58.5022" width="63.6637" height="87.1079" fill="black">
<rect fill="white" x="404.079" y="58.5022" width="63.6637" height="87.1079"/>
<path d="M437.311 134.91C431.262 136.194 426.06 135.944 421.705 134.161C417.378 132.345 414.059 129.238 411.746 124.839C409.462 120.407 408.358 114.924 408.436 108.388C408.514 101.853 409.754 95.8437 412.157 90.3615C414.587 84.8459 417.93 80.2413 422.187 76.5478C426.471 72.8209 431.447 70.3559 437.115 69.1528C440.385 68.4587 443.607 68.3272 446.782 68.7582C449.957 69.1892 452.838 70.3733 455.424 72.3104C458.01 74.2199 460.056 77.0452 461.561 80.7864C463.065 84.5276 463.782 89.3752 463.711 95.3292L463.662 99.4832L415.269 109.755L415.37 101.281L453.953 93.0913C453.996 89.4912 453.326 86.4292 451.943 83.9052C450.587 81.3755 448.624 79.5685 446.055 78.484C443.513 77.3938 440.498 77.2189 437.01 77.9592C433.168 78.7747 429.832 80.4496 427.003 82.9839C424.201 85.4847 422.032 88.4311 420.497 91.8231C418.962 95.2151 418.173 98.6697 418.131 102.187L418.064 107.836C418.007 112.655 418.775 116.566 420.371 119.57C421.993 122.54 424.265 124.585 427.188 125.705C430.11 126.798 433.519 126.93 437.416 126.103C439.95 125.565 442.243 124.719 444.295 123.566C446.375 122.378 448.173 120.892 449.689 119.106C451.206 117.292 452.386 115.191 453.23 112.802L462.517 113.483C461.498 116.903 459.816 120.078 457.47 123.006C455.126 125.907 452.242 128.398 448.82 130.478C445.398 132.53 441.562 134.007 437.311 134.91Z"/>
</mask>
<path d="M421.705 134.161L419.795 137.636L419.806 137.641L419.817 137.645L421.705 134.161ZM411.746 124.839L408.522 127.094L408.527 127.104L408.532 127.114L411.746 124.839ZM412.157 90.3615L408.966 89.4751L408.963 89.4835L412.157 90.3615ZM422.187 76.5478L424.095 79.1669L424.099 79.1628L422.187 76.5478ZM446.782 68.7582L447.975 65.0898L447.975 65.0898L446.782 68.7582ZM455.424 72.3104L452.957 75.4672L452.964 75.4725L452.972 75.4778L455.424 72.3104ZM461.561 80.7864L464.896 78.7736L464.896 78.7736L461.561 80.7864ZM463.662 99.4832L463.619 103.102L467.179 102.346L467.222 98.7274L463.662 99.4832ZM415.269 109.755L411.708 110.511L411.665 114.13L415.226 113.374L415.269 109.755ZM415.37 101.281L415.413 97.6627L411.852 98.4185L411.809 102.037L415.37 101.281ZM453.953 93.0913L453.91 96.7098L457.471 95.9541L457.514 92.3356L453.953 93.0913ZM451.943 83.9052L448.739 86.1995L448.745 86.2108L448.751 86.222L451.943 83.9052ZM446.055 78.484L444.126 81.9506L444.133 81.9537L444.14 81.9567L446.055 78.484ZM427.003 82.9839L428.962 85.5576L428.968 85.5519L427.003 82.9839ZM420.497 91.8231L417.326 90.8937L417.326 90.8937L420.497 91.8231ZM420.371 119.57L417.162 121.854L417.169 121.869L417.177 121.883L420.371 119.57ZM427.188 125.705L425.356 129.212L425.367 129.216L425.378 129.22L427.188 125.705ZM444.295 123.566L445.421 126.737L445.434 126.73L445.447 126.722L444.295 123.566ZM449.689 119.106L452.129 121.187L452.141 121.173L452.153 121.158L449.689 119.106ZM453.23 112.802L454.233 109.114L451.096 108.884L449.911 112.239L453.23 112.802ZM462.517 113.483L465.905 113.833L467.031 110.052L463.521 109.794L462.517 113.483ZM457.47 123.006L459.987 124.995L459.994 124.986L460.001 124.977L457.47 123.006ZM448.82 130.478L450.056 133.585L450.068 133.578L450.079 133.571L448.82 130.478ZM437.354 131.291C431.841 132.461 427.303 132.196 423.593 130.678L419.817 137.645C424.818 139.692 430.683 139.926 437.268 138.528L437.354 131.291ZM423.615 130.687C419.881 129.119 417 126.444 414.961 122.565L408.532 127.114C411.117 132.032 414.876 135.571 419.795 137.636L423.615 130.687ZM414.971 122.585C412.954 118.672 411.924 113.727 411.996 107.632L404.875 109.144C404.792 116.12 405.97 122.143 408.522 127.094L414.971 122.585ZM411.996 107.632C412.069 101.539 413.222 96.0967 415.351 91.2396L408.963 89.4835C406.286 95.5907 404.958 102.166 404.875 109.144L411.996 107.632ZM415.347 91.248C417.514 86.3305 420.435 82.3428 424.095 79.1669L420.279 73.9287C415.426 78.1399 411.66 83.3613 408.966 89.4751L415.347 91.248ZM424.099 79.1628C427.734 76.0015 432.013 73.8451 437.072 72.7713L437.158 65.5343C430.882 66.8666 425.209 69.6403 420.275 73.9328L424.099 79.1628ZM437.072 72.7713C439.938 72.163 442.773 72.0442 445.59 72.4267L447.975 65.0898C444.442 64.6102 440.832 64.7545 437.158 65.5343L437.072 72.7713ZM445.59 72.4267C448.259 72.789 450.711 73.7849 452.957 75.4672L457.89 69.1537C454.964 66.9617 451.655 65.5895 447.975 65.0898L445.59 72.4267ZM452.972 75.4778C455.094 77.0449 456.872 79.4336 458.225 82.7992L464.896 78.7736C463.24 74.6568 460.926 71.3949 457.876 69.143L452.972 75.4778ZM458.225 82.7992C459.531 86.0453 460.218 90.4263 460.151 96.085L467.272 94.5735C467.346 88.3241 466.6 83.0099 464.896 78.7736L458.225 82.7992ZM460.151 96.085L460.102 100.239L467.222 98.7274L467.272 94.5735L460.151 96.085ZM463.705 95.8647L415.312 106.137L415.226 113.374L463.619 103.102L463.705 95.8647ZM418.829 109L418.93 100.525L411.809 102.037L411.708 110.511L418.829 109ZM415.327 104.9L453.91 96.7098L453.996 89.4728L415.413 97.6627L415.327 104.9ZM457.514 92.3356C457.563 88.2421 456.799 84.6254 455.134 81.5885L448.751 86.222C449.853 88.2329 450.43 90.7403 450.393 93.847L457.514 92.3356ZM455.146 81.611C453.509 78.5563 451.106 76.335 447.97 75.0114L444.14 81.9567C446.142 82.8019 447.664 84.1947 448.739 86.1995L455.146 81.611ZM447.984 75.0174C444.797 73.6506 441.106 73.4805 437.053 74.3407L436.967 81.5777C439.89 80.9573 442.229 81.137 444.126 81.9506L447.984 75.0174ZM437.053 74.3407C432.595 75.287 428.539 77.2801 425.037 80.4159L428.968 85.5519C431.126 83.6192 433.741 82.2625 436.967 81.5777L437.053 74.3407ZM425.044 80.4102C421.724 83.3727 419.139 86.8867 417.326 90.8937L423.668 92.7525C424.925 89.9754 426.677 87.5966 428.962 85.5576L425.044 80.4102ZM417.326 90.8937C415.535 94.851 414.619 98.8826 414.571 102.942L421.692 101.431C421.727 98.4568 422.389 95.5793 423.668 92.7525L417.326 90.8937ZM414.571 102.942L414.504 108.592L421.624 107.08L421.692 101.431L414.571 102.942ZM414.504 108.592C414.441 113.813 415.27 118.293 417.162 121.854L423.579 117.285C422.281 114.839 421.572 111.497 421.624 107.08L414.504 108.592ZM417.177 121.883C419.078 125.363 421.802 127.849 425.356 129.212L429.019 122.199C426.729 121.321 424.908 119.717 423.564 117.256L417.177 121.883ZM425.378 129.22C428.911 130.54 432.948 130.661 437.373 129.722L437.459 122.485C434.091 123.2 431.309 123.055 428.997 122.191L425.378 129.22ZM437.373 129.722C440.237 129.114 442.934 128.135 445.421 126.737L443.17 120.394C441.553 121.303 439.663 122.017 437.459 122.485L437.373 129.722ZM445.447 126.722C447.979 125.277 450.223 123.432 452.129 121.187L447.25 117.025C446.123 118.351 444.771 119.48 443.144 120.409L445.447 126.722ZM452.153 121.158C454.083 118.85 455.537 116.229 456.548 113.365L449.911 112.239C449.235 114.154 448.328 115.735 447.226 117.053L452.153 121.158ZM452.226 116.49L461.513 117.171L463.521 109.794L454.233 109.114L452.226 116.49ZM459.129 113.132C458.283 115.972 456.896 118.593 454.94 121.036L460.001 124.977C462.735 121.563 464.713 117.834 465.905 113.833L459.129 113.132ZM454.954 121.018C453.002 123.434 450.56 125.561 447.561 127.385L450.079 133.571C453.924 131.234 457.25 128.381 459.987 124.995L454.954 121.018ZM447.584 127.371C444.633 129.141 441.239 130.466 437.354 131.291L437.268 138.528C441.884 137.548 446.163 135.919 450.056 133.585L447.584 127.371Z" fill="white" fill-opacity="0.5" mask="url(#path-13-outside-7_59_66333)"/>
<mask id="path-15-outside-8_59_66333" maskUnits="userSpaceOnUse" x="473.492" y="47.6503" width="58.7585" height="86.0667" fill="black">
<rect fill="white" x="473.492" y="47.6503" width="58.7585" height="86.0667"/>
<path d="M526.458 68.1117L517.763 72.4433C517.236 71.0912 516.449 69.8357 515.403 68.6766C514.384 67.484 512.981 66.6217 511.193 66.0895C509.406 65.5574 507.109 65.5892 504.302 66.1849C500.46 67.0005 497.248 68.5801 494.665 70.9238C492.11 73.2341 490.816 75.76 490.783 78.5016C490.754 80.9386 491.603 82.6782 493.33 83.7204C495.057 84.7626 497.768 85.3611 501.463 85.5161L510.754 85.8642C516.351 86.0574 520.508 87.2881 523.226 89.5563C525.945 91.7969 527.278 95.1464 527.225 99.605C527.181 103.26 526.107 106.748 524.002 110.068C521.924 113.382 519.036 116.26 515.337 118.702C511.639 121.145 507.351 122.883 502.474 123.919C496.07 125.278 490.787 124.991 486.625 123.057C482.462 121.123 479.854 117.56 478.802 112.37L487.985 108.1C488.816 111.349 490.434 113.574 492.839 114.777C495.27 115.973 498.462 116.152 502.413 115.313C506.909 114.359 510.49 112.632 513.156 110.132C515.85 107.599 517.213 104.962 517.246 102.22C517.272 100.005 516.531 98.3114 515.023 97.1399C513.515 95.9407 511.185 95.3027 508.033 95.2259L497.6 94.9545C491.867 94.7903 487.669 93.5405 485.006 91.2054C482.37 88.8367 481.079 85.4508 481.131 81.0476C481.174 77.4475 482.207 74.0517 484.229 70.8601C486.278 67.6628 489.042 64.9076 492.522 62.5946C496.028 60.2757 499.989 58.6478 504.403 57.7109C510.616 56.3921 515.477 56.7415 518.986 58.7589C522.523 60.7705 525.013 63.8881 526.458 68.1117Z"/>
</mask>
<path d="M526.458 68.1117L527.386 71.3876L530.992 69.5912L529.847 66.2446L526.458 68.1117ZM517.763 72.4433L514.417 74.4279L515.534 77.2921L518.691 75.7192L517.763 72.4433ZM515.403 68.6766L512.522 71.4446L512.545 71.4716L512.569 71.498L515.403 68.6766ZM511.193 66.0895L512.824 62.5151L511.193 66.0895ZM494.665 70.9238L496.648 73.4763L496.655 73.4702L494.665 70.9238ZM493.33 83.7204L491.078 87.0213L491.078 87.0213L493.33 83.7204ZM501.463 85.5161L500.558 89.2099L500.565 89.2102L500.572 89.2104L501.463 85.5161ZM510.754 85.8642L509.863 89.5586L509.872 89.5589L510.754 85.8642ZM523.226 89.5563L520.654 92.6294L520.66 92.6344L520.666 92.6394L523.226 89.5563ZM524.002 110.068L521.152 108.543L521.146 108.554L521.139 108.564L524.002 110.068ZM486.625 123.057L488.627 119.622L488.627 119.622L486.625 123.057ZM478.802 112.37L477.98 109.042L474.647 110.592L475.308 113.85L478.802 112.37ZM487.985 108.1L491.443 106.464L490.602 103.174L487.163 104.773L487.985 108.1ZM492.839 114.777L490.768 118.178L490.776 118.181L490.783 118.185L492.839 114.777ZM513.156 110.132L515.205 112.624L515.21 112.619L513.156 110.132ZM515.023 97.1399L512.498 100.251L512.509 100.26L512.521 100.269L515.023 97.1399ZM508.033 95.2259L507.179 98.9214L507.184 98.9215L508.033 95.2259ZM497.6 94.9545L496.737 98.6498L496.745 98.65L497.6 94.9545ZM485.006 91.2054L482.362 94.2167L482.374 94.2272L482.386 94.2376L485.006 91.2054ZM484.229 70.8601L481.392 69.3152L481.385 69.3261L481.378 69.337L484.229 70.8601ZM492.522 62.5946L491.113 59.5964L491.103 59.6028L492.522 62.5946ZM518.986 58.7589L516.781 62.0878L516.791 62.0937L518.986 58.7589ZM525.53 64.8357L516.835 69.1673L518.691 75.7192L527.386 71.3876L525.53 64.8357ZM521.109 70.4587C520.446 68.7575 519.474 67.2265 518.236 65.8552L512.569 71.498C513.423 72.4449 514.025 73.425 514.417 74.4279L521.109 70.4587ZM518.283 65.9086C516.889 64.276 515.027 63.1709 512.824 62.5151L509.563 69.664C510.935 70.0725 511.879 70.692 512.522 71.4446L518.283 65.9086ZM512.824 62.5151C510.39 61.7905 507.499 61.897 504.345 62.5664L504.259 69.8035C506.719 69.2814 508.421 69.3243 509.563 69.664L512.824 62.5151ZM504.345 62.5664C499.95 63.4993 495.986 65.3733 492.675 68.3774L496.655 73.4702C498.51 71.7868 500.97 70.5017 504.259 69.8035L504.345 62.5664ZM492.682 68.3714C489.312 71.4184 487.272 75.1431 487.223 79.2574L494.344 77.7459C494.36 76.3769 494.908 75.0497 496.648 73.4763L492.682 68.3714ZM487.223 79.2574C487.182 82.7007 488.441 85.4302 491.078 87.0213L495.583 80.4195C494.765 79.9262 494.327 79.1765 494.344 77.7459L487.223 79.2574ZM491.078 87.0213C493.386 88.4141 496.673 89.0469 500.558 89.2099L502.368 81.8223C498.864 81.6753 496.729 81.111 495.583 80.4195L491.078 87.0213ZM500.572 89.2104L509.863 89.5586L511.645 82.1699L502.354 81.8218L500.572 89.2104ZM509.872 89.5589C515.109 89.7397 518.564 90.8852 520.654 92.6294L525.799 86.4833C522.453 83.6911 517.593 82.3752 511.636 82.1696L509.872 89.5589ZM520.666 92.6394C522.651 94.2752 523.707 96.7292 523.664 100.361L530.785 98.8493C530.848 93.5636 529.239 89.3185 525.787 86.4733L520.666 92.6394ZM523.664 100.361C523.629 103.269 522.793 105.956 521.152 108.543L526.851 111.593C529.421 107.54 530.733 103.252 530.785 98.8493L523.664 100.361ZM521.139 108.564C519.49 111.195 517.139 113.583 513.931 115.702L516.744 121.702C520.932 118.936 524.358 115.569 526.864 111.571L521.139 108.564ZM513.931 115.702C510.776 117.786 506.999 119.349 502.517 120.3L502.431 127.537C507.703 126.418 512.502 124.503 516.744 121.702L513.931 115.702ZM502.517 120.3C496.623 121.551 492.072 121.223 488.627 119.622L484.623 126.491C489.503 128.758 495.517 129.005 502.431 127.537L502.517 120.3ZM488.627 119.622C485.308 118.081 483.184 115.271 482.296 110.889L475.308 113.85C476.525 119.85 479.616 124.165 484.623 126.491L488.627 119.622ZM479.623 115.697L488.807 111.427L487.163 104.773L477.98 109.042L479.623 115.697ZM484.527 109.736C485.522 113.627 487.55 116.569 490.768 118.178L494.909 111.375C493.318 110.58 492.11 109.071 491.443 106.464L484.527 109.736ZM490.783 118.185C493.969 119.752 497.93 119.874 502.37 118.932L502.456 111.695C498.994 112.429 496.572 112.193 494.894 111.368L490.783 118.185ZM502.37 118.932C507.337 117.877 511.733 115.879 515.205 112.624L511.108 107.64C509.246 109.385 506.481 110.84 502.456 111.695L502.37 118.932ZM515.21 112.619C518.603 109.429 520.757 105.629 520.806 101.465L513.685 102.976C513.67 104.295 513.097 105.77 511.102 107.645L515.21 112.619ZM520.806 101.465C520.844 98.298 519.743 95.7332 517.525 94.0105L512.521 100.269C513.319 100.89 513.7 101.712 513.685 102.976L520.806 101.465ZM517.549 94.0287C515.4 92.3197 512.365 91.6151 508.883 91.5302L507.184 98.9215C510.005 98.9903 511.631 99.5616 512.498 100.251L517.549 94.0287ZM508.888 91.5304L498.454 91.259L496.745 98.65L507.179 98.9214L508.888 91.5304ZM498.463 91.2592C493.087 91.1052 489.636 89.9361 487.626 88.1731L482.386 94.2376C485.701 97.145 490.647 98.4753 496.737 98.6498L498.463 91.2592ZM487.649 88.194C485.677 86.4215 484.649 83.8846 484.692 80.2918L477.571 81.8033C477.509 87.017 479.064 91.252 482.362 94.2167L487.649 88.194ZM484.692 80.2918C484.726 77.4178 485.533 74.8238 487.079 72.3833L481.378 69.337C478.881 73.2796 477.622 77.4771 477.571 81.8033L484.692 80.2918ZM487.065 72.4051C488.703 69.85 490.953 67.5722 493.94 65.5864L491.103 59.6028C487.132 62.2431 483.853 65.4757 481.392 69.3152L487.065 72.4051ZM493.931 65.5927C496.913 63.6207 500.367 62.1769 504.36 61.3294L504.446 54.0923C499.61 55.1188 495.144 56.9308 491.113 59.5964L493.931 65.5927ZM504.36 61.3294C510.088 60.1135 514.089 60.5401 516.781 62.0878L521.191 55.43C516.864 52.9429 511.143 52.6708 504.446 54.0923L504.36 61.3294ZM516.791 62.0937C519.739 63.7702 521.83 66.3595 523.068 69.9787L529.847 66.2446C528.196 61.4167 525.306 57.7708 521.181 55.424L516.791 62.0937Z" fill="white" fill-opacity="0.5" mask="url(#path-15-outside-8_59_66333)"/>
</svg>
