<svg width="440" height="680" viewBox="0 0 440 680" fill="none" xmlns="http://www.w3.org/2000/svg">
<g clip-path="url(#clip0_674_7782)">
<path fill-rule="evenodd" clip-rule="evenodd" d="M127.839 417.863C115.764 420.105 103.054 414.681 96.5584 403.43C88.319 389.159 93.1977 370.917 107.455 362.685C121.713 354.454 139.95 359.349 148.19 373.62C154.685 384.871 153.028 398.59 145.049 407.927L142.377 403.299C148.057 395.589 148.985 384.935 143.887 376.105C137.021 364.212 121.823 360.132 109.942 366.992C98.0604 373.852 93.9949 389.053 100.861 400.946C105.959 409.776 115.65 414.299 125.167 413.235L127.839 417.863Z" fill="#4C5158" fill-opacity="0.5"/>
<path d="M126.285 414.856L121.303 417.732L125.909 425.711L130.891 422.835L126.285 414.856Z" fill="#4C5158" fill-opacity="0.5"/>
<path d="M148.207 402.2L143.225 405.076L147.831 413.055L152.813 410.178L148.207 402.2Z" fill="#4C5158" fill-opacity="0.5"/>
<path fill-rule="evenodd" clip-rule="evenodd" d="M126.556 426.305C124.355 427.576 123.602 430.393 124.874 432.596L125.24 433.231C126.512 435.434 129.328 436.19 131.529 434.919L157.979 419.649C160.18 418.378 160.933 415.561 159.661 413.358L159.294 412.723C158.023 410.52 155.207 409.764 153.006 411.035L126.556 426.305ZM130.109 427.125C129.008 427.76 128.632 429.169 129.268 430.27L129.451 430.588C130.087 431.689 131.495 432.068 132.596 431.433L154.426 418.829C155.527 418.193 155.903 416.785 155.267 415.684L155.083 415.366C154.448 414.264 153.04 413.886 151.939 414.521L130.109 427.125Z" fill="#4C5158" fill-opacity="0.5"/>
<path fill-rule="evenodd" clip-rule="evenodd" d="M131.528 434.92C129.326 436.19 128.573 439.007 129.845 441.21L130.211 441.844C131.483 444.047 134.299 444.803 136.5 443.533L162.95 428.262C165.151 426.991 165.904 424.175 164.632 421.971L164.266 421.337C162.994 419.134 160.178 418.378 157.977 419.649L131.528 434.92ZM135.081 435.739C133.98 436.375 133.603 437.782 134.239 438.884L134.423 439.202C135.059 440.304 136.466 440.681 137.567 440.046L159.397 427.442C160.498 426.807 160.874 425.399 160.238 424.297L160.055 423.98C159.419 422.878 158.011 422.5 156.911 423.136L135.081 435.739Z" fill="#4C5158" fill-opacity="0.5"/>
<path d="M94.2143 336.298C93.5783 335.196 92.1705 334.819 91.0699 335.454C89.9693 336.089 89.5927 337.498 90.2288 338.599L97.1385 350.567C97.7745 351.669 99.1823 352.047 100.283 351.411C101.383 350.776 101.76 349.368 101.124 348.266L94.2143 336.298Z" fill="#4C5158" fill-opacity="0.5"/>
<path d="M71.0683 353.563C69.8403 353.233 68.5786 353.962 68.2501 355.19C67.9216 356.418 68.6507 357.681 69.8787 358.011L83.2193 361.592C84.4473 361.922 85.709 361.193 86.0375 359.965C86.366 358.737 85.6369 357.474 84.4089 357.144L71.0683 353.563Z" fill="#4C5158" fill-opacity="0.5"/>
<path d="M121.39 329.407C121.719 328.179 120.989 326.916 119.762 326.586C118.534 326.256 117.272 326.985 116.943 328.213L113.375 341.557C113.046 342.785 113.775 344.048 115.003 344.378C116.231 344.708 117.493 343.979 117.821 342.751L121.39 329.407Z" fill="#4C5158" fill-opacity="0.5"/>
<path fill-rule="evenodd" clip-rule="evenodd" d="M295.839 482.863C283.764 485.105 271.054 479.681 264.558 468.43C256.319 454.159 261.198 435.917 275.455 427.685C289.713 419.454 307.95 424.349 316.19 438.62C322.685 449.871 321.028 463.59 313.049 472.927L310.377 468.299C316.057 460.589 316.985 449.935 311.887 441.105C305.021 429.212 289.823 425.132 277.942 431.992C266.06 438.852 261.995 454.053 268.861 465.946C273.959 474.776 283.65 479.299 293.167 478.235L295.839 482.863Z" fill="#4C5158" fill-opacity="0.5"/>
<path d="M294.285 479.856L289.303 482.732L293.909 490.711L298.891 487.835L294.285 479.856Z" fill="#4C5158" fill-opacity="0.5"/>
<path d="M316.207 467.2L311.225 470.076L315.831 478.055L320.813 475.178L316.207 467.2Z" fill="#4C5158" fill-opacity="0.5"/>
<path fill-rule="evenodd" clip-rule="evenodd" d="M294.556 491.305C292.355 492.576 291.602 495.393 292.874 497.596L293.24 498.231C294.512 500.434 297.328 501.19 299.529 499.919L325.979 484.649C328.18 483.378 328.933 480.561 327.661 478.358L327.294 477.723C326.023 475.52 323.207 474.764 321.006 476.035L294.556 491.305ZM298.109 492.125C297.008 492.76 296.632 494.169 297.268 495.27L297.451 495.588C298.087 496.689 299.495 497.068 300.596 496.433L322.426 483.829C323.527 483.193 323.903 481.785 323.267 480.684L323.083 480.366C322.448 479.264 321.04 478.886 319.939 479.521L298.109 492.125Z" fill="#4C5158" fill-opacity="0.5"/>
<path fill-rule="evenodd" clip-rule="evenodd" d="M299.528 499.92C297.326 501.19 296.573 504.007 297.845 506.21L298.211 506.844C299.483 509.047 302.299 509.803 304.5 508.533L330.95 493.262C333.151 491.991 333.904 489.175 332.632 486.971L332.266 486.337C330.994 484.134 328.178 483.378 325.977 484.649L299.528 499.92ZM303.081 500.739C301.98 501.375 301.603 502.782 302.239 503.884L302.423 504.202C303.059 505.304 304.466 505.681 305.567 505.046L327.397 492.442C328.498 491.807 328.874 490.399 328.238 489.297L328.055 488.98C327.419 487.878 326.011 487.5 324.911 488.136L303.081 500.739Z" fill="#4C5158" fill-opacity="0.5"/>
<path d="M262.214 401.298C261.578 400.196 260.171 399.819 259.07 400.454C257.969 401.089 257.593 402.498 258.229 403.599L265.138 415.567C265.775 416.669 267.182 417.047 268.283 416.411C269.383 415.776 269.76 414.368 269.124 413.266L262.214 401.298Z" fill="#4C5158" fill-opacity="0.5"/>
<path d="M239.068 418.563C237.84 418.233 236.579 418.962 236.25 420.19C235.922 421.418 236.651 422.681 237.879 423.011L251.219 426.592C252.447 426.922 253.709 426.193 254.038 424.965C254.366 423.737 253.637 422.474 252.409 422.144L239.068 418.563Z" fill="#4C5158" fill-opacity="0.5"/>
<path d="M289.39 394.407C289.719 393.179 288.989 391.916 287.762 391.586C286.534 391.256 285.272 391.985 284.943 393.213L281.375 406.557C281.046 407.785 281.775 409.048 283.003 409.378C284.231 409.708 285.493 408.979 285.821 407.751L289.39 394.407Z" fill="#4C5158" fill-opacity="0.5"/>
<path fill-rule="evenodd" clip-rule="evenodd" d="M261.839 660.863C249.764 663.105 237.054 657.681 230.558 646.43C222.319 632.159 227.198 613.917 241.455 605.685C255.713 597.454 273.95 602.349 282.19 616.62C288.685 627.871 287.028 641.59 279.049 650.927L276.377 646.299C282.057 638.589 282.985 627.935 277.887 619.105C271.021 607.212 255.823 603.132 243.942 609.992C232.06 616.852 227.995 632.053 234.861 643.946C239.959 652.776 249.65 657.299 259.167 656.235L261.839 660.863Z" fill="#4C5158" fill-opacity="0.5"/>
<path d="M260.285 657.856L255.303 660.732L259.909 668.711L264.891 665.835L260.285 657.856Z" fill="#4C5158" fill-opacity="0.5"/>
<path d="M282.207 645.2L277.225 648.076L281.831 656.055L286.813 653.178L282.207 645.2Z" fill="#4C5158" fill-opacity="0.5"/>
<path fill-rule="evenodd" clip-rule="evenodd" d="M260.556 669.305C258.355 670.576 257.602 673.393 258.874 675.596L259.24 676.231C260.512 678.434 263.328 679.19 265.529 677.919L291.979 662.649C294.18 661.378 294.933 658.561 293.661 656.358L293.294 655.723C292.023 653.52 289.207 652.764 287.006 654.035L260.556 669.305ZM264.109 670.125C263.008 670.76 262.632 672.169 263.268 673.27L263.451 673.588C264.087 674.689 265.495 675.068 266.596 674.433L288.426 661.829C289.527 661.193 289.903 659.785 289.267 658.684L289.083 658.366C288.448 657.264 287.04 656.886 285.939 657.521L264.109 670.125Z" fill="#4C5158" fill-opacity="0.5"/>
<path fill-rule="evenodd" clip-rule="evenodd" d="M265.528 677.92C263.326 679.19 262.573 682.007 263.845 684.21L264.211 684.844C265.483 687.047 268.299 687.803 270.5 686.533L296.95 671.262C299.151 669.991 299.904 667.175 298.632 664.971L298.266 664.337C296.994 662.134 294.178 661.378 291.977 662.649L265.528 677.92ZM269.081 678.739C267.98 679.375 267.603 680.782 268.239 681.884L268.423 682.202C269.059 683.304 270.466 683.681 271.567 683.046L293.397 670.442C294.498 669.807 294.874 668.399 294.238 667.297L294.055 666.98C293.419 665.878 292.011 665.5 290.911 666.136L269.081 678.739Z" fill="#4C5158" fill-opacity="0.5"/>
<path d="M228.214 579.298C227.578 578.196 226.171 577.819 225.07 578.454C223.969 579.089 223.593 580.498 224.229 581.599L231.138 593.567C231.775 594.669 233.182 595.047 234.283 594.411C235.383 593.776 235.76 592.368 235.124 591.266L228.214 579.298Z" fill="#4C5158" fill-opacity="0.5"/>
<path d="M205.068 596.563C203.84 596.233 202.579 596.962 202.25 598.19C201.922 599.418 202.651 600.681 203.879 601.011L217.219 604.592C218.447 604.922 219.709 604.193 220.038 602.965C220.366 601.737 219.637 600.474 218.409 600.144L205.068 596.563Z" fill="#4C5158" fill-opacity="0.5"/>
<path d="M255.39 572.407C255.719 571.179 254.989 569.916 253.762 569.586C252.534 569.256 251.272 569.985 250.943 571.213L247.375 584.557C247.046 585.785 247.775 587.048 249.003 587.378C250.231 587.708 251.493 586.979 251.821 585.751L255.39 572.407Z" fill="#4C5158" fill-opacity="0.5"/>
<path fill-rule="evenodd" clip-rule="evenodd" d="M429.839 713.863C417.764 716.105 405.054 710.681 398.558 699.43C390.319 685.159 395.198 666.917 409.455 658.685C423.713 650.454 441.95 655.349 450.19 669.62C456.685 680.871 455.028 694.59 447.049 703.927L444.377 699.299C450.057 691.589 450.985 680.935 445.887 672.105C439.021 660.212 423.823 656.132 411.942 662.992C400.06 669.852 395.995 685.053 402.861 696.946C407.959 705.776 417.65 710.299 427.167 709.235L429.839 713.863Z" fill="#4C5158" fill-opacity="0.5"/>
<path d="M396.214 632.298C395.578 631.196 394.171 630.819 393.07 631.454C391.969 632.089 391.593 633.498 392.229 634.599L399.138 646.567C399.775 647.669 401.182 648.047 402.283 647.411C403.383 646.776 403.76 645.368 403.124 644.266L396.214 632.298Z" fill="#4C5158" fill-opacity="0.5"/>
<path d="M373.068 649.563C371.84 649.233 370.579 649.962 370.25 651.19C369.922 652.418 370.651 653.681 371.879 654.011L385.219 657.592C386.447 657.922 387.709 657.193 388.038 655.965C388.366 654.737 387.637 653.474 386.409 653.144L373.068 649.563Z" fill="#4C5158" fill-opacity="0.5"/>
<path d="M423.39 625.407C423.719 624.179 422.989 622.916 421.762 622.586C420.534 622.256 419.272 622.985 418.943 624.213L415.375 637.557C415.046 638.785 415.775 640.048 417.003 640.378C418.231 640.708 419.493 639.979 419.821 638.751L423.39 625.407Z" fill="#4C5158" fill-opacity="0.5"/>
<path fill-rule="evenodd" clip-rule="evenodd" d="M101.839 586.863C89.764 589.105 77.0541 583.681 70.5584 572.43C62.319 558.159 67.1977 539.917 81.4553 531.685C95.7129 523.454 113.95 528.349 122.19 542.62C128.685 553.871 127.028 567.59 119.049 576.927L116.377 572.299C122.057 564.589 122.985 553.935 117.887 545.105C111.021 533.212 95.8231 529.132 83.9418 535.992C72.0604 542.852 67.9949 558.053 74.8611 569.946C79.9591 578.776 89.6502 583.299 99.1668 582.235L101.839 586.863Z" fill="#4C5158" fill-opacity="0.5"/>
<path d="M100.285 583.856L95.3027 586.732L99.9092 594.711L104.891 591.835L100.285 583.856Z" fill="#4C5158" fill-opacity="0.5"/>
<path d="M122.207 571.2L117.225 574.076L121.831 582.055L126.813 579.178L122.207 571.2Z" fill="#4C5158" fill-opacity="0.5"/>
<path fill-rule="evenodd" clip-rule="evenodd" d="M100.556 595.305C98.3548 596.576 97.6016 599.393 98.8736 601.596L99.2403 602.231C100.512 604.434 103.328 605.19 105.529 603.919L131.979 588.649C134.18 587.378 134.933 584.561 133.661 582.358L133.294 581.723C132.023 579.52 129.207 578.764 127.006 580.035L100.556 595.305ZM104.109 596.125C103.008 596.76 102.632 598.169 103.268 599.27L103.451 599.588C104.087 600.689 105.495 601.068 106.596 600.433L128.426 587.829C129.527 587.193 129.903 585.785 129.267 584.684L129.083 584.366C128.448 583.264 127.04 582.886 125.939 583.521L104.109 596.125Z" fill="#4C5158" fill-opacity="0.5"/>
<path fill-rule="evenodd" clip-rule="evenodd" d="M105.528 603.92C103.326 605.19 102.573 608.007 103.845 610.21L104.211 610.844C105.483 613.047 108.299 613.803 110.5 612.533L136.95 597.262C139.151 595.991 139.904 593.175 138.632 590.971L138.266 590.337C136.994 588.134 134.178 587.378 131.977 588.649L105.528 603.92ZM109.081 604.739C107.98 605.375 107.603 606.782 108.239 607.884L108.423 608.202C109.059 609.304 110.466 609.681 111.567 609.046L133.397 596.442C134.498 595.807 134.874 594.399 134.238 593.297L134.055 592.98C133.419 591.878 132.011 591.5 130.911 592.136L109.081 604.739Z" fill="#4C5158" fill-opacity="0.5"/>
<path d="M68.2143 505.298C67.5783 504.196 66.1705 503.819 65.0699 504.454C63.9693 505.089 63.5927 506.498 64.2288 507.599L71.1385 519.567C71.7745 520.669 73.1823 521.047 74.2829 520.411C75.3835 519.776 75.7601 518.368 75.1241 517.266L68.2143 505.298Z" fill="#4C5158" fill-opacity="0.5"/>
<path d="M45.0683 522.563C43.8403 522.233 42.5786 522.962 42.2501 524.19C41.9216 525.418 42.6507 526.681 43.8787 527.011L57.2193 530.592C58.4473 530.922 59.709 530.193 60.0375 528.965C60.366 527.737 59.6369 526.474 58.4089 526.144L45.0683 522.563Z" fill="#4C5158" fill-opacity="0.5"/>
<path d="M95.3902 498.407C95.7187 497.179 94.9895 495.916 93.7615 495.586C92.5336 495.256 91.2718 495.985 90.9433 497.213L87.3745 510.557C87.046 511.785 87.7752 513.048 89.0032 513.378C90.2311 513.708 91.4929 512.979 91.8214 511.751L95.3902 498.407Z" fill="#4C5158" fill-opacity="0.5"/>
<path fill-rule="evenodd" clip-rule="evenodd" d="M314.839 317.863C302.764 320.105 290.054 314.681 283.558 303.43C275.319 289.159 280.198 270.917 294.455 262.685C308.713 254.454 326.95 259.349 335.19 273.62C341.685 284.871 340.028 298.59 332.049 307.927L329.377 303.299C335.057 295.589 335.985 284.935 330.887 276.105C324.021 264.212 308.823 260.132 296.942 266.992C285.06 273.852 280.995 289.053 287.861 300.946C292.959 309.776 302.65 314.299 312.167 313.235L314.839 317.863Z" fill="#4C5158" fill-opacity="0.5"/>
<path d="M313.285 314.856L308.303 317.732L312.909 325.711L317.891 322.835L313.285 314.856Z" fill="#4C5158" fill-opacity="0.5"/>
<path d="M335.207 302.2L330.225 305.076L334.831 313.055L339.813 310.178L335.207 302.2Z" fill="#4C5158" fill-opacity="0.5"/>
<path fill-rule="evenodd" clip-rule="evenodd" d="M313.556 326.305C311.355 327.576 310.602 330.393 311.874 332.596L312.24 333.231C313.512 335.434 316.328 336.19 318.529 334.919L344.979 319.649C347.18 318.378 347.933 315.561 346.661 313.358L346.294 312.723C345.023 310.52 342.207 309.764 340.006 311.035L313.556 326.305ZM317.109 327.125C316.008 327.76 315.632 329.169 316.268 330.27L316.451 330.588C317.087 331.689 318.495 332.068 319.596 331.433L341.426 318.829C342.527 318.193 342.903 316.785 342.267 315.684L342.083 315.366C341.448 314.264 340.04 313.886 338.939 314.521L317.109 327.125Z" fill="#4C5158" fill-opacity="0.5"/>
<path fill-rule="evenodd" clip-rule="evenodd" d="M318.528 334.92C316.326 336.19 315.573 339.007 316.845 341.21L317.211 341.844C318.483 344.047 321.299 344.803 323.5 343.533L349.95 328.262C352.151 326.991 352.904 324.175 351.632 321.971L351.266 321.337C349.994 319.134 347.178 318.378 344.977 319.649L318.528 334.92ZM322.081 335.739C320.98 336.375 320.603 337.782 321.239 338.884L321.423 339.202C322.059 340.304 323.466 340.681 324.567 340.046L346.397 327.442C347.498 326.807 347.874 325.399 347.238 324.297L347.055 323.98C346.419 322.878 345.011 322.5 343.911 323.136L322.081 335.739Z" fill="#4C5158" fill-opacity="0.5"/>
<path d="M281.214 236.298C280.578 235.196 279.171 234.819 278.07 235.454C276.969 236.089 276.593 237.498 277.229 238.599L284.138 250.567C284.775 251.669 286.182 252.047 287.283 251.411C288.383 250.776 288.76 249.368 288.124 248.266L281.214 236.298Z" fill="#4C5158" fill-opacity="0.5"/>
<path d="M258.068 253.563C256.84 253.233 255.579 253.962 255.25 255.19C254.922 256.418 255.651 257.681 256.879 258.011L270.219 261.592C271.447 261.922 272.709 261.193 273.038 259.965C273.366 258.737 272.637 257.474 271.409 257.144L258.068 253.563Z" fill="#4C5158" fill-opacity="0.5"/>
<path d="M308.39 229.407C308.719 228.179 307.989 226.916 306.762 226.586C305.534 226.256 304.272 226.985 303.943 228.213L300.375 241.557C300.046 242.785 300.775 244.048 302.003 244.378C303.231 244.708 304.493 243.979 304.821 242.751L308.39 229.407Z" fill="#4C5158" fill-opacity="0.5"/>
<path fill-rule="evenodd" clip-rule="evenodd" d="M167.839 243.863C155.764 246.105 143.054 240.681 136.558 229.43C128.319 215.159 133.198 196.917 147.455 188.685C161.713 180.454 179.95 185.349 188.19 199.62C194.685 210.871 193.028 224.59 185.049 233.927L182.377 229.299C188.057 221.589 188.985 210.935 183.887 202.105C177.021 190.212 161.823 186.132 149.942 192.992C138.06 199.852 133.995 215.053 140.861 226.946C145.959 235.776 155.65 240.299 165.167 239.235L167.839 243.863Z" fill="#4C5158" fill-opacity="0.5"/>
<path d="M166.285 240.856L161.303 243.732L165.909 251.711L170.891 248.835L166.285 240.856Z" fill="#4C5158" fill-opacity="0.5"/>
<path d="M188.207 228.2L183.225 231.076L187.831 239.055L192.813 236.178L188.207 228.2Z" fill="#4C5158" fill-opacity="0.5"/>
<path fill-rule="evenodd" clip-rule="evenodd" d="M166.556 252.305C164.355 253.576 163.602 256.393 164.874 258.596L165.24 259.231C166.512 261.434 169.328 262.19 171.529 260.919L197.979 245.649C200.18 244.378 200.933 241.561 199.661 239.358L199.294 238.723C198.023 236.52 195.207 235.764 193.006 237.035L166.556 252.305ZM170.109 253.125C169.008 253.76 168.632 255.169 169.268 256.27L169.451 256.588C170.087 257.689 171.495 258.068 172.596 257.433L194.426 244.829C195.527 244.193 195.903 242.785 195.267 241.684L195.083 241.366C194.448 240.264 193.04 239.886 191.939 240.521L170.109 253.125Z" fill="#4C5158" fill-opacity="0.5"/>
<path fill-rule="evenodd" clip-rule="evenodd" d="M171.528 260.92C169.326 262.19 168.573 265.007 169.845 267.21L170.211 267.844C171.483 270.047 174.299 270.803 176.5 269.533L202.95 254.262C205.151 252.991 205.904 250.175 204.632 247.971L204.266 247.337C202.994 245.134 200.178 244.378 197.977 245.649L171.528 260.92ZM175.081 261.739C173.98 262.375 173.603 263.782 174.239 264.884L174.423 265.202C175.059 266.304 176.466 266.681 177.567 266.046L199.397 253.442C200.498 252.807 200.874 251.399 200.238 250.297L200.055 249.98C199.419 248.878 198.011 248.5 196.911 249.136L175.081 261.739Z" fill="#4C5158" fill-opacity="0.5"/>
<path d="M134.214 162.298C133.578 161.196 132.171 160.819 131.07 161.454C129.969 162.089 129.593 163.498 130.229 164.599L137.138 176.567C137.775 177.669 139.182 178.047 140.283 177.411C141.383 176.776 141.76 175.368 141.124 174.266L134.214 162.298Z" fill="#4C5158" fill-opacity="0.5"/>
<path d="M111.068 179.563C109.84 179.233 108.579 179.962 108.25 181.19C107.922 182.418 108.651 183.681 109.879 184.011L123.219 187.592C124.447 187.922 125.709 187.193 126.038 185.965C126.366 184.737 125.637 183.474 124.409 183.144L111.068 179.563Z" fill="#4C5158" fill-opacity="0.5"/>
<path d="M161.39 155.407C161.719 154.179 160.989 152.916 159.762 152.586C158.534 152.256 157.272 152.985 156.943 154.213L153.375 167.557C153.046 168.785 153.775 170.048 155.003 170.378C156.231 170.708 157.493 169.979 157.821 168.751L161.39 155.407Z" fill="#4C5158" fill-opacity="0.5"/>
<path fill-rule="evenodd" clip-rule="evenodd" d="M29.8387 15.8629C17.764 18.1047 5.05408 12.6807 -1.44163 1.42982C-9.68101 -12.8412 -4.80228 -31.0832 9.45532 -39.3148C23.7129 -47.5465 41.9503 -42.6506 50.1897 -28.3795C56.6854 -17.1286 55.0278 -3.40973 47.0491 5.9265L44.3772 1.29859C50.0567 -6.41103 50.9852 -17.0652 45.8871 -25.8953C39.021 -37.7878 23.8231 -41.8677 11.9418 -35.0081C0.0604377 -28.1483 -4.00508 -12.9467 2.86105 -1.0542C7.9591 7.77588 17.6502 12.299 27.1668 11.235L29.8387 15.8629Z" fill="#4C5158" fill-opacity="0.5"/>
<path d="M28.2847 12.8561L23.3027 15.7324L27.9092 23.7111L32.8912 20.8347L28.2847 12.8561Z" fill="#4C5158" fill-opacity="0.5"/>
<path d="M50.2066 0.199831L45.2246 3.07617L49.8311 11.0548L54.8131 8.17849L50.2066 0.199831Z" fill="#4C5158" fill-opacity="0.5"/>
<path fill-rule="evenodd" clip-rule="evenodd" d="M28.5559 24.3054C26.3548 25.5762 25.6016 28.3927 26.8736 30.5958L27.2403 31.2311C28.5123 33.4342 31.328 34.1902 33.5292 32.9193L59.9789 17.6485C62.1801 16.3777 62.9332 13.5613 61.6613 11.3581L61.2945 10.7228C60.0225 8.51974 57.2068 7.76377 55.0057 9.03459L28.5559 24.3054ZM32.1089 25.125C31.0084 25.7604 30.632 27.1692 31.2677 28.2702L31.4514 28.5884C32.0871 29.6894 33.4953 30.0679 34.5958 29.4325L56.4259 16.8289C57.5265 16.1935 57.9028 14.7848 57.2671 13.6837L57.0834 13.3655C56.4477 12.2645 55.0396 11.886 53.939 12.5214L32.1089 25.125Z" fill="#4C5158" fill-opacity="0.5"/>
<path fill-rule="evenodd" clip-rule="evenodd" d="M33.5276 32.9196C31.3264 34.1905 30.5733 37.0069 31.8452 39.21L32.2114 39.8443C33.4834 42.0474 36.2991 42.8034 38.5003 41.5326L64.95 26.2618C67.1512 24.991 67.9043 22.1745 66.6324 19.9714L66.2662 19.3371C64.9942 17.134 62.1785 16.378 59.9773 17.6488L33.5276 32.9196ZM37.0806 33.7393C35.9801 34.3747 35.6031 35.7824 36.2394 36.8845L36.4225 37.2016C37.0588 38.3037 38.4664 38.6812 39.5669 38.0458L61.397 25.4422C62.4976 24.8067 62.8745 23.399 62.2382 22.297L62.0551 21.9798C61.4188 20.8778 60.0113 20.5002 58.9107 21.1357L37.0806 33.7393Z" fill="#4C5158" fill-opacity="0.5"/>
<path fill-rule="evenodd" clip-rule="evenodd" d="M-4.16132 341.863C-16.236 344.105 -28.9459 338.681 -35.4416 327.43C-43.681 313.159 -38.8023 294.917 -24.5447 286.685C-10.2871 278.454 7.95033 283.349 16.1897 297.62C22.6854 308.871 21.0278 322.59 13.0491 331.927L10.3772 327.299C16.0567 319.589 16.9852 308.935 11.8871 300.105C5.021 288.212 -10.1769 284.132 -22.0582 290.992C-33.9396 297.852 -38.0051 313.053 -31.1389 324.946C-26.0409 333.776 -16.3498 338.299 -6.83325 337.235L-4.16132 341.863Z" fill="#4C5158" fill-opacity="0.5"/>
<path d="M16.2066 326.2L11.2246 329.076L15.8311 337.055L20.8131 334.178L16.2066 326.2Z" fill="#4C5158" fill-opacity="0.5"/>
<path fill-rule="evenodd" clip-rule="evenodd" d="M-5.44411 350.305C-7.64525 351.576 -8.39841 354.393 -7.12645 356.596L-6.75966 357.231C-5.48769 359.434 -2.67198 360.19 -0.470842 358.919L25.9789 343.649C28.1801 342.378 28.9332 339.561 27.6613 337.358L27.2945 336.723C26.0225 334.52 23.2068 333.764 21.0057 335.035L-5.44411 350.305ZM-1.8911 351.125C-2.99161 351.76 -3.36796 353.169 -2.73227 354.27L-2.54858 354.588C-1.91289 355.689 -0.504691 356.068 0.595826 355.433L22.4259 342.829C23.5265 342.193 23.9028 340.785 23.2671 339.684L23.0834 339.366C22.4477 338.264 21.0396 337.886 19.939 338.521L-1.8911 351.125Z" fill="#4C5158" fill-opacity="0.5"/>
<path fill-rule="evenodd" clip-rule="evenodd" d="M-0.472433 358.92C-2.67357 360.19 -3.42673 363.007 -2.15477 365.21L-1.78855 365.844C-0.516588 368.047 2.29913 368.803 4.50026 367.533L30.95 352.262C33.1512 350.991 33.9043 348.175 32.6324 345.971L32.2662 345.337C30.9942 343.134 28.1785 342.378 25.9773 343.649L-0.472433 358.92ZM3.08058 359.739C1.98007 360.375 1.60314 361.782 2.23941 362.884L2.42252 363.202C3.05879 364.304 4.46641 364.681 5.56693 364.046L27.397 351.442C28.4976 350.807 28.8745 349.399 28.2382 348.297L28.0551 347.98C27.4188 346.878 26.0113 346.5 24.9107 347.136L3.08058 359.739Z" fill="#4C5158" fill-opacity="0.5"/>
<path fill-rule="evenodd" clip-rule="evenodd" d="M445.839 552.863C433.764 555.105 421.054 549.681 414.558 538.43C406.319 524.159 411.198 505.917 425.455 497.685C439.713 489.454 457.95 494.349 466.19 508.62C472.685 519.871 471.028 533.59 463.049 542.927L460.377 538.299C466.057 530.589 466.985 519.935 461.887 511.105C455.021 499.212 439.823 495.132 427.942 501.992C416.06 508.852 411.995 524.053 418.861 535.946C423.959 544.776 433.65 549.299 443.167 548.235L445.839 552.863Z" fill="#4C5158" fill-opacity="0.5"/>
<path d="M444.285 549.856L439.303 552.732L443.91 560.711L448.892 557.835L444.285 549.856Z" fill="#4C5158" fill-opacity="0.5"/>
<path d="M412.214 471.298C411.578 470.196 410.171 469.819 409.07 470.454C407.969 471.089 407.593 472.498 408.229 473.599L415.138 485.567C415.775 486.669 417.182 487.047 418.283 486.411C419.383 485.776 419.76 484.368 419.124 483.266L412.214 471.298Z" fill="#4C5158" fill-opacity="0.5"/>
<path d="M389.068 488.563C387.84 488.233 386.579 488.962 386.25 490.19C385.922 491.418 386.651 492.681 387.879 493.011L401.219 496.592C402.447 496.922 403.709 496.193 404.038 494.965C404.366 493.737 403.637 492.474 402.409 492.144L389.068 488.563Z" fill="#4C5158" fill-opacity="0.5"/>
<path d="M439.39 464.407C439.719 463.179 438.989 461.916 437.762 461.586C436.534 461.256 435.272 461.985 434.943 463.213L431.375 476.557C431.046 477.785 431.775 479.048 433.003 479.378C434.231 479.708 435.493 478.979 435.821 477.751L439.39 464.407Z" fill="#4C5158" fill-opacity="0.5"/>
<path fill-rule="evenodd" clip-rule="evenodd" d="M352.839 144.863C340.764 147.105 328.054 141.681 321.558 130.43C313.319 116.159 318.198 97.9168 332.455 89.6852C346.713 81.4535 364.95 86.3494 373.19 100.62C379.685 111.871 378.028 125.59 370.049 134.927L367.377 130.299C373.057 122.589 373.985 111.935 368.887 103.105C362.021 91.2122 346.823 87.1323 334.942 93.9919C323.06 100.852 318.995 116.053 325.861 127.946C330.959 136.776 340.65 141.299 350.167 140.235L352.839 144.863Z" fill="#4C5158" fill-opacity="0.5"/>
<path d="M351.285 141.856L346.303 144.732L350.91 152.711L355.892 149.835L351.285 141.856Z" fill="#4C5158" fill-opacity="0.5"/>
<path d="M373.206 129.2L368.224 132.076L372.831 140.055L377.813 137.178L373.206 129.2Z" fill="#4C5158" fill-opacity="0.5"/>
<path fill-rule="evenodd" clip-rule="evenodd" d="M351.556 153.305C349.355 154.576 348.602 157.393 349.874 159.596L350.24 160.231C351.512 162.434 354.328 163.19 356.529 161.919L382.979 146.649C385.18 145.378 385.933 142.561 384.661 140.358L384.294 139.723C383.023 137.52 380.207 136.764 378.006 138.035L351.556 153.305ZM355.109 154.125C354.008 154.76 353.632 156.169 354.268 157.27L354.451 157.588C355.087 158.689 356.495 159.068 357.596 158.433L379.426 145.829C380.527 145.193 380.903 143.785 380.267 142.684L380.083 142.366C379.448 141.264 378.04 140.886 376.939 141.521L355.109 154.125Z" fill="#4C5158" fill-opacity="0.5"/>
<path fill-rule="evenodd" clip-rule="evenodd" d="M356.528 161.92C354.326 163.19 353.573 166.007 354.845 168.21L355.211 168.844C356.483 171.047 359.299 171.803 361.5 170.533L387.95 155.262C390.151 153.991 390.904 151.175 389.632 148.971L389.266 148.337C387.994 146.134 385.178 145.378 382.977 146.649L356.528 161.92ZM360.081 162.739C358.98 163.375 358.603 164.782 359.239 165.884L359.423 166.202C360.059 167.304 361.466 167.681 362.567 167.046L384.397 154.442C385.498 153.807 385.874 152.399 385.238 151.297L385.055 150.98C384.419 149.878 383.011 149.5 381.911 150.136L360.081 162.739Z" fill="#4C5158" fill-opacity="0.5"/>
<path d="M319.214 63.2981C318.578 62.1965 317.171 61.8185 316.07 62.454C314.969 63.0894 314.593 64.4975 315.229 65.5992L322.138 77.5671C322.775 78.6688 324.182 79.0467 325.283 78.4113C326.383 77.7758 326.76 76.3677 326.124 75.2661L319.214 63.2981Z" fill="#4C5158" fill-opacity="0.5"/>
<path d="M296.068 80.563C294.84 80.2333 293.579 80.9618 293.25 82.1901C292.922 83.4183 293.651 84.6813 294.879 85.011L308.219 88.5923C309.447 88.9219 310.709 88.1935 311.038 86.9652C311.366 85.7369 310.637 84.4739 309.409 84.1443L296.068 80.563Z" fill="#4C5158" fill-opacity="0.5"/>
<path d="M346.39 56.407C346.719 55.1787 345.989 53.9158 344.762 53.5861C343.534 53.2565 342.272 53.985 341.943 55.2133L338.375 68.5572C338.046 69.7855 338.775 71.0484 340.003 71.3781C341.231 71.7077 342.493 70.9793 342.821 69.751L346.39 56.407Z" fill="#4C5158" fill-opacity="0.5"/>
<path fill-rule="evenodd" clip-rule="evenodd" d="M473.839 223.863C461.764 226.105 449.054 220.681 442.558 209.43C434.319 195.159 439.198 176.917 453.455 168.685C467.713 160.454 485.95 165.349 494.19 179.62C500.685 190.871 499.028 204.59 491.049 213.927L488.377 209.299C494.057 201.589 494.985 190.935 489.887 182.105C483.021 170.212 467.823 166.132 455.942 172.992C444.06 179.852 439.995 195.053 446.861 206.946C451.959 215.776 461.65 220.299 471.167 219.235L473.839 223.863Z" fill="#4C5158" fill-opacity="0.5"/>
<path d="M440.214 142.298C439.578 141.196 438.171 140.819 437.07 141.454C435.969 142.089 435.593 143.498 436.229 144.599L443.138 156.567C443.775 157.669 445.182 158.047 446.283 157.411C447.383 156.776 447.76 155.368 447.124 154.266L440.214 142.298Z" fill="#4C5158" fill-opacity="0.5"/>
<path d="M417.068 159.563C415.84 159.233 414.579 159.962 414.25 161.19C413.922 162.418 414.651 163.681 415.879 164.011L429.219 167.592C430.447 167.922 431.709 167.193 432.038 165.965C432.366 164.737 431.637 163.474 430.409 163.144L417.068 159.563Z" fill="#4C5158" fill-opacity="0.5"/>
<path fill-rule="evenodd" clip-rule="evenodd" d="M183.839 76.8629C171.764 79.1047 159.054 73.6807 152.558 62.4298C144.319 48.1588 149.198 29.9168 163.455 21.6852C177.713 13.4535 195.95 18.3494 204.19 32.6205C210.685 43.8714 209.028 57.5903 201.049 66.9265L198.377 62.2986C204.057 54.589 204.985 43.9348 199.887 35.1047C193.021 23.2122 177.823 19.1323 165.942 25.9919C154.06 32.8517 149.995 48.0533 156.861 59.9458C161.959 68.7759 171.65 73.299 181.167 72.235L183.839 76.8629Z" fill="#4C5158" fill-opacity="0.5"/>
<path d="M182.285 73.8561L177.303 76.7324L181.909 84.7111L186.891 81.8347L182.285 73.8561Z" fill="#4C5158" fill-opacity="0.5"/>
<path d="M204.207 61.1998L199.225 64.0762L203.831 72.0548L208.813 69.1785L204.207 61.1998Z" fill="#4C5158" fill-opacity="0.5"/>
<path fill-rule="evenodd" clip-rule="evenodd" d="M182.556 85.3054C180.355 86.5762 179.602 89.3927 180.874 91.5958L181.24 92.2311C182.512 94.4342 185.328 95.1902 187.529 93.9193L213.979 78.6485C216.18 77.3777 216.933 74.5613 215.661 72.3581L215.294 71.7228C214.023 69.5197 211.207 68.7638 209.006 70.0346L182.556 85.3054ZM186.109 86.125C185.008 86.7604 184.632 88.1692 185.268 89.2702L185.451 89.5884C186.087 90.6894 187.495 91.0679 188.596 90.4325L210.426 77.8289C211.527 77.1935 211.903 75.7848 211.267 74.6837L211.083 74.3655C210.448 73.2645 209.04 72.886 207.939 73.5214L186.109 86.125Z" fill="#4C5158" fill-opacity="0.5"/>
<path fill-rule="evenodd" clip-rule="evenodd" d="M187.528 93.9196C185.326 95.1905 184.573 98.0069 185.845 100.21L186.211 100.844C187.483 103.047 190.299 103.803 192.5 102.533L218.95 87.2618C221.151 85.991 221.904 83.1745 220.632 80.9714L220.266 80.3371C218.994 78.134 216.178 77.378 213.977 78.6488L187.528 93.9196ZM191.081 94.7393C189.98 95.3747 189.603 96.7824 190.239 97.8845L190.423 98.2016C191.059 99.3037 192.466 99.6812 193.567 99.0458L215.397 86.4422C216.498 85.8067 216.874 84.399 216.238 83.297L216.055 82.9798C215.419 81.8778 214.011 81.5002 212.911 82.1357L191.081 94.7393Z" fill="#4C5158" fill-opacity="0.5"/>
<path d="M150.214 -4.70192C149.578 -5.80354 148.171 -6.18147 147.07 -5.54604C145.969 -4.91062 145.593 -3.50247 146.229 -2.40084L153.138 9.56714C153.775 10.6688 155.182 11.0467 156.283 10.4113C157.383 9.77585 157.76 8.36769 157.124 7.26607L150.214 -4.70192Z" fill="#4C5158" fill-opacity="0.5"/>
<path d="M127.068 12.563C125.84 12.2333 124.579 12.9618 124.25 14.1901C123.922 15.4183 124.651 16.6813 125.879 17.011L139.219 20.5923C140.447 20.9219 141.709 20.1935 142.038 18.9652C142.366 17.7369 141.637 16.4739 140.409 16.1443L127.068 12.563Z" fill="#4C5158" fill-opacity="0.5"/>
<path d="M177.39 -11.593C177.719 -12.8213 176.989 -14.0842 175.762 -14.4139C174.534 -14.7435 173.272 -14.015 172.943 -12.7867L169.375 0.557206C169.046 1.78548 169.775 3.04843 171.003 3.37809C172.231 3.70774 173.493 2.97926 173.821 1.75098L177.39 -11.593Z" fill="#4C5158" fill-opacity="0.5"/>
<path fill-rule="evenodd" clip-rule="evenodd" d="M1.83868 180.863C-10.236 183.105 -22.9459 177.681 -29.4416 166.43C-37.681 152.159 -32.8023 133.917 -18.5447 125.685C-4.28708 117.454 13.9503 122.349 22.1897 136.62C28.6854 147.871 27.0278 161.59 19.0491 170.927L16.3772 166.299C22.0567 158.589 22.9852 147.935 17.8871 139.105C11.021 127.212 -4.17686 123.132 -16.0582 129.992C-27.9396 136.852 -32.0051 152.053 -25.1389 163.946C-20.0409 172.776 -10.3498 177.299 -0.833246 176.235L1.83868 180.863Z" fill="#4C5158" fill-opacity="0.5"/>
<path d="M0.284704 177.856L-4.69727 180.732L-0.090786 188.711L4.89118 185.835L0.284704 177.856Z" fill="#4C5158" fill-opacity="0.5"/>
<path d="M22.2066 165.2L17.2246 168.076L21.8311 176.055L26.8131 173.178L22.2066 165.2Z" fill="#4C5158" fill-opacity="0.5"/>
<path fill-rule="evenodd" clip-rule="evenodd" d="M0.555887 189.305C-1.64525 190.576 -2.39841 193.393 -1.12645 195.596L-0.759656 196.231C0.512308 198.434 3.32802 199.19 5.52916 197.919L31.9789 182.649C34.1801 181.378 34.9332 178.561 33.6613 176.358L33.2945 175.723C32.0225 173.52 29.2068 172.764 27.0057 174.035L0.555887 189.305ZM4.1089 190.125C3.00839 190.76 2.63204 192.169 3.26773 193.27L3.45142 193.588C4.08711 194.689 5.49531 195.068 6.59583 194.433L28.4259 181.829C29.5265 181.193 29.9028 179.785 29.2671 178.684L29.0834 178.366C28.4477 177.264 27.0396 176.886 25.939 177.521L4.1089 190.125Z" fill="#4C5158" fill-opacity="0.5"/>
<path fill-rule="evenodd" clip-rule="evenodd" d="M5.52757 197.92C3.32643 199.19 2.57327 202.007 3.84523 204.21L4.21145 204.844C5.48341 207.047 8.29913 207.803 10.5003 206.533L36.95 191.262C39.1512 189.991 39.9043 187.175 38.6324 184.971L38.2662 184.337C36.9942 182.134 34.1785 181.378 31.9773 182.649L5.52757 197.92ZM9.08058 198.739C7.98007 199.375 7.60314 200.782 8.23941 201.884L8.42252 202.202C9.05879 203.304 10.4664 203.681 11.5669 203.046L33.397 190.442C34.4976 189.807 34.8745 188.399 34.2382 187.297L34.0551 186.98C33.4188 185.878 32.0113 185.5 30.9107 186.136L9.08058 198.739Z" fill="#4C5158" fill-opacity="0.5"/>
<path fill-rule="evenodd" clip-rule="evenodd" d="M466.839 398.863C454.764 401.105 442.054 395.681 435.558 384.43C427.319 370.159 432.198 351.917 446.455 343.685C460.713 335.454 478.95 340.349 487.19 354.62C493.685 365.871 492.028 379.59 484.049 388.927L481.377 384.299C487.057 376.589 487.985 365.935 482.887 357.105C476.021 345.212 460.823 341.132 448.942 347.992C437.06 354.852 432.995 370.053 439.861 381.946C444.959 390.776 454.65 395.299 464.167 394.235L466.839 398.863Z" fill="#4C5158" fill-opacity="0.5"/>
<path d="M433.214 317.298C432.578 316.196 431.171 315.819 430.07 316.454C428.969 317.089 428.593 318.498 429.229 319.599L436.138 331.567C436.775 332.669 438.182 333.047 439.283 332.411C440.383 331.776 440.76 330.368 440.124 329.266L433.214 317.298Z" fill="#4C5158" fill-opacity="0.5"/>
<path d="M410.068 334.563C408.84 334.233 407.579 334.962 407.25 336.19C406.922 337.418 407.651 338.681 408.879 339.011L422.219 342.592C423.447 342.922 424.709 342.193 425.038 340.965C425.366 339.737 424.637 338.474 423.409 338.144L410.068 334.563Z" fill="#4C5158" fill-opacity="0.5"/>
<path d="M40.2143 673.298C39.5783 672.196 38.1705 671.819 37.0699 672.454C35.9693 673.089 35.5927 674.498 36.2288 675.599L43.1385 687.567C43.7745 688.669 45.1823 689.047 46.2829 688.411C47.3835 687.776 47.7601 686.368 47.1241 685.266L40.2143 673.298Z" fill="#4C5158" fill-opacity="0.5"/>
<path d="M67.3902 666.407C67.7187 665.179 66.9895 663.916 65.7615 663.586C64.5336 663.256 63.2718 663.985 62.9433 665.213L59.3745 678.557C59.046 679.785 59.7752 681.048 61.0032 681.378C62.2311 681.708 63.4929 680.979 63.8214 679.751L67.3902 666.407Z" fill="#4C5158" fill-opacity="0.5"/>
</g>
<rect x="0.5" y="0.5" width="439" height="679" stroke="black"/>
<defs>
<clipPath id="clip0_674_7782">
<rect width="440" height="680" fill="white"/>
</clipPath>
</defs>
</svg>
