<svg width="219" height="140" viewBox="0 0 219 140" fill="none" xmlns="http://www.w3.org/2000/svg">
<path fill-rule="evenodd" clip-rule="evenodd" d="M54.8637 96.9347C44.8007 93.378 37.5909 83.7809 37.5909 72.4999C37.5909 58.1907 49.1908 46.5908 63.5 46.5908C77.8092 46.5908 89.4091 58.1907 89.4091 72.4999C89.4091 83.7809 82.1994 93.3779 72.1364 96.9347V92.2944C79.7619 88.9626 85.0909 81.3537 85.0909 72.5C85.0909 60.5757 75.4243 50.9091 63.5 50.9091C51.5756 50.9091 41.9091 60.5757 41.9091 72.5C41.9091 81.3537 47.2381 88.9627 54.8637 92.2944V96.9347Z" fill="white"/>
<rect x="50" y="94" width="5" height="8" fill="white"/>
<rect x="72" y="94" width="5" height="8" fill="white"/>
<path fill-rule="evenodd" clip-rule="evenodd" d="M50.2272 102.727C48.0181 102.727 46.2272 104.518 46.2272 106.727V107.364C46.2272 109.573 48.0181 111.364 50.2272 111.364H76.7727C78.9818 111.364 80.7727 109.573 80.7727 107.364V106.727C80.7727 104.518 78.9818 102.727 76.7727 102.727H50.2272ZM52.5454 104.886C51.4409 104.886 50.5454 105.782 50.5454 106.886V107.205C50.5454 108.309 51.4409 109.205 52.5454 109.205H74.4545C75.5591 109.205 76.4545 108.309 76.4545 107.205V106.886C76.4545 105.782 75.5591 104.886 74.4545 104.886H52.5454Z" fill="white"/>
<path fill-rule="evenodd" clip-rule="evenodd" d="M50.2272 111.364C48.0181 111.364 46.2272 113.155 46.2272 115.364V116C46.2272 118.209 48.0181 120 50.2272 120H76.7727C78.9818 120 80.7727 118.209 80.7727 116V115.364C80.7727 113.155 78.9818 111.364 76.7727 111.364H50.2272ZM52.5454 113.523C51.4409 113.523 50.5454 114.418 50.5454 115.523V115.841C50.5454 116.946 51.4409 117.841 52.5454 117.841H74.4545C75.5591 117.841 76.4545 116.946 76.4545 115.841V115.523C76.4545 114.418 75.5591 113.523 74.4545 113.523H52.5454Z" fill="white"/>
<rect x="61" y="19" width="4" height="16" rx="2" fill="white"/>
<rect x="93" y="61" width="4" height="16" rx="2" transform="rotate(-90 93 61)" fill="white"/>
<rect x="16" y="61" width="4" height="16" rx="2" transform="rotate(-90 16 61)" fill="white"/>
<rect x="28.8779" y="32.2948" width="4" height="16" rx="2" transform="rotate(-45 28.8779 32.2948)" fill="white"/>
<rect x="93.9893" y="30.321" width="4" height="16" rx="2" transform="rotate(45 93.9893 30.321)" fill="white"/>
<path d="M120.12 18.656H127.352V40H120.12V18.656ZM129.589 40V18.656H135.509C137.514 18.656 139.295 18.88 140.853 19.328C142.431 19.776 143.754 20.448 144.821 21.344C145.909 22.24 146.73 23.36 147.285 24.704C147.861 26.0267 148.149 27.5627 148.149 29.312C148.149 31.0613 147.861 32.608 147.285 33.952C146.73 35.2747 145.909 36.384 144.821 37.28C143.754 38.176 142.431 38.8587 140.853 39.328C139.295 39.776 137.514 40 135.509 40H129.589ZM136.405 33.92C138.005 33.92 139.242 33.5467 140.117 32.8C140.991 32.032 141.429 30.8693 141.429 29.312C141.429 27.7547 140.991 26.6027 140.117 25.856C139.242 25.1093 138.005 24.736 136.405 24.736V33.92ZM149.901 18.656H162.477V24.256H156.717V26.624H162.381V31.936H156.717V34.4H162.701V40H149.901V18.656ZM171.269 18.656H176.389L184.485 40H177.765L177.061 38.08H170.597L169.893 40H163.172L171.269 18.656ZM175.269 33.376L173.829 29.632L172.389 33.376H175.269ZM119.544 73.376C120.013 73.5253 120.504 73.6427 121.016 73.728C121.443 73.8347 121.923 73.92 122.456 73.984C123.011 74.048 123.565 74.08 124.12 74.08C125.101 74.08 125.592 73.7173 125.592 72.992C125.592 72.7147 125.443 72.4373 125.144 72.16C124.845 71.8613 124.461 71.5413 123.992 71.2C123.544 70.8373 123.053 70.4427 122.52 70.016C122.008 69.5893 121.517 69.0987 121.048 68.544C120.6 67.9893 120.227 67.3707 119.928 66.688C119.629 65.984 119.48 65.184 119.48 64.288C119.48 63.2853 119.661 62.4 120.024 61.632C120.387 60.864 120.888 60.224 121.528 59.712C122.168 59.2 122.915 58.816 123.768 58.56C124.643 58.2827 125.571 58.144 126.552 58.144C127.064 58.144 127.576 58.176 128.088 58.24C128.6 58.2827 129.059 58.3253 129.464 58.368C129.933 58.432 130.392 58.496 130.84 58.56V64.544C130.669 64.5227 130.477 64.5013 130.264 64.48C130.093 64.4587 129.901 64.4373 129.688 64.416C129.475 64.3947 129.251 64.384 129.016 64.384C128.888 64.384 128.728 64.3947 128.536 64.416C128.344 64.416 128.163 64.4373 127.992 64.48C127.821 64.5227 127.672 64.5973 127.544 64.704C127.416 64.8107 127.352 64.96 127.352 65.152C127.352 65.3227 127.491 65.536 127.768 65.792C128.067 66.048 128.419 66.3467 128.824 66.688C129.251 67.0293 129.709 67.424 130.2 67.872C130.712 68.32 131.171 68.832 131.576 69.408C132.003 69.984 132.355 70.6347 132.632 71.36C132.931 72.0853 133.08 72.896 133.08 73.792C133.08 74.7307 132.931 75.616 132.632 76.448C132.333 77.2587 131.864 77.9733 131.224 78.592C130.605 79.1893 129.805 79.6587 128.824 80C127.843 80.3627 126.68 80.544 125.336 80.544C124.525 80.544 123.768 80.5013 123.064 80.416C122.381 80.352 121.773 80.2667 121.24 80.16C120.621 80.0533 120.056 79.9253 119.544 79.776V73.376ZM151.134 66.784C151.134 68.256 150.878 69.5147 150.366 70.56C149.854 71.584 149.15 72.416 148.254 73.056C147.38 73.696 146.345 74.1653 145.15 74.464C143.977 74.7627 142.708 74.912 141.342 74.912V80H134.526V58.656H141.342C142.708 58.656 143.977 58.8053 145.15 59.104C146.345 59.4027 147.38 59.872 148.254 60.512C149.15 61.152 149.854 61.9947 150.366 63.04C150.878 64.064 151.134 65.312 151.134 66.784ZM141.342 69.152H141.63C142.526 69.152 143.166 68.9493 143.55 68.544C143.956 68.1173 144.158 67.5307 144.158 66.784C144.158 66.0373 143.956 65.4613 143.55 65.056C143.166 64.6293 142.526 64.416 141.63 64.416H141.342V69.152ZM156.519 58.656H161.639L169.735 80H163.015L162.311 78.08H155.847L155.143 80H148.422L156.519 58.656ZM160.519 73.376L159.079 69.632L157.639 73.376H160.519ZM168.296 69.344C168.296 67.6373 168.595 66.1013 169.192 64.736C169.79 63.3493 170.6 62.1653 171.624 61.184C172.648 60.2027 173.843 59.456 175.208 58.944C176.574 58.4107 178.024 58.144 179.56 58.144C180.776 58.144 181.854 58.2613 182.792 58.496C183.752 58.7307 184.574 58.9973 185.256 59.296C186.046 59.6373 186.728 60.0107 187.304 60.416L183.944 66.336C183.603 66.08 183.23 65.8347 182.824 65.6C182.462 65.4293 182.024 65.2693 181.512 65.12C181.022 64.9493 180.456 64.864 179.816 64.864C179.155 64.864 178.547 64.9813 177.992 65.216C177.438 65.4507 176.947 65.7707 176.52 66.176C176.115 66.5813 175.795 67.0613 175.56 67.616C175.326 68.1493 175.208 68.7253 175.208 69.344C175.208 69.9627 175.326 70.5493 175.56 71.104C175.816 71.6373 176.158 72.1067 176.584 72.512C177.011 72.9173 177.512 73.2373 178.088 73.472C178.664 73.7067 179.294 73.824 179.976 73.824C180.659 73.824 181.267 73.7387 181.8 73.568C182.334 73.3973 182.782 73.2053 183.144 72.992C183.571 72.7573 183.944 72.48 184.264 72.16L187.624 78.08C187.048 78.5493 186.366 78.9653 185.576 79.328C184.894 79.6267 184.072 79.904 183.112 80.16C182.152 80.416 181.054 80.544 179.816 80.544C178.152 80.544 176.616 80.2773 175.208 79.744C173.8 79.1893 172.584 78.4213 171.56 77.44C170.536 76.4587 169.736 75.2853 169.16 73.92C168.584 72.5333 168.296 71.008 168.296 69.344ZM188.433 58.656H201.009V64.256H195.249V66.624H200.913V71.936H195.249V74.4H201.233V80H188.433V58.656ZM122.936 104.256H119V98.656H133.912V104.256H129.976V120H122.936V104.256ZM135.026 98.656H142.386C143.752 98.656 145.01 98.8373 146.162 99.2C147.336 99.5627 148.349 100.096 149.202 100.8C150.056 101.504 150.717 102.379 151.186 103.424C151.677 104.448 151.922 105.632 151.922 106.976C151.922 108.043 151.773 108.949 151.474 109.696C151.176 110.443 150.845 111.061 150.482 111.552C150.056 112.107 149.576 112.576 149.042 112.96L153.042 120H145.042L141.842 114.592V120H135.026V98.656ZM141.842 109.152H142.194C143.005 109.152 143.688 108.971 144.242 108.608C144.818 108.245 145.106 107.637 145.106 106.784C145.106 105.931 144.818 105.323 144.242 104.96C143.688 104.597 143.005 104.416 142.194 104.416H141.842V109.152ZM153.683 98.656H160.915V120H153.683V98.656ZM179.759 106.784C179.759 108.256 179.503 109.515 178.991 110.56C178.479 111.584 177.775 112.416 176.879 113.056C176.005 113.696 174.97 114.165 173.775 114.464C172.602 114.763 171.333 114.912 169.967 114.912V120H163.151V98.656H169.967C171.333 98.656 172.602 98.8053 173.775 99.104C174.97 99.4027 176.005 99.872 176.879 100.512C177.775 101.152 178.479 101.995 178.991 103.04C179.503 104.064 179.759 105.312 179.759 106.784ZM169.967 109.152H170.255C171.151 109.152 171.791 108.949 172.175 108.544C172.581 108.117 172.783 107.531 172.783 106.784C172.783 106.037 172.581 105.461 172.175 105.056C171.791 104.629 171.151 104.416 170.255 104.416H169.967V109.152Z" fill="white"/>
</svg>
