<svg width="80" height="80" viewBox="0 0 80 80" fill="none" xmlns="http://www.w3.org/2000/svg">
<path d="M33.0686 19.021C32.4373 22.5351 29.912 23.3335 28.176 24.771C24.2301 28.1253 22.9675 31.0005 28.4915 34.3548C34.9626 38.348 37.8034 44.2579 34.8047 51.9249C32.1215 58.7935 26.9133 61.6689 19.9689 60.8702C12.551 60.0715 6.71133 53.3629 6.08001 45.6959C4.81737 32.4382 18.7062 18.3821 33.0686 19.021Z" fill="#4AC7D1"/>
<path d="M71.0686 19.021C70.4373 22.5351 67.912 23.3335 66.176 24.771C62.2301 28.1253 60.9675 31.0005 66.4915 34.3548C72.9626 38.348 75.8034 44.2579 72.8047 51.9249C70.1215 58.7935 64.9133 61.6689 57.9689 60.8702C50.551 60.0715 44.7113 53.3629 44.08 45.6959C42.8174 32.4382 56.7062 18.3821 71.0686 19.021Z" fill="#4AC7D1"/>
</svg>
