<svg width="80" height="80" viewBox="0 0 80 80" fill="none" xmlns="http://www.w3.org/2000/svg">
<path d="M8.93145 60.4909C9.56277 57.0175 12.088 56.2285 13.8241 54.8077C17.7698 51.4923 19.0324 48.6507 13.5084 45.3354C7.03751 41.3884 4.19663 35.5471 7.19533 27.9693C9.8784 21.1808 15.0867 18.3389 22.0311 19.1283C29.4491 19.9176 35.2886 26.5483 35.92 34.1262C37.1824 47.2295 23.2939 61.1223 8.93145 60.4909Z" fill="#4AC7D1"/>
<path d="M46.9314 60.4909C47.5628 57.0175 50.088 56.2285 51.8241 54.8077C55.7698 51.4923 57.0324 48.6507 51.5084 45.3354C45.0375 41.3884 42.1966 35.5471 45.1953 27.9693C47.8784 21.1808 53.0867 18.3389 60.0311 19.1283C67.4491 19.9176 73.2886 26.5483 73.92 34.1262C75.1824 47.2295 61.2939 61.1223 46.9314 60.4909Z" fill="#4AC7D1"/>
</svg>
