<svg width="720" height="380" viewBox="0 0 720 380" fill="none" xmlns="http://www.w3.org/2000/svg">
<path fill-rule="evenodd" clip-rule="evenodd" d="M409.962 118.208C398.018 125.104 393.926 140.376 400.822 152.319C407.717 164.263 422.989 168.355 434.933 161.46C446.877 154.564 450.969 139.292 444.073 127.348C437.178 115.404 421.905 111.312 409.962 118.208ZM401.678 124.087C395.54 132.191 394.479 143.506 399.881 152.862C405.286 162.224 415.622 166.962 425.714 165.692C425.769 166.025 425.871 166.343 426.022 166.642C426.049 166.698 426.079 166.752 426.11 166.806C427.56 169.318 432.103 169.41 436.258 167.011C440.289 164.683 442.473 160.866 441.273 158.347C441.237 158.27 441.197 158.194 441.154 158.12C441.137 158.092 441.12 158.063 441.103 158.035C449.059 149.889 450.986 137.151 445.014 126.805C439.041 116.46 427.046 111.76 416.013 114.577L416.004 114.56L415.985 114.526C415.942 114.452 415.896 114.38 415.848 114.31C414.267 112.011 409.869 111.993 405.837 114.321C401.683 116.719 399.491 120.7 400.941 123.212C400.972 123.266 401.004 123.318 401.038 123.37C401.215 123.639 401.43 123.879 401.678 124.087ZM408.062 117.089C410.143 115.887 412.348 115.047 414.621 114.546C414.056 114.031 413.15 113.693 411.903 113.668C410.296 113.635 408.315 114.144 406.38 115.261C404.445 116.378 403.014 117.839 402.238 119.248C401.524 120.545 401.432 121.647 401.766 122.438C403.505 120.321 405.609 118.505 408.062 117.089ZM440.454 159.292C438.885 161.009 437.054 162.499 434.973 163.7C432.521 165.117 429.896 166.031 427.193 166.478C427.71 167.163 428.711 167.634 430.192 167.664C431.799 167.697 433.78 167.188 435.715 166.071C437.65 164.954 439.081 163.493 439.857 162.084C440.458 160.992 440.618 160.038 440.454 159.292ZM364.09 152.214C361.342 153.801 359.351 156.008 358.327 158.247C357.302 160.488 357.276 162.667 358.253 164.36C359.23 166.053 361.131 167.119 363.584 167.352C366.035 167.584 368.942 166.964 371.69 165.377C374.439 163.79 376.43 161.583 377.454 159.344C378.479 157.103 378.505 154.924 377.528 153.231C376.551 151.538 374.65 150.472 372.197 150.239C369.746 150.007 366.839 150.627 364.09 152.214ZM357.313 164.903C355.274 161.371 356.985 156.432 361.133 152.958L360.601 152.361C362.455 150.707 365.67 148.265 369.315 146.291C372.622 144.499 376.35 143.054 379.765 142.991L375.279 135.221L375.151 135.576C373.61 135.023 370.363 132.996 369.822 129.24L369.804 129.114L369.844 128.994C370.588 126.715 371.956 123.407 373.65 120.908C374.494 119.663 375.448 118.573 376.484 117.927C377.542 117.268 378.727 117.053 379.917 117.662L379.997 117.703L380.06 117.768C381.168 118.913 382.937 122.186 382.214 126.835C383.703 127.682 385.893 129.126 388.109 130.977C390.531 133.001 393.013 135.538 394.632 138.342L393.692 138.884C392.162 136.235 389.785 133.793 387.413 131.81C385.329 130.069 383.271 128.701 381.844 127.874C381.801 128.084 381.75 128.347 381.689 128.671C381.576 129.272 381.244 129.906 380.829 130.511C380.408 131.125 379.872 131.753 379.305 132.348C378.328 133.375 377.231 134.332 376.401 134.994L381.187 143.283L381.694 144.162L380.682 144.096C377.322 143.88 373.409 145.307 369.832 147.245C367.62 148.444 365.568 149.82 363.899 151.076C369.655 147.927 376.118 148.617 378.468 152.688L382.7 150.245C384.777 149.046 387.433 149.758 388.632 151.835L394.875 162.648C396.074 164.725 395.362 167.381 393.285 168.58L389.994 170.481L389.054 171.023C391.405 175.095 388.771 181.036 383.166 184.447C385.088 183.629 387.306 182.541 389.45 181.224C392.917 179.095 396.11 176.42 397.602 173.402L398.051 172.493L398.559 173.371L403.344 181.66C404.332 181.273 405.71 180.802 407.088 180.469C407.887 180.275 408.698 180.125 409.441 180.068C410.172 180.011 410.887 180.04 411.464 180.243C411.775 180.353 412.028 180.439 412.232 180.507C412.23 178.858 412.073 176.392 411.607 173.716C411.076 170.67 410.15 167.391 408.62 164.742L409.56 164.199C411.179 167.003 412.135 170.421 412.677 173.53C413.14 176.191 413.306 178.655 413.317 180.363C417.958 182.024 420.002 185.323 420.453 186.897L420.477 186.983L420.473 187.073C420.405 188.409 419.627 189.328 418.526 189.914C417.449 190.488 416.028 190.77 414.528 190.878C411.517 191.095 407.969 190.626 405.623 190.132L405.498 190.106L405.399 190.027C402.534 187.773 402.299 184.155 402.543 182.445L398.1 174.749C396.339 177.675 393.223 180.181 390.018 182.149C386.485 184.318 382.763 185.882 380.404 186.661L380.153 185.901C375.07 187.756 369.937 186.769 367.898 183.238C367.024 181.723 366.839 179.95 367.241 178.145L366.333 178.253C365.769 173.524 362.43 169.936 360.846 168.751L361.394 168.019C359.63 167.463 358.187 166.417 357.313 164.903ZM388.762 170.565C387.16 168.273 384.136 167.212 380.741 167.482L380.619 167.271L380.145 166.45L377.975 162.691L377.501 161.869L377.379 161.658C379.31 158.853 379.903 155.704 378.719 153.17L378.74 153.159L379.663 152.626L382.971 150.716C384.788 149.666 387.112 150.289 388.162 152.107L394.405 162.919C395.454 164.737 394.831 167.061 393.014 168.11L389.706 170.02L388.783 170.553L388.762 170.565ZM377.03 162.141C375.835 163.724 374.209 165.177 372.233 166.318C368.694 168.361 364.846 168.934 361.83 168.144C363.592 169.597 366.647 173.094 367.352 177.696C368.178 174.692 370.597 171.65 374.133 169.608C376.119 168.462 378.201 167.779 380.179 167.539C380.169 167.54 380.159 167.541 380.149 167.542L377.03 162.141ZM370.916 129.208C371.403 132.163 373.906 133.893 375.306 134.472L375.366 134.426C376.181 133.802 377.432 132.741 378.519 131.599C379.063 131.029 379.557 130.447 379.933 129.897C380.316 129.338 380.55 128.853 380.622 128.471C380.804 127.499 380.915 127.005 380.986 126.796C380.996 126.766 381.009 126.731 381.024 126.696C381.035 126.673 381.067 126.602 381.129 126.533C381.133 126.529 381.137 126.524 381.143 126.518C381.15 126.511 381.158 126.503 381.167 126.494C381.753 122.379 380.217 119.55 379.342 118.589C378.602 118.244 377.853 118.353 377.058 118.849C376.211 119.377 375.359 120.322 374.548 121.517C372.963 123.857 371.652 126.987 370.916 129.208ZM368.913 176.582C369.937 174.343 371.928 172.136 374.676 170.549C377.425 168.962 380.332 168.342 382.783 168.574C385.236 168.807 387.136 169.873 388.114 171.566C389.091 173.259 389.065 175.438 388.039 177.679C387.015 179.918 385.025 182.125 382.276 183.712C379.528 185.299 376.621 185.919 374.17 185.687C371.716 185.454 369.816 184.388 368.839 182.695C367.861 181.002 367.888 178.823 368.913 176.582ZM403.601 182.726C404.557 182.345 405.955 181.86 407.343 181.524C408.109 181.339 408.86 181.202 409.525 181.15C410.2 181.098 410.737 181.138 411.104 181.267C412.037 181.596 412.52 181.746 412.737 181.79C412.768 181.796 412.804 181.802 412.842 181.806C412.867 181.808 412.945 181.816 413.035 181.797C413.079 181.788 413.182 181.762 413.281 181.677C413.324 181.641 413.361 181.599 413.391 181.551C417.289 183.098 418.986 185.864 419.382 187.108C419.311 187.922 418.843 188.515 418.015 188.956C417.135 189.426 415.89 189.691 414.45 189.795C411.63 189.999 408.265 189.569 405.973 189.096C403.69 187.223 403.418 184.249 403.601 182.726ZM412.602 181.679C412.602 181.68 412.602 181.68 412.602 181.68C412.602 181.68 412.6 181.679 412.597 181.676L412.602 181.679Z" fill="white"/>
<g filter="url(#filter0_f_474_8283)">
<path fill-rule="evenodd" clip-rule="evenodd" d="M409.69 117.738C397.747 124.633 393.654 139.906 400.55 151.849C407.446 163.793 422.718 167.885 434.662 160.99C446.605 154.094 450.697 138.822 443.802 126.878C436.906 114.934 421.634 110.842 409.69 117.738ZM401.406 123.617C395.268 131.721 394.208 143.035 399.61 152.392C405.014 161.753 415.351 166.492 425.442 165.222C425.498 165.555 425.6 165.873 425.75 166.172C425.778 166.228 425.807 166.282 425.838 166.336C427.289 168.848 431.832 168.939 435.986 166.541C440.018 164.213 442.202 160.396 441.002 157.876C440.965 157.8 440.925 157.724 440.883 157.65C440.866 157.621 440.849 157.593 440.832 157.565C448.788 149.419 450.715 136.68 444.742 126.335C438.769 115.99 426.774 111.29 415.742 114.107C415.733 114.09 415.723 114.073 415.713 114.056C415.67 113.982 415.625 113.91 415.577 113.84C413.995 111.541 409.597 111.523 405.565 113.851C401.411 116.249 399.219 120.23 400.669 122.742C400.7 122.795 400.733 122.848 400.767 122.9C400.944 123.169 401.159 123.409 401.406 123.617ZM407.79 116.619C409.871 115.417 412.077 114.577 414.349 114.076C413.785 113.561 412.878 113.223 411.632 113.198C410.024 113.165 408.043 113.674 406.108 114.791C404.174 115.908 402.742 117.369 401.967 118.778C401.252 120.075 401.16 121.177 401.495 121.968C403.233 119.851 405.337 118.035 407.79 116.619ZM440.183 158.822C438.614 160.539 436.783 162.029 434.702 163.23C432.249 164.646 429.624 165.561 426.921 166.008C427.439 166.693 428.44 167.164 429.92 167.194C431.528 167.227 433.509 166.718 435.443 165.601C437.378 164.484 438.81 163.022 439.585 161.614C440.187 160.522 440.347 159.568 440.183 158.822ZM363.819 151.744C361.07 153.33 359.08 155.538 358.056 157.777C357.03 160.018 357.004 162.197 357.981 163.89C358.959 165.582 360.859 166.649 363.313 166.882C365.763 167.114 368.67 166.494 371.419 164.907C374.168 163.32 376.158 161.113 377.182 158.874C378.208 156.633 378.234 154.454 377.257 152.761C376.279 151.068 374.379 150.002 371.925 149.769C369.475 149.537 366.568 150.157 363.819 151.744ZM357.041 164.433C355.002 160.901 356.714 155.962 360.862 152.488L360.329 151.891C362.184 150.237 365.399 147.795 369.043 145.821C372.35 144.029 376.079 142.584 379.493 142.521L375.007 134.751L374.88 135.106C373.339 134.552 370.092 132.526 369.551 128.77L369.533 128.644L369.572 128.524C370.317 126.245 371.685 122.937 373.378 120.438C374.222 119.193 375.177 118.103 376.212 117.457C377.271 116.798 378.455 116.583 379.646 117.192L379.726 117.233L379.789 117.298C380.896 118.443 382.666 121.716 381.943 126.365C383.431 127.212 385.622 128.656 387.837 130.507C390.259 132.531 392.742 135.068 394.36 137.872L393.42 138.414C391.89 135.765 389.514 133.323 387.141 131.34C385.057 129.599 383 128.231 381.572 127.404C381.529 127.614 381.478 127.876 381.417 128.201C381.305 128.802 380.972 129.436 380.557 130.041C380.137 130.655 379.601 131.283 379.034 131.878C378.056 132.904 376.959 133.862 376.13 134.524L380.916 142.813L381.423 143.692L380.411 143.626C377.051 143.41 373.138 144.837 369.56 146.775C367.349 147.974 365.297 149.35 363.628 150.606C369.384 147.457 375.846 148.147 378.197 152.218L379.137 151.675L382.428 149.775C384.505 148.576 387.161 149.288 388.36 151.365L394.603 162.178C395.803 164.255 395.091 166.911 393.014 168.11L388.783 170.553C391.133 174.624 388.499 180.566 382.895 183.977C384.816 183.159 387.034 182.07 389.178 180.754C392.645 178.625 395.838 175.95 397.33 172.932L397.78 172.023L398.287 172.901L403.073 181.19C404.06 180.803 405.439 180.332 406.816 179.999C407.616 179.805 408.427 179.655 409.169 179.598C409.901 179.541 410.615 179.57 411.193 179.773C411.504 179.883 411.757 179.969 411.96 180.037C411.958 178.387 411.802 175.922 411.335 173.246C410.805 170.2 409.878 166.921 408.349 164.271L409.289 163.729C410.908 166.533 411.863 169.951 412.405 173.06C412.869 175.721 413.035 178.184 413.045 179.893C417.687 181.554 419.731 184.853 420.181 186.427L420.206 186.513L420.201 186.603C420.133 187.939 419.355 188.858 418.255 189.444C417.178 190.018 415.757 190.3 414.256 190.408C411.245 190.625 407.697 190.156 405.351 189.662L405.227 189.635L405.127 189.557C402.263 187.303 402.028 183.685 402.272 181.974L397.829 174.279C396.067 177.205 392.951 179.711 389.746 181.679C386.214 183.848 382.492 185.412 380.132 186.191L379.881 185.431C374.799 187.286 369.666 186.299 367.627 182.768C366.753 181.253 366.568 179.48 366.969 177.675L366.061 177.783C365.497 173.054 362.159 169.466 360.575 168.281L361.123 167.548C359.359 166.993 357.915 165.947 357.041 164.433ZM388.491 170.095C386.889 167.803 383.865 166.742 380.47 167.012L380.348 166.801L379.874 165.979L377.703 162.221L377.229 161.399L377.107 161.188C379.038 158.383 379.632 155.234 378.448 152.7L378.468 152.688L379.391 152.156L382.699 150.246C384.517 149.196 386.841 149.819 387.89 151.636L394.133 162.449C395.183 164.267 394.56 166.591 392.742 167.64L389.434 169.55L388.511 170.083L388.491 170.095ZM376.759 161.671C375.564 163.254 373.937 164.707 371.962 165.847C368.422 167.891 364.575 168.464 361.559 167.674C363.32 169.127 366.376 172.624 367.081 177.226C367.907 174.222 370.326 171.18 373.862 169.138C375.847 167.992 377.929 167.309 379.907 167.069C379.898 167.07 379.888 167.071 379.878 167.072L376.759 161.671ZM370.644 128.738C371.131 131.693 373.635 133.423 375.034 134.002L375.094 133.956C375.91 133.332 377.161 132.271 378.248 131.129C378.791 130.558 379.285 129.977 379.662 129.427C380.045 128.868 380.279 128.383 380.35 128.001C380.532 127.029 380.643 126.535 380.714 126.325C380.724 126.295 380.737 126.261 380.753 126.226C380.763 126.203 380.796 126.132 380.857 126.063C380.866 126.053 380.879 126.039 380.896 126.024C381.481 121.909 379.945 119.08 379.071 118.119C378.33 117.774 377.582 117.883 376.787 118.379C375.94 118.907 375.087 119.851 374.277 121.047C372.691 123.387 371.38 126.517 370.644 128.738ZM368.641 176.112C369.666 173.873 371.656 171.665 374.405 170.079C377.153 168.492 380.06 167.872 382.511 168.104C384.965 168.337 386.865 169.403 387.842 171.096C388.82 172.789 388.793 174.968 387.768 177.209C386.744 179.448 384.753 181.655 382.005 183.242C379.256 184.829 376.349 185.449 373.898 185.217C371.445 184.984 369.544 183.917 368.567 182.225C367.59 180.532 367.616 178.353 368.641 176.112ZM403.329 182.256C404.286 181.875 405.684 181.39 407.072 181.054C407.838 180.868 408.588 180.732 409.253 180.68C409.928 180.628 410.465 180.668 410.832 180.797C411.765 181.126 412.248 181.276 412.465 181.32C412.496 181.326 412.533 181.332 412.57 181.336C412.596 181.338 412.673 181.346 412.764 181.327C412.808 181.318 412.91 181.291 413.01 181.207C413.052 181.171 413.089 181.129 413.119 181.081C417.017 182.628 418.714 185.394 419.111 186.638C419.04 187.452 418.571 188.045 417.744 188.486C416.863 188.955 415.619 189.221 414.178 189.325C411.359 189.528 407.993 189.099 405.701 188.626C403.419 186.753 403.147 183.779 403.329 182.256ZM412.33 181.209C412.331 181.21 412.331 181.21 412.331 181.21C412.331 181.21 412.329 181.209 412.325 181.206L412.33 181.209ZM380.742 126.497L380.742 126.498L380.742 126.503L380.742 126.498L380.742 126.497Z" fill="white"/>
</g>
<g filter="url(#filter1_f_474_8283)">
<path fill-rule="evenodd" clip-rule="evenodd" d="M409.69 117.738C397.747 124.633 393.654 139.906 400.55 151.849C407.446 163.793 422.718 167.885 434.662 160.99C446.605 154.094 450.697 138.822 443.802 126.878C436.906 114.934 421.634 110.842 409.69 117.738ZM401.406 123.617C395.268 131.721 394.208 143.035 399.61 152.392C405.014 161.753 415.351 166.492 425.442 165.222C425.498 165.555 425.6 165.873 425.75 166.172C425.778 166.228 425.807 166.282 425.838 166.336C427.289 168.848 431.832 168.939 435.986 166.541C440.018 164.213 442.202 160.396 441.002 157.876C440.965 157.8 440.925 157.724 440.883 157.65C440.866 157.621 440.849 157.593 440.832 157.565C448.788 149.419 450.715 136.68 444.742 126.335C438.769 115.99 426.774 111.29 415.742 114.107C415.733 114.09 415.723 114.073 415.713 114.056C415.67 113.982 415.625 113.91 415.577 113.84C413.995 111.541 409.597 111.523 405.565 113.851C401.411 116.249 399.219 120.23 400.669 122.742C400.7 122.795 400.733 122.848 400.767 122.9C400.944 123.169 401.159 123.409 401.406 123.617ZM407.79 116.619C409.871 115.417 412.077 114.577 414.349 114.076C413.785 113.561 412.878 113.223 411.632 113.198C410.024 113.165 408.043 113.674 406.108 114.791C404.174 115.908 402.742 117.369 401.967 118.778C401.252 120.075 401.16 121.177 401.495 121.968C403.233 119.851 405.337 118.035 407.79 116.619ZM440.183 158.822C438.614 160.539 436.783 162.029 434.702 163.23C432.249 164.646 429.624 165.561 426.921 166.008C427.439 166.693 428.44 167.164 429.92 167.194C431.528 167.227 433.509 166.718 435.443 165.601C437.378 164.484 438.81 163.022 439.585 161.614C440.187 160.522 440.347 159.568 440.183 158.822ZM363.819 151.744C361.07 153.33 359.08 155.538 358.056 157.777C357.03 160.018 357.004 162.197 357.981 163.89C358.959 165.582 360.859 166.649 363.313 166.882C365.763 167.114 368.67 166.494 371.419 164.907C374.168 163.32 376.158 161.113 377.182 158.874C378.208 156.633 378.234 154.454 377.257 152.761C376.279 151.068 374.379 150.002 371.925 149.769C369.475 149.537 366.568 150.157 363.819 151.744ZM357.041 164.433C355.002 160.901 356.714 155.962 360.862 152.488L360.329 151.891C362.184 150.237 365.399 147.795 369.043 145.821C372.35 144.029 376.079 142.584 379.493 142.521L375.007 134.751L374.88 135.106C373.339 134.552 370.092 132.526 369.551 128.77L369.533 128.644L369.572 128.524C370.317 126.245 371.685 122.937 373.378 120.438C374.222 119.193 375.177 118.103 376.212 117.457C377.271 116.798 378.455 116.583 379.646 117.192L379.726 117.233L379.789 117.298C380.896 118.443 382.666 121.716 381.943 126.365C383.431 127.212 385.622 128.656 387.837 130.507C390.259 132.531 392.742 135.068 394.36 137.872L393.42 138.414C391.89 135.765 389.514 133.323 387.141 131.34C385.057 129.599 383 128.231 381.572 127.404C381.529 127.614 381.478 127.876 381.417 128.201C381.305 128.802 380.972 129.436 380.557 130.041C380.137 130.655 379.601 131.283 379.034 131.878C378.056 132.904 376.959 133.862 376.13 134.524L380.916 142.813L381.423 143.692L380.411 143.626C377.051 143.41 373.138 144.837 369.56 146.775C367.349 147.974 365.297 149.35 363.628 150.606C369.384 147.457 375.846 148.147 378.197 152.218L379.137 151.675L382.428 149.775C384.505 148.576 387.161 149.288 388.36 151.365L394.603 162.178C395.803 164.255 395.091 166.911 393.014 168.11L388.783 170.553C391.133 174.624 388.499 180.566 382.895 183.977C384.816 183.159 387.034 182.07 389.178 180.754C392.645 178.625 395.838 175.95 397.33 172.932L397.78 172.023L398.287 172.901L403.073 181.19C404.06 180.803 405.439 180.332 406.816 179.999C407.616 179.805 408.427 179.655 409.169 179.598C409.901 179.541 410.615 179.57 411.193 179.773C411.504 179.883 411.757 179.969 411.96 180.037C411.958 178.387 411.802 175.922 411.335 173.246C410.805 170.2 409.878 166.921 408.349 164.271L409.289 163.729C410.908 166.533 411.863 169.951 412.405 173.06C412.869 175.721 413.035 178.184 413.045 179.893C417.687 181.554 419.731 184.853 420.181 186.427L420.206 186.513L420.201 186.603C420.133 187.939 419.355 188.858 418.255 189.444C417.178 190.018 415.757 190.3 414.256 190.408C411.245 190.625 407.697 190.156 405.351 189.662L405.227 189.635L405.127 189.557C402.263 187.303 402.028 183.685 402.272 181.974L397.829 174.279C396.067 177.205 392.951 179.711 389.746 181.679C386.214 183.848 382.492 185.412 380.132 186.191L379.881 185.431C374.799 187.286 369.666 186.299 367.627 182.768C366.753 181.253 366.568 179.48 366.969 177.675L366.061 177.783C365.497 173.054 362.159 169.466 360.575 168.281L361.123 167.548C359.359 166.993 357.915 165.947 357.041 164.433ZM388.491 170.095C386.889 167.803 383.865 166.742 380.47 167.012L380.348 166.801L379.874 165.979L377.703 162.221L377.229 161.399L377.107 161.188C379.038 158.383 379.632 155.234 378.448 152.7L378.468 152.688L379.391 152.156L382.699 150.246C384.517 149.196 386.841 149.819 387.89 151.636L394.133 162.449C395.183 164.267 394.56 166.591 392.742 167.64L389.434 169.55L388.511 170.083L388.491 170.095ZM376.759 161.671C375.564 163.254 373.937 164.707 371.962 165.847C368.422 167.891 364.575 168.464 361.559 167.674C363.32 169.127 366.376 172.624 367.081 177.226C367.907 174.222 370.326 171.18 373.862 169.138C375.847 167.992 377.929 167.309 379.907 167.069C379.898 167.07 379.888 167.071 379.878 167.072L376.759 161.671ZM370.644 128.738C371.131 131.693 373.635 133.423 375.034 134.002L375.094 133.956C375.91 133.332 377.161 132.271 378.248 131.129C378.791 130.558 379.285 129.977 379.662 129.427C380.045 128.868 380.279 128.383 380.35 128.001C380.532 127.029 380.643 126.535 380.714 126.325C380.724 126.295 380.737 126.261 380.753 126.226C380.763 126.203 380.796 126.132 380.857 126.063C380.866 126.053 380.879 126.039 380.896 126.024C381.481 121.909 379.945 119.08 379.071 118.119C378.33 117.774 377.582 117.883 376.787 118.379C375.94 118.907 375.087 119.851 374.277 121.047C372.691 123.387 371.38 126.517 370.644 128.738ZM368.641 176.112C369.666 173.873 371.656 171.665 374.405 170.079C377.153 168.492 380.06 167.872 382.511 168.104C384.965 168.337 386.865 169.403 387.842 171.096C388.82 172.789 388.793 174.968 387.768 177.209C386.744 179.448 384.753 181.655 382.005 183.242C379.256 184.829 376.349 185.449 373.898 185.217C371.445 184.984 369.544 183.917 368.567 182.225C367.59 180.532 367.616 178.353 368.641 176.112ZM403.329 182.256C404.286 181.875 405.684 181.39 407.072 181.054C407.838 180.868 408.588 180.732 409.253 180.68C409.928 180.628 410.465 180.668 410.832 180.797C411.765 181.126 412.248 181.276 412.465 181.32C412.496 181.326 412.533 181.332 412.57 181.336C412.596 181.338 412.673 181.346 412.764 181.327C412.808 181.318 412.91 181.291 413.01 181.207C413.052 181.171 413.089 181.129 413.119 181.081C417.017 182.628 418.714 185.394 419.111 186.638C419.04 187.452 418.571 188.045 417.744 188.486C416.863 188.955 415.619 189.221 414.178 189.325C411.359 189.528 407.993 189.099 405.701 188.626C403.419 186.753 403.147 183.779 403.329 182.256ZM412.33 181.209C412.331 181.21 412.331 181.21 412.331 181.21C412.331 181.21 412.329 181.209 412.325 181.206L412.33 181.209ZM380.742 126.497L380.742 126.498L380.742 126.503L380.742 126.498L380.742 126.497Z" fill="white"/>
</g>
<g style="mix-blend-mode:hard-light" filter="url(#filter2_f_474_8283)">
<circle cx="23.4514" cy="23.4514" r="23.4514" transform="matrix(-0.5 -0.866025 -0.866025 0.5 454.289 148.083)" fill="#128DFF" fill-opacity="0.2"/>
</g>
<g style="mix-blend-mode:hard-light" filter="url(#filter3_f_474_8283)">
<circle cx="19.5429" cy="19.5429" r="18.8371" transform="matrix(-0.5 -0.866025 -0.866025 0.5 448.95 146.652)" stroke="#0094FF" stroke-width="1.41143"/>
</g>
<g style="mix-blend-mode:hard-light" filter="url(#filter4_f_474_8283)">
<circle cx="19.5429" cy="19.5429" r="18.62" transform="matrix(-0.5 -0.866025 -0.866025 0.5 448.95 146.652)" stroke="#0094FF" stroke-width="1.84571"/>
</g>
<g style="mix-blend-mode:hard-light" filter="url(#filter5_ddi_474_8283)">
<circle cx="19.5429" cy="19.5429" r="18.8371" transform="matrix(-0.5 -0.866025 -0.866025 0.5 448.95 146.652)" stroke="#00B3FF" stroke-opacity="0.2" stroke-width="1.41143"/>
</g>
<g filter="url(#filter6_f_474_8283)">
<circle cx="19.5429" cy="19.5429" r="19.1086" transform="matrix(-0.5 -0.866025 -0.866025 0.5 448.95 146.652)" stroke="#82D9FF" stroke-width="0.868571"/>
</g>
<g filter="url(#filter7_f_474_8283)">
<circle cx="19.5429" cy="19.5429" r="19.3257" transform="matrix(-0.5 -0.866025 -0.866025 0.5 448.95 146.652)" stroke="white" stroke-width="0.434286"/>
</g>
<path fill-rule="evenodd" clip-rule="evenodd" d="M531.791 236.029H525.777H522.988V236.173C509.51 237.568 499 248.96 499 262.806C499 276.653 509.51 288.045 522.988 289.439V289.583H525.777H575.426H576.541V289.56C590.812 288.975 602.202 277.221 602.202 262.806C602.202 260.293 601.856 257.86 601.209 255.554H607.223H608.339V255.531C622.61 254.946 634 243.192 634 228.777C634 214.362 622.61 202.608 608.339 202.023V202H607.223L554.785 202V202.144C541.308 203.539 530.798 214.931 530.798 228.777C530.798 231.29 531.144 233.723 531.791 236.029Z" fill="#4AC7D1"/>
<path fill-rule="evenodd" clip-rule="evenodd" d="M155.692 214.322H152.63H151.211V214.395C144.35 215.105 139 220.904 139 227.953C139 235.001 144.35 240.8 151.211 241.51V241.583H152.63H177.904H178.471V241.571C185.736 241.274 191.534 235.29 191.534 227.953C191.534 226.673 191.358 225.435 191.028 224.261H194.09H194.658V224.249C201.922 223.951 207.72 217.968 207.72 210.63C207.72 203.293 201.922 197.309 194.658 197.012V197H194.09H167.397V197.073C160.536 197.783 155.186 203.582 155.186 210.631C155.186 211.91 155.362 213.148 155.692 214.322Z" fill="#FC6EB3"/>
<circle cx="101" cy="258" r="12" fill="#4AC7D1"/>
<circle cx="239" cy="156" r="12" fill="#6A00B7"/>
<defs>
<filter id="filter0_f_474_8283" x="354.01" y="109.939" width="96.399" height="82.6951" filterUnits="userSpaceOnUse" color-interpolation-filters="sRGB">
<feFlood flood-opacity="0" result="BackgroundImageFix"/>
<feBlend mode="normal" in="SourceGraphic" in2="BackgroundImageFix" result="shape"/>
<feGaussianBlur stdDeviation="1.08571" result="effect1_foregroundBlur_474_8283"/>
</filter>
<filter id="filter1_f_474_8283" x="355.639" y="111.567" width="93.1419" height="79.4379" filterUnits="userSpaceOnUse" color-interpolation-filters="sRGB">
<feFlood flood-opacity="0" result="BackgroundImageFix"/>
<feBlend mode="normal" in="SourceGraphic" in2="BackgroundImageFix" result="shape"/>
<feGaussianBlur stdDeviation="0.271429" result="effect1_foregroundBlur_474_8283"/>
</filter>
<filter id="filter2_f_474_8283" x="392.285" y="109.529" width="59.9392" height="59.9393" filterUnits="userSpaceOnUse" color-interpolation-filters="sRGB">
<feFlood flood-opacity="0" result="BackgroundImageFix"/>
<feBlend mode="normal" in="SourceGraphic" in2="BackgroundImageFix" result="shape"/>
<feGaussianBlur stdDeviation="3.25714" result="effect1_foregroundBlur_474_8283"/>
</filter>
<filter id="filter3_f_474_8283" x="396.194" y="113.438" width="52.1209" height="52.1208" filterUnits="userSpaceOnUse" color-interpolation-filters="sRGB">
<feFlood flood-opacity="0" result="BackgroundImageFix"/>
<feBlend mode="normal" in="SourceGraphic" in2="BackgroundImageFix" result="shape"/>
<feGaussianBlur stdDeviation="3.25714" result="effect1_foregroundBlur_474_8283"/>
</filter>
<filter id="filter4_f_474_8283" x="400.537" y="117.781" width="43.4351" height="43.4351" filterUnits="userSpaceOnUse" color-interpolation-filters="sRGB">
<feFlood flood-opacity="0" result="BackgroundImageFix"/>
<feBlend mode="normal" in="SourceGraphic" in2="BackgroundImageFix" result="shape"/>
<feGaussianBlur stdDeviation="1.08571" result="effect1_foregroundBlur_474_8283"/>
</filter>
<filter id="filter5_ddi_474_8283" x="399.885" y="119.301" width="44.738" height="44.7379" filterUnits="userSpaceOnUse" color-interpolation-filters="sRGB">
<feFlood flood-opacity="0" result="BackgroundImageFix"/>
<feColorMatrix in="SourceAlpha" type="matrix" values="0 0 0 0 0 0 0 0 0 0 0 0 0 0 0 0 0 0 127 0" result="hardAlpha"/>
<feOffset dy="1.41143"/>
<feGaussianBlur stdDeviation="0.542857"/>
<feColorMatrix type="matrix" values="0 0 0 0 0 0 0 0 0 0.051 0 0 0 0 0.082 0 0 0 0.7 0"/>
<feBlend mode="multiply" in2="BackgroundImageFix" result="effect1_dropShadow_474_8283"/>
<feColorMatrix in="SourceAlpha" type="matrix" values="0 0 0 0 0 0 0 0 0 0 0 0 0 0 0 0 0 0 127 0" result="hardAlpha"/>
<feOffset dy="2.17143"/>
<feGaussianBlur stdDeviation="1.41143"/>
<feColorMatrix type="matrix" values="0 0 0 0 0 0 0 0 0 0.4 0 0 0 0 1 0 0 0 1 0"/>
<feBlend mode="color-dodge" in2="effect1_dropShadow_474_8283" result="effect2_dropShadow_474_8283"/>
<feBlend mode="normal" in="SourceGraphic" in2="effect2_dropShadow_474_8283" result="shape"/>
<feColorMatrix in="SourceAlpha" type="matrix" values="0 0 0 0 0 0 0 0 0 0 0 0 0 0 0 0 0 0 127 0" result="hardAlpha"/>
<feOffset dx="-0.141143" dy="0.282286"/>
<feGaussianBlur stdDeviation="0.0705714"/>
<feComposite in2="hardAlpha" operator="arithmetic" k2="-1" k3="1"/>
<feColorMatrix type="matrix" values="0 0 0 0 1 0 0 0 0 1 0 0 0 0 1 0 0 0 0.5 0"/>
<feBlend mode="normal" in2="shape" result="effect3_innerShadow_474_8283"/>
</filter>
<filter id="filter6_f_474_8283" x="402.491" y="119.736" width="39.5266" height="39.5265" filterUnits="userSpaceOnUse" color-interpolation-filters="sRGB">
<feFlood flood-opacity="0" result="BackgroundImageFix"/>
<feBlend mode="normal" in="SourceGraphic" in2="BackgroundImageFix" result="shape"/>
<feGaussianBlur stdDeviation="0.108571" result="effect1_foregroundBlur_474_8283"/>
</filter>
<filter id="filter7_f_474_8283" x="402.563" y="119.808" width="39.3818" height="39.3817" filterUnits="userSpaceOnUse" color-interpolation-filters="sRGB">
<feFlood flood-opacity="0" result="BackgroundImageFix"/>
<feBlend mode="normal" in="SourceGraphic" in2="BackgroundImageFix" result="shape"/>
<feGaussianBlur stdDeviation="0.072381" result="effect1_foregroundBlur_474_8283"/>
</filter>
</defs>
</svg>
