<svg width="87" height="246" viewBox="0 0 87 246" fill="none" xmlns="http://www.w3.org/2000/svg">
<path fill-rule="evenodd" clip-rule="evenodd" d="M39.7344 192.102H37.949H37.1209V192.145C33.1199 192.559 30 195.941 30 200.051C30 204.161 33.1199 207.543 37.1209 207.957V208H37.949H52.6878H53.0189V207.993C57.2555 207.82 60.6368 204.33 60.6368 200.051C60.6368 199.305 60.534 198.583 60.3417 197.898H62.1272H62.4584V197.891C66.6949 197.718 70.0762 194.228 70.0762 189.949C70.0762 185.67 66.6949 182.18 62.4584 182.007V182H62.1272H46.5604V182.043C42.5594 182.457 39.4394 185.839 39.4394 189.949C39.4394 190.695 39.5422 191.417 39.7344 192.102Z" fill="#FC6EB3"/>
<circle cx="26" cy="220" r="4" fill="#4AC7D1"/>
</svg>
