<svg width="990" height="444" viewBox="0 0 990 444" fill="none" xmlns="http://www.w3.org/2000/svg">
<g clip-path="url(#clip0_468_60128)">
<path d="M331.504 297.208V251.832C331.504 250.04 332.784 249.208 334.512 249.208C336.304 249.208 337.648 250.04 337.648 251.832V297.208C337.648 298.936 336.304 299.832 334.512 299.832C332.784 299.832 331.504 298.936 331.504 297.208ZM348.754 292.6V256.504C348.754 251.576 350.738 249.592 355.282 249.592H366.674C380.818 249.592 389.138 258.552 389.138 273.976C389.138 289.912 380.69 299.448 366.674 299.448H355.282C350.738 299.448 348.754 297.464 348.754 292.6ZM354.834 257.208V291.704C354.834 293.176 355.602 293.88 356.882 293.88H366.354C376.722 293.88 382.802 286.52 382.802 274.04C382.802 261.816 377.106 255.096 366.546 255.096H356.946C355.73 255.096 354.834 255.864 354.834 257.208ZM404.145 276.088V291.832C404.145 293.304 405.105 293.88 406.513 293.88H429.425C431.089 293.88 431.985 295.032 431.985 296.632C431.985 298.168 431.089 299.448 429.425 299.448H404.657C400.113 299.448 398.129 297.464 398.129 292.6V256.504C398.129 251.576 400.113 249.592 404.657 249.592H428.849C430.513 249.592 431.409 250.744 431.409 252.344C431.409 253.944 430.513 255.16 428.849 255.16H406.321C404.785 255.16 404.145 255.864 404.145 257.4V270.648H425.969C427.569 270.648 428.465 271.8 428.465 273.4C428.465 274.872 427.505 276.088 425.969 276.088H404.145ZM447.183 284.856L442.255 298.04C441.807 299.32 440.847 299.832 439.759 299.832C439.311 299.832 438.927 299.768 438.479 299.64C437.199 299.32 436.239 298.232 436.239 297.016C436.239 296.632 436.303 296.312 436.431 295.928L453.839 252.216C454.671 250.04 456.271 249.208 458.255 249.208C460.303 249.208 461.967 250.04 462.799 252.216L480.207 296.056C480.399 296.44 480.463 296.76 480.463 297.144C480.463 298.424 479.439 299.384 478.159 299.704C477.775 299.832 477.391 299.896 477.007 299.896C475.855 299.896 474.831 299.32 474.383 298.104L469.326 284.856H447.183ZM449.103 279.48H467.407L460.303 260.856C459.599 259 458.895 256.952 458.319 254.776C457.743 256.952 457.103 259 456.335 260.92L449.103 279.48ZM523.712 270.264L528.448 271.224C538.432 273.336 543.872 276.728 543.872 286.008C543.872 294.264 537.536 300.472 526.08 300.472C511.488 300.472 508.48 292.92 506.944 287.736C506.88 287.416 506.816 287.16 506.816 286.904C506.816 285.496 507.904 284.536 509.248 284.216C509.632 284.152 509.952 284.088 510.336 284.088C511.552 284.088 512.768 284.664 513.152 286.008C514.304 290.296 516.416 295.096 525.76 295.096C533.056 295.096 537.6 291.576 537.6 286.072C537.6 280.824 534.72 278.52 527.168 276.984L522.048 275.896C512.448 273.912 508.096 270.264 508.096 261.88C508.096 255.16 513.088 248.632 525.12 248.632C536.64 248.632 540.608 254.776 542.016 259.384C542.144 259.704 542.208 260.024 542.208 260.344C542.208 261.688 541.12 262.648 539.84 262.904C539.52 262.968 539.136 263.032 538.752 263.032C537.6 263.032 536.448 262.52 535.936 261.176C534.912 257.528 532.224 253.944 525.12 253.944C517.696 253.944 514.304 257.656 514.304 261.88C514.304 266.488 516.544 268.856 523.712 270.264ZM558.522 279.032V297.144C558.522 298.936 557.242 299.832 555.514 299.832C553.722 299.832 552.506 298.936 552.506 297.08V256.504C552.506 251.576 554.49 249.592 559.034 249.592H573.242C583.354 249.592 589.05 254.776 589.05 263.864C589.05 273.464 583.162 279.032 572.986 279.032H558.522ZM558.522 273.656H572.858C579.322 273.656 582.778 270.2 582.778 263.992C582.778 258.232 579.257 255.032 572.858 255.032H560.57C559.162 255.032 558.522 255.864 558.522 257.272V273.656ZM600.308 284.856L595.38 298.04C594.932 299.32 593.972 299.832 592.884 299.832C592.436 299.832 592.052 299.768 591.604 299.64C590.324 299.32 589.364 298.232 589.364 297.016C589.364 296.632 589.428 296.312 589.556 295.928L606.964 252.216C607.796 250.04 609.396 249.208 611.38 249.208C613.428 249.208 615.092 250.04 615.924 252.216L633.332 296.056C633.524 296.44 633.588 296.76 633.588 297.144C633.588 298.424 632.564 299.384 631.284 299.704C630.9 299.832 630.516 299.896 630.132 299.896C628.98 299.896 627.956 299.32 627.508 298.104L622.451 284.856H600.308ZM602.228 279.48H620.532L613.428 260.856C612.724 259 612.02 256.952 611.444 254.776C610.868 256.952 610.228 259 609.46 260.92L602.228 279.48ZM661.285 248.632C672.549 248.632 677.605 254.52 679.909 260.152C680.101 260.6 680.165 261.048 680.165 261.432C680.165 262.776 679.141 263.672 678.181 263.992C677.669 264.184 677.157 264.248 676.645 264.248C675.557 264.248 674.533 263.8 673.957 262.584C672.037 257.976 668.837 254.2 661.541 254.2C651.941 254.2 645.605 261.944 645.605 274.552C645.605 286.904 651.941 294.84 661.541 294.84C669.221 294.84 672.869 290.232 674.533 285.112C675.045 283.704 676.197 283.128 677.413 283.128C677.797 283.128 678.245 283.192 678.693 283.32C679.781 283.576 680.933 284.536 680.933 285.88C680.933 286.264 680.869 286.584 680.741 286.968C678.501 293.304 673.125 300.472 661.733 300.472C647.973 300.472 639.205 290.424 639.205 274.488C639.205 258.936 647.973 248.632 661.285 248.632ZM694.833 276.088V291.832C694.833 293.304 695.793 293.88 697.201 293.88H720.113C721.777 293.88 722.673 295.032 722.673 296.632C722.673 298.168 721.777 299.448 720.113 299.448H695.345C690.801 299.448 688.817 297.464 688.817 292.6V256.504C688.817 251.576 690.801 249.592 695.345 249.592H719.537C721.201 249.592 722.097 250.744 722.097 252.344C722.097 253.944 721.201 255.16 719.537 255.16H697.009C695.473 255.16 694.833 255.864 694.833 257.4V270.648H716.657C718.257 270.648 719.153 271.8 719.153 273.4C719.153 274.872 718.193 276.088 716.657 276.088H694.833ZM764.687 255.224H750.159C748.559 255.224 747.663 253.944 747.663 252.472C747.663 250.936 748.559 249.592 750.095 249.592H785.359C786.895 249.592 787.791 250.936 787.791 252.472C787.791 253.944 786.831 255.224 785.359 255.224H770.831V297.208C770.831 298.936 769.487 299.832 767.759 299.832C766.031 299.832 764.687 298.936 764.687 297.208V255.224ZM831.233 292.28L832.833 296.056C832.961 296.44 833.025 296.76 833.025 297.144C833.025 298.36 832.193 299.32 830.913 299.64C830.465 299.768 829.953 299.832 829.505 299.832C828.417 299.832 827.457 299.32 827.009 298.168L825.409 294.072C820.801 281.592 819.009 277.048 812.609 277.048H800.833V297.144C800.833 298.936 799.617 299.832 797.889 299.832C796.097 299.832 794.817 298.936 794.817 297.08V256.504C794.817 251.576 796.801 249.592 801.345 249.592H816.321C825.601 249.592 830.721 254.52 830.721 262.392C830.721 269.752 826.561 273.592 820.609 274.872C824.449 276.024 826.497 280.312 831.233 292.28ZM800.833 271.8H815.553C820.993 271.8 824.576 268.408 824.576 263.288C824.576 257.848 821.632 254.904 815.937 254.904H802.945C801.601 254.904 800.833 255.608 800.833 257.144V271.8ZM840.879 297.208V251.832C840.879 250.04 842.159 249.208 843.887 249.208C845.679 249.208 847.023 250.04 847.023 251.832V297.208C847.023 298.936 845.679 299.832 843.887 299.832C842.159 299.832 840.879 298.936 840.879 297.208ZM864.209 279.032V297.144C864.209 298.936 862.929 299.832 861.201 299.832C859.409 299.832 858.193 298.936 858.193 297.08V256.504C858.193 251.576 860.177 249.592 864.721 249.592H878.929C889.041 249.592 894.737 254.776 894.737 263.864C894.737 273.464 888.849 279.032 878.673 279.032H864.209ZM864.209 273.656H878.545C885.009 273.656 888.465 270.2 888.465 263.992C888.465 258.232 884.945 255.032 878.545 255.032H866.257C864.849 255.032 864.209 255.864 864.209 257.272V273.656Z" fill="white"/>
<path d="M344.833 -193.919C463.256 -183.397 571.179 -157.365 673.594 -124.218C747.292 -100.271 824.964 -81.7539 904.013 -63.4084C1021.23 -35.8683 1119.73 2.10221 1136.4 65.2109C1156.69 144.579 1156.21 222.246 1094.34 293.066C1067.22 324.408 1044.1 356.441 995.358 381.717C917.205 422.508 808.538 433.736 685.576 433.789C503.175 433.611 340.235 373.501 263.498 309.792C223.258 276.533 208.186 241.727 207.354 206.462C207.188 189.617 206.32 173.011 205.486 156.102C203.651 129.92 177.715 107.834 133.965 88.0028C61.2352 55.2746 8.66168 17.4571 -29.2378 -24.7553C-111.12 -115.275 10.6531 -183.979 151.339 -197.618C214.111 -203.181 278.72 -200.918 344.833 -193.919Z" fill="#6A00B7"/>
</g>
<defs>
<clipPath id="clip0_468_60128">
<rect width="990" height="444" fill="white"/>
</clipPath>
</defs>
</svg>
