<svg width="862" height="496" viewBox="0 0 862 496" fill="none" xmlns="http://www.w3.org/2000/svg">
<g clip-path="url(#clip0_474_7640)">
<path d="M363.221 -278.124C505.34 -262.631 635.263 -229.1 758.761 -187.312C847.633 -157.129 941.133 -133.255 1036.28 -109.547C1177.38 -73.9939 1296.3 -26.6129 1317.82 48.3236C1344.07 142.549 1345.41 234.228 1273.03 316.232C1241.32 352.529 1214.4 389.747 1156.64 418.324C1064.02 464.453 934.122 474.891 786.826 471.765C568.32 466.824 371.655 391.635 278.165 314.432C229.143 274.125 210.234 232.643 208.37 190.988C207.758 171.097 206.31 151.471 204.895 131.486C202.053 100.529 170.442 73.7824 117.545 49.2359C29.6172 8.71206 -34.2906 -37.2975 -80.7283 -88.1149C-181.04 -197.103 -36.8546 -275.055 131.34 -287.509C206.399 -292.448 283.851 -288.101 363.221 -278.124Z" fill="#6A00B7"/>
</g>
<defs>
<clipPath id="clip0_474_7640">
<rect width="862" height="496" fill="white"/>
</clipPath>
</defs>
</svg>
