<svg width="756" height="366" viewBox="0 0 756 366" fill="none" xmlns="http://www.w3.org/2000/svg">
<circle cx="644" cy="169" r="20" fill="#6A00B7"/>
<path fill-rule="evenodd" clip-rule="evenodd" d="M373.33 196.651C385.274 189.755 400.546 193.848 407.441 205.791C414.337 217.735 410.245 233.007 398.301 239.903C386.358 246.798 371.085 242.706 364.19 230.763C357.294 218.819 361.386 203.547 373.33 196.651ZM382.564 192.417C392.651 191.153 402.98 195.892 408.382 205.248C413.786 214.61 412.722 225.93 406.577 234.035C406.837 234.249 407.061 234.496 407.245 234.777C407.279 234.828 407.312 234.881 407.343 234.935C408.793 237.447 406.601 241.427 402.447 243.826C398.415 246.153 394.017 246.135 392.435 243.837C392.387 243.767 392.342 243.695 392.299 243.62C392.282 243.592 392.266 243.563 392.251 243.534C381.218 246.351 369.222 241.651 363.249 231.305C357.277 220.96 359.204 208.222 367.159 200.076C367.149 200.06 367.139 200.043 367.13 200.026C367.087 199.952 367.047 199.877 367.011 199.8C365.811 197.281 367.994 193.463 372.026 191.135C376.18 188.737 380.724 188.829 382.174 191.34C382.205 191.394 382.234 191.449 382.262 191.504C382.407 191.792 382.507 192.098 382.564 192.417ZM373.31 194.446C371.229 195.648 369.399 197.137 367.829 198.855C367.665 198.109 367.826 197.154 368.427 196.062C369.203 194.654 370.634 193.193 372.569 192.076C374.504 190.959 376.485 190.45 378.092 190.482C379.573 190.512 380.573 190.984 381.091 191.668C378.388 192.116 375.763 193.03 373.31 194.446ZM393.663 243.6C395.935 243.1 398.141 242.259 400.222 241.058C402.675 239.642 404.779 237.826 406.518 235.709C406.852 236.499 406.76 237.602 406.045 238.899C405.27 240.307 403.838 241.768 401.904 242.885C399.969 244.002 397.988 244.511 396.381 244.479C395.134 244.454 394.227 244.115 393.663 243.6ZM425.715 173.928C428.464 172.341 431.371 171.721 433.822 171.954C436.275 172.186 438.176 173.253 439.153 174.946C440.13 176.639 440.104 178.818 439.079 181.059C438.055 183.297 436.064 185.505 433.315 187.092C430.567 188.679 427.66 189.299 425.209 189.066C422.755 188.834 420.855 187.767 419.878 186.074C418.9 184.381 418.927 182.202 419.952 179.961C420.976 177.723 422.967 175.515 425.715 173.928ZM440.093 174.403C438.054 170.871 432.921 169.884 427.839 171.74L427.588 170.98C425.228 171.759 421.506 173.322 417.974 175.491C414.769 177.459 411.653 179.966 409.891 182.891L405.405 175.122L405.777 175.189C406.068 173.577 405.936 169.752 402.953 167.405L402.854 167.327L402.73 167.301C400.384 166.806 396.835 166.337 393.824 166.554C392.324 166.662 390.903 166.944 389.826 167.518C388.725 168.105 387.947 169.023 387.879 170.359L387.875 170.449L387.9 170.536C388.338 172.067 390.287 175.236 394.675 176.935C394.664 178.647 394.819 181.266 395.315 184.111C395.857 187.22 396.812 190.638 398.431 193.442L399.371 192.899C397.842 190.25 396.915 186.971 396.385 183.924C395.918 181.249 395.762 178.783 395.76 177.133C395.964 177.201 396.216 177.288 396.527 177.397C397.105 177.601 397.819 177.629 398.551 177.573C399.293 177.515 400.105 177.365 400.904 177.172C402.282 176.839 403.66 176.367 404.647 175.98L409.433 184.269L409.94 185.148L410.39 184.238C411.882 181.22 415.075 178.545 418.542 176.416C420.686 175.1 422.903 174.011 424.825 173.194C419.221 176.604 416.587 182.546 418.937 186.617L417.997 187.16L414.706 189.06C412.629 190.259 411.917 192.915 413.117 194.992L419.36 205.805C420.559 207.883 423.215 208.594 425.292 207.395L429.523 204.952C431.874 209.023 438.336 209.713 444.092 206.565C442.423 207.821 440.371 209.197 438.16 210.395C434.582 212.333 430.669 213.761 427.309 213.544L426.297 213.479L426.804 214.357L431.59 222.646C430.761 223.308 429.664 224.266 428.686 225.292C428.119 225.888 427.583 226.516 427.163 227.13C426.748 227.735 426.415 228.368 426.303 228.97C426.242 229.294 426.191 229.556 426.148 229.766C424.72 228.94 422.663 227.572 420.579 225.83C418.206 223.847 415.83 221.405 414.3 218.756L413.36 219.299C414.979 222.103 417.461 224.639 419.883 226.663C421.955 228.395 424.006 229.771 425.481 230.634C424.598 235.484 426.433 238.904 427.571 240.081L427.633 240.146L427.714 240.187C428.904 240.796 430.089 240.581 431.147 239.921C432.183 239.276 433.137 238.186 433.981 236.94C435.675 234.441 437.043 231.134 437.787 228.855L437.827 228.735L437.809 228.609C437.289 225.001 434.273 222.989 432.67 222.345L428.227 214.649C431.641 214.586 435.37 213.141 438.677 211.35C442.321 209.375 445.536 206.933 447.391 205.279L446.858 204.682C451.006 201.209 452.718 196.269 450.679 192.738C449.805 191.224 448.361 190.177 446.597 189.622L447.145 188.89C443.332 186.037 441.893 181.351 441.659 179.387L440.751 179.496C441.152 177.69 440.968 175.917 440.093 174.403ZM429.289 204.507C428.083 201.967 428.672 198.801 430.613 195.983L430.491 195.771L430.017 194.95L427.847 191.191L427.372 190.37L427.25 190.158C427.447 190.143 427.644 190.123 427.842 190.098L430.961 195.5C432.156 193.916 433.783 192.464 435.758 191.323C439.295 189.281 443.138 188.708 446.153 189.494C442.52 186.582 441.019 182.188 440.642 179.936C439.818 182.943 437.398 185.988 433.858 188.032C428.238 191.277 421.843 190.814 419.229 187.076L419.209 187.087L418.286 187.62L414.978 189.53C413.16 190.58 412.538 192.904 413.587 194.721L419.83 205.534C420.879 207.352 423.203 207.974 425.021 206.925L428.329 205.015L429.252 204.482L429.272 204.47C429.278 204.483 429.284 204.495 429.289 204.507ZM402.379 168.337C404.694 170.235 404.941 173.268 404.743 174.77L404.673 174.799C403.725 175.193 402.181 175.746 400.648 176.117C399.882 176.302 399.132 176.439 398.467 176.49C397.792 176.543 397.255 176.503 396.888 176.373C395.955 176.045 395.472 175.894 395.255 175.851C395.224 175.845 395.188 175.838 395.15 175.835C395.124 175.832 395.047 175.825 394.956 175.844C394.943 175.846 394.925 175.851 394.903 175.857C391.047 174.307 389.365 171.562 388.97 170.324C389.041 169.511 389.51 168.917 390.337 168.476C391.217 168.007 392.462 167.741 393.903 167.637C396.722 167.434 400.087 167.863 402.379 168.337ZM444.407 190.289C441.957 190.056 439.05 190.676 436.301 192.263C433.553 193.85 431.562 196.058 430.538 198.296C429.513 200.537 429.486 202.717 430.463 204.409C431.441 206.102 433.341 207.169 435.795 207.401C438.245 207.634 441.153 207.014 443.901 205.427C446.65 203.84 448.64 201.632 449.664 199.394C450.69 197.153 450.716 194.974 449.739 193.281C448.761 191.588 446.861 190.521 444.407 190.289ZM432.385 223.402C431.576 224.039 430.457 225.007 429.472 226.041C428.929 226.612 428.435 227.194 428.058 227.743C427.675 228.302 427.441 228.787 427.37 229.169C427.188 230.142 427.077 230.636 427.006 230.845C426.996 230.875 426.983 230.91 426.967 230.944C426.957 230.968 426.924 231.038 426.863 231.107C426.833 231.141 426.759 231.216 426.636 231.261C426.584 231.279 426.528 231.29 426.472 231.293C425.863 235.441 427.41 238.294 428.289 239.26C429.029 239.605 429.777 239.496 430.573 239C431.42 238.472 432.272 237.527 433.082 236.331C434.668 233.991 435.979 230.862 436.715 228.641C436.235 225.728 433.795 224.005 432.385 223.402ZM426.978 230.673C426.978 230.674 426.978 230.674 426.978 230.674L426.978 230.672L426.978 230.667L426.978 230.673ZM395.389 175.961C395.389 175.961 395.389 175.961 395.39 175.961L395.395 175.964L395.39 175.961L395.389 175.961Z" fill="white"/>
<g filter="url(#filter0_f_474_7772)">
<path fill-rule="evenodd" clip-rule="evenodd" d="M373.058 196.181C385.002 189.285 400.274 193.377 407.17 205.321C414.066 217.265 409.973 232.537 398.03 239.433C386.086 246.328 370.814 242.236 363.918 230.292C357.023 218.349 361.115 203.076 373.058 196.181ZM382.292 191.946C392.379 190.682 402.708 195.421 408.11 204.778C413.515 214.139 412.451 225.46 406.305 233.564C406.565 233.779 406.79 234.026 406.974 234.306C407.008 234.358 407.04 234.411 407.071 234.465C408.522 236.976 406.329 240.957 402.175 243.355C398.143 245.683 393.745 245.665 392.164 243.366C392.116 243.296 392.07 243.224 392.027 243.15C392.011 243.122 391.995 243.093 391.979 243.064C380.947 245.881 368.951 241.181 362.978 230.835C357.005 220.49 358.932 207.752 366.888 199.606L366.868 199.573L366.858 199.556C366.815 199.482 366.776 199.406 366.739 199.33C365.539 196.811 367.723 192.993 371.754 190.665C375.909 188.267 380.452 188.359 381.902 190.87C381.933 190.924 381.963 190.979 381.99 191.034C382.135 191.322 382.235 191.628 382.292 191.946ZM373.039 193.976C370.958 195.177 369.127 196.667 367.558 198.385C367.394 197.639 367.554 196.684 368.156 195.592C368.931 194.184 370.362 192.723 372.297 191.605C374.232 190.488 376.213 189.979 377.82 190.012C379.301 190.042 380.302 190.513 380.819 191.198C378.117 191.645 375.492 192.56 373.039 193.976ZM393.391 243.13C395.664 242.63 397.869 241.789 399.95 240.588C402.403 239.171 404.507 237.355 406.246 235.239C406.58 236.029 406.488 237.131 405.774 238.429C404.998 239.837 403.567 241.298 401.632 242.415C399.697 243.532 397.716 244.041 396.109 244.009C394.862 243.983 393.956 243.645 393.391 243.13ZM425.444 173.458C428.192 171.871 431.099 171.251 433.55 171.483C436.004 171.716 437.904 172.783 438.881 174.475C439.859 176.168 439.832 178.347 438.807 180.589C437.783 182.827 435.792 185.035 433.044 186.622C430.295 188.208 427.388 188.829 424.938 188.596C422.484 188.364 420.584 187.297 419.606 185.604C418.629 183.911 418.655 181.732 419.681 179.491C420.705 177.252 422.695 175.045 425.444 173.458ZM439.822 173.933C437.783 170.401 432.65 169.414 427.567 171.269L427.317 170.509C424.957 171.289 421.235 172.852 417.702 175.021C414.497 176.989 411.381 179.496 409.62 182.421L405.134 174.651L405.505 174.718C405.796 173.107 405.664 169.282 402.682 166.935L402.582 166.856L402.458 166.83C400.112 166.336 396.564 165.867 393.553 166.084C392.052 166.192 390.632 166.474 389.555 167.048C388.454 167.634 387.676 168.553 387.608 169.889L387.603 169.979L387.628 170.065C388.066 171.597 390.016 174.766 394.403 176.464C394.393 178.177 394.548 180.796 395.044 183.64C395.585 186.75 396.541 190.168 398.16 192.972L399.1 192.429C397.57 189.779 396.644 186.5 396.113 183.454C395.647 180.779 395.491 178.313 395.488 176.663C395.692 176.731 395.945 176.818 396.256 176.927C396.833 177.131 397.548 177.159 398.279 177.103C399.022 177.045 399.833 176.895 400.632 176.702C402.01 176.368 403.388 175.897 404.376 175.51L409.161 183.799L409.669 184.677L410.118 183.768C411.61 180.75 414.803 178.075 418.27 175.946C420.414 174.63 422.632 173.541 424.554 172.724C418.949 176.134 416.316 182.076 418.666 186.147C418.666 186.147 418.666 186.147 418.666 186.147L414.435 188.59C412.358 189.789 411.646 192.445 412.845 194.522L419.088 205.335C420.287 207.412 422.943 208.124 425.021 206.925L429.252 204.482C431.602 208.553 438.064 209.243 443.82 206.095C442.152 207.35 440.1 208.727 437.888 209.925C434.311 211.863 430.398 213.291 427.038 213.074L426.026 213.009L426.533 213.887L431.319 222.176C430.49 222.838 429.392 223.796 428.415 224.822C427.848 225.418 427.312 226.045 426.891 226.659C426.476 227.265 426.144 227.898 426.031 228.499C425.97 228.824 425.919 229.086 425.876 229.296C424.449 228.47 422.391 227.101 420.307 225.36C417.935 223.377 415.558 220.935 414.028 218.286L413.088 218.829C414.707 221.633 417.189 224.169 419.611 226.193C421.684 227.925 423.735 229.3 425.209 230.164C424.326 235.014 426.162 238.434 427.299 239.61L427.362 239.675L427.442 239.716C428.633 240.326 429.817 240.111 430.876 239.451C431.911 238.805 432.866 237.716 433.71 236.47C435.403 233.971 436.771 230.664 437.516 228.385L437.555 228.264L437.537 228.139C437.017 224.531 434.001 222.519 432.398 221.875L427.955 214.179C431.37 214.116 435.099 212.671 438.405 210.879C442.05 208.905 445.265 206.463 447.119 204.809L446.587 204.212C450.735 200.738 452.446 195.799 450.407 192.268C449.533 190.753 448.09 189.707 446.326 189.152L446.874 188.419C443.061 185.567 441.622 180.881 441.388 178.917L440.479 179.025C440.881 177.22 440.696 175.447 439.822 173.933ZM429.001 204C427.817 201.467 428.41 198.318 430.341 195.512L430.219 195.301L429.745 194.48L427.575 190.721L427.101 189.899L426.979 189.688C423.584 189.958 420.56 188.897 418.958 186.605L418.938 186.617L418.015 187.15L414.706 189.06C412.889 190.109 412.266 192.433 413.315 194.251L419.558 205.064C420.608 206.881 422.932 207.504 424.749 206.455L428.057 204.545L428.98 204.012L429.001 204ZM427.571 189.628C429.54 189.385 431.611 188.702 433.587 187.562C437.126 185.518 439.546 182.473 440.37 179.466C440.748 181.718 442.248 186.112 445.881 189.024C442.866 188.237 439.023 188.811 435.487 190.853C433.511 191.993 431.885 193.446 430.69 195.03L427.571 189.628ZM402.108 167.866C404.423 169.765 404.67 172.798 404.472 174.3L404.402 174.329C403.453 174.723 401.909 175.276 400.377 175.646C399.611 175.832 398.86 175.969 398.196 176.02C397.52 176.072 396.983 176.032 396.616 175.903C395.684 175.575 395.2 175.424 394.983 175.381C394.952 175.374 394.916 175.368 394.878 175.364C394.853 175.362 394.775 175.354 394.685 175.373C394.672 175.376 394.653 175.38 394.631 175.387C390.775 173.836 389.093 171.092 388.698 169.854C388.769 169.04 389.238 168.447 390.065 168.006C390.946 167.537 392.19 167.271 393.631 167.167C396.45 166.964 399.816 167.393 402.108 167.866ZM444.136 189.818C441.685 189.586 438.778 190.206 436.03 191.793C433.281 193.38 431.29 195.587 430.266 197.826C429.241 200.067 429.215 202.246 430.192 203.939C431.169 205.632 433.07 206.699 435.523 206.931C437.974 207.164 440.881 206.544 443.63 204.957C446.378 203.37 448.369 201.162 449.393 198.924C450.418 196.682 450.445 194.503 449.467 192.811C448.49 191.118 446.59 190.051 444.136 189.818ZM432.113 222.931C431.305 223.569 430.186 224.537 429.201 225.571C428.657 226.142 428.164 226.723 427.787 227.273C427.404 227.832 427.17 228.317 427.098 228.699C426.916 229.671 426.805 230.165 426.734 230.375C426.724 230.405 426.711 230.439 426.696 230.474C426.685 230.497 426.653 230.568 426.591 230.637C426.561 230.671 426.487 230.746 426.365 230.79C426.312 230.809 426.257 230.82 426.201 230.822C425.591 234.971 427.138 237.824 428.017 238.789C428.758 239.135 429.506 239.026 430.301 238.53C431.148 238.002 432.001 237.057 432.811 235.861C434.396 233.521 435.707 230.392 436.443 228.17C435.963 225.257 433.523 223.535 432.113 222.931ZM426.706 230.204C426.706 230.204 426.706 230.202 426.706 230.197C426.707 230.201 426.707 230.204 426.706 230.204ZM395.118 175.49C395.118 175.49 395.118 175.491 395.119 175.491L395.123 175.494C395.12 175.492 395.118 175.49 395.118 175.49Z" fill="white"/>
</g>
<g filter="url(#filter1_f_474_7772)">
<path fill-rule="evenodd" clip-rule="evenodd" d="M373.058 196.181C385.002 189.285 400.274 193.377 407.17 205.321C414.066 217.265 409.973 232.537 398.03 239.433C386.086 246.328 370.814 242.236 363.918 230.292C357.023 218.349 361.115 203.076 373.058 196.181ZM382.292 191.946C392.379 190.682 402.708 195.421 408.11 204.778C413.515 214.139 412.451 225.46 406.305 233.564C406.565 233.779 406.79 234.026 406.974 234.306C407.008 234.358 407.04 234.411 407.071 234.465C408.522 236.976 406.329 240.957 402.175 243.355C398.143 245.683 393.745 245.665 392.164 243.366C392.116 243.296 392.07 243.224 392.027 243.15C392.011 243.122 391.995 243.093 391.979 243.064C380.947 245.881 368.951 241.181 362.978 230.835C357.005 220.49 358.932 207.752 366.888 199.606L366.868 199.573L366.858 199.556C366.815 199.482 366.776 199.406 366.739 199.33C365.539 196.811 367.723 192.993 371.754 190.665C375.909 188.267 380.452 188.359 381.902 190.87C381.933 190.924 381.963 190.979 381.99 191.034C382.135 191.322 382.235 191.628 382.292 191.946ZM373.039 193.976C370.958 195.177 369.127 196.667 367.558 198.385C367.394 197.639 367.554 196.684 368.156 195.592C368.931 194.184 370.362 192.723 372.297 191.605C374.232 190.488 376.213 189.979 377.82 190.012C379.301 190.042 380.302 190.513 380.819 191.198C378.117 191.645 375.492 192.56 373.039 193.976ZM393.391 243.13C395.664 242.63 397.869 241.789 399.95 240.588C402.403 239.171 404.507 237.355 406.246 235.239C406.58 236.029 406.488 237.131 405.774 238.429C404.998 239.837 403.567 241.298 401.632 242.415C399.697 243.532 397.716 244.041 396.109 244.009C394.862 243.983 393.956 243.645 393.391 243.13ZM425.444 173.458C428.192 171.871 431.099 171.251 433.55 171.483C436.004 171.716 437.904 172.783 438.881 174.475C439.859 176.168 439.832 178.347 438.807 180.589C437.783 182.827 435.792 185.035 433.044 186.622C430.295 188.208 427.388 188.829 424.938 188.596C422.484 188.364 420.584 187.297 419.606 185.604C418.629 183.911 418.655 181.732 419.681 179.491C420.705 177.252 422.695 175.045 425.444 173.458ZM439.822 173.933C437.783 170.401 432.65 169.414 427.567 171.269L427.317 170.509C424.957 171.289 421.235 172.852 417.702 175.021C414.497 176.989 411.381 179.496 409.62 182.421L405.134 174.651L405.505 174.718C405.796 173.107 405.664 169.282 402.682 166.935L402.582 166.856L402.458 166.83C400.112 166.336 396.564 165.867 393.553 166.084C392.052 166.192 390.632 166.474 389.555 167.048C388.454 167.634 387.676 168.553 387.608 169.889L387.603 169.979L387.628 170.065C388.066 171.597 390.016 174.766 394.403 176.464C394.393 178.177 394.548 180.796 395.044 183.64C395.585 186.75 396.541 190.168 398.16 192.972L399.1 192.429C397.57 189.779 396.644 186.5 396.113 183.454C395.647 180.779 395.491 178.313 395.488 176.663C395.692 176.731 395.945 176.818 396.256 176.927C396.833 177.131 397.548 177.159 398.279 177.103C399.022 177.045 399.833 176.895 400.632 176.702C402.01 176.368 403.388 175.897 404.376 175.51L409.161 183.799L409.669 184.677L410.118 183.768C411.61 180.75 414.803 178.075 418.27 175.946C420.414 174.63 422.632 173.541 424.554 172.724C418.949 176.134 416.316 182.076 418.666 186.147C418.666 186.147 418.666 186.147 418.666 186.147L414.435 188.59C412.358 189.789 411.646 192.445 412.845 194.522L419.088 205.335C420.287 207.412 422.943 208.124 425.021 206.925L429.252 204.482C431.602 208.553 438.064 209.243 443.82 206.095C442.152 207.35 440.1 208.727 437.888 209.925C434.311 211.863 430.398 213.291 427.038 213.074L426.026 213.009L426.533 213.887L431.319 222.176C430.49 222.838 429.392 223.796 428.415 224.822C427.848 225.418 427.312 226.045 426.891 226.659C426.476 227.265 426.144 227.898 426.031 228.499C425.97 228.824 425.919 229.086 425.876 229.296C424.449 228.47 422.391 227.101 420.307 225.36C417.935 223.377 415.558 220.935 414.028 218.286L413.088 218.829C414.707 221.633 417.189 224.169 419.611 226.193C421.684 227.925 423.735 229.3 425.209 230.164C424.326 235.014 426.162 238.434 427.299 239.61L427.362 239.675L427.442 239.716C428.633 240.326 429.817 240.111 430.876 239.451C431.911 238.805 432.866 237.716 433.71 236.47C435.403 233.971 436.771 230.664 437.516 228.385L437.555 228.264L437.537 228.139C437.017 224.531 434.001 222.519 432.398 221.875L427.955 214.179C431.37 214.116 435.099 212.671 438.405 210.879C442.05 208.905 445.265 206.463 447.119 204.809L446.587 204.212C450.735 200.738 452.446 195.799 450.407 192.268C449.533 190.753 448.09 189.707 446.326 189.152L446.874 188.419C443.061 185.567 441.622 180.881 441.388 178.917L440.479 179.025C440.881 177.22 440.696 175.447 439.822 173.933ZM429.001 204C427.817 201.467 428.41 198.318 430.341 195.512L430.219 195.301L429.745 194.48L427.575 190.721L427.101 189.899L426.979 189.688C423.584 189.958 420.56 188.897 418.958 186.605L418.938 186.617L418.015 187.15L414.706 189.06C412.889 190.109 412.266 192.433 413.315 194.251L419.558 205.064C420.608 206.881 422.932 207.504 424.749 206.455L428.057 204.545L428.98 204.012L429.001 204ZM427.571 189.628C429.54 189.385 431.611 188.702 433.587 187.562C437.126 185.518 439.546 182.473 440.37 179.466C440.748 181.718 442.248 186.112 445.881 189.024C442.866 188.237 439.023 188.811 435.487 190.853C433.511 191.993 431.885 193.446 430.69 195.03L427.571 189.628ZM402.108 167.866C404.423 169.765 404.67 172.798 404.472 174.3L404.402 174.329C403.453 174.723 401.909 175.276 400.377 175.646C399.611 175.832 398.86 175.969 398.196 176.02C397.52 176.072 396.983 176.032 396.616 175.903C395.684 175.575 395.2 175.424 394.983 175.381C394.952 175.374 394.916 175.368 394.878 175.364C394.853 175.362 394.775 175.354 394.685 175.373C394.672 175.376 394.653 175.38 394.631 175.387C390.775 173.836 389.093 171.092 388.698 169.854C388.769 169.04 389.238 168.447 390.065 168.006C390.946 167.537 392.19 167.271 393.631 167.167C396.45 166.964 399.816 167.393 402.108 167.866ZM444.136 189.818C441.685 189.586 438.778 190.206 436.03 191.793C433.281 193.38 431.29 195.587 430.266 197.826C429.241 200.067 429.215 202.246 430.192 203.939C431.169 205.632 433.07 206.699 435.523 206.931C437.974 207.164 440.881 206.544 443.63 204.957C446.378 203.37 448.369 201.162 449.393 198.924C450.418 196.682 450.445 194.503 449.467 192.811C448.49 191.118 446.59 190.051 444.136 189.818ZM432.113 222.931C431.305 223.569 430.186 224.537 429.201 225.571C428.657 226.142 428.164 226.723 427.787 227.273C427.404 227.832 427.17 228.317 427.098 228.699C426.916 229.671 426.805 230.165 426.734 230.375C426.724 230.405 426.711 230.439 426.696 230.474C426.685 230.497 426.653 230.568 426.591 230.637C426.561 230.671 426.487 230.746 426.365 230.79C426.312 230.809 426.257 230.82 426.201 230.822C425.591 234.971 427.138 237.824 428.017 238.789C428.758 239.135 429.506 239.026 430.301 238.53C431.148 238.002 432.001 237.057 432.811 235.861C434.396 233.521 435.707 230.392 436.443 228.17C435.963 225.257 433.523 223.535 432.113 222.931ZM426.706 230.204C426.706 230.204 426.706 230.202 426.706 230.197C426.707 230.201 426.707 230.204 426.706 230.204ZM395.118 175.49C395.118 175.49 395.118 175.491 395.119 175.491L395.123 175.494C395.12 175.492 395.118 175.49 395.118 175.49Z" fill="white"/>
</g>
<g style="mix-blend-mode:hard-light" filter="url(#filter2_f_474_7772)">
<circle cx="385.622" cy="217.942" r="23.4514" transform="rotate(-120 385.622 217.942)" fill="#128DFF" fill-opacity="0.2"/>
</g>
<g style="mix-blend-mode:hard-light" filter="url(#filter3_f_474_7772)">
<circle cx="385.622" cy="217.942" r="18.8371" transform="rotate(-120 385.622 217.942)" stroke="#0094FF" stroke-width="1.41143"/>
</g>
<g style="mix-blend-mode:hard-light" filter="url(#filter4_f_474_7772)">
<circle cx="385.622" cy="217.942" r="18.62" transform="rotate(-120 385.622 217.942)" stroke="#0094FF" stroke-width="1.84571"/>
</g>
<g style="mix-blend-mode:hard-light" filter="url(#filter5_ddi_474_7772)">
<circle cx="385.622" cy="217.942" r="18.8371" transform="rotate(-120 385.622 217.942)" stroke="#00B3FF" stroke-opacity="0.2" stroke-width="1.41143"/>
</g>
<g filter="url(#filter6_f_474_7772)">
<circle cx="385.622" cy="217.942" r="19.1086" transform="rotate(-120 385.622 217.942)" stroke="#82D9FF" stroke-width="0.868571"/>
</g>
<g filter="url(#filter7_f_474_7772)">
<circle cx="385.622" cy="217.942" r="19.3257" transform="rotate(-120 385.622 217.942)" stroke="white" stroke-width="0.434286"/>
</g>
<path fill-rule="evenodd" clip-rule="evenodd" d="M187.791 111.029H181.777H178.988V111.173C165.51 112.568 155 123.96 155 137.806C155 151.653 165.51 163.045 178.988 164.439V164.583H181.777H231.426H232.541V164.56C246.812 163.975 258.202 152.221 258.202 137.806C258.202 135.293 257.856 132.86 257.209 130.554H263.223H264.339V130.531C278.61 129.946 290 118.192 290 103.777C290 89.3624 278.61 77.608 264.339 77.0231V77.0002H263.223H210.785V77.1439C197.308 78.5388 186.798 89.9306 186.798 103.777C186.798 106.29 187.144 108.723 187.791 111.029Z" fill="#4AC7D1"/>
<path fill-rule="evenodd" clip-rule="evenodd" d="M531.692 305.322H528.63H527.211V305.395C520.35 306.105 515 311.904 515 318.953C515 326.001 520.35 331.8 527.211 332.51V332.583H528.63H553.904H554.471V332.571C561.736 332.274 567.534 326.29 567.534 318.953C567.534 317.673 567.358 316.435 567.028 315.261H570.09H570.658V315.249C577.922 314.951 583.72 308.968 583.72 301.63C583.72 294.293 577.922 288.309 570.658 288.012V288H570.09H543.397V288.073C536.536 288.783 531.186 294.582 531.186 301.631C531.186 302.91 531.362 304.148 531.692 305.322Z" fill="#FC6EB3"/>
<circle cx="612" cy="137" r="32" fill="#4AC7D1"/>
<circle cx="108" cy="218" r="12" fill="#FC6EB3"/>
<defs>
<filter id="filter0_f_474_7772" x="357.311" y="163.858" width="96.1275" height="83.4093" filterUnits="userSpaceOnUse" color-interpolation-filters="sRGB">
<feFlood flood-opacity="0" result="BackgroundImageFix"/>
<feBlend mode="normal" in="SourceGraphic" in2="BackgroundImageFix" result="shape"/>
<feGaussianBlur stdDeviation="1.08571" result="effect1_foregroundBlur_474_7772"/>
</filter>
<filter id="filter1_f_474_7772" x="358.94" y="165.486" width="92.8704" height="80.1521" filterUnits="userSpaceOnUse" color-interpolation-filters="sRGB">
<feFlood flood-opacity="0" result="BackgroundImageFix"/>
<feBlend mode="normal" in="SourceGraphic" in2="BackgroundImageFix" result="shape"/>
<feGaussianBlur stdDeviation="0.271429" result="effect1_foregroundBlur_474_7772"/>
</filter>
<filter id="filter2_f_474_7772" x="355.652" y="187.973" width="59.9392" height="59.9392" filterUnits="userSpaceOnUse" color-interpolation-filters="sRGB">
<feFlood flood-opacity="0" result="BackgroundImageFix"/>
<feBlend mode="normal" in="SourceGraphic" in2="BackgroundImageFix" result="shape"/>
<feGaussianBlur stdDeviation="3.25714" result="effect1_foregroundBlur_474_7772"/>
</filter>
<filter id="filter3_f_474_7772" x="359.562" y="191.881" width="52.1206" height="52.1209" filterUnits="userSpaceOnUse" color-interpolation-filters="sRGB">
<feFlood flood-opacity="0" result="BackgroundImageFix"/>
<feBlend mode="normal" in="SourceGraphic" in2="BackgroundImageFix" result="shape"/>
<feGaussianBlur stdDeviation="3.25714" result="effect1_foregroundBlur_474_7772"/>
</filter>
<filter id="filter4_f_474_7772" x="363.905" y="196.224" width="43.4349" height="43.4351" filterUnits="userSpaceOnUse" color-interpolation-filters="sRGB">
<feFlood flood-opacity="0" result="BackgroundImageFix"/>
<feBlend mode="normal" in="SourceGraphic" in2="BackgroundImageFix" result="shape"/>
<feGaussianBlur stdDeviation="1.08571" result="effect1_foregroundBlur_474_7772"/>
</filter>
<filter id="filter5_ddi_474_7772" x="363.253" y="197.744" width="44.7378" height="44.738" filterUnits="userSpaceOnUse" color-interpolation-filters="sRGB">
<feFlood flood-opacity="0" result="BackgroundImageFix"/>
<feColorMatrix in="SourceAlpha" type="matrix" values="0 0 0 0 0 0 0 0 0 0 0 0 0 0 0 0 0 0 127 0" result="hardAlpha"/>
<feOffset dy="1.41143"/>
<feGaussianBlur stdDeviation="0.542857"/>
<feColorMatrix type="matrix" values="0 0 0 0 0 0 0 0 0 0.051 0 0 0 0 0.082 0 0 0 0.7 0"/>
<feBlend mode="multiply" in2="BackgroundImageFix" result="effect1_dropShadow_474_7772"/>
<feColorMatrix in="SourceAlpha" type="matrix" values="0 0 0 0 0 0 0 0 0 0 0 0 0 0 0 0 0 0 127 0" result="hardAlpha"/>
<feOffset dy="2.17143"/>
<feGaussianBlur stdDeviation="1.41143"/>
<feColorMatrix type="matrix" values="0 0 0 0 0 0 0 0 0 0.4 0 0 0 0 1 0 0 0 1 0"/>
<feBlend mode="color-dodge" in2="effect1_dropShadow_474_7772" result="effect2_dropShadow_474_7772"/>
<feBlend mode="normal" in="SourceGraphic" in2="effect2_dropShadow_474_7772" result="shape"/>
<feColorMatrix in="SourceAlpha" type="matrix" values="0 0 0 0 0 0 0 0 0 0 0 0 0 0 0 0 0 0 127 0" result="hardAlpha"/>
<feOffset dx="-0.141143" dy="0.282286"/>
<feGaussianBlur stdDeviation="0.0705714"/>
<feComposite in2="hardAlpha" operator="arithmetic" k2="-1" k3="1"/>
<feColorMatrix type="matrix" values="0 0 0 0 1 0 0 0 0 1 0 0 0 0 1 0 0 0 0.5 0"/>
<feBlend mode="normal" in2="shape" result="effect3_innerShadow_474_7772"/>
</filter>
<filter id="filter6_f_474_7772" x="365.859" y="198.179" width="39.5263" height="39.5266" filterUnits="userSpaceOnUse" color-interpolation-filters="sRGB">
<feFlood flood-opacity="0" result="BackgroundImageFix"/>
<feBlend mode="normal" in="SourceGraphic" in2="BackgroundImageFix" result="shape"/>
<feGaussianBlur stdDeviation="0.108571" result="effect1_foregroundBlur_474_7772"/>
</filter>
<filter id="filter7_f_474_7772" x="365.931" y="198.251" width="39.3816" height="39.3818" filterUnits="userSpaceOnUse" color-interpolation-filters="sRGB">
<feFlood flood-opacity="0" result="BackgroundImageFix"/>
<feBlend mode="normal" in="SourceGraphic" in2="BackgroundImageFix" result="shape"/>
<feGaussianBlur stdDeviation="0.072381" result="effect1_foregroundBlur_474_7772"/>
</filter>
</defs>
</svg>
