<svg width="320" height="309" viewBox="0 0 320 309" fill="none" xmlns="http://www.w3.org/2000/svg">
<g clip-path="url(#clip0_477_8655)">
<path d="M193.564 -53.3705C254.868 -49.541 311.301 -37.8223 365.142 -22.4756C403.889 -11.3845 444.496 -3.05956 485.805 5.16293C547.074 17.524 599.065 35.3322 609.807 66.714C622.967 106.189 625.384 145.065 595.968 181.259C583.088 197.273 572.285 213.586 548.069 226.827C509.248 248.19 453.71 255.127 390.433 256.645C296.558 258.769 210.645 230.662 168.971 199.708C147.122 183.552 138.173 166.315 136.536 148.676C135.874 140.247 134.858 131.947 133.849 123.495C132.007 110.414 117.903 99.675 94.7084 90.2808C56.1584 74.7836 27.8066 56.4948 6.85588 35.8285C-38.3849 -8.48074 21.9277 -44.342 93.8605 -52.8746C125.974 -56.42 159.301 -56.0712 193.564 -53.3705Z" fill="#6A00B7"/>
</g>
<defs>
<clipPath id="clip0_477_8655">
<rect width="320" height="309" fill="white"/>
</clipPath>
</defs>
</svg>
