<svg width="125" height="173" viewBox="0 0 125 173" fill="none" xmlns="http://www.w3.org/2000/svg">
<circle cx="41" cy="105" r="12" fill="#6A00B7"/>
<path fill-rule="evenodd" clip-rule="evenodd" d="M47.946 35.6612H44.4711H42.8595V35.7441C35.0724 36.5501 29 43.132 29 51.1322C29 59.1324 35.0724 65.7144 42.8595 66.5203V66.6033H44.4711H73.157H73.8016V66.5901C82.0471 66.2522 88.6281 59.4607 88.6281 51.1322C88.6281 49.6801 88.428 48.2747 88.0539 46.9421H91.529H92.1736V46.9289C100.419 46.5909 107 39.7995 107 31.471C107 23.1425 100.419 16.3511 92.1736 16.0131V15.9999H91.529L61.2315 15.9999V16.0829C53.4443 16.8888 47.3719 23.4708 47.3719 31.4711C47.3719 32.9232 47.5719 34.3286 47.946 35.6612Z" fill="#4AC7D1"/>
</svg>
