<svg width="376" height="870" viewBox="0 0 376 870" fill="none" xmlns="http://www.w3.org/2000/svg">
<circle cx="200" cy="124" r="20" transform="rotate(-90 200 124)" fill="#6A00B7"/>
<path fill-rule="evenodd" clip-rule="evenodd" d="M219.52 433.101C226.415 445.045 222.323 460.317 210.38 467.213C198.436 474.109 183.164 470.016 176.268 458.073C169.372 446.129 173.464 430.857 185.408 423.961C197.352 417.065 212.624 421.158 219.52 433.101ZM223.754 442.335C225.018 452.422 220.279 462.751 210.922 468.153C201.561 473.558 190.24 472.494 182.136 466.348C181.922 466.608 181.674 466.833 181.394 467.017C181.342 467.051 181.29 467.083 181.236 467.114C178.724 468.565 174.744 466.372 172.345 462.218C170.017 458.186 170.035 453.788 172.334 452.207C172.404 452.159 172.476 452.113 172.55 452.07C172.579 452.054 172.608 452.038 172.637 452.022C169.82 440.99 174.52 428.994 184.865 423.021C195.21 417.048 207.949 418.975 216.094 426.931C216.111 426.921 216.128 426.911 216.145 426.901C216.219 426.858 216.294 426.819 216.371 426.782C218.89 425.582 222.708 427.766 225.035 431.797C227.434 435.952 227.342 440.495 224.83 441.945C224.776 441.976 224.722 442.006 224.667 442.034C224.379 442.178 224.073 442.278 223.754 442.335ZM221.725 433.082C220.523 431.001 219.033 429.17 217.316 427.601C218.062 427.437 219.016 427.597 220.109 428.199C221.517 428.974 222.978 430.406 224.095 432.34C225.212 434.275 225.721 436.256 225.689 437.863C225.659 439.344 225.187 440.345 224.502 440.862C224.055 438.16 223.141 435.535 221.725 433.082ZM172.57 453.434C173.071 455.707 173.911 457.912 175.113 459.993C176.529 462.446 178.345 464.55 180.462 466.289C179.672 466.623 178.569 466.531 177.272 465.817C175.864 465.041 174.402 463.61 173.285 461.675C172.168 459.74 171.659 457.759 171.692 456.152C171.717 454.905 172.055 453.999 172.57 453.434ZM242.242 485.487C243.829 488.235 244.449 491.142 244.217 493.593C243.984 496.047 242.918 497.947 241.225 498.924C239.532 499.902 237.353 499.875 235.112 498.85C232.873 497.826 230.666 495.835 229.079 493.087C227.492 490.338 226.872 487.431 227.104 484.981C227.337 482.527 228.404 480.627 230.096 479.649C231.789 478.672 233.968 478.698 236.209 479.724C238.448 480.748 240.656 482.738 242.242 485.487ZM241.768 499.865C245.299 497.826 246.287 492.693 244.431 487.61L245.191 487.359C244.412 485 242.848 481.278 240.68 477.745C238.712 474.54 236.205 471.424 233.279 469.663L241.049 465.177L240.982 465.548C242.594 465.839 246.419 465.707 248.766 462.725L248.844 462.625L248.87 462.501C249.365 460.155 249.834 456.607 249.617 453.596C249.508 452.095 249.227 450.675 248.653 449.597C248.066 448.497 247.148 447.719 245.812 447.651L245.722 447.646L245.635 447.671C244.103 448.109 240.935 450.059 239.236 454.446C237.524 454.436 234.905 454.591 232.06 455.086C228.951 455.628 225.533 456.584 222.729 458.203L223.272 459.143C225.921 457.613 229.2 456.687 232.246 456.156C234.922 455.69 237.388 455.534 239.037 455.531C238.969 455.735 238.883 455.988 238.773 456.299C238.57 456.876 238.541 457.591 238.598 458.322C238.655 459.065 238.805 459.876 238.999 460.675C239.332 462.053 239.803 463.431 240.191 464.419L231.902 469.204L231.023 469.712L231.932 470.161C234.95 471.653 237.626 474.846 239.754 478.313C241.071 480.457 242.16 482.675 242.977 484.597C239.566 478.992 233.625 476.358 229.553 478.709L229.011 477.769L227.111 474.478C225.911 472.401 223.255 471.689 221.178 472.888L210.365 479.131C208.288 480.33 207.576 482.986 208.776 485.064L211.219 489.295C207.147 491.645 206.458 498.108 209.606 503.864C208.35 502.195 206.974 500.143 205.776 497.931C203.837 494.354 202.41 490.441 202.627 487.081L202.692 486.069L201.813 486.576L193.524 491.362C192.862 490.532 191.905 489.435 190.878 488.458C190.283 487.891 189.655 487.355 189.041 486.934C188.436 486.519 187.803 486.187 187.201 486.074C186.877 486.013 186.615 485.962 186.404 485.919C187.231 484.492 188.599 482.434 190.341 480.35C192.324 477.978 194.765 475.601 197.415 474.071L196.872 473.131C194.068 474.75 191.531 477.232 189.508 479.654C187.775 481.727 186.4 483.778 185.536 485.252C180.686 484.369 177.266 486.205 176.09 487.342L176.025 487.405L175.984 487.485C175.375 488.676 175.59 489.86 176.249 490.919C176.895 491.954 177.985 492.909 179.23 493.753C181.729 495.446 185.037 496.814 187.316 497.559L187.436 497.598L187.562 497.58C191.17 497.06 193.182 494.044 193.826 492.441L201.521 487.998C201.584 491.413 203.029 495.141 204.821 498.448C206.796 502.093 209.237 505.308 210.891 507.162L211.489 506.63C214.962 510.778 219.901 512.489 223.433 510.45C224.947 509.576 225.994 508.133 226.549 506.369L227.281 506.917C230.134 503.103 234.819 501.665 236.783 501.431L236.675 500.522C238.48 500.924 240.253 500.739 241.768 499.865ZM211.664 489.061C214.203 487.854 217.369 488.444 220.188 490.384L220.399 490.262L221.221 489.788L224.98 487.618L225.801 487.144L226.012 487.022C226.028 487.218 226.048 487.415 226.073 487.614L220.671 490.733C222.255 491.928 223.707 493.554 224.848 495.53C226.889 499.066 227.463 502.909 226.677 505.924C229.588 502.291 233.983 500.791 236.235 500.413C233.228 499.589 230.182 497.169 228.139 493.63C224.894 488.01 225.357 481.614 229.095 479.001C229.095 479.001 229.095 479.001 229.095 479.001L229.083 478.98L228.551 478.057L226.641 474.749C225.591 472.932 223.267 472.309 221.45 473.358L210.637 479.601C208.819 480.651 208.196 482.975 209.246 484.792L211.156 488.1L211.689 489.023L211.7 489.044C211.688 489.049 211.676 489.055 211.664 489.061ZM247.834 462.151C245.935 464.466 242.902 464.712 241.401 464.515L241.372 464.445C240.977 463.496 240.425 461.952 240.054 460.42C239.869 459.654 239.732 458.903 239.68 458.239C239.628 457.563 239.668 457.026 239.797 456.659C240.126 455.727 240.276 455.243 240.32 455.026C240.326 454.995 240.332 454.959 240.336 454.921C240.339 454.896 240.346 454.818 240.327 454.728C240.324 454.715 240.32 454.696 240.313 454.674C241.864 450.818 244.609 449.136 245.846 448.741C246.66 448.812 247.254 449.281 247.695 450.108C248.164 450.989 248.43 452.233 248.534 453.674C248.737 456.493 248.307 459.859 247.834 462.151ZM225.882 504.179C226.115 501.728 225.494 498.821 223.907 496.073C222.321 493.324 220.113 491.333 217.875 490.309C215.633 489.284 213.454 489.258 211.761 490.235C210.069 491.212 209.002 493.113 208.769 495.566C208.537 498.017 209.157 500.924 210.744 503.673C212.331 506.421 214.538 508.412 216.777 509.436C219.018 510.461 221.197 510.488 222.89 509.51C224.583 508.533 225.649 506.633 225.882 504.179ZM192.769 492.156C192.132 491.348 191.164 490.229 190.129 489.244C189.559 488.7 188.977 488.207 188.427 487.83C187.869 487.447 187.383 487.213 187.001 487.141C186.029 486.959 185.535 486.848 185.326 486.777C185.296 486.767 185.261 486.754 185.226 486.739C185.203 486.728 185.132 486.696 185.063 486.634C185.03 486.604 184.954 486.53 184.91 486.408C184.891 486.355 184.88 486.3 184.878 486.244C180.729 485.634 177.877 487.181 176.911 488.06C176.566 488.801 176.675 489.549 177.171 490.344C177.699 491.191 178.643 492.044 179.839 492.854C182.179 494.439 185.309 495.75 187.53 496.486C190.443 496.006 192.166 493.566 192.769 492.156ZM185.497 486.749C185.497 486.749 185.499 486.749 185.503 486.749C185.499 486.749 185.497 486.75 185.497 486.749ZM240.21 455.161C240.21 455.161 240.21 455.161 240.209 455.162L240.207 455.166L240.209 455.162L240.21 455.161Z" fill="white"/>
<g filter="url(#filter0_f_474_8452)">
<path fill-rule="evenodd" clip-rule="evenodd" d="M219.99 432.83C226.885 444.774 222.793 460.046 210.85 466.942C198.906 473.837 183.634 469.745 176.738 457.801C169.842 445.858 173.935 430.585 185.878 423.69C197.822 416.794 213.094 420.886 219.99 432.83ZM224.224 442.064C225.488 452.151 220.749 462.48 211.392 467.882C202.031 473.287 190.71 472.222 182.606 466.077C182.392 466.337 182.144 466.562 181.864 466.746C181.813 466.779 181.76 466.812 181.706 466.843C179.194 468.293 175.214 466.101 172.815 461.947C170.487 457.915 170.505 453.517 172.804 451.935C172.874 451.887 172.946 451.842 173.02 451.799C173.049 451.782 173.078 451.766 173.107 451.751C170.29 440.718 174.99 428.722 185.335 422.75C195.68 416.777 208.419 418.704 216.564 426.659L216.593 426.642L216.615 426.63C216.689 426.587 216.764 426.547 216.841 426.511C219.36 425.311 223.178 427.494 225.505 431.526C227.904 435.68 227.812 440.224 225.3 441.674C225.246 441.705 225.192 441.734 225.137 441.762C224.849 441.907 224.543 442.007 224.224 442.064ZM222.195 432.811C220.993 430.729 219.503 428.899 217.786 427.329C218.532 427.165 219.486 427.326 220.579 427.927C221.987 428.703 223.448 430.134 224.565 432.069C225.682 434.004 226.191 435.985 226.159 437.592C226.129 439.073 225.657 440.074 224.973 440.591C224.525 437.888 223.611 435.263 222.195 432.811ZM173.04 453.163C173.541 455.435 174.381 457.641 175.583 459.722C176.999 462.175 178.815 464.279 180.932 466.018C180.142 466.352 179.039 466.26 177.742 465.546C176.334 464.77 174.872 463.339 173.755 461.404C172.638 459.469 172.129 457.488 172.162 455.881C172.187 454.634 172.525 453.727 173.04 453.163ZM242.713 485.215C244.299 487.964 244.92 490.871 244.687 493.322C244.454 495.775 243.388 497.676 241.695 498.653C240.002 499.63 237.823 499.604 235.582 498.579C233.343 497.555 231.136 495.564 229.549 492.815C227.962 490.067 227.342 487.16 227.574 484.709C227.807 482.256 228.874 480.355 230.566 479.378C232.259 478.401 234.438 478.427 236.68 479.452C238.918 480.476 241.126 482.467 242.713 485.215ZM242.238 499.593C245.769 497.554 246.757 492.421 244.901 487.339L245.661 487.088C244.882 484.728 243.319 481.006 241.15 477.474C239.182 474.269 236.675 471.153 233.749 469.391L241.519 464.905L241.452 465.277C243.064 465.568 246.889 465.436 249.236 462.453L249.314 462.354L249.34 462.23C249.835 459.884 250.304 456.336 250.087 453.325C249.979 451.824 249.697 450.403 249.123 449.326C248.536 448.226 247.618 447.447 246.282 447.38L246.192 447.375L246.105 447.4C244.573 447.838 241.405 449.787 239.706 454.175C237.994 454.164 235.375 454.319 232.53 454.815C229.421 455.357 226.003 456.312 223.199 457.931L223.742 458.871C226.391 457.342 229.67 456.416 232.717 455.885C235.392 455.418 237.858 455.262 239.507 455.26C239.44 455.464 239.353 455.716 239.243 456.028C239.04 456.605 239.011 457.319 239.068 458.051C239.126 458.793 239.276 459.605 239.469 460.404C239.802 461.782 240.274 463.16 240.661 464.147L232.372 468.933L231.493 469.44L232.402 469.89C235.42 471.382 238.096 474.575 240.224 478.042C241.541 480.186 242.63 482.404 243.447 484.326C240.036 478.721 234.095 476.087 230.024 478.438L229.481 477.497L227.581 474.206C226.381 472.129 223.725 471.418 221.648 472.617L210.835 478.86C208.758 480.059 208.046 482.715 209.246 484.792L211.146 488.083L211.689 489.023C211.846 488.932 212.007 488.848 212.17 488.772L212.159 488.752L211.626 487.829L209.716 484.521C208.667 482.703 209.289 480.379 211.107 479.33L221.92 473.087C223.737 472.038 226.061 472.66 227.111 474.478L229.021 477.786L229.553 478.709L229.565 478.729C229.565 478.729 229.565 478.729 229.565 478.729C225.827 481.343 225.364 487.738 228.609 493.358C230.652 496.898 233.698 499.318 236.705 500.142C234.453 500.519 230.058 502.02 227.147 505.653C227.933 502.638 227.36 498.795 225.318 495.258C224.177 493.283 222.725 491.656 221.141 490.461L226.543 487.343C226.518 487.144 226.498 486.947 226.482 486.75L226.271 486.872L225.45 487.347L221.691 489.517L220.87 489.991L220.658 490.113C217.672 488.057 214.297 487.518 211.689 489.023C207.617 491.374 206.928 497.837 210.076 503.593C208.821 501.924 207.444 499.872 206.246 497.66C204.307 494.083 202.88 490.169 203.097 486.81L203.162 485.797L202.283 486.305L193.994 491.09C193.333 490.261 192.375 489.164 191.348 488.186C190.753 487.619 190.125 487.084 189.511 486.663C188.906 486.248 188.273 485.915 187.671 485.803C187.347 485.742 187.085 485.691 186.874 485.648C187.701 484.22 189.069 482.163 190.811 480.079C192.794 477.706 195.235 475.33 197.885 473.8L197.342 472.86C194.538 474.479 192.002 476.961 189.978 479.383C188.246 481.455 186.87 483.506 186.006 484.981C181.156 484.098 177.736 485.933 176.56 487.071L176.495 487.133L176.454 487.214C175.845 488.404 176.06 489.589 176.72 490.647C177.365 491.683 178.455 492.637 179.7 493.481C182.199 495.175 185.507 496.543 187.786 497.287L187.906 497.327L188.032 497.309C191.64 496.789 193.652 493.773 194.296 492.17L201.991 487.727C202.054 491.141 203.499 494.87 205.291 498.177C207.266 501.821 209.707 505.036 211.361 506.891L211.959 506.358C215.432 510.506 220.371 512.218 223.903 510.179C225.417 509.305 226.464 507.862 227.019 506.097L227.751 506.645C230.604 502.832 235.29 501.393 237.253 501.159L237.145 500.251C238.951 500.652 240.724 500.468 242.238 499.593ZM248.304 461.879C246.405 464.195 243.372 464.441 241.871 464.243L241.842 464.173C241.447 463.225 240.895 461.681 240.524 460.149C240.339 459.383 240.202 458.632 240.15 457.967C240.098 457.292 240.138 456.755 240.267 456.388C240.596 455.455 240.746 454.972 240.79 454.755C240.796 454.724 240.802 454.688 240.806 454.65C240.809 454.624 240.816 454.547 240.797 454.456C240.794 454.443 240.79 454.425 240.783 454.403C242.334 450.547 245.079 448.865 246.317 448.47C247.13 448.541 247.724 449.01 248.165 449.837C248.634 450.717 248.9 451.962 249.004 453.403C249.207 456.222 248.778 459.588 248.304 461.879ZM226.352 503.908C226.585 501.457 225.964 498.55 224.378 495.801C222.791 493.053 220.583 491.062 218.345 490.038C216.103 489.013 213.924 488.986 212.231 489.964C210.539 490.941 209.472 492.841 209.239 495.295C209.007 497.746 209.627 500.653 211.214 503.401C212.801 506.15 215.008 508.14 217.247 509.164C219.488 510.19 221.667 510.216 223.36 509.239C225.053 508.261 226.12 506.361 226.352 503.908ZM193.239 491.885C192.602 491.077 191.634 489.957 190.6 488.973C190.029 488.429 189.447 487.935 188.897 487.558C188.339 487.175 187.853 486.941 187.471 486.87C186.499 486.688 186.005 486.577 185.796 486.506C185.766 486.496 185.731 486.483 185.696 486.467C185.673 486.457 185.602 486.425 185.533 486.363C185.5 486.333 185.424 486.259 185.38 486.136C185.361 486.084 185.35 486.029 185.348 485.973C181.199 485.363 178.347 486.91 177.381 487.789C177.036 488.529 177.145 489.277 177.641 490.073C178.169 490.92 179.114 491.772 180.309 492.582C182.649 494.168 185.779 495.479 188 496.215C190.913 495.735 192.636 493.295 193.239 491.885ZM185.967 486.478C185.967 486.478 185.969 486.478 185.973 486.478C185.969 486.478 185.967 486.478 185.967 486.478Z" fill="white"/>
</g>
<g filter="url(#filter1_f_474_8452)">
<path fill-rule="evenodd" clip-rule="evenodd" d="M219.99 432.83C226.885 444.774 222.793 460.046 210.85 466.942C198.906 473.837 183.634 469.745 176.738 457.801C169.842 445.858 173.935 430.585 185.878 423.69C197.822 416.794 213.094 420.886 219.99 432.83ZM224.224 442.064C225.488 452.151 220.749 462.48 211.392 467.882C202.031 473.287 190.71 472.222 182.606 466.077C182.392 466.337 182.144 466.562 181.864 466.746C181.813 466.779 181.76 466.812 181.706 466.843C179.194 468.293 175.214 466.101 172.815 461.947C170.487 457.915 170.505 453.517 172.804 451.935C172.874 451.887 172.946 451.842 173.02 451.799C173.049 451.782 173.078 451.766 173.107 451.751C170.29 440.718 174.99 428.722 185.335 422.75C195.68 416.777 208.419 418.704 216.564 426.659L216.593 426.642L216.615 426.63C216.689 426.587 216.764 426.547 216.841 426.511C219.36 425.311 223.178 427.494 225.505 431.526C227.904 435.68 227.812 440.224 225.3 441.674C225.246 441.705 225.192 441.734 225.137 441.762C224.849 441.907 224.543 442.007 224.224 442.064ZM222.195 432.811C220.993 430.729 219.503 428.899 217.786 427.329C218.532 427.165 219.486 427.326 220.579 427.927C221.987 428.703 223.448 430.134 224.565 432.069C225.682 434.004 226.191 435.985 226.159 437.592C226.129 439.073 225.657 440.074 224.973 440.591C224.525 437.888 223.611 435.263 222.195 432.811ZM173.04 453.163C173.541 455.435 174.381 457.641 175.583 459.722C176.999 462.175 178.815 464.279 180.932 466.018C180.142 466.352 179.039 466.26 177.742 465.546C176.334 464.77 174.872 463.339 173.755 461.404C172.638 459.469 172.129 457.488 172.162 455.881C172.187 454.634 172.525 453.727 173.04 453.163ZM242.713 485.215C244.299 487.964 244.92 490.871 244.687 493.322C244.454 495.775 243.388 497.676 241.695 498.653C240.002 499.63 237.823 499.604 235.582 498.579C233.343 497.555 231.136 495.564 229.549 492.815C227.962 490.067 227.342 487.16 227.574 484.709C227.807 482.256 228.874 480.355 230.566 479.378C232.259 478.401 234.438 478.427 236.68 479.452C238.918 480.476 241.126 482.467 242.713 485.215ZM242.238 499.593C245.769 497.554 246.757 492.421 244.901 487.339L245.661 487.088C244.882 484.728 243.319 481.006 241.15 477.474C239.182 474.269 236.675 471.153 233.749 469.391L241.519 464.905L241.452 465.277C243.064 465.568 246.889 465.436 249.236 462.453L249.314 462.354L249.34 462.23C249.835 459.884 250.304 456.336 250.087 453.325C249.979 451.824 249.697 450.403 249.123 449.326C248.536 448.226 247.618 447.447 246.282 447.38L246.192 447.375L246.105 447.4C244.573 447.838 241.405 449.787 239.706 454.175C237.994 454.164 235.375 454.319 232.53 454.815C229.421 455.357 226.003 456.312 223.199 457.931L223.742 458.871C226.391 457.342 229.67 456.416 232.717 455.885C235.392 455.418 237.858 455.262 239.507 455.26C239.44 455.464 239.353 455.716 239.243 456.028C239.04 456.605 239.011 457.319 239.068 458.051C239.126 458.793 239.276 459.605 239.469 460.404C239.802 461.782 240.274 463.16 240.661 464.147L232.372 468.933L231.493 469.44L232.402 469.89C235.42 471.382 238.096 474.575 240.224 478.042C241.541 480.186 242.63 482.404 243.447 484.326C240.036 478.721 234.095 476.087 230.024 478.438L229.481 477.497L227.581 474.206C226.381 472.129 223.725 471.418 221.648 472.617L210.835 478.86C208.758 480.059 208.046 482.715 209.246 484.792L211.146 488.083L211.689 489.023C211.846 488.932 212.007 488.848 212.17 488.772L212.159 488.752L211.626 487.829L209.716 484.521C208.667 482.703 209.289 480.379 211.107 479.33L221.92 473.087C223.737 472.038 226.061 472.66 227.111 474.478L229.021 477.786L229.553 478.709L229.565 478.729C229.565 478.729 229.565 478.729 229.565 478.729C225.827 481.343 225.364 487.738 228.609 493.358C230.652 496.898 233.698 499.318 236.705 500.142C234.453 500.519 230.058 502.02 227.147 505.653C227.933 502.638 227.36 498.795 225.318 495.258C224.177 493.283 222.725 491.656 221.141 490.461L226.543 487.343C226.518 487.144 226.498 486.947 226.482 486.75L226.271 486.872L225.45 487.347L221.691 489.517L220.87 489.991L220.658 490.113C217.672 488.057 214.297 487.518 211.689 489.023C207.617 491.374 206.928 497.837 210.076 503.593C208.821 501.924 207.444 499.872 206.246 497.66C204.307 494.083 202.88 490.169 203.097 486.81L203.162 485.797L202.283 486.305L193.994 491.09C193.333 490.261 192.375 489.164 191.348 488.186C190.753 487.619 190.125 487.084 189.511 486.663C188.906 486.248 188.273 485.915 187.671 485.803C187.347 485.742 187.085 485.691 186.874 485.648C187.701 484.22 189.069 482.163 190.811 480.079C192.794 477.706 195.235 475.33 197.885 473.8L197.342 472.86C194.538 474.479 192.002 476.961 189.978 479.383C188.246 481.455 186.87 483.506 186.006 484.981C181.156 484.098 177.736 485.933 176.56 487.071L176.495 487.133L176.454 487.214C175.845 488.404 176.06 489.589 176.72 490.647C177.365 491.683 178.455 492.637 179.7 493.481C182.199 495.175 185.507 496.543 187.786 497.287L187.906 497.327L188.032 497.309C191.64 496.789 193.652 493.773 194.296 492.17L201.991 487.727C202.054 491.141 203.499 494.87 205.291 498.177C207.266 501.821 209.707 505.036 211.361 506.891L211.959 506.358C215.432 510.506 220.371 512.218 223.903 510.179C225.417 509.305 226.464 507.862 227.019 506.097L227.751 506.645C230.604 502.832 235.29 501.393 237.253 501.159L237.145 500.251C238.951 500.652 240.724 500.468 242.238 499.593ZM248.304 461.879C246.405 464.195 243.372 464.441 241.871 464.243L241.842 464.173C241.447 463.225 240.895 461.681 240.524 460.149C240.339 459.383 240.202 458.632 240.15 457.967C240.098 457.292 240.138 456.755 240.267 456.388C240.596 455.455 240.746 454.972 240.79 454.755C240.796 454.724 240.802 454.688 240.806 454.65C240.809 454.624 240.816 454.547 240.797 454.456C240.794 454.443 240.79 454.425 240.783 454.403C242.334 450.547 245.079 448.865 246.317 448.47C247.13 448.541 247.724 449.01 248.165 449.837C248.634 450.717 248.9 451.962 249.004 453.403C249.207 456.222 248.778 459.588 248.304 461.879ZM226.352 503.908C226.585 501.457 225.964 498.55 224.378 495.801C222.791 493.053 220.583 491.062 218.345 490.038C216.103 489.013 213.924 488.986 212.231 489.964C210.539 490.941 209.472 492.841 209.239 495.295C209.007 497.746 209.627 500.653 211.214 503.401C212.801 506.15 215.008 508.14 217.247 509.164C219.488 510.19 221.667 510.216 223.36 509.239C225.053 508.261 226.12 506.361 226.352 503.908ZM193.239 491.885C192.602 491.077 191.634 489.957 190.6 488.973C190.029 488.429 189.447 487.935 188.897 487.558C188.339 487.175 187.853 486.941 187.471 486.87C186.499 486.688 186.005 486.577 185.796 486.506C185.766 486.496 185.731 486.483 185.696 486.467C185.673 486.457 185.602 486.425 185.533 486.363C185.5 486.333 185.424 486.259 185.38 486.136C185.361 486.084 185.35 486.029 185.348 485.973C181.199 485.363 178.347 486.91 177.381 487.789C177.036 488.529 177.145 489.277 177.641 490.073C178.169 490.92 179.114 491.772 180.309 492.582C182.649 494.168 185.779 495.479 188 496.215C190.913 495.735 192.636 493.295 193.239 491.885ZM185.967 486.478C185.967 486.478 185.969 486.478 185.973 486.478C185.969 486.478 185.967 486.478 185.967 486.478Z" fill="white"/>
</g>
<g style="mix-blend-mode:hard-light" filter="url(#filter2_f_474_8452)">
<circle cx="198.229" cy="445.394" r="23.4514" transform="rotate(-30 198.229 445.394)" fill="#128DFF" fill-opacity="0.2"/>
</g>
<g style="mix-blend-mode:hard-light" filter="url(#filter3_f_474_8452)">
<circle cx="198.229" cy="445.394" r="18.8371" transform="rotate(-30 198.229 445.394)" stroke="#0094FF" stroke-width="1.41143"/>
</g>
<g style="mix-blend-mode:hard-light" filter="url(#filter4_f_474_8452)">
<circle cx="198.229" cy="445.394" r="18.62" transform="rotate(-30 198.229 445.394)" stroke="#0094FF" stroke-width="1.84571"/>
</g>
<g style="mix-blend-mode:hard-light" filter="url(#filter5_ddi_474_8452)">
<circle cx="198.229" cy="445.394" r="18.8371" transform="rotate(-30 198.229 445.394)" stroke="#00B3FF" stroke-opacity="0.2" stroke-width="1.41143"/>
</g>
<g filter="url(#filter6_f_474_8452)">
<circle cx="198.229" cy="445.394" r="19.1086" transform="rotate(-30 198.229 445.394)" stroke="#82D9FF" stroke-width="0.868571"/>
</g>
<g filter="url(#filter7_f_474_8452)">
<circle cx="198.229" cy="445.394" r="19.3257" transform="rotate(-30 198.229 445.394)" stroke="white" stroke-width="0.434286"/>
</g>
<path fill-rule="evenodd" clip-rule="evenodd" d="M88.0827 635.738H82.0684H79.2791V635.881C65.8014 637.276 55.2915 648.668 55.2915 662.514C55.2915 676.361 65.8014 687.753 79.2791 689.148V689.291H82.0684H131.717H132.833V689.268C147.104 688.684 158.494 676.929 158.494 662.514C158.494 660.001 158.148 657.569 157.5 655.262H163.515H164.631V655.239C178.902 654.654 190.292 642.9 190.292 628.485C190.292 614.071 178.902 602.316 164.631 601.731V601.708H163.515H111.077V601.852C97.599 603.247 87.089 614.639 87.089 628.485C87.089 630.999 87.4353 633.431 88.0827 635.738Z" fill="#4AC7D1"/>
<path fill-rule="evenodd" clip-rule="evenodd" d="M294.623 313.67H291.562H290.142V313.744C283.281 314.454 277.931 320.253 277.931 327.301C277.931 334.349 283.281 340.148 290.142 340.858V340.931H291.562H316.835H317.403V340.92C324.667 340.622 330.465 334.639 330.465 327.301C330.465 326.022 330.289 324.783 329.96 323.609H333.021H333.589V323.598C340.854 323.3 346.652 317.316 346.652 309.979C346.652 302.641 340.854 296.658 333.589 296.36V296.348H333.021H306.328V296.422C299.468 297.132 294.118 302.931 294.118 309.979C294.118 311.258 294.294 312.496 294.623 313.67Z" fill="#FC6EB3"/>
<circle cx="168" cy="156" r="32" transform="rotate(-90 168 156)" fill="#4AC7D1"/>
<circle cx="220" cy="760" r="12" transform="rotate(-90 220 760)" fill="#FC6EB3"/>
<defs>
<filter id="filter0_f_474_8452" x="168.903" y="417.083" width="83.4094" height="96.1276" filterUnits="userSpaceOnUse" color-interpolation-filters="sRGB">
<feFlood flood-opacity="0" result="BackgroundImageFix"/>
<feBlend mode="normal" in="SourceGraphic" in2="BackgroundImageFix" result="shape"/>
<feGaussianBlur stdDeviation="1.08571" result="effect1_foregroundBlur_474_8452"/>
</filter>
<filter id="filter1_f_474_8452" x="170.532" y="418.711" width="80.1522" height="92.8705" filterUnits="userSpaceOnUse" color-interpolation-filters="sRGB">
<feFlood flood-opacity="0" result="BackgroundImageFix"/>
<feBlend mode="normal" in="SourceGraphic" in2="BackgroundImageFix" result="shape"/>
<feGaussianBlur stdDeviation="0.271429" result="effect1_foregroundBlur_474_8452"/>
</filter>
<filter id="filter2_f_474_8452" x="168.259" y="415.424" width="59.9392" height="59.9393" filterUnits="userSpaceOnUse" color-interpolation-filters="sRGB">
<feFlood flood-opacity="0" result="BackgroundImageFix"/>
<feBlend mode="normal" in="SourceGraphic" in2="BackgroundImageFix" result="shape"/>
<feGaussianBlur stdDeviation="3.25714" result="effect1_foregroundBlur_474_8452"/>
</filter>
<filter id="filter3_f_474_8452" x="172.168" y="419.333" width="52.1209" height="52.1209" filterUnits="userSpaceOnUse" color-interpolation-filters="sRGB">
<feFlood flood-opacity="0" result="BackgroundImageFix"/>
<feBlend mode="normal" in="SourceGraphic" in2="BackgroundImageFix" result="shape"/>
<feGaussianBlur stdDeviation="3.25714" result="effect1_foregroundBlur_474_8452"/>
</filter>
<filter id="filter4_f_474_8452" x="176.511" y="423.676" width="43.4351" height="43.4351" filterUnits="userSpaceOnUse" color-interpolation-filters="sRGB">
<feFlood flood-opacity="0" result="BackgroundImageFix"/>
<feBlend mode="normal" in="SourceGraphic" in2="BackgroundImageFix" result="shape"/>
<feGaussianBlur stdDeviation="1.08571" result="effect1_foregroundBlur_474_8452"/>
</filter>
<filter id="filter5_ddi_474_8452" x="175.86" y="425.196" width="44.738" height="44.738" filterUnits="userSpaceOnUse" color-interpolation-filters="sRGB">
<feFlood flood-opacity="0" result="BackgroundImageFix"/>
<feColorMatrix in="SourceAlpha" type="matrix" values="0 0 0 0 0 0 0 0 0 0 0 0 0 0 0 0 0 0 127 0" result="hardAlpha"/>
<feOffset dy="1.41143"/>
<feGaussianBlur stdDeviation="0.542857"/>
<feColorMatrix type="matrix" values="0 0 0 0 0 0 0 0 0 0.051 0 0 0 0 0.082 0 0 0 0.7 0"/>
<feBlend mode="multiply" in2="BackgroundImageFix" result="effect1_dropShadow_474_8452"/>
<feColorMatrix in="SourceAlpha" type="matrix" values="0 0 0 0 0 0 0 0 0 0 0 0 0 0 0 0 0 0 127 0" result="hardAlpha"/>
<feOffset dy="2.17143"/>
<feGaussianBlur stdDeviation="1.41143"/>
<feColorMatrix type="matrix" values="0 0 0 0 0 0 0 0 0 0.4 0 0 0 0 1 0 0 0 1 0"/>
<feBlend mode="color-dodge" in2="effect1_dropShadow_474_8452" result="effect2_dropShadow_474_8452"/>
<feBlend mode="normal" in="SourceGraphic" in2="effect2_dropShadow_474_8452" result="shape"/>
<feColorMatrix in="SourceAlpha" type="matrix" values="0 0 0 0 0 0 0 0 0 0 0 0 0 0 0 0 0 0 127 0" result="hardAlpha"/>
<feOffset dx="-0.141143" dy="0.282286"/>
<feGaussianBlur stdDeviation="0.0705714"/>
<feComposite in2="hardAlpha" operator="arithmetic" k2="-1" k3="1"/>
<feColorMatrix type="matrix" values="0 0 0 0 1 0 0 0 0 1 0 0 0 0 1 0 0 0 0.5 0"/>
<feBlend mode="normal" in2="shape" result="effect3_innerShadow_474_8452"/>
</filter>
<filter id="filter6_f_474_8452" x="178.465" y="425.63" width="39.5266" height="39.5266" filterUnits="userSpaceOnUse" color-interpolation-filters="sRGB">
<feFlood flood-opacity="0" result="BackgroundImageFix"/>
<feBlend mode="normal" in="SourceGraphic" in2="BackgroundImageFix" result="shape"/>
<feGaussianBlur stdDeviation="0.108571" result="effect1_foregroundBlur_474_8452"/>
</filter>
<filter id="filter7_f_474_8452" x="178.538" y="425.703" width="39.3818" height="39.3818" filterUnits="userSpaceOnUse" color-interpolation-filters="sRGB">
<feFlood flood-opacity="0" result="BackgroundImageFix"/>
<feBlend mode="normal" in="SourceGraphic" in2="BackgroundImageFix" result="shape"/>
<feGaussianBlur stdDeviation="0.072381" result="effect1_foregroundBlur_474_8452"/>
</filter>
</defs>
</svg>
